<svg width="70" height="70" viewBox="0 0 70 70" fill="none" xmlns="http://www.w3.org/2000/svg">
<circle opacity="0.1" cx="35" cy="35" r="35" fill="#F539F8"/>
<path d="M34.8146 33.1935C34.3126 33.0277 33.8406 32.9333 33.4216 32.7261C29.7077 30.891 26.0054 29.0352 22.2984 27.1887C22.0267 27.0528 21.8172 26.8778 21.8126 26.5532C21.808 26.2147 22.0175 26.0259 22.303 25.8832C25.9846 24.0481 29.6663 22.2084 33.3456 20.3688C34.4048 19.8392 35.4478 19.899 36.4931 20.4263C38.8577 21.6167 41.2316 22.7955 43.6008 23.979C44.8096 24.5823 46.0161 25.1878 47.2226 25.7934C47.2916 25.8279 47.3607 25.8601 47.4321 25.8947C47.7084 26.0236 47.8995 26.2239 47.8995 26.544C47.8995 26.8686 47.6946 27.0505 47.4229 27.184C45.7075 28.0383 43.9945 28.8971 42.2792 29.7513C40.2991 30.739 38.3282 31.7406 36.3365 32.7031C35.8622 32.931 35.3234 33.0323 34.8146 33.1935Z" fill="#F539F8"/>
<path d="M33.8602 42.8893C33.8602 44.9477 33.8625 47.0061 33.8579 49.0645C33.8556 49.7966 33.4434 50.0545 32.7688 49.7437C29.3934 48.1895 26.0157 46.64 22.6472 45.0743C21.5627 44.5701 21.0101 43.6882 21.0055 42.4955C20.9963 38.5721 21.0009 34.6487 21.0032 30.7253C21.0032 29.9678 21.4292 29.6869 22.1061 30.0001C25.5966 31.6095 29.0849 33.2281 32.5777 34.8306C33.4641 35.2382 33.874 35.9013 33.8671 36.8706C33.8533 38.8784 33.8625 40.8838 33.8625 42.8916C33.8625 42.8893 33.8602 42.8893 33.8602 42.8893Z" fill="#F539F8"/>
<path d="M35.848 42.8313C35.848 40.8121 35.8526 38.7928 35.8457 36.7736C35.8434 35.8618 36.2602 35.2332 37.0775 34.8556C40.5911 33.2347 44.107 31.6183 47.6205 29.9997C48.2606 29.705 48.7004 29.9698 48.7004 30.6674C48.705 34.63 48.7119 38.5902 48.6958 42.5527C48.6912 43.7661 48.0695 44.6135 46.9758 45.12C44.2451 46.3817 41.5121 47.6412 38.7814 48.9006C38.1965 49.17 37.614 49.4394 37.0315 49.7088C36.2394 50.0726 35.8457 49.8262 35.8457 48.9651C35.8457 46.9205 35.8457 44.8736 35.8457 42.829C35.8457 42.8313 35.8457 42.8313 35.848 42.8313Z" fill="#F539F8"/>
</svg>
