<svg width="70" height="70" viewBox="0 0 70 70" fill="none" xmlns="http://www.w3.org/2000/svg">
<circle opacity="0.1" cx="35" cy="35" r="35" fill="#EB5757"/>
<path d="M20.8416 32.9067C24.7077 32.9067 28.5465 32.9067 32.4127 32.9067C32.4127 38.4719 32.4127 44.0165 32.4127 49.616C32.2848 49.616 32.1637 49.616 32.0427 49.616C28.8753 49.616 25.7079 49.6183 22.5406 49.616C21.5084 49.616 20.8233 48.94 20.8233 47.9124C20.821 43.03 20.8233 38.1454 20.8233 33.263C20.8256 33.1465 20.8347 33.0346 20.8416 32.9067Z" fill="#EB5757"/>
<path d="M36.8789 49.6137C36.8789 44.0143 36.8789 38.4696 36.8789 32.9067C40.7154 32.9067 44.529 32.9067 48.3906 32.9067C48.3906 33.062 48.3906 33.1968 48.3906 33.3315C48.3906 38.1796 48.3906 43.0277 48.3906 47.8736C48.3906 48.9377 47.7307 49.6137 46.6802 49.6137C43.5243 49.616 40.3706 49.6137 37.2146 49.6137C37.1118 49.6137 37.0091 49.6137 36.8789 49.6137Z" fill="#EB5757"/>
<path d="M19.002 31.2053C19.002 30.6595 19.002 30.1434 19.002 29.6273C19.002 28.4193 18.9975 27.2089 19.002 26.0009C19.0043 25.0692 19.6734 24.359 20.5983 24.3567C24.4781 24.3453 28.358 24.3521 32.2379 24.3521C32.2836 24.3521 32.3292 24.3613 32.4046 24.3704C32.4046 26.6426 32.4046 28.9125 32.4046 31.2053C27.9515 31.2053 23.503 31.2053 19.002 31.2053Z" fill="#EB5757"/>
<path d="M36.875 31.217C36.875 28.9197 36.875 26.6658 36.875 24.373C37.0052 24.3662 37.1262 24.3502 37.2449 24.3502C40.9878 24.3502 44.7306 24.3479 48.4735 24.3525C49.5719 24.3547 50.2228 25.0307 50.2182 26.1337C50.2136 27.6888 50.2182 29.244 50.2159 30.7968C50.2159 30.9316 50.2159 31.0663 50.2159 31.217C45.7491 31.217 41.3303 31.217 36.875 31.217Z" fill="#EB5757"/>
<path d="M34.6091 21.749C35.8994 19.6001 37.6441 17.9947 39.6651 16.6565C40.8594 15.8664 42.0674 15.7385 43.2686 16.588C44.536 17.4855 45.0407 18.7483 44.7712 20.2669C44.5155 21.7033 43.6454 22.6533 42.241 23.0872C42.1017 23.1306 41.9464 23.1306 41.798 23.1306C37.1006 23.1328 32.4032 23.1214 27.7057 23.142C26.8905 23.1443 26.2145 22.8679 25.6391 22.3427C24.5384 21.3356 24.1661 20.0705 24.5475 18.641C24.9152 17.2617 25.824 16.3802 27.2376 16.0605C27.772 15.9394 28.2881 16.0011 28.7859 16.2363C30.1446 16.8826 31.2819 17.8326 32.3529 18.8693C33.2275 19.7188 34.0314 20.63 34.6091 21.749ZM34.0702 22.4158C34.0793 22.3861 34.0907 22.3564 34.0999 22.3267C33.0357 21.2078 31.903 20.171 30.526 19.4334C29.8295 19.0612 29.0805 19.1662 28.4913 19.7028C27.9798 20.1664 27.8062 20.7579 28.0209 21.3197C28.2607 21.9499 28.9161 22.4181 29.5555 22.4181C30.9371 22.4181 32.3187 22.4181 33.7003 22.4181C33.8258 22.4158 33.9492 22.4158 34.0702 22.4158ZM35.1184 22.3633C35.2166 22.3907 35.2577 22.4135 35.3011 22.4135C36.8197 22.4158 38.3383 22.4432 39.8569 22.4089C40.7681 22.3884 41.4988 21.3379 41.2727 20.4884C41.0284 19.5704 39.6559 18.8145 38.8064 19.3991C37.9752 19.97 37.1462 20.5501 36.3515 21.1689C35.9131 21.5069 35.5477 21.9408 35.1184 22.3633Z" fill="#EB5757"/>
</svg>
