<svg width="70" height="70" viewBox="0 0 70 70" fill="none" xmlns="http://www.w3.org/2000/svg">
<circle cx="35" cy="35" r="35" fill="#00E86D" fill-opacity="0.2"/>
<path d="M49.0451 32.6481C48.5478 34.368 48.1426 36.0074 47.5716 37.5846C47.4311 37.9737 46.7496 38.4066 46.3121 38.4112C41.1937 38.471 36.0754 38.4503 30.957 38.4526C30.1995 38.4526 29.716 38.0796 29.5433 37.3543C28.7328 33.9651 27.9154 30.5759 27.1418 27.1798C26.907 26.1529 27.3744 25.5197 28.3644 25.5128C32.5365 25.4851 36.7085 25.5013 40.9842 25.5013C40.9336 27.7162 41.5368 29.6526 43.2153 31.1285C44.857 32.579 46.7979 33.0142 49.0451 32.6481Z" fill="#27AE60"/>
<path d="M28.4851 39.636C31.9295 39.636 35.3142 39.636 38.6988 39.636C40.9138 39.636 43.1287 39.6314 45.3437 39.6383C46.3752 39.6406 46.96 40.1034 46.9877 40.9024C47.0153 41.7428 46.412 42.2539 45.3391 42.2539C39.4747 42.2585 33.6126 42.2585 27.7483 42.2539C26.5602 42.2539 26.2309 41.9638 25.9708 40.7642C24.8564 35.6113 23.7328 30.4607 22.6391 25.3032C22.5102 24.6976 22.273 24.3569 21.649 24.1658C20.2192 23.7283 18.817 23.1987 17.4056 22.7014C16.2198 22.2823 15.7801 21.6423 16.1024 20.8203C16.4201 20.0075 17.1086 19.8003 18.2345 20.1917C19.9867 20.7996 21.7227 21.4535 23.4933 22.006C24.3867 22.2846 24.8126 22.7889 25.0014 23.6915C26.0813 28.819 27.2026 33.9374 28.3147 39.0581C28.3492 39.2101 28.4045 39.362 28.4851 39.636Z" fill="#27AE60"/>
<path d="M41.8048 26.284C41.7886 23.0881 44.3789 20.491 47.5747 20.5025C50.7061 20.5117 53.2848 23.1135 53.2802 26.2609C53.2756 29.3992 50.6877 31.9941 47.5494 32.001C44.4112 32.0079 41.8209 29.4314 41.8048 26.284ZM49.99 23.7351C48.9516 24.8472 47.9339 25.9386 46.7251 27.2349C46.1472 26.4497 45.6798 25.8189 45.1456 25.0959C44.6092 25.6577 44.2546 26.0284 44.0243 26.2725C45.0052 27.2855 45.9423 28.2503 46.808 29.1459C48.2125 27.7368 49.6585 26.2886 51.2264 24.716C50.9709 24.5134 50.6646 24.2693 50.3561 24.0252C50.2594 23.9447 50.1627 23.8687 49.99 23.7351Z" fill="#27AE60"/>
<path d="M43.9144 43.32C45.9474 43.3016 47.6052 44.8995 47.6443 46.9164C47.6835 48.9679 46.0165 50.651 43.9489 50.651C41.9296 50.651 40.2788 49.0094 40.2696 46.9993C40.2626 44.9801 41.8859 43.3384 43.9144 43.32ZM45.5767 46.974C45.5744 46.0829 44.8745 45.36 43.9949 45.3415C43.0832 45.3208 42.3233 46.0737 42.328 46.9924C42.3326 47.8743 43.044 48.6064 43.9144 48.6295C44.8261 48.6525 45.579 47.8996 45.5767 46.974Z" fill="#27AE60"/>
<path d="M29.0216 50.6485C26.9908 50.6324 25.3606 49 25.3652 46.9853C25.3722 44.9062 27.0184 43.2922 29.1091 43.3152C31.126 43.3382 32.7446 45.0006 32.7216 47.0245C32.6963 49.0506 31.05 50.6647 29.0216 50.6485ZM30.6724 46.9899C30.6747 46.0643 29.9195 45.3206 29.0008 45.3437C28.1351 45.3667 27.396 46.115 27.396 46.9761C27.3937 47.8395 28.1259 48.597 28.987 48.627C29.8988 48.6569 30.6701 47.9086 30.6724 46.9899Z" fill="#27AE60"/>
</svg>
