<svg width="70" height="70" viewBox="0 0 70 70" fill="none" xmlns="http://www.w3.org/2000/svg">
<circle opacity="0.1" cx="35" cy="35" r="35" fill="#27AE60"/>
<path d="M35.0808 50.1824C30.7113 50.1824 26.3438 50.1824 21.9743 50.1824C20.6413 50.1824 19.8979 49.364 20.0113 48.0453C20.1633 46.3032 20.38 44.5752 20.8075 42.8736C21.1842 41.3725 21.9986 40.3536 23.4835 39.7783C25.653 38.9355 27.8489 38.182 30.0772 37.5155C30.1805 37.4851 30.3446 37.5358 30.4398 37.6046C31.9105 38.6702 33.3772 39.7398 34.8377 40.8195C35.018 40.9532 35.1355 40.9572 35.3178 40.8215C36.7784 39.7418 38.245 38.6722 39.7157 37.6067C39.8109 37.5378 39.973 37.4831 40.0763 37.5135C42.3694 38.2002 44.6382 38.9558 46.8584 39.8633C48.1306 40.384 48.8862 41.2591 49.2549 42.5596C49.7208 44.2025 49.9477 45.8798 50.1016 47.5733C50.1239 47.8265 50.1523 48.0818 50.1584 48.337C50.1867 49.364 49.421 50.1683 48.3919 50.1804C47.4094 50.1926 46.429 50.1824 45.4465 50.1824C41.9926 50.1824 38.5367 50.1824 35.0808 50.1824Z" fill="#27AE60"/>
<path d="M28.4453 27.3562C28.5851 24.2791 29.7215 22.0123 32.3205 20.6713C35.3146 19.1277 38.969 20.337 40.6929 23.3675C41.7443 25.215 41.8962 27.178 41.4323 29.2138C41.0008 31.1059 40.2108 32.8338 38.967 34.3389C38.3735 35.056 37.6908 35.6739 36.846 36.0811C35.2498 36.8488 33.7629 36.5774 32.4137 35.5118C30.4366 33.952 29.3913 31.8108 28.7856 29.4306C28.5972 28.6851 28.5344 27.9072 28.4453 27.3562Z" fill="#27AE60"/>
</svg>
