<svg width="42" height="42" viewBox="0 0 42 42" fill="none" xmlns="http://www.w3.org/2000/svg">
<circle opacity="0.1" cx="21" cy="21" r="21" fill="#27AE60"/>
<path d="M21.0007 12C25.9671 12 30.0004 16.0299 30 20.9849C29.9997 26.0372 25.8616 30.1168 20.7771 29.9975C15.8879 29.8829 11.8842 25.8319 12.0026 20.7767C12.1168 15.908 16.1041 11.9934 21.0007 12ZM18.6889 21.0038C18.2006 21.0038 17.746 21.0013 17.2917 21.0057C17.195 21.0066 17.1547 20.9893 17.156 20.8791C17.1591 20.6158 17.1821 20.3557 17.2413 20.0994C17.7375 17.9524 19.7618 16.603 21.9423 16.9648C24.1039 17.3235 25.6324 19.4217 25.3053 21.5813C25.0015 23.5844 23.3569 25.0484 21.3294 25.1142C21.2242 25.1177 21.2126 25.1542 21.2129 25.2421C21.216 25.8351 21.2176 26.4277 21.2116 27.0207C21.2104 27.1375 21.2525 27.1555 21.3561 27.1564C21.7613 27.1589 22.1633 27.1252 22.5578 27.0355C26.28 26.1881 28.0223 22.5915 27.2066 19.4453C26.2045 15.5824 21.8227 13.674 18.3231 15.5877C16.3529 16.665 15.2812 18.3598 15.0828 20.6013C15.0715 20.7301 15.1323 20.9074 15.0466 20.9751C14.9648 21.04 14.7963 20.9975 14.666 20.9981C14.3018 20.9994 13.9372 20.9984 13.5408 20.9984C14.4145 22.2637 15.2692 23.5016 16.1303 24.7486C16.9841 23.4997 17.8259 22.2672 18.6889 21.0038ZM21.8123 19.9492C21.8123 19.5036 21.8085 19.0577 21.8148 18.6121C21.8164 18.493 21.7774 18.4578 21.6612 18.4619C21.4254 18.4697 21.1889 18.4719 20.9535 18.4612C20.8156 18.4549 20.7674 18.4867 20.7696 18.6376C20.7787 19.3033 20.7686 19.9696 20.7759 20.6353C20.779 20.9326 20.7167 21.1921 20.5303 21.4374C20.2457 21.8125 19.9951 22.213 19.725 22.5991C19.6702 22.6772 19.6727 22.7156 19.7555 22.7695C19.975 22.9121 20.1912 23.0601 20.4019 23.2154C20.4913 23.2812 20.5332 23.2686 20.5939 23.1785C20.9604 22.6359 21.3312 22.0968 21.7046 21.559C21.7833 21.4459 21.8155 21.3285 21.8139 21.1918C21.8092 20.7777 21.8123 20.3633 21.8123 19.9492Z" fill="#27AE60"/>
<path d="M18.6899 21.0035C17.827 22.2666 16.9851 23.4991 16.1319 24.7484C15.2709 23.5013 14.4161 22.2634 13.5425 20.9981C13.9388 20.9981 14.3031 20.9991 14.6677 20.9978C14.798 20.9972 14.9664 21.0397 15.0483 20.9748C15.1339 20.9071 15.0732 20.7298 15.0845 20.601C15.2825 18.3595 16.3545 16.665 18.3247 15.5874C21.8244 13.6738 26.2061 15.5821 27.2076 19.445C28.0233 22.5912 26.2811 26.1878 22.5589 27.0352C22.1644 27.1249 21.7627 27.159 21.3572 27.1561C21.2536 27.1555 21.2117 27.1372 21.2126 27.0204C21.2186 26.4277 21.2171 25.8348 21.2139 25.2418C21.2136 25.1536 21.2252 25.1171 21.3304 25.114C23.3579 25.0481 25.0029 23.5841 25.3064 21.581C25.6338 19.4214 24.1053 17.3232 21.9434 16.9645C19.7629 16.6027 17.7385 17.9521 17.2423 20.0991C17.1832 20.3554 17.1602 20.6155 17.157 20.8788C17.1558 20.989 17.1961 21.0063 17.2927 21.0054C17.747 21.0013 18.2016 21.0035 18.6899 21.0035Z" fill="#FDFDFE"/>
<path d="M21.8145 19.9491C21.8145 20.3635 21.8114 20.7776 21.8164 21.1917C21.818 21.3287 21.7859 21.4459 21.7071 21.5589C21.3338 22.0965 20.9626 22.6359 20.5964 23.1785C20.5357 23.2685 20.4935 23.2811 20.4044 23.2153C20.1938 23.0601 19.9775 22.9121 19.758 22.7694C19.6752 22.7156 19.6727 22.6771 19.7275 22.599C19.9976 22.213 20.2482 21.8124 20.5328 21.4374C20.7189 21.192 20.7815 20.9326 20.7784 20.6353C20.7712 19.9693 20.7812 19.3032 20.7721 18.6375C20.7699 18.4867 20.8181 18.4549 20.956 18.4612C21.1915 18.4719 21.4279 18.4697 21.6637 18.4618C21.7799 18.458 21.8192 18.493 21.8173 18.612C21.8107 19.0576 21.8145 19.5032 21.8145 19.9491Z" fill="#FDFDFE"/>
</svg>
