<svg width="42" height="42" viewBox="0 0 42 42" fill="none" xmlns="http://www.w3.org/2000/svg">
<circle opacity="0.1" cx="21" cy="21" r="21" fill="#56CCF2"/>
<path d="M24.1446 22.7104H17.8554C16.8333 22.7117 15.8534 23.1161 15.1306 23.8351C14.4078 24.5541 14.0012 25.5288 14 26.5456V30.4473H28V26.5456C27.9988 25.5288 27.5922 24.5541 26.8694 23.8351C26.1466 23.1161 25.1667 22.7117 24.1446 22.7104Z" fill="#56CCF2"/>
<path d="M20.9999 20.8682C23.6451 20.8682 25.7894 18.8064 25.7894 16.263C25.7894 13.7196 23.6451 11.6577 20.9999 11.6577C18.3548 11.6577 16.2104 13.7196 16.2104 16.263C16.2104 18.8064 18.3548 20.8682 20.9999 20.8682Z" fill="#56CCF2"/>
</svg>
