<svg width="42" height="42" viewBox="0 0 42 42" fill="none" xmlns="http://www.w3.org/2000/svg">
<circle opacity="0.1" cx="21" cy="21" r="21" fill="#5356FB"/>
<path d="M12.1936 25.7404C12.8887 26.9468 14.4302 27.3612 15.6365 26.6662C15.6373 26.6657 15.6381 26.6652 15.639 26.6647L16.0129 26.4488C16.7187 27.0527 17.5301 27.521 18.4061 27.8302V28.2614C18.4061 29.6536 19.5348 30.7823 20.927 30.7823C22.3193 30.7823 23.448 29.6536 23.448 28.2614V27.8303C24.3241 27.5206 25.1355 27.0517 25.8412 26.4471L26.2168 26.6639C27.4234 27.36 28.966 26.9462 29.6621 25.7396C30.3582 24.5329 29.9444 22.9904 28.7377 22.2942L28.3646 22.0791C28.5326 21.1653 28.5326 20.2284 28.3646 19.3145L28.7377 19.0994C29.9444 18.4032 30.3582 16.8607 29.6621 15.6541C28.966 14.4474 27.4235 14.0336 26.2168 14.7297L25.8429 14.9457C25.1363 14.3425 24.3244 13.875 23.448 13.5668V13.1357C23.448 11.7434 22.3193 10.6147 20.927 10.6147C19.5348 10.6147 18.4061 11.7434 18.4061 13.1357V13.5668C17.53 13.8765 16.7186 14.3454 16.0129 14.9499L15.6373 14.7323C14.4306 14.0361 12.8881 14.45 12.192 15.6566C11.4958 16.8633 11.9096 18.4058 13.1163 19.1019L13.4894 19.317C13.3215 20.2309 13.3215 21.1678 13.4894 22.0817L13.1163 22.2968C11.913 22.9948 11.5005 24.5343 12.1936 25.7404ZM20.927 17.3373C22.7834 17.3373 24.2883 18.8422 24.2883 20.6985C24.2883 22.5549 22.7834 24.0598 20.927 24.0598C19.0707 24.0598 17.5658 22.5549 17.5658 20.6985C17.5658 18.8422 19.0707 17.3373 20.927 17.3373Z" fill="#5356FB"/>
</svg>
