<svg width="152" height="134" viewBox="0 0 152 134" fill="none" xmlns="http://www.w3.org/2000/svg">
<mask id="mask0_870_6427" style="mask-type:alpha" maskUnits="userSpaceOnUse" x="0" y="0" width="152" height="134">
<path d="M43.3461 52.9668L42.2571 56.5654C40.9503 60.9513 37.0299 63.9876 32.4562 63.9876C25.5955 63.9876 20.6951 57.1277 22.6553 50.3802L23.7443 46.7816C25.051 42.3957 28.9714 39.3594 33.5452 39.3594C40.4058 39.3594 45.3062 46.2193 43.3461 52.9668Z" fill="black"/>
<path d="M151.699 51.7306C151.699 80.2949 129.266 103.461 101.605 103.461H63.5997L57.8281 129.326C57.2836 131.913 54.9967 133.712 52.492 133.712H49.8785C41.1666 133.712 34.6326 125.278 36.5928 116.506L39.5331 103.461L43.4534 85.6928C44.3246 81.5319 47.9183 78.608 51.9476 78.608H86.7952C89.9533 78.608 92.7846 76.5838 93.7647 73.5474C93.9825 72.7602 94.0914 71.973 94.0914 71.2982C94.0914 67.3622 91.0423 63.9885 87.013 63.9885H63.1641C57.3925 63.9885 52.7098 59.7151 51.6209 54.4296C51.2942 52.7427 51.1853 50.9434 51.6209 49.1441V49.0316V48.8067C52.9276 43.1838 57.7192 39.2478 63.273 39.2478H95.616C98.6652 39.2478 101.605 37.336 102.586 34.2996C102.803 33.5124 103.021 32.7252 103.021 31.8256C103.021 27.8895 99.972 24.5158 95.9427 24.5158H11.9817C3.92314 24.7407 -1.84851 16.6438 0.54727 8.77171C2.07185 3.48619 6.75451 0 11.9817 0H101.605C129.266 0 151.699 23.1663 151.699 51.7306Z" fill="black"/>
</mask>
<g mask="url(#mask0_870_6427)">
<path d="M-26.9746 178.282L-26.9746 -3.71621L167.248 -3.71622L167.248 178.282L-26.9746 178.282Z" fill="url(#paint0_radial_870_6427)"/>
</g>
<defs>
<radialGradient id="paint0_radial_870_6427" cx="0" cy="0" r="1" gradientUnits="userSpaceOnUse" gradientTransform="translate(6.41362 97.0717) rotate(-36.3081) scale(137.948 126.443)">
<stop stop-color="#85EAFF"/>
<stop offset="0.706211" stop-color="#DADADA"/>
<stop offset="1" stop-color="#FFCB80"/>
</radialGradient>
</defs>
</svg>
