<svg width="34" height="36" viewBox="0 0 34 36" fill="none" xmlns="http://www.w3.org/2000/svg">
<path d="M19.4692 34.7385C28.5535 33.3623 34.894 24.9264 33.8969 15.5222C33.1472 8.45772 28.0451 2.40515 21.3267 0.62892C20.3934 0.382956 19.4419 0.208602 18.498 0C17.639 0 16.78 0 15.9196 0C15.8756 0.168127 15.7405 0.15256 15.6191 0.149446C14.6251 0.126095 13.6675 0.364275 12.722 0.622693C5.86405 2.497 0.722473 8.59627 0.129097 15.544C0.136684 16.436 0.168552 17.3295 0.138203 18.22C0.124542 18.6263 0.318798 19.0715 0.000102997 19.4451C0.000102997 19.4965 0.000102997 19.5494 0.000102997 19.6008C0.299068 19.8686 0.227741 20.2562 0.282375 20.5909C1.50555 28.2049 8.20872 34.4551 15.6085 34.8646C16.4705 34.9097 17.3476 34.6793 18.196 35.0016L19.4692 34.7385ZM22.2327 25.63C21.9034 25.5927 21.6561 25.3654 21.4239 25.1303C20.1445 23.8413 18.8409 22.5742 17.6086 21.2369C17.1215 20.7076 16.8681 20.759 16.4082 21.2509C15.1851 22.5602 13.9133 23.8227 12.6386 25.0805C11.8798 25.8293 11.6825 25.8215 10.9343 25.1085C10.4532 24.6508 9.98885 24.1729 9.54572 23.6763C8.91592 22.9696 8.90378 22.7423 9.56241 22.0371C10.822 20.6905 12.0937 19.3548 13.4019 18.0596C13.8344 17.6315 13.8966 17.4074 13.4247 16.945C12.0907 15.6389 10.8266 14.2597 9.51992 12.924C8.98118 12.3729 8.97359 11.867 9.5184 11.3252C9.97216 10.8753 10.3925 10.3896 10.8554 9.95063C11.6885 9.15825 11.8646 9.14424 12.6735 9.94129C13.9664 11.2163 15.2518 12.5021 16.4947 13.8269C16.9121 14.2721 17.1306 14.241 17.5343 13.816C18.8379 12.4414 20.1931 11.1197 21.5164 9.76538C22.0081 9.261 22.471 9.26411 22.9551 9.7576C23.4559 10.2698 23.978 10.7601 24.4545 11.2956C25.0828 12.0008 25.0934 12.2593 24.456 12.9427C23.2343 14.2534 22.0081 15.5642 20.7273 16.8127C20.1931 17.3327 20.1354 17.6113 20.7106 18.1624C22.0203 19.4171 23.2434 20.7684 24.5061 22.0745C25.0038 22.5897 25.0433 23.0988 24.5273 23.6234C23.9886 24.1698 23.4574 24.724 22.9111 25.2611C22.7305 25.4417 22.5196 25.5942 22.2327 25.63Z" fill="#EB5757"/>
</svg>
