<svg width="24" height="26" viewBox="0 0 24 26" fill="none" xmlns="http://www.w3.org/2000/svg">
<path d="M12 0.8125C5.72789 0.8125 0.625 6.27988 0.625 13C0.625 19.7201 5.72789 25.1875 12 25.1875C18.2721 25.1875 23.375 19.7201 23.375 13C23.375 6.27988 18.2721 0.8125 12 0.8125ZM16.1185 16.0873C16.2032 16.1735 16.2709 16.277 16.3177 16.3916C16.3644 16.5063 16.3893 16.6298 16.3908 16.755C16.3923 16.8801 16.3704 17.0043 16.3264 17.1202C16.2824 17.2361 16.2171 17.3414 16.1346 17.4299C16.052 17.5184 15.9537 17.5882 15.8455 17.6354C15.7373 17.6825 15.6214 17.706 15.5046 17.7044C15.3879 17.7028 15.2726 17.6762 15.1655 17.6261C15.0585 17.576 14.9619 17.5034 14.8815 17.4127L12 14.326L9.11852 17.4127C8.95309 17.5811 8.73281 17.6736 8.50464 17.6705C8.27647 17.6673 8.05847 17.5688 7.89712 17.3959C7.73577 17.2231 7.64383 16.9895 7.64091 16.745C7.63799 16.5006 7.72432 16.2646 7.88148 16.0873L10.7624 13L7.88148 9.91269C7.72432 9.73545 7.63799 9.49943 7.64091 9.25497C7.64383 9.01051 7.73577 8.77694 7.89712 8.60406C8.05847 8.43118 8.27647 8.33268 8.50464 8.32955C8.73281 8.32642 8.95309 8.41891 9.11852 8.58731L12 11.674L14.8815 8.58731C15.0469 8.41891 15.2672 8.32642 15.4954 8.32955C15.7235 8.33268 15.9415 8.43118 16.1029 8.60406C16.2642 8.77694 16.3562 9.01051 16.3591 9.25497C16.362 9.49943 16.2757 9.73545 16.1185 9.91269L13.2376 13L16.1185 16.0873Z" fill="#C9C4BD"/>
</svg>
