<svg width="26" height="38" viewBox="0 0 26 38" fill="none" xmlns="http://www.w3.org/2000/svg">
<path d="M2.16034 37C1.44304 33.3767 0.725738 29.7449 0 26.1047C8.67511 26.1047 17.3249 26.1047 26 26.1047C25.2743 29.7449 24.557 33.3767 23.8397 37.0084C16.616 37 9.3924 37 2.16034 37ZM13.038 29.3573C12.6751 29.3573 12.1941 29.2141 11.9916 29.391C11.7637 29.5932 11.9325 30.0904 11.9241 30.4611C11.9156 30.7982 11.8059 31.2448 11.9747 31.4386C12.1688 31.6577 12.6329 31.4976 12.9705 31.506C13.3333 31.5144 13.8143 31.6408 14.0169 31.4555C14.2447 31.2448 14.0759 30.7561 14.0844 30.3853C14.0928 30.0483 14.2025 29.6017 14.0338 29.4079C13.8397 29.1888 13.3755 29.3742 13.038 29.3573Z" fill="#27AE60"/>
<path d="M19.5021 0C19.5021 1.4072 19.5021 2.81439 19.5021 4.22159C19.5021 5.58665 18.5823 6.50512 17.2152 6.50512C14.4726 6.50512 11.73 6.50512 8.98734 6.51355C8.70886 6.51355 8.64979 6.43771 8.65823 6.1765C8.67511 5.60351 8.66667 5.02209 8.66667 4.44067C8.67511 3.09246 9.5865 2.17399 10.9283 2.16557C12.3122 2.16557 13.6962 2.16557 15.0802 2.16557C16.3713 2.16557 17.2827 1.28923 17.3418 0C18.0591 0 18.7764 0 19.5021 0Z" fill="#27AE60"/>
<path d="M13.021 23.9224C9.7383 23.9224 6.44716 23.9224 3.16446 23.9224C2.84379 23.9224 2.40497 24.0319 2.22775 23.8634C2.02522 23.6696 2.16868 23.2314 2.16868 22.8944C2.15181 22.0265 2.37965 21.226 2.85223 20.5013C3.70455 19.2205 4.90286 18.5464 6.44716 18.4958C6.93662 18.479 7.43451 18.5042 7.92396 18.4874C8.13493 18.479 8.27839 18.5548 8.42185 18.6981C9.85645 20.139 11.2995 21.5714 12.7341 23.0208C12.9366 23.223 13.0379 23.2567 13.2573 23.0292C14.6835 21.5799 16.1265 20.1474 17.5611 18.6981C17.7214 18.538 17.8733 18.4705 18.0927 18.479C18.9197 18.5211 19.7467 18.4116 20.5737 18.6222C22.4387 19.1025 23.7974 20.8046 23.8311 22.7258C23.8396 23.0039 23.8143 23.282 23.8396 23.56C23.8649 23.8297 23.7889 23.9224 23.4936 23.914C20.0083 23.914 16.5147 23.9224 13.021 23.9224Z" fill="#27AE60"/>
<path d="M13.0211 8.67078C14.3545 8.67078 15.6962 8.67921 17.0296 8.66235C17.2743 8.66235 17.3502 8.71291 17.3502 8.97413C17.3334 9.98529 17.3502 10.9964 17.3418 12.0076C17.3249 14.2574 15.6456 16.0859 13.384 16.3219C11.2659 16.541 9.24055 15.0495 8.76797 12.9092C8.64983 12.3784 8.67514 11.8307 8.67514 11.2914C8.67514 10.5077 8.68358 9.72407 8.66671 8.94042C8.65827 8.71291 8.72578 8.66235 8.94519 8.66235C10.2954 8.67921 11.654 8.67078 13.0211 8.67078Z" fill="#27AE60"/>
<path d="M11.0464 18.2178C11.3924 18.2852 11.7384 18.361 12.0928 18.4284C12.962 18.5885 13.8143 18.4958 14.6582 18.2599C14.751 18.2346 14.8354 18.1841 14.962 18.2431C14.3375 18.875 13.7215 19.4902 13.1055 20.1053C13.0295 20.1811 12.9704 20.1895 12.8945 20.1053C12.2869 19.4649 11.6033 18.8919 11.0464 18.2009C11.0548 18.2094 11.0464 18.2178 11.0464 18.2178Z" fill="#27AE60"/>
<path d="M11.0549 18.2093C11.038 18.2008 11.0127 18.1924 10.9958 18.184C11.0127 18.1755 11.0296 18.1671 11.038 18.1587C11.038 18.1755 11.038 18.1924 11.0465 18.2093C11.0465 18.2177 11.0549 18.2093 11.0549 18.2093Z" fill="#27AE60"/>
</svg>
