<svg width="27" height="37" viewBox="0 0 27 37" fill="none" xmlns="http://www.w3.org/2000/svg">
<path d="M17.7891 0.0191884C17.7891 1.39727 17.7891 2.71017 17.7891 4.02308C17.7899 7.06137 19.9647 9.23868 23.0021 9.24126C24.3142 9.24211 25.6253 9.24126 26.9991 9.24126C26.9991 9.45907 26.9991 9.63916 26.9991 9.81839C26.9991 13.4192 27 17.0209 27 20.6218C27 24.6625 27 28.7033 26.9991 32.7441C26.9991 34.8313 25.784 36.0491 23.7019 36.0499C16.8998 36.0499 10.0969 36.0499 3.29481 36.0499C1.24527 36.0499 0.0224076 34.8236 0.02155 32.7646C0.0198349 30.0205 0.0224076 27.2772 0.02155 24.533C0.02155 17.4763 0.0515642 10.4195 0.000111352 3.36277C-0.014467 1.39212 1.40392 -0.0245465 3.37027 0.000322344C7.98559 0.0603507 12.6018 0.0191884 17.218 0.0191884C17.3869 0.0191884 17.5558 0.0191884 17.7891 0.0191884ZM3.53406 31.8702C10.1981 31.8702 16.8346 31.8702 23.4798 31.8702C23.4798 31.2682 23.4798 30.6945 23.4798 30.1105C16.8158 30.1105 10.1886 30.1105 3.53406 30.1105C3.53406 30.704 3.53406 31.2819 3.53406 31.8702ZM3.52377 27.2429C10.1998 27.2429 16.8355 27.2429 23.4806 27.2429C23.4806 26.6409 23.4806 26.0663 23.4806 25.5046C16.8089 25.5046 10.1741 25.5046 3.52377 25.5046C3.52377 26.0946 3.52377 26.6495 3.52377 27.2429ZM8.00103 14.9405C7.55425 14.9405 7.13319 14.9405 6.75587 14.9405C6.52176 15.3101 6.97626 15.8144 6.35454 16.0708C5.71481 16.3349 5.70709 15.5845 5.27917 15.5399C4.9919 15.8229 4.68918 16.1222 4.40791 16.4001C4.46022 16.84 5.19342 16.8631 4.93787 17.496C4.68232 18.1289 4.13778 17.6315 3.80419 17.8948C3.80419 18.3072 3.80419 18.7292 3.80419 19.1142C4.1575 19.3783 4.67117 18.899 4.93187 19.507C5.20371 20.1407 4.47051 20.169 4.40791 20.6098C4.68832 20.897 4.99275 21.2092 5.27231 21.4956C5.66679 21.3713 5.71738 20.813 6.20533 20.8936C6.93253 21.0128 6.62381 21.638 6.75844 22.0702C7.17092 22.0702 7.57483 22.0702 7.92214 22.0702C8.21627 21.7126 7.71804 21.2032 8.36034 20.9408C9.01122 20.6758 9.02408 21.4141 9.45629 21.4416C9.75386 21.1637 10.0694 20.8687 10.3378 20.6183C10.2435 20.157 9.55834 20.1304 9.80874 19.5112C10.0626 18.8818 10.6123 19.3929 10.9476 19.1176C10.9476 18.7043 10.9476 18.2815 10.9476 17.8913C10.5788 17.6521 10.0454 18.1263 9.79759 17.4711C9.55919 16.8426 10.3035 16.828 10.3378 16.4661C10.0223 16.1265 9.73328 15.8144 9.46658 15.5271C9.05496 15.6163 9.03952 16.238 8.4924 16.1076C7.77207 15.937 8.18026 15.3376 8.00103 14.9405ZM8.56101 12.3722C8.38264 12.0532 8.08936 11.7702 8.10308 11.5026C8.13652 10.8157 8.7754 11.1767 9.15357 11.0258C9.15357 10.6459 9.15357 10.2669 9.15357 9.91958C8.83542 9.6606 8.33976 10.11 8.11251 9.53025C7.88955 8.96255 8.53014 8.93254 8.59445 8.57408C8.31661 8.29967 8.03705 8.0244 7.78236 7.77313C7.4016 7.80229 7.39817 8.45231 6.84248 8.24564C6.26621 8.03126 6.67183 7.53902 6.45744 7.21144C6.08527 7.21144 5.69594 7.21144 5.34949 7.21144C5.11367 7.54674 5.54073 8.04155 4.94302 8.2465C4.38904 8.43688 4.37875 7.8143 4.00143 7.75255C3.74674 8.01325 3.47146 8.29538 3.20219 8.57151C3.26222 8.9394 3.91739 8.96513 3.67299 9.5414C3.43459 10.1039 2.94493 9.65974 2.64307 9.90929C2.64307 10.2772 2.64307 10.6554 2.64307 11.061C2.95093 11.061 3.23392 11.061 3.5272 11.061C3.61296 11.2634 3.80076 11.4957 3.74502 11.6175C3.62239 11.8859 3.37713 12.0986 3.19876 12.313C3.48175 12.6148 3.74931 12.9004 3.99114 13.1594C4.37961 13.0539 4.4182 12.4228 4.9979 12.6809C5.54587 12.9253 5.08365 13.4201 5.33663 13.7031C5.72167 13.7031 6.10156 13.7031 6.45487 13.7031C6.67955 13.3712 6.25506 12.8798 6.84334 12.662C7.40761 12.4536 7.42476 13.1182 7.76177 13.1542C8.05334 12.8687 8.3269 12.6011 8.56101 12.3722ZM10.0789 13.3541C10.3764 13.5221 10.7529 13.2228 10.9313 13.6696C11.1148 14.1267 10.5874 14.161 10.5479 14.3814C10.7846 14.661 10.9913 14.9062 11.1714 15.118C11.5084 15.0271 11.5478 14.5443 11.9955 14.7287C12.4508 14.9156 12.0761 15.3401 12.3025 15.5691C12.6112 15.5691 12.9191 15.5691 13.1943 15.5691C13.3804 15.2964 13.0554 14.9225 13.4979 14.7304C13.9687 14.5255 13.9953 15.0709 14.4172 15.1335C14.4635 15.0683 14.5475 14.9345 14.6479 14.8145C14.7525 14.6875 14.8726 14.5735 14.9566 14.4843C14.8734 14.1481 14.3906 14.1087 14.5707 13.6593C14.7542 13.2014 15.1821 13.5762 15.4205 13.3283C15.4205 13.0471 15.4205 12.7529 15.4205 12.4768C15.1547 12.2735 14.7439 12.6114 14.5638 12.1415C14.3889 11.6853 14.936 11.6553 14.948 11.416C14.6933 11.157 14.4772 10.9375 14.2534 10.7102C13.9927 10.7574 13.9678 11.2608 13.5193 11.0927C13.046 10.9152 13.3839 10.507 13.2029 10.2514C12.8925 10.2514 12.5752 10.2514 12.2905 10.2514C12.1207 10.5362 12.4337 10.9169 11.9766 11.0918C11.529 11.2625 11.5041 10.7583 11.1842 10.6999C11.1439 10.7334 11.0796 10.7874 11.0153 10.8397C10.8292 10.9924 10.6423 11.1442 10.5162 11.2471C10.602 11.6604 11.1225 11.6973 10.9253 12.1646C10.7357 12.6123 10.3207 12.2547 10.0789 12.4768C10.0789 12.7692 10.0789 13.0642 10.0789 13.3541ZM23.4918 13.2143C23.4918 12.6037 23.4918 12.0403 23.4918 11.4597C22.8923 11.4597 22.3178 11.4597 21.7364 11.4597C21.7364 12.0583 21.7364 12.6243 21.7364 13.2143C22.3246 13.2143 22.8889 13.2143 23.4918 13.2143ZM21.7338 17.8853C22.3521 17.8853 22.9164 17.8853 23.4952 17.8853C23.4952 17.2911 23.4952 16.7268 23.4952 16.1368C22.8975 16.1368 22.3229 16.1368 21.7338 16.1368C21.7338 16.7311 21.7338 17.2971 21.7338 17.8853ZM23.4909 22.565C23.4909 21.9655 23.4909 21.3936 23.4909 20.7993C22.8932 20.7993 22.3195 20.7993 21.7424 20.7993C21.7424 21.4056 21.7424 21.981 21.7424 22.565C22.3358 22.565 22.8983 22.565 23.4909 22.565Z" fill="#F2994A"/>
<path d="M19.7895 0.090332C22.1821 2.48375 24.5232 4.82485 26.8926 7.19511C26.7803 7.2054 26.6645 7.22599 26.5487 7.22599C25.3207 7.2277 24.0919 7.23456 22.8638 7.22513C21.099 7.21141 19.8084 5.92937 19.7921 4.16711C19.7793 2.82677 19.7895 1.48813 19.7895 0.090332Z" fill="#F2994A"/>
<path d="M8.62547 18.5079C8.62461 19.2042 8.07493 19.7548 7.37774 19.7582C6.68313 19.7616 6.12315 19.2128 6.11629 18.5208C6.10857 17.8099 6.68141 17.2344 7.38632 17.243C8.07407 17.2524 8.62719 17.8167 8.62547 18.5079Z" fill="#F2994A"/>
<path d="M5.8947 9.30909C6.52842 9.31081 7.04295 9.82362 7.04381 10.4539C7.04467 11.0851 6.53014 11.5953 5.89555 11.5936C5.25411 11.5919 4.75158 11.0902 4.75244 10.4531C4.75244 9.8159 5.26011 9.30652 5.8947 9.30909Z" fill="#F2994A"/>
<path d="M13.6848 12.9201C13.6788 13.451 13.2517 13.854 12.7132 13.8377C12.2055 13.8223 11.7947 13.3944 11.8059 12.8918C11.817 12.3825 12.2321 11.9734 12.7415 11.97C13.2731 11.9674 13.6908 12.3876 13.6848 12.9201Z" fill="#F2994A"/>
</svg>
