<svg width="13" height="11" viewBox="0 0 13 11" fill="none" xmlns="http://www.w3.org/2000/svg">
<path d="M6.49948 11.0002C6.45633 10.9222 6.44195 10.8402 6.41935 10.7642C5.68171 8.2937 4.94614 5.82125 4.20645 3.35081C4.18385 3.27679 4.19001 3.25879 4.27836 3.25879C5.71459 3.28079 7.15287 3.2968 8.5891 3.3168C8.698 3.3188 8.698 3.3188 8.66923 3.42482C7.9542 5.92527 7.23917 8.42573 6.52414 10.9242C6.51797 10.9462 6.50975 10.9682 6.49948 11.0002Z" fill="#F539F8"/>
<path d="M13.0002 3.25468C10.9619 5.75913 8.93804 8.24759 6.91418 10.736C6.88952 10.71 6.91007 10.69 6.91623 10.67C7.60866 8.24959 8.30109 5.82715 8.99352 3.40671C9.00585 3.3607 9.04489 3.34269 9.07776 3.31469C9.20515 3.19867 9.34898 3.25868 9.48048 3.25868C10.6147 3.25268 11.7489 3.25468 12.883 3.25468C12.9159 3.25468 12.9467 3.25468 13.0002 3.25468Z" fill="#F539F8"/>
<path d="M0 3.25444C0.0472578 3.25444 0.0739687 3.25444 0.10068 3.25444C1.32322 3.25444 2.5437 3.25444 3.76624 3.25244C3.82994 3.25244 3.86281 3.26444 3.88336 3.33046C4.59428 5.72089 5.30725 8.11132 6.01818 10.5018C6.02845 10.5338 6.04694 10.5638 6.03667 10.6078C4.02513 8.15933 2.01976 5.71489 0 3.25444Z" fill="#F539F8"/>
<path d="M8.66592 2.93668C7.16189 2.93668 5.67224 2.93668 4.18054 2.93668C4.17438 2.90268 4.20314 2.88867 4.21753 2.86867C4.94899 1.96651 5.68046 1.06434 6.40988 0.160178C6.44275 0.120171 6.45919 0.0821637 6.51261 0.150176C7.21942 1.06634 7.93034 1.98051 8.63921 2.89668C8.64743 2.90668 8.65154 2.91668 8.66592 2.93668Z" fill="#F539F8"/>
<path d="M2.70399 0.129883C3.0615 1.07205 3.41491 2.00222 3.77037 2.93639C2.52729 2.93639 1.29448 2.93639 0.0390625 2.93639C0.930796 1.99622 1.81226 1.06805 2.70399 0.129883Z" fill="#F539F8"/>
<path d="M12.9687 2.9386C12.7324 2.9386 12.5166 2.9386 12.3009 2.9386C11.3126 2.9386 10.3263 2.9386 9.33803 2.9386C9.28255 2.9386 9.25173 2.9406 9.2805 2.86859C9.63185 1.97642 9.98115 1.08226 10.3304 0.190099C10.3366 0.174096 10.3387 0.154092 10.3633 0.14209C11.2263 1.06826 12.0913 1.99643 12.9687 2.9386Z" fill="#F539F8"/>
<path d="M8.97094 2.81832C8.24152 1.87815 7.52238 0.947984 6.79297 0.0078125C7.89223 0.0078125 8.9771 0.0078125 10.0702 0.0078125C9.70651 0.939982 9.34283 1.87015 8.97094 2.81832Z" fill="#F539F8"/>
<path d="M3.99333 2.65048C3.66252 1.78032 3.33994 0.930169 3.01735 0.0780142C2.99886 0.0320058 2.97626 0 3.0605 0C4.07962 0.00200036 5.09875 0.00200036 6.13842 0.00200036C5.42133 0.888161 4.71247 1.76432 3.99333 2.65048Z" fill="#F539F8"/>
</svg>
