<svg width="15" height="14" viewBox="0 0 15 14" fill="none" xmlns="http://www.w3.org/2000/svg">
<path d="M7.48189 10.9431C7.58117 9.97067 7.64737 9.91594 8.6689 9.91594C9.97947 9.91594 11.29 9.91594 12.6006 9.91384C13.3133 9.91173 13.5229 10.1012 13.5405 10.7747C13.5427 10.8295 13.5493 10.8842 13.5537 10.9368C14.4716 11.0526 14.6415 11.2715 14.5113 12.1745C11.8504 12.1745 9.18519 12.1745 6.52434 12.1745C6.36769 11.3094 6.58611 11.0294 7.48189 10.9431Z" fill="#F539F8"/>
<path d="M5.89446 5.35083C6.24527 5.70866 6.58946 6.05807 6.95571 6.43274C6.93585 6.45589 6.88511 6.52114 6.82774 6.58218C5.13989 8.29134 3.45645 10.0005 1.76639 11.7075C1.37366 12.1054 0.833104 12.1475 0.405073 11.8359C-0.000894362 11.5413 -0.120037 11.0193 0.131486 10.5962C0.191058 10.4972 0.270486 10.4067 0.356533 10.3289C2.15691 8.70179 3.9617 7.07683 5.76428 5.45186C5.79958 5.41819 5.84151 5.39082 5.89446 5.35083Z" fill="#F539F8"/>
<path d="M8.82594 1.67529C9.51211 2.3257 10.1961 2.974 10.8602 3.60336C9.8541 4.56318 8.83035 5.53774 7.81323 6.50809C7.16015 5.87873 6.47618 5.2199 5.79663 4.56529C6.79169 3.61599 7.81102 2.64564 8.82594 1.67529Z" fill="#F539F8"/>
<path d="M7.89473 0C8.24774 0.0399926 8.53457 0.212592 8.65592 0.503065C8.7905 0.825111 8.70446 1.10506 8.45293 1.34501C7.65424 2.10698 6.85554 2.86894 6.05905 3.63091C5.85165 3.82877 5.65088 4.02873 5.43686 4.22027C5.1015 4.52337 4.63155 4.52548 4.32487 4.2329C4.02922 3.95085 4.02039 3.50041 4.3359 3.1952C5.35302 2.20591 6.37456 1.22293 7.40713 0.248375C7.53068 0.130502 7.72925 0.0820901 7.89473 0Z" fill="#F539F8"/>
<path d="M12.6428 4.47059C12.548 4.64319 12.4884 4.84946 12.3516 4.98207C11.3433 5.96294 10.324 6.93329 9.30021 7.89943C8.95823 8.22147 8.48166 8.21095 8.17056 7.89732C7.85947 7.5858 7.87712 7.18377 8.22351 6.8491C9.22299 5.88717 10.2247 4.92734 11.2241 3.96331C11.4801 3.71704 11.7735 3.65389 12.1067 3.76966C12.3913 3.8707 12.5833 4.14854 12.6428 4.47059Z" fill="#F539F8"/>
<path d="M10.4681 13.1112C9.11786 13.1112 7.76758 13.1112 6.41729 13.1112C6.32683 13.1112 6.22534 13.1259 6.15033 13.0922C6.08193 13.0628 5.99588 12.9743 5.99809 12.9133C6.00029 12.8375 6.06648 12.7365 6.13709 12.6944C6.20548 12.6544 6.31139 12.667 6.40185 12.667C9.10242 12.667 11.803 12.6649 14.5035 12.6712C14.6933 12.6712 14.9956 12.5765 15 12.8838C15.0044 13.2227 14.6845 13.107 14.4903 13.107C13.1489 13.1154 11.8074 13.1112 10.4681 13.1112Z" fill="#F539F8"/>
</svg>
