<svg width="25" height="26" viewBox="0 0 25 26" fill="none" xmlns="http://www.w3.org/2000/svg">
<path d="M10.8083 15.25L8.21041 12.5625C7.98888 12.3333 7.70693 12.2188 7.36457 12.2188C7.02221 12.2188 6.74027 12.3333 6.51874 12.5625C6.29721 12.7917 6.18645 13.0833 6.18645 13.4375C6.18645 13.7917 6.29721 14.0833 6.51874 14.3125L9.96249 17.875C10.2042 18.125 10.4861 18.25 10.8083 18.25C11.1305 18.25 11.4125 18.125 11.6542 17.875L18.4812 10.8125C18.7028 10.5833 18.8135 10.2917 18.8135 9.9375C18.8135 9.58333 18.7028 9.29167 18.4812 9.0625C18.2597 8.83333 17.9778 8.71875 17.6354 8.71875C17.293 8.71875 17.0111 8.83333 16.7896 9.0625L10.8083 15.25ZM12.5 25.5C10.8285 25.5 9.25763 25.1717 7.78749 24.515C6.31735 23.8583 5.03853 22.9679 3.95103 21.8438C2.86353 20.7188 2.0028 19.3958 1.36882 17.875C0.734851 16.3542 0.417462 14.7292 0.416656 13C0.416656 11.2708 0.734045 9.64583 1.36882 8.125C2.0036 6.60417 2.86434 5.28125 3.95103 4.15625C5.03853 3.03125 6.31735 2.14083 7.78749 1.485C9.25763 0.829167 10.8285 0.500833 12.5 0.5C14.1715 0.5 15.7423 0.828333 17.2125 1.485C18.6826 2.14167 19.9614 3.03208 21.0489 4.15625C22.1364 5.28125 22.9976 6.60417 23.6324 8.125C24.2671 9.64583 24.5841 11.2708 24.5833 13C24.5833 14.7292 24.2659 16.3542 23.6312 17.875C22.9964 19.3958 22.1356 20.7188 21.0489 21.8438C19.9614 22.9688 18.6826 23.8596 17.2125 24.5162C15.7423 25.1729 14.1715 25.5008 12.5 25.5Z" fill="#40D98C"/>
</svg>
