<svg id="SvgjsSvg1022" width="288" height="288" xmlns="http://www.w3.org/2000/svg" version="1.1" xmlns:xlink="http://www.w3.org/1999/xlink" xmlns:svgjs="http://svgjs.com/svgjs"><defs id="SvgjsDefs1023"></defs><g id="SvgjsG1024"><svg xmlns="http://www.w3.org/2000/svg" viewBox="0 0 32 32" width="288" height="288"><path d="M7.457 2a.5.5 0 0 0-.059.01A2.501 2.501 0 0 0 5 4.5V22H1.002v.5H1v2a2.5 2.5 0 0 0 2.406 2.49.5.5 0 0 0 .094.01h13.498v3.568l2.563-1.5L22 30.6V27h2.5a2.5 2.5 0 0 0 2.488-2.389A.5.5 0 0 0 27 24.5V7h4V4.5a2.5 2.5 0 0 0-2.389-2.488A.5.5 0 0 0 28.5 2H7.508A.5.5 0 0 0 7.5 2a.5.5 0 0 0-.043 0zM7.5 3a.5.5 0 0 0 .008 0A1.486 1.486 0 0 1 9 4.5v2h.006V7H26v9.465a.5.5 0 0 0 0 .035v8c0 .84-.66 1.5-1.5 1.5H22v-2.328c.116 0 .26 0 .418.01.17 0 .348.01.51 0 .08 0 .157-.013.244-.03s.193-.013.353-.175c.161-.163.158-.27.174-.358.017-.087.02-.163.024-.244a6.807 6.807 0 0 0-.004-.506c-.006-.17-.014-.338-.014-.457v-.02c.007 0 .008-.01.016-.01.102-.06.25-.138.4-.22.15-.082.303-.166.44-.254a1.59 1.59 0 0 0 .197-.146c.066-.06.159-.11.217-.33.057-.221.001-.311-.028-.395a1.602 1.602 0 0 0-.101-.226 6.828 6.828 0 0 0-.258-.436c-.09-.145-.179-.285-.238-.389-.004-.01-.004-.01-.008-.015.004-.01.003-.012.008-.02.058-.104.145-.245.234-.39.089-.146.178-.294.252-.438.037-.072.071-.144.1-.228.028-.084.083-.175.023-.395-.06-.22-.154-.27-.22-.328a1.612 1.612 0 0 0-.202-.145 7.151 7.151 0 0 0-.441-.248c-.151-.08-.3-.157-.403-.216-.007 0-.008-.01-.015-.01v-.02c-.002-.119.003-.286.008-.457a6.87 6.87 0 0 0-.002-.506 1.58 1.58 0 0 0-.028-.244c-.017-.087-.013-.193-.176-.353-.162-.16-.268-.158-.355-.174a1.67 1.67 0 0 0-.246-.028c-.162-.01-.335.001-.506.01-.17.01-.338.014-.457.014h-.021l-.01-.018c-.061-.102-.137-.25-.219-.4a6.797 6.797 0 0 0-.254-.438 1.604 1.604 0 0 0-.146-.199c-.06-.066-.11-.157-.332-.215-.221-.058-.311 0-.395.026a1.545 1.545 0 0 0-.225.101 6.641 6.641 0 0 0-.437.258c-.145.091-.283.179-.387.238-.008 0-.01.01-.017.01-.008 0-.01-.01-.018-.01a12.94 12.94 0 0 1-.39-.232 6.842 6.842 0 0 0-.44-.254 1.573 1.573 0 0 0-.227-.098c-.083-.028-.174-.082-.394-.023v.002c-.22.06-.27.152-.328.219a1.58 1.58 0 0 0-.145.199c-.086.137-.168.292-.248.443-.08.15-.157.297-.217.4-.004.01-.005.01-.01.018h-.02c-.12 0-.283 0-.454-.01-.17 0-.348-.01-.51 0-.08 0-.157.013-.244.03-.087.018-.193.015-.353.178-.16.162-.158.268-.174.355a1.6 1.6 0 0 0-.024.246c-.006.162-.002.336.004.506.006.17.014.336.014.455v.022c-.007 0-.008.01-.016.01-.102.06-.25.138-.4.22-.15.082-.301.166-.438.254a1.605 1.605 0 0 0-.199.146c-.066.06-.159.11-.217.33-.057.221-.001.311.028.395.029.084.064.155.101.227.076.143.168.289.258.433.09.145.179.287.238.39l.008.018c-.003.01-.004.01-.008.016-.058.104-.145.247-.234.393a6.826 6.826 0 0 0-.252.437 1.598 1.598 0 0 0-.1.227c-.028.084-.083.174-.023.394.06.22.154.27.22.328.068.058.133.102.202.145.137.087.29.168.441.248.151.08.3.157.403.217.007 0 .008.01.015.01v.02c.002.12-.003.285-.008.456-.004.17-.006.344.002.506.005.08.01.159.028.246.017.087.013.193.176.353h.001c.163.16.267.158.354.174.087.016.165.023.246.026.162.01.337 0 .508-.01.138-.008.26-.01.369-.012V26H5.484A2.47 2.47 0 0 0 6 24.5v-20C6 3.66 6.66 3 7.5 3zm1.986 0H28.5c.84 0 1.5.66 1.5 1.5V6h-3.422a.5.5 0 0 0-.086-.006.5.5 0 0 0-.074.006H10V4.5c0-.564-.196-1.08-.514-1.5zM8 9v1h16V9H8zm0 3v1h16v-1H8zm0 3v1h6v-1H8zm12.648.117c.045.077.086.147.137.24.08.146.163.298.242.432.04.067.08.131.125.193.046.062.074.126.23.215h.003c.157.09.226.078.302.086.077.01.15.01.227.012.156 0 .329-.01.494-.016h.278c0 .09.002.173 0 .28-.005.165-.01.336-.008.492 0 .078.003.151.011.228.01.077 0 .147.092.303s.156.185.219.23c.063.046.126.082.193.122.135.078.29.158.436.236.094.05.165.09.242.135-.044.077-.085.149-.14.24-.087.141-.176.288-.252.424-.039.068-.075.132-.106.203-.03.07-.073.128-.072.308 0 .182.044.238.076.31.032.07.068.133.107.2.078.135.168.282.256.422.057.091.098.162.143.238-.077.045-.147.088-.24.14-.146.078-.298.16-.432.24a2.36 2.36 0 0 0-.191.122c-.063.046-.128.074-.217.23-.09.158-.08.23-.088.307-.008.077-.01.151-.01.229 0 .156.008.327.014.492.004.107.003.19.004.28h-.278c-.165 0-.338-.013-.494-.012-.078 0-.15 0-.226.013-.077.01-.147.001-.303.09h-.002c-.156.091-.183.154-.229.217a2.335 2.335 0 0 0-.123.195c-.078.135-.158.288-.236.434-.05.094-.089.165-.133.242-.077-.044-.15-.082-.242-.139-.141-.086-.286-.177-.422-.253a2.44 2.44 0 0 0-.205-.106c-.071-.03-.127-.073-.309-.072-.18 0-.237.045-.308.076-.07.032-.136.067-.203.105-.135.078-.278.172-.418.26-.09.057-.164.096-.24.14-.045-.076-.086-.146-.137-.24-.08-.145-.163-.295-.242-.43a2.292 2.292 0 0 0-.125-.192c-.046-.062-.073-.128-.23-.217-.158-.09-.226-.08-.304-.088-.077-.01-.15-.01-.228-.01-.156 0-.329.009-.494.012h-.278c0-.09-.002-.17 0-.276.005-.165.01-.336.008-.492a2.278 2.278 0 0 0-.011-.23c-.01-.077 0-.147-.092-.303s-.158-.183-.221-.228a2.43 2.43 0 0 0-.191-.123c-.135-.078-.29-.157-.436-.235-.094-.05-.165-.092-.242-.137.044-.077.085-.149.14-.24.087-.141.176-.286.252-.422.039-.068.075-.134.106-.205.03-.07.073-.127.072-.308 0-.181-.044-.236-.076-.307a2.25 2.25 0 0 0-.107-.203c-.078-.135-.168-.28-.256-.42-.057-.09-.1-.162-.145-.238.077-.045.149-.088.242-.139.146-.079.298-.16.432-.24.067-.04.13-.08.191-.125.063-.046.128-.075.217-.233.09-.157.08-.225.088-.302.008-.077.01-.15.01-.229 0-.156-.008-.327-.014-.492-.004-.107-.003-.19-.004-.28h.278c.165 0 .338.011.494.01.078 0 .15.002.226-.011.077-.01.149-.002.305-.092.156-.091.183-.154.229-.217.045-.063.084-.128.123-.195.078-.135.158-.288.236-.434.05-.094.089-.165.133-.242v.004c.077.044.15.082.242.139.141.086.286.177.422.253.068.038.134.072.205.102.071.031.128.075.309.074.18 0 .237-.045.308-.076.07-.032.136-.067.203-.105.135-.078.278-.172.418-.26.09-.057.164-.096.24-.14zm-1.16 2.057c-.27 0-.368.137-.433.209a1.151 1.151 0 0 0-.145.201 4.551 4.551 0 0 0-.21.414c-.066.141-.127.28-.175.377-.003.01-.005.01-.007.014h-.012c-.107.017-.256.035-.408.056a4.287 4.287 0 0 0-.455.08 1.102 1.102 0 0 0-.233.08c-.087.042-.242.096-.324.358-.082.261.013.397.06.482.048.085.095.143.145.201.1.116.212.224.324.33.113.107.224.21.301.286.005 0 .005.01.01.01l-.002.013c-.017.108-.045.257-.072.41a4.61 4.61 0 0 0-.065.463c-.005.077-.01.151.002.248s.016.264.236.424c.22.16.376.11.471.09.095-.02.165-.048.234-.078.14-.06.276-.134.41-.21.135-.074.266-.152.362-.202.005 0 .006 0 .012-.01.005 0 .006 0 .011.01.097.049.228.123.364.197.135.073.273.147.414.205.07.029.14.056.234.074.095.018.253.068.47-.095.22-.163.22-.329.231-.426a1.157 1.157 0 0 0 0-.248 4.584 4.584 0 0 0-.07-.461c-.03-.153-.06-.302-.078-.41l-.002-.014c.004 0 .005-.01.01-.01.076-.078.186-.181.297-.289.11-.108.222-.219.32-.336.049-.059.096-.115.142-.201.047-.086.14-.224.055-.484-.085-.26-.242-.311-.33-.352a1.152 1.152 0 0 0-.232-.078 4.283 4.283 0 0 0-.455-.074c-.153-.02-.302-.035-.409-.051h-.013c-.003-.01-.003-.01-.006-.012-.05-.097-.113-.237-.18-.377a4.565 4.565 0 0 0-.217-.412 1.146 1.146 0 0 0-.146-.197c-.066-.071-.165-.205-.436-.203v-.002zM8 18v1h5v-1H8zm11.498.646c.028.06.056.12.084.176.032.062.063.12.1.18.037.059.051.117.191.219.14.101.2.098.268.115.067.016.132.027.2.037.062.01.128.017.192.025-.047.045-.097.091-.14.135a2.53 2.53 0 0 0-.14.153c-.044.054-.091.086-.144.252-.052.166-.03.222-.025.292.005.07.014.136.025.206.01.062.025.126.037.191-.057-.031-.114-.064-.17-.092a2.147 2.147 0 0 0-.185-.086c-.064-.026-.111-.063-.283-.062-.172 0-.22.038-.283.064-.064.027-.123.058-.184.09-.055.029-.111.062-.168.094.012-.065.024-.132.033-.194.011-.069.019-.135.024-.205.004-.07.027-.125-.028-.29-.054-.166-.105-.2-.15-.253a2.365 2.365 0 0 0-.14-.148l-.141-.135c.064-.01.13-.017.191-.027.069-.011.132-.022.2-.04.067-.016.126-.016.265-.118.139-.104.155-.161.191-.221.036-.06.065-.119.096-.182.027-.055.057-.116.084-.176zM2 23h3v1.5c0 .84-.66 1.5-1.5 1.5S2 25.34 2 24.5V23zm6 0v1h6v-1H8zm12 1.615c.125.076.252.154.375.217.072.037.142.07.227.098.084.028.176.084.396.023H21v3.838l-1.422-.893-1.58.926v-3.887c.026.01.035.023.068.032.221.058.311 0 .395-.026.084-.029.153-.063.225-.101.103-.054.209-.122.314-.188V26.5h1v-1.885z" color="#000" font-family="sans-serif" font-weight="400" overflow="visible" style="line-height:normal;text-indent:0;text-align:start;text-decoration-line:none;text-decoration-style:solid;text-decoration-color:#000;text-transform:none;block-progression:tb;white-space:normal;isolation:auto;mix-blend-mode:normal;solid-color:#000;solid-opacity:1" fill="#ffffff" class="color000 svgShape"></path></svg></g></svg>