<svg width="80" height="80" viewBox="0 0 80 80" fill="none" xmlns="http://www.w3.org/2000/svg">
<g clip-path="url(#clip0_258_1654)">
<path d="M40 80C62.0914 80 80 62.0914 80 40C80 17.9086 62.0914 0 40 0C17.9086 0 0 17.9086 0 40C0 62.0914 17.9086 80 40 80Z" fill="black"/>
<path d="M10.0789 64.9999C9.51104 64.9999 8.92744 64.7791 8.50157 64.3375C7.61829 63.47 7.61829 62.0504 8.50157 61.1671L60.9779 8.69078C61.8454 7.8075 63.265 7.8075 64.1483 8.69078C65.0315 9.55829 65.0315 10.9778 64.1483 11.8611L11.6561 64.3375C11.2145 64.7791 10.6467 64.9999 10.0789 64.9999Z" fill="#C6C1A6"/>
<path d="M55.1419 2.98096C54.4637 4.33742 54.0536 5.86739 54.0536 7.50777C54.0536 13.0756 58.5647 17.5709 64.1167 17.5709C66.7981 17.5709 69.2271 16.5141 71.041 14.7948C66.8612 9.63711 61.388 5.53616 55.1419 2.98096Z" fill="#40D98C"/>
<path d="M4.9369 56.6089C4.49526 56.6089 4.0694 56.6404 3.6593 56.7035C6.13564 62.0821 9.7634 66.8139 14.2271 70.5837C14.7319 69.3849 15.0158 68.0758 15.0158 66.6877C15.0158 61.1199 10.5047 56.6089 4.9369 56.6089Z" fill="#40D98C"/>
<path d="M9.41639 14.2271C8.43847 15.3785 7.53942 16.593 6.68768 17.839L59.6845 70.8359C60.1262 71.2775 60.694 71.4983 61.2618 71.4983C61.8296 71.4983 62.4132 71.2775 62.8391 70.8359C63.7224 69.9684 63.7224 68.5488 62.8391 67.6655L9.41639 14.2271Z" fill="white"/>
<path d="M5.06311 20.5364C5.18929 20.5364 5.2997 20.5522 5.42589 20.5522C9.47951 20.5522 12.776 17.2557 12.776 13.202C12.776 12.4449 12.6656 11.7036 12.4448 11.0254C9.52683 13.8014 7.03472 17.0033 5.06311 20.5364Z" fill="#40D98C"/>
<path d="M69.5426 66.956C68.2492 65.8361 66.5615 65.1421 64.7161 65.1421C60.6625 65.1421 57.3659 68.4386 57.3659 72.4922C57.3659 73.6279 57.6341 74.7005 58.0915 75.6626C62.4133 73.4702 66.2934 70.5049 69.5426 66.956Z" fill="#40D98C"/>
<path d="M42.0189 39.921C42.0189 45.4888 37.5079 49.9841 31.9559 49.9841C26.4038 49.9841 21.8928 45.4731 21.8928 39.921C21.8928 34.3689 26.4038 29.8579 31.9559 29.8579C37.5079 29.8579 42.0189 34.3689 42.0189 39.921Z" fill="#40D98C"/>
</g>
<defs>
<clipPath id="clip0_258_1654">
<rect width="80" height="80" fill="white"/>
</clipPath>
</defs>
</svg>
