<svg width="80" height="80" viewBox="0 0 80 80" fill="none" xmlns="http://www.w3.org/2000/svg">
<path d="M40 80C62.0914 80 80 62.0914 80 40C80 17.9086 62.0914 0 40 0C17.9086 0 0 17.9086 0 40C0 62.0914 17.9086 80 40 80Z" fill="black"/>
<path d="M45.5047 41.9084C48.7539 45.1577 50.0789 51.2618 44.1167 57.2239C38.1546 63.1861 31.9716 61.7665 28.8013 58.6119L17.4921 47.3028C16.4038 46.2144 16.4038 44.4637 17.4921 43.3753L30.2524 30.6151C31.3407 29.5267 33.0915 29.5267 34.1798 30.6151L45.5047 41.9084Z" fill="white"/>
<path d="M1.71924 28.3596L17.1136 43.7539L30.6467 30.2208L11.9243 11.5142C7.23974 16.1356 3.69085 21.8927 1.71924 28.3596Z" fill="#C6C0A6"/>
<path d="M34.5268 41.9084C31.2776 45.1577 29.9527 51.2618 35.9148 57.2239C41.877 63.1861 48.0599 61.7665 51.2303 58.6119L62.5394 47.3028C63.6278 46.2144 63.6278 44.4637 62.5394 43.3753L49.7792 30.6151C48.6908 29.5267 46.9401 29.5267 45.8517 30.6151L34.5268 41.9084Z" fill="#40D98C"/>
<path d="M78.2965 28.3596L62.9022 43.7539L49.3691 30.2208L68.0915 11.5142C72.7918 16.1356 76.3407 21.8927 78.2965 28.3596Z" fill="#C6C0A6"/>
<path d="M18.4227 39.9998C18.4227 40.6149 17.918 41.1196 17.3028 41.1196C16.6877 41.1196 16.183 40.6149 16.183 39.9998C16.183 39.3846 16.6877 38.8799 17.3028 38.8799C17.918 38.8799 18.4227 39.3846 18.4227 39.9998Z" fill="white"/>
<path d="M64.4637 39.9998C64.4637 40.6149 63.959 41.1196 63.3438 41.1196C62.7287 41.1196 62.224 40.6149 62.224 39.9998C62.224 39.3846 62.7287 38.8799 63.3438 38.8799C63.959 38.8799 64.4637 39.3846 64.4637 39.9998Z" fill="white"/>
</svg>
