<svg width="80" height="80" viewBox="0 0 80 80" fill="none" xmlns="http://www.w3.org/2000/svg">
<g clip-path="url(#clip0_258_1741)">
<path d="M26.9874 60.6467C35.8044 60.6151 44.6057 60.5994 53.4227 60.6467C59.9527 60.694 65.2208 63.612 68.0915 68.4543C75.4416 61.1987 80 51.1356 80 39.9842C80 17.9022 62.082 0 40 0C17.918 0 0 17.9022 0 40C0 51.1514 4.57413 61.2461 11.9401 68.4858C14.8107 63.5489 20.0789 60.6782 26.9874 60.6467Z" fill="black"/>
<path d="M55.1419 2.98096C54.4637 4.33742 54.0536 5.86739 54.0536 7.50777C54.0536 13.0756 58.5647 17.5709 64.1167 17.5709C66.7981 17.5709 69.2271 16.5141 71.041 14.7948C66.8612 9.63711 61.388 5.53616 55.1419 2.98096Z" fill="#C6C1A6"/>
<path d="M1.19873 40.4574C0.804406 40.2681 0.410085 40.1262 -1.00309e-05 40C-0.0157829 45.9148 1.27759 51.735 3.73816 57.0347C4.70031 56.1672 5.50472 55.0789 6.08832 53.8328C8.43848 48.7855 6.24605 42.8076 1.19873 40.4574Z" fill="#C6C1A6"/>
<path d="M5.06308 20.5364C5.18926 20.5364 5.29967 20.5522 5.42586 20.5522C9.47948 20.5522 12.776 17.2557 12.776 13.202C12.776 12.4449 12.6656 11.7036 12.4448 11.0254C9.5268 13.8014 7.03469 17.0033 5.06308 20.5364Z" fill="#C6C1A6"/>
<path d="M79.6057 45.7729C77.9022 45.5678 76.1357 45.9464 74.6057 46.9874C71.2461 49.2744 70.3786 53.8328 72.6656 57.1924C73.2965 58.1388 74.1167 58.8643 75.0473 59.4006C77.3817 55.1577 78.9275 50.5363 79.6057 45.7729Z" fill="#C6C1A6"/>
<path d="M68.0915 68.4542C65.2366 63.6119 59.9684 60.6781 53.4227 60.6466C44.6057 60.5835 35.8044 60.5993 26.9874 60.6466C20.0789 60.6781 14.7949 63.5488 11.9243 68.4857C19.1483 75.5993 29.0536 79.9841 39.9842 79.9841C50.9464 79.9999 60.8675 75.5835 68.0915 68.4542Z" fill="#40D98C"/>
<path d="M63.9432 38.6275C64.2429 42.6181 63.5016 46.4824 58.2334 47.8862C57.3502 48.1228 56.6719 49.2742 56.0095 50.0944C47.3344 60.6307 32.6972 60.6465 23.8959 50.1417C23.2177 49.3215 22.5394 48.1386 21.6562 47.9178C16.1987 46.4824 15.7256 42.4288 15.7256 37.7758C15.7256 32.9178 16.8927 28.9903 21.735 26.8137C22.9022 26.2932 23.8801 25.2521 24.7634 24.29C33.2492 15.1102 46.8297 15.1417 55.3312 24.4162C56.0568 25.2048 56.7666 26.0566 57.6498 26.6086C63.3754 30.1575 63.9432 31.1197 63.9432 38.6275ZM39.9211 42.7916C44.795 42.7916 49.6845 42.8389 54.5584 42.7758C56.4353 42.7443 58.7382 43.5487 58.9905 40.2206C59.4322 34.3373 58.5016 31.6244 54.9211 31.4824C45.8991 31.1354 36.8297 30.8515 27.8076 31.2301C21.0883 31.514 20.7413 32.5392 20.9148 39.2585C20.9779 41.7979 21.7192 42.9178 24.4637 42.8231C29.6215 42.6654 34.7792 42.7916 39.9211 42.7916Z" fill="white"/>
<path d="M39.9211 42.7916C34.7634 42.7916 29.6214 42.6654 24.4637 42.8389C21.735 42.9336 20.9937 41.8137 20.9148 39.2743C20.7413 32.5392 21.0883 31.5298 27.8076 31.2459C36.8296 30.8673 45.8833 31.1512 54.9211 31.4982C58.5016 31.6402 59.4322 34.3531 58.9905 40.2364C58.7382 43.5645 56.4353 42.7601 54.5583 42.7916C49.6845 42.8389 44.8107 42.7916 39.9211 42.7916Z" fill="black"/>
</g>
<defs>
<clipPath id="clip0_258_1741">
<rect width="80" height="80" fill="white"/>
</clipPath>
</defs>
</svg>
