<svg width="80" height="80" viewBox="0 0 80 80" fill="none" xmlns="http://www.w3.org/2000/svg">
<path d="M40 80C62.0914 80 80 62.0914 80 40C80 17.9086 62.0914 0 40 0C17.9086 0 0 17.9086 0 40C0 62.0914 17.9086 80 40 80Z" fill="black"/>
<path d="M45.4574 40.3626H35.1893C33.6435 40.3626 32.3817 39.1008 32.3817 37.555V22.0976C32.3817 20.5519 33.6435 19.29 35.1893 19.29H45.4574C47.0032 19.29 48.265 20.5519 48.265 22.0976V37.555C48.2492 39.1165 47.0032 40.3626 45.4574 40.3626Z" fill="#C6C1A6"/>
<path d="M58.9905 44.9053H48.7224C47.1767 44.9053 45.9148 43.6434 45.9148 42.0977V30.9936C45.9148 29.4479 47.1767 28.186 48.7224 28.186H58.9905C60.5363 28.186 61.7981 29.4479 61.7981 30.9936V42.0977C61.7981 43.6592 60.5363 44.9053 58.9905 44.9053Z" fill="#40D98C"/>
<path d="M33.8644 36.672C33.8644 40.5995 30.694 43.7698 26.7666 43.7698C22.8391 43.7698 19.6688 40.5995 19.6688 36.672C19.6688 32.7446 22.8391 29.5742 26.7666 29.5742C30.694 29.5742 33.8644 32.7446 33.8644 36.672Z" fill="#40D98C"/>
<path d="M61.735 70.41H18.8328C17.5237 70.41 16.3722 69.4951 16.1041 68.2175L9.5899 38.6592H67.0032C69.511 38.6592 71.3722 40.9778 70.836 43.4226L65.5678 67.3185C65.1577 69.1324 63.5647 70.41 61.735 70.41Z" fill="white"/>
<path d="M27.6814 60.9777C26.4511 60.9777 25.4416 59.9683 25.4416 58.738V50.3311C25.4416 49.1008 26.4511 48.0913 27.6814 48.0913C28.9117 48.0913 29.9211 49.1008 29.9211 50.3311V58.738C29.9211 59.9683 28.9117 60.9777 27.6814 60.9777Z" fill="black"/>
<path d="M40.7413 60.9777C39.511 60.9777 38.5016 59.9683 38.5016 58.738V50.3311C38.5016 49.1008 39.511 48.0913 40.7413 48.0913C41.9716 48.0913 42.9811 49.1008 42.9811 50.3311V58.738C42.9811 59.9683 41.9716 60.9777 40.7413 60.9777Z" fill="black"/>
<path d="M53.7855 60.9777C52.5552 60.9777 51.5457 59.9683 51.5457 58.738V50.3311C51.5457 49.1008 52.5552 48.0913 53.7855 48.0913C55.0158 48.0913 56.0252 49.1008 56.0252 50.3311V58.738C56.0252 59.9683 55.0315 60.9777 53.7855 60.9777Z" fill="black"/>
<path d="M26.6246 73.4385C24.8265 73.4385 23.265 74.4637 22.4763 75.9621C25.2208 77.3028 28.1388 78.3281 31.1987 79.0221C31.2618 78.7224 31.2934 78.4227 31.2934 78.1072C31.2776 75.5205 29.1956 73.4385 26.6246 73.4385Z" fill="#40D98C"/>
<path d="M54.8423 73.4385C52.2713 73.4385 50.1735 75.5205 50.1735 78.1072C50.1735 78.2965 50.1893 78.4858 50.205 78.6751C53.1546 77.9022 55.9779 76.7823 58.6278 75.3943C57.7918 74.2113 56.4038 73.4385 54.8423 73.4385Z" fill="#40D98C"/>
<path d="M9.88959 31.9401C9.71609 31.1357 9.00631 30.5679 8.18612 30.5679H1.11987C0.83596 31.7193 0.61514 32.8865 0.425865 34.0695H6.78233L14.1167 67.3029C14.511 69.1168 16.1199 70.3944 17.9811 70.3786H18.3438C18.3438 70.2682 18.3281 70.142 18.2965 70.0316L9.88959 31.9401Z" fill="white"/>
</svg>
