<svg width="80" height="80" viewBox="0 0 80 80" fill="none" xmlns="http://www.w3.org/2000/svg">
<path d="M40 80C62.0914 80 80 62.0914 80 40C80 17.9086 62.0914 0 40 0C17.9086 0 0 17.9086 0 40C0 62.0914 17.9086 80 40 80Z" fill="black"/>
<path d="M11.6623 43.5016C10.7632 43.5016 9.87992 43.1546 9.18592 42.4764C7.81368 41.1042 7.81368 38.896 9.18592 37.5237L20.4793 26.2304C21.8515 24.8581 24.0597 24.8581 25.432 26.2304C26.8042 27.6026 26.8042 29.8108 25.432 31.183L14.1386 42.4764C13.4604 43.1546 12.5613 43.5016 11.6623 43.5016Z" fill="#C6C1A6"/>
<path d="M22.9556 54.7951C22.0566 54.7951 21.1575 54.4481 20.4793 53.7699L9.18592 42.4765C7.81368 41.1042 7.81368 38.896 9.18592 37.5238C10.5582 36.1516 12.7664 36.1516 14.1386 37.5238L25.432 48.8172C26.8042 50.1894 26.8042 52.3976 25.432 53.7699C24.7537 54.4481 23.8547 54.7951 22.9556 54.7951Z" fill="#C6C1A6"/>
<path d="M68.3218 36.4985C69.2209 36.4985 70.1042 36.8455 70.7982 37.5238C72.1704 38.896 72.1704 41.1042 70.7982 42.4765L59.5048 53.7698C58.1326 55.1421 55.9244 55.1421 54.5521 53.7698C53.1799 52.3976 53.1799 50.1894 54.5521 48.8171L65.8455 37.5238C66.5395 36.8455 67.4386 36.4985 68.3218 36.4985Z" fill="white"/>
<path d="M57.0285 25.2051C57.9275 25.2051 58.8266 25.5521 59.5048 26.2303L70.7982 37.5237C72.1704 38.8959 72.1704 41.1041 70.7982 42.4764C69.4259 43.8486 67.2177 43.8486 65.8455 42.4764L54.5521 31.183C53.1799 29.8108 53.1799 27.6026 54.5521 26.2303C55.2461 25.5521 56.1452 25.2051 57.0285 25.2051Z" fill="white"/>
<path fill-rule="evenodd" clip-rule="evenodd" d="M37.9999 60.5001C36.1135 60.0784 34.9261 58.2073 35.3477 56.3209L43.3207 20.6523C43.7424 18.7658 45.6135 17.5784 47.4999 18.0001C49.3864 18.4218 50.5738 20.2929 50.1521 22.1793L42.1792 57.8479C41.7575 59.7343 39.8864 60.9218 37.9999 60.5001Z" fill="#40D98C"/>
</svg>
