<svg width="80" height="80" viewBox="0 0 80 80" fill="none" xmlns="http://www.w3.org/2000/svg">
<path d="M40 80C62.0914 80 80 62.0914 80 40C80 17.9086 62.0914 0 40 0C17.9086 0 0 17.9086 0 40C0 62.0914 17.9086 80 40 80Z" fill="black"/>
<path d="M51.6086 40.0001C51.6086 46.4197 46.4035 51.6247 39.984 51.6247C33.5644 51.6247 28.3594 46.4197 28.3594 40.0001C28.3594 33.5805 33.5644 28.3755 39.984 28.3755C46.4193 28.3755 51.6086 33.5805 51.6086 40.0001Z" fill="white"/>
<path d="M22.1925 12.1606L32.9022 7.72843L31.53 0.914551C29.2272 1.41928 26.9401 2.11329 24.6846 3.04389C22.429 3.97449 20.3155 5.09436 18.3439 6.37196L22.1925 12.1606Z" fill="#40D98C"/>
<path d="M7.71293 32.9021L12.1451 22.1923L6.35646 18.3438C5.07886 20.3311 3.95898 22.4289 3.02839 24.6844C2.09779 26.94 1.40378 29.227 0.899048 31.5299L7.71293 32.9021Z" fill="#40D98C"/>
<path d="M12.1609 57.8074L7.72867 47.0977L0.914795 48.4699C1.41953 50.7727 2.11353 53.0598 3.04413 55.3153C3.97473 57.5708 5.09461 59.6844 6.37221 61.656L12.1609 57.8074Z" fill="#40D98C"/>
<path d="M32.9022 72.271L22.1924 67.8389L18.3596 73.6275C20.347 74.9051 22.4448 76.025 24.7003 76.9556C26.9558 77.8862 29.2429 78.5802 31.5457 79.0849L32.9022 72.271Z" fill="#40D98C"/>
<path d="M57.8076 67.8389L47.0978 72.271L48.47 79.0849C50.7729 78.5802 53.0599 77.8862 55.3154 76.9556C57.571 76.025 59.6845 74.9051 61.6561 73.6275L57.8076 67.8389Z" fill="#40D98C"/>
<path d="M72.2713 47.082L67.8391 57.7918L73.6278 61.6404C74.9054 59.653 76.0252 57.5552 76.9558 55.2997C77.8864 53.0442 78.5804 50.7571 79.0852 48.4543L72.2713 47.082Z" fill="#40D98C"/>
<path d="M67.8391 22.1923L72.2713 32.9021L79.0852 31.5299C78.5804 29.227 77.8864 26.94 76.9558 24.6844C76.0252 22.4289 74.9054 20.3154 73.6278 18.3438L67.8391 22.1923Z" fill="#40D98C"/>
<path d="M47.082 7.7128L57.7918 12.145L61.6246 6.35634C59.6372 5.07874 57.5394 3.95886 55.2839 3.02826C53.0284 2.09766 50.7413 1.40366 48.4385 0.898926L47.082 7.7128Z" fill="#40D98C"/>
<path d="M40 64.8582C26.2934 64.8582 15.142 53.7068 15.142 40.0001C15.142 26.2935 26.2934 15.1421 40 15.1421C53.7066 15.1421 64.8581 26.2935 64.8581 40.0001C64.8581 53.7068 53.7066 64.8582 40 64.8582ZM40 19.6216C28.754 19.6216 19.6215 28.7698 19.6215 40.0001C19.6215 51.2462 28.7697 60.3787 40 60.3787C51.2461 60.3787 60.3786 51.2304 60.3786 40.0001C60.3786 28.7541 51.2303 19.6216 40 19.6216Z" fill="#C6C1A6"/>
</svg>
