<svg width="60" height="60" viewBox="0 0 60 60" fill="none" xmlns="http://www.w3.org/2000/svg">
<g id="icon">
<circle id="Ellipse 1354" cx="30" cy="30" r="30" fill="#9B51E0"/>
<path id="Vector" d="M37.9128 13.8507C38.2013 13.9992 38.2864 14.246 38.2814 14.5546C38.2714 15.1718 38.2781 15.7906 38.2781 16.4478C38.4182 16.4478 38.5299 16.4478 38.6417 16.4478C40.1145 16.4495 41.5857 16.4495 43.0586 16.4511C43.9126 16.4528 44.2879 16.8431 44.2696 17.6955C44.2229 19.7822 44.0077 21.8471 43.4005 23.8538C42.9368 25.39 42.283 26.8245 41.0787 27.9404C40.3331 28.6309 39.4523 29.0513 38.4415 29.1764C38.2514 29.1997 38.1863 29.2681 38.1463 29.4566C37.4691 32.6492 35.5742 34.7325 32.4467 35.6866C32.3116 35.7283 32.2032 35.76 32.2032 35.9485C32.2099 37.9251 32.2099 39.9017 32.2115 41.8783C32.2115 41.9083 32.2249 41.9383 32.2399 41.9984C32.345 42.0034 32.4567 42.0134 32.5685 42.0134C33.2307 42.0151 33.8929 42.0184 34.5551 42.0117C34.842 42.0084 35.0538 42.1101 35.2206 42.352C35.8878 43.3211 36.565 44.2852 37.2389 45.2493C37.3773 45.4478 37.5125 45.6797 37.3306 45.8798C37.2005 46.0216 36.9637 46.1384 36.7735 46.1401C32.4 46.1551 28.0248 46.1501 23.6513 46.1534C23.4178 46.1534 23.2109 46.1134 23.0858 45.8899C22.9524 45.6497 23.0491 45.4495 23.1892 45.2493C23.8581 44.2936 24.5287 43.3395 25.1875 42.377C25.3677 42.1151 25.5945 42.0084 25.9031 42.0117C26.6587 42.0201 27.4143 42.0134 28.2033 42.0134C28.21 41.8783 28.22 41.7665 28.22 41.6548C28.2216 39.7933 28.2166 37.9334 28.225 36.0719C28.2266 35.8368 28.1633 35.7383 27.9214 35.6633C24.8823 34.7158 22.9974 32.6909 22.3119 29.5767C22.2502 29.2965 22.1551 29.2014 21.8598 29.1547C20.407 28.9295 19.3128 28.1239 18.4738 26.9446C17.5047 25.5818 16.9993 24.0289 16.659 22.4159C16.3287 20.8497 16.1769 19.2601 16.1536 17.6588C16.1419 16.8214 16.5255 16.4478 17.3679 16.4461C18.8291 16.4445 20.2919 16.4428 21.7531 16.4428C21.8682 16.4428 21.9833 16.4428 22.1484 16.4428C22.1484 16.1476 22.1484 15.869 22.1484 15.5904C22.1484 15.2435 22.1567 14.8965 22.1467 14.5496C22.1367 14.241 22.2268 13.9925 22.5154 13.8457C27.6478 13.8507 32.7803 13.8507 37.9128 13.8507ZM30.2132 19.1633C29.8947 19.8072 29.561 20.361 29.3425 20.9581C29.109 21.5969 28.7154 21.8538 28.0482 21.8805C27.4177 21.9072 26.7922 22.0523 26.1116 22.1524C26.2217 22.2692 26.2901 22.3442 26.3635 22.4159C26.8972 22.938 27.4393 23.4518 27.9581 23.9872C28.0548 24.0873 28.1165 24.2791 28.1015 24.4176C28.0565 24.8346 27.9631 25.2449 27.8914 25.6586C27.8196 26.0839 27.7513 26.5109 27.6729 26.9913C28.4652 26.5743 29.2041 26.199 29.9297 25.7987C30.1415 25.6819 30.3 25.6936 30.5051 25.8053C31.2307 26.2023 31.968 26.5793 32.7236 26.9746C32.7236 26.8812 32.7319 26.8195 32.7219 26.7628C32.5902 25.9972 32.4667 25.2299 32.3183 24.4676C32.2749 24.2424 32.3233 24.0973 32.4884 23.9438C32.9338 23.5285 33.3624 23.0932 33.8011 22.6695C33.9629 22.5127 34.1331 22.3642 34.3649 22.1541C33.4609 22.024 32.6652 21.9005 31.8662 21.7971C31.6077 21.7637 31.4409 21.6837 31.3225 21.4201C30.9872 20.6829 30.6086 19.959 30.2132 19.1633ZM42.2813 18.4761C40.9219 18.4761 39.6075 18.4761 38.3014 18.4761C38.3014 21.3884 38.3014 24.2724 38.3014 27.2365C38.6517 27.088 38.9753 26.9913 39.2555 26.8228C40.1512 26.2841 40.6617 25.43 41.057 24.4993C41.5991 23.2249 41.8943 21.8838 42.0745 20.5177C42.1612 19.8422 42.2112 19.165 42.2813 18.4761ZM22.1301 27.1781C22.1301 24.2608 22.1301 21.3684 22.1301 18.4694C20.8023 18.4694 19.4963 18.4694 18.1819 18.4694C18.1785 18.5311 18.1719 18.5712 18.1735 18.6112C18.2753 20.2826 18.4988 21.9339 19.0142 23.5318C19.3278 24.5026 19.7198 25.445 20.4287 26.2107C20.8874 26.7077 21.4262 27.0664 22.1301 27.1781Z" fill="white"/>
</g>
</svg>
