<svg width="106" height="21" viewBox="0 0 106 21" fill="none" xmlns="http://www.w3.org/2000/svg">
<path d="M92.5338 0.0494585C92.5338 0.0494585 82.9171 7.47338 79.9903 8.19103C77.0634 8.90867 25.4722 8.48798 22.7079 8.19102C19.9437 7.89407 12.2085 -1.41567e-05 12.2085 -1.41567e-05L92.5338 0.0494585Z" fill="url(#paint0_linear_2088_435)"/>
<g filter="url(#filter0_f_2088_435)">
<path d="M93.3257 0.0498247C93.3257 0.0498247 83.709 7.47375 80.7821 8.19139C77.8553 8.90904 26.264 8.48835 23.4998 8.19139C20.7356 7.89443 13.0004 0.000352054 13.0004 0.000352054L93.3257 0.0498247Z" fill="url(#paint1_linear_2088_435)"/>
</g>
<defs>
<filter id="filter0_f_2088_435" x="0.816326" y="-12.1837" width="104.693" height="32.9548" filterUnits="userSpaceOnUse" color-interpolation-filters="sRGB">
<feFlood flood-opacity="0" result="BackgroundImageFix"/>
<feBlend mode="normal" in="SourceGraphic" in2="BackgroundImageFix" result="shape"/>
<feGaussianBlur stdDeviation="6.09202" result="effect1_foregroundBlur_2088_435"/>
</filter>
<linearGradient id="paint0_linear_2088_435" x1="52.3712" y1="8.58667" x2="52.3712" y2="-1.04162e-05" gradientUnits="userSpaceOnUse">
<stop stop-color="#D2EB6C"/>
<stop offset="1" stop-color="#B2BF36"/>
</linearGradient>
<linearGradient id="paint1_linear_2088_435" x1="53.163" y1="8.58703" x2="53.163" y2="0.000355795" gradientUnits="userSpaceOnUse">
<stop stop-color="#D2EB6C"/>
<stop offset="1" stop-color="#B2BF36"/>
</linearGradient>
</defs>
</svg>
