<svg width="44" height="44" viewBox="0 0 44 44" fill="none" xmlns="http://www.w3.org/2000/svg">
<circle opacity="0.15" cx="22" cy="22" r="22" fill="#33AAF2"/>
<path d="M11 31.0066C13.4619 31.0803 15.6983 30.4768 17.7878 28.9218C15.659 28.6476 14.1932 27.6316 13.3833 25.5697C14.0825 25.5697 14.6887 25.5697 15.2959 25.5697C13.0988 24.6971 11.8699 23.1764 11.7034 20.7914C12.3758 20.9763 12.9995 21.1467 13.6222 21.3181C11.6662 19.0276 11.2276 16.9085 12.4151 14.9307C15.0125 17.9036 18.2201 19.6425 22.155 19.8939C22.155 19.441 22.1405 19.0463 22.1571 18.6526C22.2409 16.68 23.208 15.2538 24.9686 14.4612C26.6847 13.6883 28.3821 13.8805 29.8665 15.0855C30.3403 15.4709 30.7509 15.5311 31.2702 15.3192C31.9519 15.0408 32.6367 14.7718 33.3866 14.4716C33.0546 15.5238 32.3605 16.2375 31.6519 17.0103C32.3998 16.8077 33.1476 16.6062 33.8955 16.4037C33.9307 16.4348 33.9659 16.466 34.001 16.4972C33.4218 17.1059 32.8818 17.7603 32.2498 18.3056C31.8691 18.6339 31.7191 18.958 31.7067 19.441C31.6074 23.138 30.3444 26.3727 27.7698 29.0361C25.2769 31.6143 22.2109 32.8836 18.6287 32.9917C15.9724 33.0716 13.5105 32.4775 11.2172 31.1458C11.1417 31.1032 11.0714 31.0533 11 31.0066Z" fill="#33AAF2"/>
</svg>
