<svg width="55" height="46" viewBox="0 0 55 46" fill="none" xmlns="http://www.w3.org/2000/svg">
<path d="M41.3505 1H13.1077C12.0407 1 11.054 1.56673 10.5164 2.48839L2.14313 16.8425C1.46685 18.0019 1.64291 19.4694 2.57423 20.4358L25.0687 43.7791C26.2409 44.9956 28.186 45.0047 29.3696 43.7992L52.2728 20.4718C53.2365 19.4903 53.4092 17.9793 52.692 16.8057L43.9103 2.43565C43.3653 1.54389 42.3956 1 41.3505 1Z" stroke="#40D98C" stroke-width="2"/>
<path fill-rule="evenodd" clip-rule="evenodd" d="M37.4696 13.4142C38.2507 14.1953 38.2507 15.4616 37.4696 16.2426L26.8838 26.8284C26.0806 27.6316 24.7705 27.6055 24 26.7708L19.3566 21.7404C18.6074 20.9287 18.658 19.6634 19.4696 18.9142C20.2812 18.165 21.5466 18.2156 22.2958 19.0273L25.5273 22.5281L34.6412 13.4142C35.4222 12.6332 36.6886 12.6332 37.4696 13.4142Z" fill="#40D98C"/>
</svg>
