<svg width="31" height="34" viewBox="0 0 31 34" fill="none" xmlns="http://www.w3.org/2000/svg">
<path d="M30.4474 30.0535C29.9672 31.173 29.3095 32.0056 28.0359 31.9791C27.3174 31.964 26.8232 31.56 26.3535 31.0484C22.4666 26.8252 18.5745 22.6058 14.6911 18.3808C14.5032 18.175 14.3657 17.9164 14.1222 17.5633C13.3166 18.4695 12.6363 19.236 12.0134 19.9364C9.48889 17.2367 6.96955 14.5408 4.49023 11.8903C7.00087 9.17361 9.50455 6.46451 11.9438 3.82715C14.3971 6.48905 16.8973 9.20193 19.4758 11.996C18.8146 12.6379 18.096 13.3364 17.3427 14.0689C17.595 14.3709 17.7463 14.5654 17.9116 14.7466C21.628 18.8093 25.3565 22.8607 29.052 26.9479C29.6001 27.554 29.9881 28.3336 30.4491 29.0322C30.4474 29.3701 30.4474 29.7118 30.4474 30.0535Z" fill="white"/>
<path d="M0 31.0766C0.351454 30.1156 1.00043 29.7135 1.94692 29.806C2.36449 29.8476 2.78728 29.8136 3.3336 29.8136C3.19615 29.6418 3.15265 29.5644 3.09175 29.5172C2.42538 28.9942 2.234 28.2825 2.4567 27.4594C2.64635 26.7609 3.26922 26.3928 4.19831 26.389C7.38228 26.3814 10.5662 26.3814 13.7485 26.3871C14.6723 26.389 15.1578 26.7477 15.4048 27.5557C15.6415 28.3316 15.4187 28.898 14.6341 29.5134C14.5697 29.5625 14.5123 29.621 14.4792 29.8287C14.9594 29.8287 15.4396 29.8325 15.9216 29.8287C17.0142 29.8174 17.6197 30.2176 17.7867 31.0709C17.9642 31.9714 17.5692 32.636 16.5705 33.123C11.4518 33.123 6.3314 33.123 1.21269 33.123C0.809041 32.685 0.40365 32.2452 0 31.8072C0 31.5636 0 31.3201 0 31.0766Z" fill="white"/>
<path d="M15.6278 0.523193C16.0193 0.870562 16.4403 1.18773 16.7987 1.57285C18.3942 3.27949 19.9723 5.00501 21.5521 6.72675C22.5751 7.84059 22.5508 8.67315 21.4738 9.74923C21.2459 9.97767 21.0075 10.1948 20.8648 10.3307C18.3037 7.5593 15.7792 4.82377 13.1729 2.00329C13.7314 1.53887 14.342 1.03103 14.9527 0.523193C15.1789 0.523193 15.4034 0.523193 15.6278 0.523193Z" fill="white"/>
<path d="M10.6615 21.5334C10.3031 21.8978 9.94117 22.2961 9.55144 22.6567C8.96162 23.2042 8.16302 23.2136 7.60104 22.6114C5.70284 20.5782 3.8203 18.5241 1.95167 16.4569C1.43319 15.8849 1.42971 15.024 1.89948 14.3972C2.23701 13.946 2.62152 13.5345 2.9434 13.155C5.50971 15.9415 8.0534 18.7035 10.6615 21.5334Z" fill="white"/>
</svg>
