<svg width="614" height="603" viewBox="0 0 614 603" fill="none" xmlns="http://www.w3.org/2000/svg">
<path style="mix-blend-mode:multiply" d="M523.109 446.082L586.083 472.934L536.075 444.494L523.109 446.082Z" fill="url(#paint0_linear_425_84)"/>
<g style="mix-blend-mode:multiply">
<path d="M463.472 21.4536C555.041 72.0004 621.967 205.797 612.947 320.293C607.944 383.827 580.596 428.089 541.611 446.203L528.631 447.777L515.011 431.531C559.502 421.377 591.897 378.222 597.147 311.575C605.307 208.003 544.776 86.9877 461.916 41.2472C379.055 -4.49331 305.296 42.3946 297.136 145.969C291.886 212.617 315.075 286.46 354.313 342.825L327.717 328.142C294.716 270.288 276.33 200.781 281.346 137.247C290.353 22.7296 371.9 -29.1101 463.472 21.4536Z" fill="url(#paint1_linear_425_84)" fill-opacity="0.3"/>
</g>
<path d="M457.717 19.9942C549.544 70.5656 616.658 204.427 607.612 318.98C602.592 382.541 575.171 426.824 536.076 444.951L523.056 446.526L509.401 430.271C554.018 420.112 586.504 376.933 591.768 310.256C599.952 206.635 539.25 85.5568 456.152 39.7974C373.055 -5.96201 299.092 40.9454 290.912 144.57C285.647 211.247 308.901 285.127 348.25 341.522L321.579 326.833C288.482 268.947 270.044 199.408 275.078 135.844C284.11 21.2878 365.89 -30.5772 457.717 19.9942Z" fill="url(#paint2_linear_425_84)" fill-opacity="0.71"/>
<g style="mix-blend-mode:screen">
<path d="M301.292 443.4C307.948 447.72 315.865 449.94 324.933 450.026C333.944 450.107 342.914 447.964 351.74 443.668C359.831 439.733 363.853 435.45 363.939 430.824C364.025 426.273 360.546 421.894 353.565 417.652L330.927 403.925L326.57 401.283L271.749 424.208L301.292 443.4Z" fill="url(#paint3_linear_425_84)"/>
<path d="M169.8 360.244C39.1516 400.299 -45.1919 488.836 25.8529 554.335C107.887 629.966 315.306 612.245 434.094 532.356C493.708 492.261 511.486 447.314 497.047 412.351L369.732 342.037C312.594 334.386 238.449 339.19 169.8 360.244ZM402.921 388.933L374.571 401.568L382.824 406.407C383.074 406.555 383.284 406.703 383.531 406.853L411.757 393.95L420.688 399.003L391.889 412.528C400.222 419.128 404.491 426.071 404.505 433.418C404.521 443.421 396.494 452.817 379.878 461.604C358.447 472.938 334.108 476.734 307.669 472.481C306.056 485.653 298.187 496.121 283.744 503.608C260.625 515.592 238.374 521.528 217.766 520.915C203.965 520.498 191.327 517.574 179.951 512.283L124.065 538.579L113.987 530.211L167.991 505.479C166.571 504.514 165.155 503.554 163.792 502.501L157.953 498.014L104.081 521.998L94.3438 513.912L148.289 490.546L140.598 484.6L110.532 461.346L98.3815 451.956L141.221 435.908L153.3 444.738L302.615 386.753L291.093 379.764L319.589 369.083L358.856 392.097L358.606 392.205L365.694 396.358L394.206 384.006L402.921 388.933Z" fill="url(#paint4_linear_425_84)"/>
</g>
<mask id="mask0_425_84" style="mask-type:luminance" maskUnits="userSpaceOnUse" x="277" y="23" width="303" height="409">
<path d="M496.216 431.629C540.707 421.475 573.105 378.32 578.355 311.676C586.512 208.105 525.984 87.086 443.12 41.3455C360.257 -4.39503 286.501 42.4963 278.341 146.071C273.091 212.715 296.28 286.558 335.518 342.927L496.216 431.629Z" fill="white"/>
</mask>
<g mask="url(#mask0_425_84)">
<path d="M307.656 340.469L616.213 201.271L714.812 274.35L530.875 465.124L307.656 340.469Z" fill="url(#paint5_linear_425_84)"/>
<path d="M346.349 30.633L481.029 -25.1228C443.909 -9.75637 498.629 0.0591774 493.958 59.3993C488.709 126.044 430.949 230.803 470.198 287.168L335.518 342.927C296.256 286.558 273.091 212.715 278.341 146.071C283.015 86.7306 309.229 45.9994 346.349 30.633Z" fill="url(#paint6_linear_425_84)"/>
<path d="M357.109 248.857L491.789 193.101L506.39 201.16L371.711 256.916L357.109 248.857Z" fill="url(#paint7_linear_425_84)"/>
<path d="M423.422 317.454L558.101 261.698L555.414 295.836L420.734 351.591L423.422 317.454Z" fill="url(#paint8_linear_425_84)"/>
<path d="M444.85 328.339L579.53 272.583L576.771 307.625L442.091 363.381L444.85 328.339Z" fill="url(#paint9_linear_425_84)"/>
<path d="M411.477 138.98L546.157 83.224L566.803 211.334L401.506 273.233L411.477 138.98Z" fill="url(#paint10_linear_425_84)"/>
<path d="M585.324 239.623C584.054 239.836 582.763 239.893 581.479 239.792C580.12 239.69 578.773 239.464 577.455 239.115C575.804 238.679 574.189 238.121 572.621 237.443C571.055 236.768 569.523 236.015 568.032 235.186L541.215 220.381L535.949 217.474L401.269 273.233L406.535 276.137L433.352 290.941C434.843 291.77 436.375 292.524 437.942 293.199C439.508 293.879 441.124 294.438 442.775 294.871C444.093 295.218 445.44 295.444 446.8 295.548C448.083 295.646 449.375 295.588 450.645 295.375C451.497 295.232 452.334 295.005 453.142 294.699L587.822 238.939C587.014 239.249 586.177 239.478 585.324 239.623Z" fill="url(#paint11_linear_425_84)"/>
<path d="M588.083 238.831L453.417 294.597L453.156 294.702L587.836 238.943L588.083 238.831Z" fill="url(#paint12_linear_425_84)"/>
<mask id="mask1_425_84" style="mask-type:luminance" maskUnits="userSpaceOnUse" x="453" y="238" width="136" height="57">
<path d="M588.083 238.831L453.417 294.597L453.156 294.702L587.836 238.943L588.083 238.831Z" fill="white"/>
</mask>
<g mask="url(#mask1_425_84)">
<path d="M453.142 294.692L587.822 238.933L588.083 238.831L453.416 294.597L453.156 294.702" fill="url(#paint13_linear_425_84)"/>
</g>
<path d="M554.148 56.1974L519.323 36.9758L504.725 28.9169L370.045 84.676L384.643 92.7349L419.468 111.957L428.089 116.715L562.769 60.9596L554.148 56.1974Z" fill="url(#paint14_linear_425_84)"/>
<path d="M608.648 274.164L473.968 329.919C474.158 329.842 491.342 313.673 492.743 295.92C494.456 274.143 487.707 253.575 472.496 234.214L607.176 178.459C622.389 197.819 629.138 218.387 627.423 240.161C626.022 257.929 619.954 269.181 609.22 273.92C609.03 274.005 608.838 274.086 608.648 274.164Z" fill="url(#paint15_linear_425_84)"/>
<mask id="mask2_425_84" style="mask-type:luminance" maskUnits="userSpaceOnUse" x="472" y="178" width="156" height="152">
<path d="M608.648 274.164L473.968 329.919C474.158 329.842 491.342 313.673 492.743 295.92C494.456 274.143 487.707 253.575 472.496 234.214L607.176 178.459C622.389 197.819 629.138 218.387 627.423 240.161C626.022 257.929 619.954 269.181 609.22 273.92C609.03 274.005 608.838 274.086 608.648 274.164Z" fill="white"/>
</mask>
<g mask="url(#mask2_425_84)">
<path d="M627.656 231.463C627.589 228.875 627.398 226.305 627.084 223.753C626.766 221.149 626.315 218.564 625.73 215.998C625.019 212.835 624.122 209.717 623.043 206.66C619.633 196.989 604.4 154.554 597.225 145.424L462.555 201.18C469.731 210.312 484.964 252.748 488.373 262.419C489.453 265.475 490.35 268.592 491.061 271.754C491.636 274.32 492.088 276.905 492.415 279.512C492.728 282.059 492.919 284.628 492.987 287.219C493.057 290.079 492.983 292.942 492.763 295.795V295.921C492.533 298.965 492.122 301.993 491.531 304.988C490.982 307.791 490.201 310.543 489.196 313.216C486.132 321.236 481.253 326.722 474.561 329.676C474.371 329.761 474.178 329.842 473.989 329.92L608.668 274.164C608.858 274.086 609.051 274.005 609.24 273.92C615.935 270.964 620.814 265.477 623.876 257.457C624.88 254.785 625.661 252.034 626.211 249.232C626.802 246.236 627.213 243.207 627.443 240.161V240.036C627.659 237.184 627.73 234.322 627.656 231.463Z" fill="url(#paint16_linear_425_84)"/>
</g>
<path d="M445.141 126.128L579.821 70.369C581.296 71.1847 582.704 72.0411 584.116 72.9008L449.436 128.657C448.025 127.8 446.617 126.94 445.141 126.128Z" fill="url(#paint17_linear_425_84)"/>
<path d="M441.577 86.981L576.257 31.2252L573.451 66.8557L438.771 122.611L441.577 86.981Z" fill="url(#paint18_linear_425_84)"/>
<path d="M582.305 71.8042C581.493 71.3168 580.667 70.8362 579.821 70.3691L573.451 66.8524L438.771 122.608L445.141 126.128C445.987 126.595 446.813 127.076 447.625 127.563C448.23 127.927 448.834 128.291 449.436 128.657L584.116 72.9008L582.305 71.8042Z" fill="url(#paint19_linear_425_84)"/>
<path d="M430.898 81.0849L565.578 25.3291L576.257 31.2252L441.577 86.981L430.898 81.0849Z" fill="url(#paint20_linear_425_84)"/>
<path d="M462.934 98.7699L597.614 43.0142L594.686 80.1881L460.007 135.944L462.934 98.7699Z" fill="url(#paint21_linear_425_84)"/>
<path d="M452.256 92.8738L586.935 37.118L597.614 43.0141L462.934 98.7699L452.256 92.8738Z" fill="url(#paint22_linear_425_84)"/>
</g>
<path d="M474.447 329.535C465.711 331.281 456.393 332.679 444.736 328.18L441.975 363.236L431.285 357.338L433.995 323.143C433.703 322.983 433.422 322.861 433.124 322.696L423.301 317.278L420.608 351.424L409.91 345.57L412.62 311.421L403.989 306.661L354.499 279.646L356.938 248.69L371.551 256.752L382.052 123.472L367.439 115.411L369.881 84.4549L384.491 92.5163L419.344 111.744L427.972 116.508L430.783 80.866L441.471 86.7639L438.662 122.402L445.037 125.923C446.514 126.736 447.924 127.596 449.336 128.452L452.148 92.6551L462.835 98.5531L459.905 135.739C470.687 141.41 465.098 139.615 474.447 144.288C483.769 148.946 498.442 159.652 503.375 171.543C516.078 222.837 500.438 324.339 474.447 329.535ZM453.035 294.54C458.137 292.569 459.905 286.489 461.683 278.965C468.137 245.86 474.447 186.609 462.835 174.251C456.399 167.818 453.052 162.856 445.752 158.911L411.577 140.055L401.12 273.061L406.387 275.966L433.229 290.775C441.332 295.244 447.934 296.495 453.035 294.526" fill="url(#paint23_linear_425_84)"/>
<path d="M444.969 22.0018C536.52 72.5217 603.426 206.247 594.411 320.683C589.406 384.179 562.065 428.417 523.089 446.526L496.495 431.847C540.976 421.699 573.367 378.567 578.615 311.958C586.77 208.442 526.256 87.4875 443.412 41.7713C360.568 -3.94488 286.83 42.9215 278.672 146.441C273.423 213.05 296.606 286.854 335.835 343.192L309.245 328.517C276.252 270.691 257.871 201.22 262.886 137.723C271.89 23.294 353.418 -28.5079 444.969 22.0018Z" fill="url(#paint24_linear_425_84)"/>
<path d="M308.448 327.758C305.387 322.412 302.454 316.971 299.65 311.435C302.546 317.183 305.583 322.833 308.761 328.385L335.2 342.922L334.696 342.188L308.448 327.758Z" fill="#CF971B"/>
<path d="M557.344 146.888C584.223 200.895 598.602 262.835 594.111 319.973C589.116 383.508 561.832 427.777 522.941 445.893L497.277 431.7L496.7 431.838L523.238 446.526C562.132 428.399 589.424 384.135 594.408 320.606C598.929 263.252 584.426 201.047 557.344 146.888Z" fill="#CF971B"/>
<path d="M442.635 40.5097C359.89 -5.27266 286.189 41.6585 278.041 145.358C273.939 197.545 287.206 254.138 311.931 303.309C287.409 254.277 274.271 197.949 278.355 145.992C286.506 42.2955 360.208 -4.63897 442.953 41.14C484.255 63.9939 519.998 105.608 544.439 154.454C519.991 105.334 484.116 63.4584 442.635 40.5097Z" fill="#FFF689"/>
<path style="mix-blend-mode:multiply" d="M265.724 449.466L39 543.948L51.0525 553L280 449L276.039 449.153L190.549 484.662L269.168 449.386L265.724 449.466Z" fill="url(#paint25_linear_425_84)"/>
<path d="M269.738 383.551C268.526 384.071 266.978 383.841 266.131 383.645C266.22 384.378 266.29 385.013 266.335 385.516C266.937 392.279 271.231 400.818 271.231 400.818L273.241 399.754C273.241 399.754 270.222 391.002 269.738 383.551Z" fill="url(#paint26_linear_425_84)"/>
<path d="M270.111 384.112C270.05 383.042 269.587 381.889 269.633 380.902C270.037 372.464 273.544 368.957 271.687 364.864C270.923 363.183 266.695 361.481 265.34 367.062C264.76 369.451 265.427 379.439 265.954 384.464C266.692 384.647 269.05 384.616 270.111 384.112Z" fill="url(#paint27_linear_425_84)"/>
<path d="M261.794 441.447L261.053 443.118L262.62 443.6L262.871 443.285L263.209 443.658L266.114 444.494C266.114 444.494 266.314 443.898 265.356 443.419C264.737 443.067 264.151 442.678 263.602 442.255L263.575 441.867L261.794 441.447Z" fill="#3A4135"/>
<path d="M272.653 357.142C272.369 357.679 270.407 359.58 269.178 367.299L276.235 366.913C276.235 366.913 274.022 361.877 276.288 358.572L272.653 357.142Z" fill="url(#paint28_linear_425_84)"/>
<path d="M277.791 351.048C277.791 351.048 278.099 351.749 277.859 353.255C277.597 355.108 278.022 354.858 278.315 355.586C278.358 355.697 278.136 355.722 277.812 355.833C277.852 356.692 277.424 359.273 277.073 359.171C275.116 358.612 273.615 357.899 273.631 355.978C271.699 353.638 272.321 351.378 272.321 351.378L277.791 351.048Z" fill="url(#paint29_linear_425_84)"/>
<path d="M268.672 395.74L281.344 396.075C281.459 398.221 281.344 406.499 276.318 410.755C275.941 412.338 275.209 419.2 272.815 425.469C270.538 431.432 266.654 436.731 264.128 441.447L262.068 440.803C266.061 432.418 268.573 422.169 269.636 422.055C269.636 420.787 269.239 411.745 269.357 407.086C264.699 401.609 268.672 395.74 268.672 395.74Z" fill="url(#paint30_linear_425_84)"/>
<path d="M274.259 408.722C274.259 408.722 274.402 408.569 274.689 424.707C273.644 429.964 275.588 438.16 275.116 446.526L277.508 446.38C279.863 425.677 281.749 412.808 282.214 405.209C284.394 397.966 282.897 394.724 282.897 394.724L271.214 394.802C271.214 394.802 267.496 402.927 274.259 408.722Z" fill="url(#paint31_linear_425_84)"/>
<path d="M277.8 364.821C282.309 365.978 282.048 369.027 284.227 374.061C285.058 375.981 282.855 378.777 282.772 382.172C282.597 389.938 283.167 389.359 283.651 392.053C284.135 394.746 284.337 396.385 284.337 396.385C284.337 396.385 284.162 396.837 280.013 397.6C275.864 398.363 267.934 396.32 267.934 396.32C267.934 396.32 269.306 387.645 267.59 379.944C264.735 367.179 266.592 364.612 268.723 363.486C270.631 362.484 277.8 364.821 277.8 364.821Z" fill="url(#paint32_linear_425_84)"/>
<path d="M273.648 362.477C271.564 361.928 270.436 362.433 270.436 362.433L269.178 364.659C269.178 364.659 270.8 365.31 273.746 365.266C274.958 365.204 276.154 365.001 277.304 364.662C276.366 363.628 275.091 362.866 273.648 362.477Z" fill="#F1F2F2"/>
<path d="M275.273 446.645V448.557H276.884L276.981 448.16L277.422 448.435L280.351 448.375C280.351 448.375 280.284 447.716 279.236 447.531C278.543 447.37 277.863 447.16 277.203 446.904L277.023 446.526L275.273 446.645Z" fill="#3A4135"/>
<path d="M278.241 352.512C278.241 352.512 276.397 351.923 276.459 353.777C276.522 355.63 276.379 360.354 277.905 361.87C274.466 363.806 269.454 363.574 268.466 361.87C268.118 361.057 268.068 360.15 268.324 359.304C268.799 357.822 270.504 356.319 269.936 355.378C268.944 353.739 268.549 351.05 271.176 349.135C273.804 347.22 276.241 348.174 277.371 348.794C278.501 349.415 280.647 351.599 278.241 352.512Z" fill="#603813"/>
<path d="M292.668 402.116C292.523 401.664 292.327 401.228 292.085 400.815C291.885 400.617 289.109 399.485 289.109 399.485C288.499 398.509 284.431 391.753 282.539 385.582C281.566 386.291 280.132 386.386 279.336 386.376C279.57 387.027 279.773 387.586 279.922 388.035C281.726 393.454 286.509 399.589 287.455 400.77C287.563 400.9 287.621 400.975 287.621 400.975C288.299 401.719 290.719 404.41 290.943 404.631C291.017 404.71 291.107 404.772 291.208 404.816C291.309 404.859 291.419 404.881 291.529 404.881C291.64 404.881 291.749 404.859 291.85 404.816C291.951 404.772 292.042 404.71 292.116 404.631C292.587 404.231 293.614 403.121 293.553 403.004C293.277 402.691 292.982 402.395 292.668 402.116Z" fill="url(#paint33_linear_425_84)"/>
<path d="M283.399 385.275C283.12 384.246 282.439 383.245 282.273 382.278C280.917 374.013 283.552 369.79 280.933 366.265C279.849 364.819 275.424 364.171 275.274 369.896C275.21 372.347 277.918 381.857 279.466 386.598C280.217 386.595 282.484 386.005 283.399 385.275Z" fill="url(#paint34_linear_425_84)"/>
<defs>
<linearGradient id="paint0_linear_425_84" x1="555.509" y1="463.919" x2="543.385" y2="406.504" gradientUnits="userSpaceOnUse">
<stop stop-color="white"/>
<stop offset="1" stop-color="#8A4D4C"/>
</linearGradient>
<linearGradient id="paint1_linear_425_84" x1="350.834" y1="235.897" x2="658.89" y2="204.693" gradientUnits="userSpaceOnUse">
<stop stop-color="white"/>
<stop offset="1" stop-color="#8A4D4C"/>
</linearGradient>
<linearGradient id="paint2_linear_425_84" x1="344.758" y1="234.559" x2="653.671" y2="203.196" gradientUnits="userSpaceOnUse">
<stop stop-color="#D9A128"/>
<stop offset="1" stop-color="#BC6818"/>
</linearGradient>
<linearGradient id="paint3_linear_425_84" x1="160.891" y1="673.873" x2="427.93" y2="256.699" gradientUnits="userSpaceOnUse">
<stop offset="0.4"/>
<stop offset="0.44" stop-color="#060501"/>
<stop offset="0.5" stop-color="#161203"/>
<stop offset="0.56" stop-color="#312806"/>
<stop offset="0.63" stop-color="#57470B"/>
<stop offset="0.7" stop-color="#876F12"/>
<stop offset="0.78" stop-color="#C29E19"/>
<stop offset="0.85" stop-color="#FCCE21"/>
</linearGradient>
<linearGradient id="paint4_linear_425_84" x1="98.0884" y1="593.871" x2="399.072" y2="238.225" gradientUnits="userSpaceOnUse">
<stop offset="0.532901"/>
<stop offset="0.58613" stop-color="#060501"/>
<stop offset="0.635882" stop-color="#161203"/>
<stop offset="0.682095" stop-color="#312806"/>
<stop offset="0.778629" stop-color="#288556"/>
<stop offset="0.85" stop-color="#40D98C"/>
</linearGradient>
<linearGradient id="paint5_linear_425_84" x1="617.072" y1="248.779" x2="313.156" y2="485.415" gradientUnits="userSpaceOnUse">
<stop stop-color="#FFF8C8"/>
<stop offset="0.24" stop-color="#FFF7C5"/>
<stop offset="0.39" stop-color="#FFF3BD"/>
<stop offset="0.53" stop-color="#FEEDAE"/>
<stop offset="0.64" stop-color="#FEE499"/>
<stop offset="0.75" stop-color="#FDD87D"/>
<stop offset="0.86" stop-color="#FCCA5C"/>
<stop offset="0.95" stop-color="#FCB935"/>
<stop offset="1" stop-color="#FBAF1E"/>
</linearGradient>
<linearGradient id="paint6_linear_425_84" x1="430.039" y1="156.191" x2="241.448" y2="179.67" gradientUnits="userSpaceOnUse">
<stop stop-color="#FFF8C8"/>
<stop offset="0.23" stop-color="#FFF7C5"/>
<stop offset="0.38" stop-color="#FFF3BD"/>
<stop offset="0.51" stop-color="#FEEDAE"/>
<stop offset="0.62" stop-color="#FEE499"/>
<stop offset="0.73" stop-color="#FDD87D"/>
<stop offset="0.83" stop-color="#FCCA5C"/>
<stop offset="0.92" stop-color="#FCB935"/>
<stop offset="0.96" stop-color="#FBAF1E"/>
</linearGradient>
<linearGradient id="paint7_linear_425_84" x1="357.486" y1="223.841" x2="505.977" y2="226.174" gradientUnits="userSpaceOnUse">
<stop stop-color="white"/>
<stop offset="1" stop-color="#FAAF1D"/>
</linearGradient>
<linearGradient id="paint8_linear_425_84" x1="387.854" y1="305.046" x2="523.773" y2="307.181" gradientUnits="userSpaceOnUse">
<stop stop-color="white"/>
<stop offset="1" stop-color="#FAAF1D"/>
</linearGradient>
<linearGradient id="paint9_linear_425_84" x1="553.133" y1="300.923" x2="318.92" y2="395.315" gradientUnits="userSpaceOnUse">
<stop offset="0.06" stop-color="white"/>
<stop offset="0.16" stop-color="#FFFAF1"/>
<stop offset="0.34" stop-color="#FEEDCB"/>
<stop offset="0.59" stop-color="#FDD78F"/>
<stop offset="0.89" stop-color="#FBBA3C"/>
<stop offset="1" stop-color="#FAAF1D"/>
</linearGradient>
<linearGradient id="paint10_linear_425_84" x1="488.742" y1="213.629" x2="250.939" y2="272.096" gradientUnits="userSpaceOnUse">
<stop offset="0.19" stop-color="white"/>
<stop offset="0.29" stop-color="#FEEBC6"/>
<stop offset="0.41" stop-color="#FCD68A"/>
<stop offset="0.52" stop-color="#FBC55B"/>
<stop offset="0.62" stop-color="#FBB939"/>
<stop offset="0.7" stop-color="#FAB224"/>
<stop offset="0.75" stop-color="#FAAF1D"/>
</linearGradient>
<linearGradient id="paint11_linear_425_84" x1="498.707" y1="255.115" x2="260.903" y2="313.582" gradientUnits="userSpaceOnUse">
<stop offset="0.23" stop-color="white"/>
<stop offset="0.32" stop-color="#FEEED0"/>
<stop offset="0.47" stop-color="#FCD384"/>
<stop offset="0.59" stop-color="#FBC04C"/>
<stop offset="0.68" stop-color="#FAB42A"/>
<stop offset="0.73" stop-color="#FAAF1D"/>
</linearGradient>
<linearGradient id="paint12_linear_425_84" x1="453.577" y1="265.704" x2="587.604" y2="267.81" gradientUnits="userSpaceOnUse">
<stop stop-color="white"/>
<stop offset="1" stop-color="#29ABE2"/>
</linearGradient>
<linearGradient id="paint13_linear_425_84" x1="453.577" y1="265.704" x2="587.604" y2="267.81" gradientUnits="userSpaceOnUse">
<stop stop-color="white"/>
<stop offset="1" stop-color="#29ABE2"/>
</linearGradient>
<linearGradient id="paint14_linear_425_84" x1="520.91" y1="40.1641" x2="222.01" y2="219.237" gradientUnits="userSpaceOnUse">
<stop offset="0.21" stop-color="white"/>
<stop offset="1" stop-color="#FAAF1D"/>
</linearGradient>
<linearGradient id="paint15_linear_425_84" x1="472.177" y1="253.113" x2="627.325" y2="255.55" gradientUnits="userSpaceOnUse">
<stop stop-color="white"/>
<stop offset="1" stop-color="#29ABE2"/>
</linearGradient>
<linearGradient id="paint16_linear_425_84" x1="600.091" y1="235.558" x2="329.558" y2="320.239" gradientUnits="userSpaceOnUse">
<stop offset="0.15625" stop-color="white"/>
<stop offset="1" stop-color="#FAAF1D"/>
</linearGradient>
<linearGradient id="paint17_linear_425_84" x1="445.559" y1="98.429" x2="583.66" y2="100.598" gradientUnits="userSpaceOnUse">
<stop stop-color="white"/>
<stop offset="1" stop-color="#29ABE2"/>
</linearGradient>
<linearGradient id="paint18_linear_425_84" x1="508.665" y1="76.4546" x2="327.459" y2="149.496" gradientUnits="userSpaceOnUse">
<stop offset="0.13" stop-color="white"/>
<stop offset="0.14" stop-color="#FFFDF8"/>
<stop offset="0.23" stop-color="#FEEBC5"/>
<stop offset="0.32" stop-color="#FDDB98"/>
<stop offset="0.42" stop-color="#FCCD72"/>
<stop offset="0.52" stop-color="#FBC253"/>
<stop offset="0.62" stop-color="#FBBA3B"/>
<stop offset="0.73" stop-color="#FAB42A"/>
<stop offset="0.85" stop-color="#FAB020"/>
<stop offset="1" stop-color="#FAAF1D"/>
</linearGradient>
<linearGradient id="paint19_linear_425_84" x1="492.692" y1="105.783" x2="388.881" y2="150.231" gradientUnits="userSpaceOnUse">
<stop offset="0.05" stop-color="white"/>
<stop offset="0.94" stop-color="#FAAF1D"/>
</linearGradient>
<linearGradient id="paint20_linear_425_84" x1="491.748" y1="61.6907" x2="336.344" y2="134.421" gradientUnits="userSpaceOnUse">
<stop offset="0.24" stop-color="white"/>
<stop offset="0.99" stop-color="#FAAF1D"/>
<stop offset="1" stop-color="#29ABE2"/>
</linearGradient>
<linearGradient id="paint21_linear_425_84" x1="570.34" y1="72.2611" x2="254.394" y2="203.248" gradientUnits="userSpaceOnUse">
<stop offset="0.11" stop-color="white"/>
<stop offset="0.75" stop-color="#FAAF1D"/>
</linearGradient>
<linearGradient id="paint22_linear_425_84" x1="536.72" y1="63.1157" x2="303.415" y2="158.689" gradientUnits="userSpaceOnUse">
<stop offset="0.24" stop-color="white"/>
<stop offset="0.99" stop-color="#FAAF1D"/>
<stop offset="1" stop-color="#29ABE2"/>
</linearGradient>
<linearGradient id="paint23_linear_425_84" x1="536.49" y1="310.829" x2="264.238" y2="69.1946" gradientUnits="userSpaceOnUse">
<stop offset="0.13" stop-color="#D98F1B"/>
<stop offset="0.42" stop-color="#F8D300"/>
<stop offset="0.68" stop-color="#E9A41B"/>
</linearGradient>
<linearGradient id="paint24_linear_425_84" x1="695.359" y1="122.368" x2="116.912" y2="354.017" gradientUnits="userSpaceOnUse">
<stop offset="0.17" stop-color="#269F62"/>
<stop offset="0.36" stop-color="#40D98C"/>
<stop offset="0.82" stop-color="#2C9761"/>
</linearGradient>
<linearGradient id="paint25_linear_425_84" x1="77.8782" y1="543.179" x2="355.951" y2="381.838" gradientUnits="userSpaceOnUse">
<stop stop-color="white"/>
<stop offset="1" stop-color="#8E8E8E"/>
</linearGradient>
<linearGradient id="paint26_linear_425_84" x1="270.772" y1="391.814" x2="267.283" y2="392.581" gradientUnits="userSpaceOnUse">
<stop stop-color="#FECF90"/>
<stop offset="1" stop-color="#DA9764"/>
</linearGradient>
<linearGradient id="paint27_linear_425_84" x1="264.634" y1="373.192" x2="278.433" y2="375.868" gradientUnits="userSpaceOnUse">
<stop stop-color="#F1F2F2"/>
<stop offset="1" stop-color="#BABCBE"/>
</linearGradient>
<linearGradient id="paint28_linear_425_84" x1="273.838" y1="362.817" x2="271.678" y2="362.379" gradientUnits="userSpaceOnUse">
<stop stop-color="#EEC07F"/>
<stop offset="1" stop-color="#DA9B65"/>
</linearGradient>
<linearGradient id="paint29_linear_425_84" x1="277.304" y1="353.879" x2="274.199" y2="355.555" gradientUnits="userSpaceOnUse">
<stop stop-color="#FECF90"/>
<stop offset="1" stop-color="#DA9764"/>
</linearGradient>
<linearGradient id="paint30_linear_425_84" x1="277.776" y1="410.085" x2="264.745" y2="423.101" gradientUnits="userSpaceOnUse">
<stop offset="0.03" stop-color="#00A3FF"/>
<stop offset="0.67" stop-color="#0072B3"/>
<stop offset="1" stop-color="#06507A"/>
</linearGradient>
<linearGradient id="paint31_linear_425_84" x1="279" y1="405" x2="266.324" y2="440.15" gradientUnits="userSpaceOnUse">
<stop offset="0.03" stop-color="#00A3FF"/>
<stop offset="0.432292" stop-color="#0072B3"/>
<stop offset="1" stop-color="#06507A"/>
</linearGradient>
<linearGradient id="paint32_linear_425_84" x1="282.227" y1="370.485" x2="265.99" y2="396.046" gradientUnits="userSpaceOnUse">
<stop stop-color="#F1F2F2"/>
<stop offset="1" stop-color="#BABCBE"/>
</linearGradient>
<linearGradient id="paint33_linear_425_84" x1="288.136" y1="394.485" x2="283.206" y2="396.842" gradientUnits="userSpaceOnUse">
<stop stop-color="#FECF90"/>
<stop offset="1" stop-color="#DA9764"/>
</linearGradient>
<linearGradient id="paint34_linear_425_84" x1="280.08" y1="375.576" x2="267.691" y2="385.558" gradientUnits="userSpaceOnUse">
<stop stop-color="#F1F2F2"/>
<stop offset="1" stop-color="#BABCBE"/>
</linearGradient>
</defs>
</svg>
