<?xml version="1.0" encoding="UTF-8"?>
<svg width="72px" height="72px" viewBox="0 0 72 72" version="1.1" xmlns="http://www.w3.org/2000/svg" xmlns:xlink="http://www.w3.org/1999/xlink">
    <title>lpBTC</title>
    <defs>
        <linearGradient x1="50%" y1="0%" x2="50%" y2="100%" id="linearGradient-1">
            <stop stop-color="#FFEEDA" offset="0%"></stop>
            <stop stop-color="#FDDEBA" offset="100%"></stop>
        </linearGradient>
        <linearGradient x1="50%" y1="0%" x2="50%" y2="100%" id="linearGradient-2">
            <stop stop-color="#D73FFF" offset="0%"></stop>
            <stop stop-color="#797EF6" offset="100%"></stop>
        </linearGradient>
    </defs>
    <g id="Page-1" stroke="none" stroke-width="1" fill="none" fill-rule="evenodd">
        <g id="Loop----Referral---epoch-1---BTC" transform="translate(-764, -869)">
            <g id="Group-14-Copy-2" transform="translate(276, 820)">
                <g id="Group-36" transform="translate(56, 42)">
                    <g id="Group-25" transform="translate(428, 0)">
                        <g id="Group-26" transform="translate(0, 3)">
                            <g id="Group-24" transform="translate(4, 4)">
                                <circle id="Oval" fill="url(#linearGradient-1)" cx="36" cy="36" r="36"></circle>
                                <path d="M50.6320656,32.2763502 C51.2292575,28.2834361 48.1893279,26.1370945 44.03245,24.7052712 L45.3809715,19.2965196 L42.0884966,18.476114 L40.7757597,23.7424606 C39.9101835,23.5265799 39.0212886,23.323165 38.13782,23.1215101 L39.4600897,17.8204055 L36.169668,17 L34.8204133,22.4069917 C34.104135,22.2439079 33.400616,22.0827306 32.7180691,21.9129005 L32.7218822,21.8958882 L28.1814933,20.7620742 L27.305651,24.2786427 C27.305651,24.2786427 29.7483887,24.8385834 29.6969117,24.8730481 C31.0301807,25.2058154 31.2712867,26.088404 31.231249,26.7879632 L29.6951518,32.9498043 C29.7869598,32.973123 29.9060462,33.0068543 30.0374519,33.0596513 C29.9276049,33.0323729 29.8107184,33.0026013 29.6894321,32.9735629 L27.5363442,41.6054202 C27.373407,42.0104899 26.9598311,42.6183878 26.0276721,42.387548 C26.0606702,42.4353585 23.6346515,41.7903561 23.6346515,41.7903561 L22,45.5591766 L26.2846171,46.6272877 C27.081704,46.8271827 27.8628052,47.0363172 28.632027,47.2329857 L27.2695731,52.7037737 L30.5582349,53.5241793 L31.9074896,48.1114679 C32.8059173,48.3553604 33.6777998,48.5803339 34.5313501,48.7924016 L33.1866418,54.1795945 L36.4792633,55 L37.8415706,49.5394781 C43.455937,50.6020162 47.6774911,50.1736278 49.4544009,45.0954436 C50.8862242,41.0069084 49.3831251,38.6486457 46.4294304,37.1107886 C48.5807585,36.6146442 50.2011841,35.1996866 50.6332389,32.2767902 L50.6322123,32.2760569 L50.6320656,32.2763502 Z M43.1095305,42.8248825 C42.0920164,46.9134177 35.2081773,44.7032797 32.976334,44.1490587 L34.7843354,36.9012142 C37.016032,37.4583684 44.1729485,38.5609442 43.1096771,42.8248825 L43.1095305,42.8248825 Z M44.1277778,32.2171003 C43.1995786,35.9360571 37.4700856,34.0466604 35.6114872,33.5833674 L37.250685,27.0100036 C39.1092835,27.4732966 45.0946948,28.3379929 44.1280711,32.2171003 L44.1277778,32.2171003 Z" id="Shape" fill="url(#linearGradient-2)" fill-rule="nonzero"></path>
                            </g>
                        </g>
                    </g>
                </g>
            </g>
        </g>
    </g>
</svg>