<svg xmlns="http://www.w3.org/2000/svg" xmlns:xlink="http://www.w3.org/1999/xlink" width="1058.71" height="996.75" viewBox="0 0 1058.71 996.75">
  <defs>
    <style>
      .a, .b {
        fill: none;
        stroke: #fff;
        stroke-miterlimit: 10;
      }

      .a {
        stroke-width: 0.75px;
      }

      .b {
        stroke-width: 0.5px;
      }

      .c {
        font-size: 29.11px;
      }

      .c, .d, .e {
        fill: #fff;
      }

      .c, .d {
        font-family: Poppins-SemiBold, Poppins;
        font-weight: 600;
      }

      .d {
        font-size: 29.47px;
      }

      .e {
        font-size: 36.13px;
        font-family: OpenSans-Bold, Open Sans;
        font-weight: 700;
      }
    </style>
  </defs>
  <g>
    <g>
      <circle class="a" cx="552.44" cy="498.38" r="158"/>
      <circle class="a" cx="552.44" cy="498.38" r="498"/>
    </g>
    <polyline class="b" points="426.44 593.38 706.44 534.38 587.44 344.38 492.44 644.38 676.44 400.38 399.44 460.38 573.44 652.38 534.44 344.38 465.44 630.38 392.44 493.38 645.44 370.38 710.44 498.38 400.44 541.38 428.44 400.38 674.44 593.38 693.44 427.38 628.44 633.38 475.44 360.38 604.44 644.38"/>
    <g>
      <polygon class="b" points="308.44 64.38 54.44 465.38 223.44 872.38 815.44 921.38 1050.44 468.38 820.44 78.38 308.44 64.38"/>
      <polygon class="b" points="136.9 663.97 191.22 249.42 568.96 71.5 942.44 304.38 954.98 652.38 516.89 896.66 136.9 663.97"/>
      <polyline class="b" points="187.44 356.38 853.95 249.2 426.44 835.38 629.38 109.17 598.44 835.38 260.64 216.73 950.96 540.8 216.91 712.97"/>
      <polygon class="b" points="328.21 781.12 494.93 106.37 838.7 717.22 659.44 614.38 775.44 743.38 169.44 477.38 738.75 177.37 947.96 457.49 328.21 781.12"/>
    </g>
    <g>
      <text class="c" transform="translate(873.58 540.8)">Buy Offices<tspan x="-12.06" y="34.93">in Metaverse</tspan></text>
      <text class="d" transform="translate(861.89 201.04)">Buy Land’s<tspan x="-18.29" y="35.37">in Metaverse</tspan></text>
      <text class="d" transform="translate(114.61 139.04)">Services<tspan x="-7.27" y="35.37">Purchase</tspan></text>
      <text class="d" transform="translate(420.48 33.04)">NFT’s Marketplace</text>
      <text class="d" transform="translate(0 596.04)">Advertising Banners</text>
      <text class="d" transform="translate(401.43 835.04)">Office Leasing</text>
    </g>
    <g>
      <image width="3746" height="3715" transform="translate(90.94 50.88) scale(0.25)" xlink:href="raw.png"/>
      <text class="e" transform="translate(435.19 532.83)">Token Utility</text>
      <image width="1102" height="231" transform="translate(425.94 436.88) scale(0.23)" xlink:href="C:%5CUsers%5Cashas%5CAppData%5CRoaming%5CAdobe%5CCreative%20Cloud%20Libraries%5CLIBS%5C8B19A4075745746C7F000101_AdobeID%5Ccreative_cloud%5Cdcx%5Ca57d6409-7b63-4792-93fc-a4135af0c95d%5Ccomponents%5C83dabb47-15c8-450f-8866-ebfa5b4063d8.png"/>
    </g>
  </g>
</svg>
