<svg width="60" height="60" viewBox="0 0 60 60" fill="none" xmlns="http://www.w3.org/2000/svg">
<g id="icon">
<circle id="Ellipse 1354" cx="30" cy="30" r="30" fill="#56CCF2"/>
<path id="Vector" d="M26.6593 16.1563C28.3179 16.165 29.6518 16.3439 30.8831 16.9656C33.0228 18.0459 34.1639 19.8365 34.4921 22.1742C34.7023 23.6678 34.5338 25.144 34.176 26.5977C33.7436 28.3484 33.16 30.0452 32.2326 31.603C31.6404 32.5982 30.904 33.4701 29.9106 34.0936C28.0678 35.252 25.8396 35.1339 24.0264 33.7931C22.9322 32.9838 22.1559 31.9157 21.5428 30.719C20.6658 29.0031 20.1743 27.1656 19.8356 25.2795C19.6428 24.2079 19.5768 23.1381 19.7505 22.0595C20.1986 19.2668 21.8103 17.4658 24.4502 16.5401C25.2612 16.2553 26.0984 16.1372 26.6593 16.1563Z" fill="white"/>
<path id="Vector_2" d="M36.2459 45.0001C36.166 45.0001 36.0982 45.0001 36.0288 45.0001C28.7239 45.0001 21.4191 45.0001 14.1143 45.0001C13.8538 45.0001 13.8451 45.0001 13.8468 44.7448C13.8538 43.6993 13.8382 42.6503 13.8833 41.6065C13.9319 40.5227 14.4929 39.696 15.3352 39.0482C16.1689 38.4091 17.131 38.0409 18.1227 37.7352C20.1061 37.1239 22.1451 36.8095 24.2066 36.6324C26.0059 36.4778 27.8087 36.4709 29.6114 36.5681C30.0977 36.5942 30.5805 36.6567 31.0668 36.688C31.2388 36.7001 31.2787 36.7678 31.2787 36.9328C31.2735 38.5498 31.6243 40.0816 32.4493 41.4832C33.3125 42.9507 34.516 44.0605 36.0288 44.8403C36.093 44.8733 36.1573 44.9046 36.2215 44.9393C36.2302 44.9463 36.2302 44.9619 36.2459 45.0001Z" fill="white"/>
<path id="Vector_3" d="M33.9961 35.6042C34.0881 35.6042 34.1663 35.6042 34.2444 35.6042C35.4098 35.6042 36.5734 35.6042 37.7388 35.6042C37.9993 35.6042 38.0011 35.6042 38.0011 35.3332C38.0011 34.1678 38.0011 33.0042 38.0011 31.8389C38.0011 31.7624 38.0011 31.6843 38.0011 31.5957C39.1473 31.5957 40.2675 31.5957 41.4155 31.5957C41.4155 32.9295 41.4155 34.2529 41.4155 35.6024C42.7667 35.6024 44.0902 35.6024 45.4257 35.6024C45.4257 36.7296 45.4257 37.8324 45.4257 38.9596C44.0954 38.9596 42.7702 38.9596 41.4173 38.9596C41.4173 40.316 41.4173 41.6463 41.4173 42.9906C41.327 42.9958 41.2627 43.0028 41.1984 43.0028C40.205 43.0028 39.2116 42.9993 38.2182 43.008C38.0445 43.0097 37.9959 42.9611 37.9959 42.7874C38.0028 41.6029 37.9993 40.4185 37.9993 39.234C37.9993 39.1558 37.9993 39.0777 37.9993 38.9717C36.6568 38.9717 35.3334 38.9717 33.9961 38.9717C33.9961 37.8394 33.9961 36.7383 33.9961 35.6042Z" fill="white"/>
</g>
</svg>
