<svg width="26" height="41" viewBox="0 0 26 41" fill="none" xmlns="http://www.w3.org/2000/svg">
<path d="M22.6099 13.5065C22.6099 13.6791 22.6194 13.8492 22.6099 14.0217C22.4817 16.1418 22.8663 17.976 23.975 19.9055C27.3462 25.7712 25.8458 33.489 20.7961 37.7988C15.8484 42.0209 8.61214 41.6551 4.05385 36.9513C-0.646876 32.1031 -1.35673 24.3595 2.43471 18.6767C2.95939 17.891 3.17781 17.1439 3.15407 16.2011C3.10896 14.3154 3.11846 12.4272 3.14457 10.5389C3.23004 4.76597 7.59127 0.165126 12.9378 0.183158C18.2012 0.201191 22.5173 4.82007 22.6075 10.5441C22.6217 11.5333 22.6075 12.5199 22.6099 13.5065ZM11.2688 34.0815C11.2688 34.6122 11.2593 35.0785 11.2711 35.5447C11.302 36.8328 11.8172 37.469 12.8404 37.4974C13.9135 37.5283 14.5427 36.8559 14.4857 35.5241C14.4429 34.504 14.6875 33.9836 15.6419 33.5689C18.251 32.4328 19.8488 29.5271 19.7206 26.5156C19.59 23.4295 17.7145 20.7427 15.0104 19.7767C12.3062 18.8106 9.31962 19.7561 7.54142 22.1801C4.4717 26.3636 6.25465 32.4998 11.2688 34.0815ZM20.0197 15.0882C20.0197 13.4602 20.0363 12.0511 20.0173 10.6394C19.9627 6.76757 17.2847 3.49339 13.8304 3.05289C10.1458 2.58147 6.75321 4.96175 5.9935 8.85417C5.61127 10.8094 5.74422 12.8831 5.63264 15.1655C10.5375 12.0614 15.1908 12.0846 20.0197 15.0882Z" fill="white"/>
<path d="M13.3603 33.0975C13.0161 33.0975 12.6718 33.0975 12.2564 33.0975C12.197 32.6828 12.1377 32.2757 12.0759 31.8507C11.3661 31.6292 10.6657 31.4102 9.87988 31.1655C10.0152 30.5601 10.122 30.0809 10.2336 29.5683C11.0028 29.7383 11.689 30.0165 12.3679 29.9959C12.838 29.9831 13.301 29.558 13.7663 29.3184C13.4529 28.8934 13.2036 28.3653 12.8072 28.0716C12.2967 27.6929 11.6296 27.5719 11.0978 27.2164C9.50715 26.1525 9.59736 23.9628 11.1975 22.9221C11.7056 22.5923 12.0902 22.0411 12.5318 21.5902C12.4582 21.4718 12.3869 21.3507 12.3133 21.2322C12.6837 21.2322 13.0541 21.2322 13.4767 21.2322C13.5313 21.6366 13.5811 22.005 13.6286 22.3476C14.2696 22.5485 14.8631 22.7314 15.5184 22.9375C15.3783 23.494 15.2667 23.9345 15.148 24.4033C14.3978 24.3028 13.7093 24.1354 13.0208 24.1509C12.7003 24.1586 12.3869 24.5244 12.0712 24.7279C12.2682 25.055 12.3988 25.5033 12.6766 25.6836C13.2464 26.0546 13.904 26.2581 14.507 26.5749C15.4021 27.0463 15.8982 27.8398 15.884 28.9269C15.8698 30.0062 15.3285 30.7275 14.4975 31.3046C13.999 31.6498 13.6262 32.2088 13.1965 32.6699C13.2511 32.8141 13.3057 32.9558 13.3603 33.0975Z" fill="white"/>
</svg>
