<svg width="1118" height="419" viewBox="0 0 1118 419" fill="none" xmlns="http://www.w3.org/2000/svg">
<path d="M53.458 411.224C52.702 411.224 52.0487 411.019 51.498 410.608C50.9473 410.197 50.56 409.628 50.336 408.9L51.554 408.396C51.8713 409.46 52.506 409.992 53.458 409.992C53.9807 409.992 54.4007 409.81 54.718 409.446C55.0447 409.073 55.208 408.592 55.208 408.004V400.976H56.496V407.892C56.496 408.928 56.2207 409.745 55.67 410.342C55.1287 410.93 54.3913 411.224 53.458 411.224ZM59.0638 408.9C59.0638 409.236 59.2038 409.516 59.4838 409.74C59.7731 409.964 60.1091 410.076 60.4918 410.076C61.0331 410.076 61.5138 409.875 61.9338 409.474C62.3631 409.073 62.5778 408.601 62.5778 408.06C62.1765 407.743 61.6165 407.584 60.8978 407.584C60.3751 407.584 59.9365 407.71 59.5818 407.962C59.2365 408.214 59.0638 408.527 59.0638 408.9ZM60.7298 403.916C61.6818 403.916 62.4331 404.173 62.9838 404.686C63.5345 405.19 63.8098 405.885 63.8098 406.772V411H62.5778V410.048H62.5218C61.9898 410.832 61.2805 411.224 60.3938 411.224C59.6378 411.224 59.0031 411 58.4898 410.552C57.9858 410.104 57.7338 409.544 57.7338 408.872C57.7338 408.163 57.9998 407.598 58.5318 407.178C59.0731 406.758 59.7918 406.548 60.6878 406.548C61.4531 406.548 62.0831 406.688 62.5778 406.968V406.674C62.5778 406.226 62.4005 405.848 62.0458 405.54C61.6911 405.223 61.2758 405.064 60.7998 405.064C60.0811 405.064 59.5118 405.367 59.0918 405.974L57.9578 405.26C58.5831 404.364 59.5071 403.916 60.7298 403.916ZM65.2625 404.14H66.4945V405.092H66.5505C66.7465 404.756 67.0452 404.476 67.4465 404.252C67.8572 404.028 68.2818 403.916 68.7205 403.916C69.5605 403.916 70.2045 404.159 70.6525 404.644C71.1098 405.12 71.3385 405.801 71.3385 406.688V411H70.0505V406.772C70.0225 405.652 69.4578 405.092 68.3565 405.092C67.8432 405.092 67.4138 405.302 67.0685 405.722C66.7232 406.133 66.5505 406.627 66.5505 407.206V411H65.2625V404.14ZM79.3426 401.424V411H78.0546V403.02L76.1926 403.832L75.7026 402.74L78.5166 401.424H79.3426Z" fill="white" fill-opacity="0.8"/>
<path d="M122.458 411.224C121.702 411.224 121.049 411.019 120.498 410.608C119.947 410.197 119.56 409.628 119.336 408.9L120.554 408.396C120.871 409.46 121.506 409.992 122.458 409.992C122.981 409.992 123.401 409.81 123.718 409.446C124.045 409.073 124.208 408.592 124.208 408.004V400.976H125.496V407.892C125.496 408.928 125.221 409.745 124.67 410.342C124.129 410.93 123.391 411.224 122.458 411.224ZM128.064 408.9C128.064 409.236 128.204 409.516 128.484 409.74C128.773 409.964 129.109 410.076 129.492 410.076C130.033 410.076 130.514 409.875 130.934 409.474C131.363 409.073 131.578 408.601 131.578 408.06C131.176 407.743 130.616 407.584 129.898 407.584C129.375 407.584 128.936 407.71 128.582 407.962C128.236 408.214 128.064 408.527 128.064 408.9ZM129.73 403.916C130.682 403.916 131.433 404.173 131.984 404.686C132.534 405.19 132.81 405.885 132.81 406.772V411H131.578V410.048H131.522C130.99 410.832 130.28 411.224 129.394 411.224C128.638 411.224 128.003 411 127.49 410.552C126.986 410.104 126.734 409.544 126.734 408.872C126.734 408.163 127 407.598 127.532 407.178C128.073 406.758 128.792 406.548 129.688 406.548C130.453 406.548 131.083 406.688 131.578 406.968V406.674C131.578 406.226 131.4 405.848 131.046 405.54C130.691 405.223 130.276 405.064 129.8 405.064C129.081 405.064 128.512 405.367 128.092 405.974L126.958 405.26C127.583 404.364 128.507 403.916 129.73 403.916ZM134.263 404.14H135.495V405.092H135.551C135.747 404.756 136.045 404.476 136.447 404.252C136.857 404.028 137.282 403.916 137.721 403.916C138.561 403.916 139.205 404.159 139.653 404.644C140.11 405.12 140.339 405.801 140.339 406.688V411H139.051V406.772C139.023 405.652 138.458 405.092 137.357 405.092C136.843 405.092 136.414 405.302 136.069 405.722C135.723 406.133 135.551 406.627 135.551 407.206V411H134.263V404.14ZM150.807 409.768V411H144.703V409.712L147.181 407.206C148.011 406.357 148.585 405.722 148.903 405.302C149.22 404.873 149.379 404.425 149.379 403.958C149.379 403.538 149.215 403.179 148.889 402.88C148.562 402.581 148.142 402.432 147.629 402.432C147.19 402.432 146.812 402.563 146.495 402.824C146.177 403.085 145.972 403.403 145.879 403.776L144.703 403.3C144.889 402.712 145.249 402.217 145.781 401.816C146.313 401.405 146.938 401.2 147.657 401.2C148.525 401.2 149.248 401.466 149.827 401.998C150.405 402.53 150.695 403.183 150.695 403.958C150.695 404.882 150.186 405.881 149.169 406.954L146.369 409.768H150.807Z" fill="white" fill-opacity="0.8"/>
<path d="M193.458 411.224C192.702 411.224 192.049 411.019 191.498 410.608C190.947 410.197 190.56 409.628 190.336 408.9L191.554 408.396C191.871 409.46 192.506 409.992 193.458 409.992C193.981 409.992 194.401 409.81 194.718 409.446C195.045 409.073 195.208 408.592 195.208 408.004V400.976H196.496V407.892C196.496 408.928 196.221 409.745 195.67 410.342C195.129 410.93 194.391 411.224 193.458 411.224ZM199.064 408.9C199.064 409.236 199.204 409.516 199.484 409.74C199.773 409.964 200.109 410.076 200.492 410.076C201.033 410.076 201.514 409.875 201.934 409.474C202.363 409.073 202.578 408.601 202.578 408.06C202.176 407.743 201.616 407.584 200.898 407.584C200.375 407.584 199.936 407.71 199.582 407.962C199.236 408.214 199.064 408.527 199.064 408.9ZM200.73 403.916C201.682 403.916 202.433 404.173 202.984 404.686C203.534 405.19 203.81 405.885 203.81 406.772V411H202.578V410.048H202.522C201.99 410.832 201.28 411.224 200.394 411.224C199.638 411.224 199.003 411 198.49 410.552C197.986 410.104 197.734 409.544 197.734 408.872C197.734 408.163 198 407.598 198.532 407.178C199.073 406.758 199.792 406.548 200.688 406.548C201.453 406.548 202.083 406.688 202.578 406.968V406.674C202.578 406.226 202.4 405.848 202.046 405.54C201.691 405.223 201.276 405.064 200.8 405.064C200.081 405.064 199.512 405.367 199.092 405.974L197.958 405.26C198.583 404.364 199.507 403.916 200.73 403.916ZM205.263 404.14H206.495V405.092H206.551C206.747 404.756 207.045 404.476 207.447 404.252C207.857 404.028 208.282 403.916 208.721 403.916C209.561 403.916 210.205 404.159 210.653 404.644C211.11 405.12 211.339 405.801 211.339 406.688V411H210.051V406.772C210.023 405.652 209.458 405.092 208.357 405.092C207.843 405.092 207.414 405.302 207.069 405.722C206.723 406.133 206.551 406.627 206.551 407.206V411H205.263V404.14ZM222.017 408.284C222.017 409.124 221.704 409.824 221.079 410.384C220.463 410.944 219.697 411.224 218.783 411.224C218.064 411.224 217.415 411.009 216.837 410.58C216.249 410.132 215.852 409.549 215.647 408.83L216.823 408.34C216.972 408.872 217.215 409.283 217.551 409.572C217.896 409.852 218.307 409.992 218.783 409.992C219.305 409.992 219.758 409.829 220.141 409.502C220.514 409.166 220.701 408.76 220.701 408.284C220.701 407.808 220.505 407.407 220.113 407.08C219.73 406.753 219.268 406.59 218.727 406.59H217.901V405.386H218.629C219.142 405.386 219.562 405.246 219.889 404.966C220.215 404.677 220.379 404.303 220.379 403.846C220.379 403.426 220.225 403.085 219.917 402.824C219.609 402.563 219.203 402.432 218.699 402.432C217.887 402.432 217.331 402.847 217.033 403.678L215.843 403.174C216.057 402.586 216.417 402.11 216.921 401.746C217.425 401.382 218.017 401.2 218.699 401.2C219.548 401.2 220.262 401.452 220.841 401.956C221.41 402.441 221.695 403.071 221.695 403.846C221.695 404.77 221.265 405.456 220.407 405.904V405.96C220.911 406.175 221.303 406.487 221.583 406.898C221.872 407.309 222.017 407.771 222.017 408.284Z" fill="white" fill-opacity="0.8"/>
<path d="M264.458 411.224C263.702 411.224 263.049 411.019 262.498 410.608C261.947 410.197 261.56 409.628 261.336 408.9L262.554 408.396C262.871 409.46 263.506 409.992 264.458 409.992C264.981 409.992 265.401 409.81 265.718 409.446C266.045 409.073 266.208 408.592 266.208 408.004V400.976H267.496V407.892C267.496 408.928 267.221 409.745 266.67 410.342C266.129 410.93 265.391 411.224 264.458 411.224ZM270.064 408.9C270.064 409.236 270.204 409.516 270.484 409.74C270.773 409.964 271.109 410.076 271.492 410.076C272.033 410.076 272.514 409.875 272.934 409.474C273.363 409.073 273.578 408.601 273.578 408.06C273.176 407.743 272.616 407.584 271.898 407.584C271.375 407.584 270.936 407.71 270.582 407.962C270.236 408.214 270.064 408.527 270.064 408.9ZM271.73 403.916C272.682 403.916 273.433 404.173 273.984 404.686C274.534 405.19 274.81 405.885 274.81 406.772V411H273.578V410.048H273.522C272.99 410.832 272.28 411.224 271.394 411.224C270.638 411.224 270.003 411 269.49 410.552C268.986 410.104 268.734 409.544 268.734 408.872C268.734 408.163 269 407.598 269.532 407.178C270.073 406.758 270.792 406.548 271.688 406.548C272.453 406.548 273.083 406.688 273.578 406.968V406.674C273.578 406.226 273.4 405.848 273.046 405.54C272.691 405.223 272.276 405.064 271.8 405.064C271.081 405.064 270.512 405.367 270.092 405.974L268.958 405.26C269.583 404.364 270.507 403.916 271.73 403.916ZM276.263 404.14H277.495V405.092H277.551C277.747 404.756 278.045 404.476 278.447 404.252C278.857 404.028 279.282 403.916 279.721 403.916C280.561 403.916 281.205 404.159 281.653 404.644C282.11 405.12 282.339 405.801 282.339 406.688V411H281.051V406.772C281.023 405.652 280.458 405.092 279.357 405.092C278.843 405.092 278.414 405.302 278.069 405.722C277.723 406.133 277.551 406.627 277.551 407.206V411H276.263V404.14ZM292.541 408.984V411H291.253V408.984H286.703V408.004L291.141 401.424H292.541V407.78H293.773V408.984H292.541ZM288.159 407.78H291.253V403.314H291.197L288.159 407.78Z" fill="white" fill-opacity="0.8"/>
<path d="M336.458 411.224C335.702 411.224 335.049 411.019 334.498 410.608C333.947 410.197 333.56 409.628 333.336 408.9L334.554 408.396C334.871 409.46 335.506 409.992 336.458 409.992C336.981 409.992 337.401 409.81 337.718 409.446C338.045 409.073 338.208 408.592 338.208 408.004V400.976H339.496V407.892C339.496 408.928 339.221 409.745 338.67 410.342C338.129 410.93 337.391 411.224 336.458 411.224ZM342.064 408.9C342.064 409.236 342.204 409.516 342.484 409.74C342.773 409.964 343.109 410.076 343.492 410.076C344.033 410.076 344.514 409.875 344.934 409.474C345.363 409.073 345.578 408.601 345.578 408.06C345.176 407.743 344.616 407.584 343.898 407.584C343.375 407.584 342.936 407.71 342.582 407.962C342.236 408.214 342.064 408.527 342.064 408.9ZM343.73 403.916C344.682 403.916 345.433 404.173 345.984 404.686C346.534 405.19 346.81 405.885 346.81 406.772V411H345.578V410.048H345.522C344.99 410.832 344.28 411.224 343.394 411.224C342.638 411.224 342.003 411 341.49 410.552C340.986 410.104 340.734 409.544 340.734 408.872C340.734 408.163 341 407.598 341.532 407.178C342.073 406.758 342.792 406.548 343.688 406.548C344.453 406.548 345.083 406.688 345.578 406.968V406.674C345.578 406.226 345.4 405.848 345.046 405.54C344.691 405.223 344.276 405.064 343.8 405.064C343.081 405.064 342.512 405.367 342.092 405.974L340.958 405.26C341.583 404.364 342.507 403.916 343.73 403.916ZM348.263 404.14H349.495V405.092H349.551C349.747 404.756 350.045 404.476 350.447 404.252C350.857 404.028 351.282 403.916 351.721 403.916C352.561 403.916 353.205 404.159 353.653 404.644C354.11 405.12 354.339 405.801 354.339 406.688V411H353.051V406.772C353.023 405.652 352.458 405.092 351.357 405.092C350.843 405.092 350.414 405.302 350.069 405.722C349.723 406.133 349.551 406.627 349.551 407.206V411H348.263V404.14ZM365.241 408.004C365.241 408.919 364.923 409.684 364.289 410.3C363.654 410.916 362.87 411.224 361.937 411.224C361.19 411.224 360.513 410.991 359.907 410.524C359.3 410.057 358.899 409.427 358.703 408.634L359.851 408.172C359.991 408.732 360.243 409.175 360.607 409.502C360.98 409.829 361.414 409.992 361.909 409.992C362.506 409.992 362.991 409.81 363.365 409.446C363.747 409.073 363.939 408.597 363.939 408.018C363.939 407.43 363.747 406.949 363.365 406.576C362.991 406.203 362.511 406.016 361.923 406.016C361.241 406.016 360.705 406.291 360.313 406.842L359.011 406.282L359.627 401.424H364.653V402.656H360.705L360.355 405.4L360.411 405.414C360.887 405.031 361.465 404.84 362.147 404.84C363.005 404.84 363.733 405.143 364.331 405.75C364.937 406.357 365.241 407.108 365.241 408.004Z" fill="white" fill-opacity="0.8"/>
<path d="M407.458 411.224C406.702 411.224 406.049 411.019 405.498 410.608C404.947 410.197 404.56 409.628 404.336 408.9L405.554 408.396C405.871 409.46 406.506 409.992 407.458 409.992C407.981 409.992 408.401 409.81 408.718 409.446C409.045 409.073 409.208 408.592 409.208 408.004V400.976H410.496V407.892C410.496 408.928 410.221 409.745 409.67 410.342C409.129 410.93 408.391 411.224 407.458 411.224ZM413.064 408.9C413.064 409.236 413.204 409.516 413.484 409.74C413.773 409.964 414.109 410.076 414.492 410.076C415.033 410.076 415.514 409.875 415.934 409.474C416.363 409.073 416.578 408.601 416.578 408.06C416.176 407.743 415.616 407.584 414.898 407.584C414.375 407.584 413.936 407.71 413.582 407.962C413.236 408.214 413.064 408.527 413.064 408.9ZM414.73 403.916C415.682 403.916 416.433 404.173 416.984 404.686C417.534 405.19 417.81 405.885 417.81 406.772V411H416.578V410.048H416.522C415.99 410.832 415.28 411.224 414.394 411.224C413.638 411.224 413.003 411 412.49 410.552C411.986 410.104 411.734 409.544 411.734 408.872C411.734 408.163 412 407.598 412.532 407.178C413.073 406.758 413.792 406.548 414.688 406.548C415.453 406.548 416.083 406.688 416.578 406.968V406.674C416.578 406.226 416.4 405.848 416.046 405.54C415.691 405.223 415.276 405.064 414.8 405.064C414.081 405.064 413.512 405.367 413.092 405.974L411.958 405.26C412.583 404.364 413.507 403.916 414.73 403.916ZM419.263 404.14H420.495V405.092H420.551C420.747 404.756 421.045 404.476 421.447 404.252C421.857 404.028 422.282 403.916 422.721 403.916C423.561 403.916 424.205 404.159 424.653 404.644C425.11 405.12 425.339 405.801 425.339 406.688V411H424.051V406.772C424.023 405.652 423.458 405.092 422.357 405.092C421.843 405.092 421.414 405.302 421.069 405.722C420.723 406.133 420.551 406.627 420.551 407.206V411H419.263V404.14ZM433.273 404.924C434.047 404.924 434.738 405.232 435.345 405.848C435.961 406.455 436.269 407.178 436.269 408.018C436.269 408.877 435.942 409.628 435.289 410.272C434.626 410.907 433.861 411.224 432.993 411.224C432.069 411.224 431.289 410.907 430.655 410.272C430.02 409.637 429.703 408.886 429.703 408.018C429.703 407.243 430.015 406.361 430.641 405.372L433.427 401.2L434.463 401.914L432.097 405.19L432.125 405.218C432.414 405.022 432.797 404.924 433.273 404.924ZM431.005 408.032C431.005 408.583 431.196 409.049 431.579 409.432C431.961 409.805 432.433 409.992 432.993 409.992C433.553 409.992 434.019 409.805 434.393 409.432C434.775 409.049 434.967 408.583 434.967 408.032C434.967 407.491 434.771 407.029 434.379 406.646C433.996 406.263 433.534 406.072 432.993 406.072C432.461 406.072 431.994 406.263 431.593 406.646C431.201 407.029 431.005 407.491 431.005 408.032Z" fill="white" fill-opacity="0.8"/>
<path d="M478.458 411.224C477.702 411.224 477.049 411.019 476.498 410.608C475.947 410.197 475.56 409.628 475.336 408.9L476.554 408.396C476.871 409.46 477.506 409.992 478.458 409.992C478.981 409.992 479.401 409.81 479.718 409.446C480.045 409.073 480.208 408.592 480.208 408.004V400.976H481.496V407.892C481.496 408.928 481.221 409.745 480.67 410.342C480.129 410.93 479.391 411.224 478.458 411.224ZM484.064 408.9C484.064 409.236 484.204 409.516 484.484 409.74C484.773 409.964 485.109 410.076 485.492 410.076C486.033 410.076 486.514 409.875 486.934 409.474C487.363 409.073 487.578 408.601 487.578 408.06C487.176 407.743 486.616 407.584 485.898 407.584C485.375 407.584 484.936 407.71 484.582 407.962C484.236 408.214 484.064 408.527 484.064 408.9ZM485.73 403.916C486.682 403.916 487.433 404.173 487.984 404.686C488.534 405.19 488.81 405.885 488.81 406.772V411H487.578V410.048H487.522C486.99 410.832 486.28 411.224 485.394 411.224C484.638 411.224 484.003 411 483.49 410.552C482.986 410.104 482.734 409.544 482.734 408.872C482.734 408.163 483 407.598 483.532 407.178C484.073 406.758 484.792 406.548 485.688 406.548C486.453 406.548 487.083 406.688 487.578 406.968V406.674C487.578 406.226 487.4 405.848 487.046 405.54C486.691 405.223 486.276 405.064 485.8 405.064C485.081 405.064 484.512 405.367 484.092 405.974L482.958 405.26C483.583 404.364 484.507 403.916 485.73 403.916ZM490.263 404.14H491.495V405.092H491.551C491.747 404.756 492.045 404.476 492.447 404.252C492.857 404.028 493.282 403.916 493.721 403.916C494.561 403.916 495.205 404.159 495.653 404.644C496.11 405.12 496.339 405.801 496.339 406.688V411H495.051V406.772C495.023 405.652 494.458 405.092 493.357 405.092C492.843 405.092 492.414 405.302 492.069 405.722C491.723 406.133 491.551 406.627 491.551 407.206V411H490.263V404.14ZM506.905 402.74L502.257 411.224L501.109 410.636L505.547 402.656H500.703L500.731 401.424H506.905V402.74Z" fill="white" fill-opacity="0.8"/>
<path d="M549.458 411.224C548.702 411.224 548.049 411.019 547.498 410.608C546.947 410.197 546.56 409.628 546.336 408.9L547.554 408.396C547.871 409.46 548.506 409.992 549.458 409.992C549.981 409.992 550.401 409.81 550.718 409.446C551.045 409.073 551.208 408.592 551.208 408.004V400.976H552.496V407.892C552.496 408.928 552.221 409.745 551.67 410.342C551.129 410.93 550.391 411.224 549.458 411.224ZM555.064 408.9C555.064 409.236 555.204 409.516 555.484 409.74C555.773 409.964 556.109 410.076 556.492 410.076C557.033 410.076 557.514 409.875 557.934 409.474C558.363 409.073 558.578 408.601 558.578 408.06C558.176 407.743 557.616 407.584 556.898 407.584C556.375 407.584 555.936 407.71 555.582 407.962C555.236 408.214 555.064 408.527 555.064 408.9ZM556.73 403.916C557.682 403.916 558.433 404.173 558.984 404.686C559.534 405.19 559.81 405.885 559.81 406.772V411H558.578V410.048H558.522C557.99 410.832 557.28 411.224 556.394 411.224C555.638 411.224 555.003 411 554.49 410.552C553.986 410.104 553.734 409.544 553.734 408.872C553.734 408.163 554 407.598 554.532 407.178C555.073 406.758 555.792 406.548 556.688 406.548C557.453 406.548 558.083 406.688 558.578 406.968V406.674C558.578 406.226 558.4 405.848 558.046 405.54C557.691 405.223 557.276 405.064 556.8 405.064C556.081 405.064 555.512 405.367 555.092 405.974L553.958 405.26C554.583 404.364 555.507 403.916 556.73 403.916ZM561.263 404.14H562.495V405.092H562.551C562.747 404.756 563.045 404.476 563.447 404.252C563.857 404.028 564.282 403.916 564.721 403.916C565.561 403.916 566.205 404.159 566.653 404.644C567.11 405.12 567.339 405.801 567.339 406.688V411H566.051V406.772C566.023 405.652 565.458 405.092 564.357 405.092C563.843 405.092 563.414 405.302 563.069 405.722C562.723 406.133 562.551 406.627 562.551 407.206V411H561.263V404.14ZM578.199 408.354C578.199 409.175 577.886 409.857 577.261 410.398C576.626 410.949 575.856 411.224 574.951 411.224C574.045 411.224 573.275 410.949 572.641 410.398C572.015 409.857 571.703 409.175 571.703 408.354C571.703 407.85 571.838 407.393 572.109 406.982C572.379 406.562 572.767 406.231 573.271 405.988V405.932C572.897 405.689 572.594 405.391 572.361 405.036C572.137 404.681 572.025 404.308 572.025 403.916C572.025 403.141 572.3 402.493 572.851 401.97C573.392 401.457 574.092 401.2 574.951 401.2C575.809 401.2 576.509 401.457 577.051 401.97C577.601 402.493 577.877 403.141 577.877 403.916C577.877 404.308 577.76 404.681 577.527 405.036C577.303 405.391 577.004 405.689 576.631 405.932V405.988C577.135 406.231 577.522 406.562 577.793 406.982C578.063 407.393 578.199 407.85 578.199 408.354ZM573.341 403.888C573.341 404.336 573.49 404.7 573.789 404.98C574.087 405.251 574.475 405.386 574.951 405.386C575.427 405.386 575.814 405.251 576.113 404.98C576.411 404.7 576.561 404.336 576.561 403.888C576.561 403.44 576.411 403.085 576.113 402.824C575.814 402.563 575.427 402.432 574.951 402.432C574.475 402.432 574.087 402.563 573.789 402.824C573.49 403.085 573.341 403.44 573.341 403.888ZM573.019 408.284C573.019 408.536 573.065 408.765 573.159 408.97C573.261 409.175 573.397 409.357 573.565 409.516C573.742 409.665 573.947 409.782 574.181 409.866C574.414 409.95 574.671 409.992 574.951 409.992C575.231 409.992 575.487 409.95 575.721 409.866C575.954 409.782 576.155 409.665 576.323 409.516C576.5 409.357 576.635 409.175 576.729 408.97C576.831 408.765 576.883 408.536 576.883 408.284C576.883 407.799 576.696 407.397 576.323 407.08C575.949 406.753 575.492 406.59 574.951 406.59C574.409 406.59 573.947 406.753 573.565 407.08C573.201 407.407 573.019 407.808 573.019 408.284Z" fill="white" fill-opacity="0.8"/>
<path d="M620.458 411.224C619.702 411.224 619.049 411.019 618.498 410.608C617.947 410.197 617.56 409.628 617.336 408.9L618.554 408.396C618.871 409.46 619.506 409.992 620.458 409.992C620.981 409.992 621.401 409.81 621.718 409.446C622.045 409.073 622.208 408.592 622.208 408.004V400.976H623.496V407.892C623.496 408.928 623.221 409.745 622.67 410.342C622.129 410.93 621.391 411.224 620.458 411.224ZM626.064 408.9C626.064 409.236 626.204 409.516 626.484 409.74C626.773 409.964 627.109 410.076 627.492 410.076C628.033 410.076 628.514 409.875 628.934 409.474C629.363 409.073 629.578 408.601 629.578 408.06C629.176 407.743 628.616 407.584 627.898 407.584C627.375 407.584 626.936 407.71 626.582 407.962C626.236 408.214 626.064 408.527 626.064 408.9ZM627.73 403.916C628.682 403.916 629.433 404.173 629.984 404.686C630.534 405.19 630.81 405.885 630.81 406.772V411H629.578V410.048H629.522C628.99 410.832 628.28 411.224 627.394 411.224C626.638 411.224 626.003 411 625.49 410.552C624.986 410.104 624.734 409.544 624.734 408.872C624.734 408.163 625 407.598 625.532 407.178C626.073 406.758 626.792 406.548 627.688 406.548C628.453 406.548 629.083 406.688 629.578 406.968V406.674C629.578 406.226 629.4 405.848 629.046 405.54C628.691 405.223 628.276 405.064 627.8 405.064C627.081 405.064 626.512 405.367 626.092 405.974L624.958 405.26C625.583 404.364 626.507 403.916 627.73 403.916ZM632.263 404.14H633.495V405.092H633.551C633.747 404.756 634.045 404.476 634.447 404.252C634.857 404.028 635.282 403.916 635.721 403.916C636.561 403.916 637.205 404.159 637.653 404.644C638.11 405.12 638.339 405.801 638.339 406.688V411H637.051V406.772C637.023 405.652 636.458 405.092 635.357 405.092C634.843 405.092 634.414 405.302 634.069 405.722C633.723 406.133 633.551 406.627 633.551 407.206V411H632.263V404.14ZM645.699 407.5C644.933 407.5 644.238 407.197 643.613 406.59C643.006 405.965 642.703 405.237 642.703 404.406C642.703 403.538 643.029 402.791 643.683 402.166C644.336 401.522 645.101 401.2 645.979 401.2C646.903 401.2 647.682 401.517 648.317 402.152C648.951 402.787 649.269 403.538 649.269 404.406C649.269 405.181 648.956 406.063 648.331 407.052L645.545 411.224L644.509 410.51L646.875 407.234L646.847 407.206C646.548 407.402 646.165 407.5 645.699 407.5ZM647.967 404.392C647.967 403.851 647.771 403.389 647.379 403.006C646.996 402.623 646.529 402.432 645.979 402.432C645.428 402.432 644.961 402.623 644.579 403.006C644.196 403.389 644.005 403.851 644.005 404.392C644.005 404.933 644.196 405.395 644.579 405.778C644.98 406.161 645.447 406.352 645.979 406.352C646.511 406.352 646.977 406.161 647.379 405.778C647.771 405.405 647.967 404.943 647.967 404.392Z" fill="white" fill-opacity="0.8"/>
<path d="M691.458 411.224C690.702 411.224 690.049 411.019 689.498 410.608C688.947 410.197 688.56 409.628 688.336 408.9L689.554 408.396C689.871 409.46 690.506 409.992 691.458 409.992C691.981 409.992 692.401 409.81 692.718 409.446C693.045 409.073 693.208 408.592 693.208 408.004V400.976H694.496V407.892C694.496 408.928 694.221 409.745 693.67 410.342C693.129 410.93 692.391 411.224 691.458 411.224ZM697.064 408.9C697.064 409.236 697.204 409.516 697.484 409.74C697.773 409.964 698.109 410.076 698.492 410.076C699.033 410.076 699.514 409.875 699.934 409.474C700.363 409.073 700.578 408.601 700.578 408.06C700.176 407.743 699.616 407.584 698.898 407.584C698.375 407.584 697.936 407.71 697.582 407.962C697.236 408.214 697.064 408.527 697.064 408.9ZM698.73 403.916C699.682 403.916 700.433 404.173 700.984 404.686C701.534 405.19 701.81 405.885 701.81 406.772V411H700.578V410.048H700.522C699.99 410.832 699.28 411.224 698.394 411.224C697.638 411.224 697.003 411 696.49 410.552C695.986 410.104 695.734 409.544 695.734 408.872C695.734 408.163 696 407.598 696.532 407.178C697.073 406.758 697.792 406.548 698.688 406.548C699.453 406.548 700.083 406.688 700.578 406.968V406.674C700.578 406.226 700.4 405.848 700.046 405.54C699.691 405.223 699.276 405.064 698.8 405.064C698.081 405.064 697.512 405.367 697.092 405.974L695.958 405.26C696.583 404.364 697.507 403.916 698.73 403.916ZM703.263 404.14H704.495V405.092H704.551C704.747 404.756 705.045 404.476 705.447 404.252C705.857 404.028 706.282 403.916 706.721 403.916C707.561 403.916 708.205 404.159 708.653 404.644C709.11 405.12 709.339 405.801 709.339 406.688V411H708.051V406.772C708.023 405.652 707.458 405.092 706.357 405.092C705.843 405.092 705.414 405.302 705.069 405.722C704.723 406.133 704.551 406.627 704.551 407.206V411H703.263V404.14ZM717.343 401.424V411H716.055V403.02L714.193 403.832L713.703 402.74L716.517 401.424H717.343ZM719.132 406.212C719.132 404.756 719.491 403.557 720.21 402.614C720.928 401.671 721.852 401.2 722.982 401.2C724.111 401.2 725.035 401.676 725.754 402.628C726.472 403.571 726.832 404.765 726.832 406.212C726.832 407.649 726.472 408.849 725.754 409.81C725.035 410.753 724.111 411.224 722.982 411.224C721.852 411.224 720.928 410.753 720.21 409.81C719.491 408.849 719.132 407.649 719.132 406.212ZM725.516 406.212C725.516 405.111 725.282 404.205 724.816 403.496C724.358 402.787 723.747 402.432 722.982 402.432C722.216 402.432 721.605 402.787 721.148 403.496C720.681 404.205 720.448 405.111 720.448 406.212C720.448 407.313 720.681 408.223 721.148 408.942C721.605 409.642 722.216 409.992 722.982 409.992C723.747 409.992 724.358 409.637 724.816 408.928C725.282 408.209 725.516 407.304 725.516 406.212Z" fill="white" fill-opacity="0.8"/>
<path d="M769.458 411.224C768.702 411.224 768.049 411.019 767.498 410.608C766.947 410.197 766.56 409.628 766.336 408.9L767.554 408.396C767.871 409.46 768.506 409.992 769.458 409.992C769.981 409.992 770.401 409.81 770.718 409.446C771.045 409.073 771.208 408.592 771.208 408.004V400.976H772.496V407.892C772.496 408.928 772.221 409.745 771.67 410.342C771.129 410.93 770.391 411.224 769.458 411.224ZM775.064 408.9C775.064 409.236 775.204 409.516 775.484 409.74C775.773 409.964 776.109 410.076 776.492 410.076C777.033 410.076 777.514 409.875 777.934 409.474C778.363 409.073 778.578 408.601 778.578 408.06C778.176 407.743 777.616 407.584 776.898 407.584C776.375 407.584 775.936 407.71 775.582 407.962C775.236 408.214 775.064 408.527 775.064 408.9ZM776.73 403.916C777.682 403.916 778.433 404.173 778.984 404.686C779.534 405.19 779.81 405.885 779.81 406.772V411H778.578V410.048H778.522C777.99 410.832 777.28 411.224 776.394 411.224C775.638 411.224 775.003 411 774.49 410.552C773.986 410.104 773.734 409.544 773.734 408.872C773.734 408.163 774 407.598 774.532 407.178C775.073 406.758 775.792 406.548 776.688 406.548C777.453 406.548 778.083 406.688 778.578 406.968V406.674C778.578 406.226 778.4 405.848 778.046 405.54C777.691 405.223 777.276 405.064 776.8 405.064C776.081 405.064 775.512 405.367 775.092 405.974L773.958 405.26C774.583 404.364 775.507 403.916 776.73 403.916ZM781.263 404.14H782.495V405.092H782.551C782.747 404.756 783.045 404.476 783.447 404.252C783.857 404.028 784.282 403.916 784.721 403.916C785.561 403.916 786.205 404.159 786.653 404.644C787.11 405.12 787.339 405.801 787.339 406.688V411H786.051V406.772C786.023 405.652 785.458 405.092 784.357 405.092C783.843 405.092 783.414 405.302 783.069 405.722C782.723 406.133 782.551 406.627 782.551 407.206V411H781.263V404.14ZM795.343 401.424V411H794.055V403.02L792.193 403.832L791.703 402.74L794.517 401.424H795.343ZM800.716 401.424V411H799.428V403.02L797.566 403.832L797.076 402.74L799.89 401.424H800.716Z" fill="white" fill-opacity="0.8"/>
<path d="M843.458 411.224C842.702 411.224 842.049 411.019 841.498 410.608C840.947 410.197 840.56 409.628 840.336 408.9L841.554 408.396C841.871 409.46 842.506 409.992 843.458 409.992C843.981 409.992 844.401 409.81 844.718 409.446C845.045 409.073 845.208 408.592 845.208 408.004V400.976H846.496V407.892C846.496 408.928 846.221 409.745 845.67 410.342C845.129 410.93 844.391 411.224 843.458 411.224ZM849.064 408.9C849.064 409.236 849.204 409.516 849.484 409.74C849.773 409.964 850.109 410.076 850.492 410.076C851.033 410.076 851.514 409.875 851.934 409.474C852.363 409.073 852.578 408.601 852.578 408.06C852.176 407.743 851.616 407.584 850.898 407.584C850.375 407.584 849.936 407.71 849.582 407.962C849.236 408.214 849.064 408.527 849.064 408.9ZM850.73 403.916C851.682 403.916 852.433 404.173 852.984 404.686C853.534 405.19 853.81 405.885 853.81 406.772V411H852.578V410.048H852.522C851.99 410.832 851.28 411.224 850.394 411.224C849.638 411.224 849.003 411 848.49 410.552C847.986 410.104 847.734 409.544 847.734 408.872C847.734 408.163 848 407.598 848.532 407.178C849.073 406.758 849.792 406.548 850.688 406.548C851.453 406.548 852.083 406.688 852.578 406.968V406.674C852.578 406.226 852.4 405.848 852.046 405.54C851.691 405.223 851.276 405.064 850.8 405.064C850.081 405.064 849.512 405.367 849.092 405.974L847.958 405.26C848.583 404.364 849.507 403.916 850.73 403.916ZM855.263 404.14H856.495V405.092H856.551C856.747 404.756 857.045 404.476 857.447 404.252C857.857 404.028 858.282 403.916 858.721 403.916C859.561 403.916 860.205 404.159 860.653 404.644C861.11 405.12 861.339 405.801 861.339 406.688V411H860.051V406.772C860.023 405.652 859.458 405.092 858.357 405.092C857.843 405.092 857.414 405.302 857.069 405.722C856.723 406.133 856.551 406.627 856.551 407.206V411H855.263V404.14ZM869.343 401.424V411H868.055V403.02L866.193 403.832L865.703 402.74L868.517 401.424H869.343ZM877.316 409.768V411H871.212V409.712L873.69 407.206C874.521 406.357 875.095 405.722 875.412 405.302C875.73 404.873 875.888 404.425 875.888 403.958C875.888 403.538 875.725 403.179 875.398 402.88C875.072 402.581 874.652 402.432 874.138 402.432C873.7 402.432 873.322 402.563 873.004 402.824C872.687 403.085 872.482 403.403 872.388 403.776L871.212 403.3C871.399 402.712 871.758 402.217 872.29 401.816C872.822 401.405 873.448 401.2 874.166 401.2C875.034 401.2 875.758 401.466 876.336 401.998C876.915 402.53 877.204 403.183 877.204 403.958C877.204 404.882 876.696 405.881 875.678 406.954L872.878 409.768H877.316Z" fill="white" fill-opacity="0.8"/>
<path d="M919.458 411.224C918.702 411.224 918.049 411.019 917.498 410.608C916.947 410.197 916.56 409.628 916.336 408.9L917.554 408.396C917.871 409.46 918.506 409.992 919.458 409.992C919.981 409.992 920.401 409.81 920.718 409.446C921.045 409.073 921.208 408.592 921.208 408.004V400.976H922.496V407.892C922.496 408.928 922.221 409.745 921.67 410.342C921.129 410.93 920.391 411.224 919.458 411.224ZM925.064 408.9C925.064 409.236 925.204 409.516 925.484 409.74C925.773 409.964 926.109 410.076 926.492 410.076C927.033 410.076 927.514 409.875 927.934 409.474C928.363 409.073 928.578 408.601 928.578 408.06C928.176 407.743 927.616 407.584 926.898 407.584C926.375 407.584 925.936 407.71 925.582 407.962C925.236 408.214 925.064 408.527 925.064 408.9ZM926.73 403.916C927.682 403.916 928.433 404.173 928.984 404.686C929.534 405.19 929.81 405.885 929.81 406.772V411H928.578V410.048H928.522C927.99 410.832 927.28 411.224 926.394 411.224C925.638 411.224 925.003 411 924.49 410.552C923.986 410.104 923.734 409.544 923.734 408.872C923.734 408.163 924 407.598 924.532 407.178C925.073 406.758 925.792 406.548 926.688 406.548C927.453 406.548 928.083 406.688 928.578 406.968V406.674C928.578 406.226 928.4 405.848 928.046 405.54C927.691 405.223 927.276 405.064 926.8 405.064C926.081 405.064 925.512 405.367 925.092 405.974L923.958 405.26C924.583 404.364 925.507 403.916 926.73 403.916ZM931.263 404.14H932.495V405.092H932.551C932.747 404.756 933.045 404.476 933.447 404.252C933.857 404.028 934.282 403.916 934.721 403.916C935.561 403.916 936.205 404.159 936.653 404.644C937.11 405.12 937.339 405.801 937.339 406.688V411H936.051V406.772C936.023 405.652 935.458 405.092 934.357 405.092C933.843 405.092 933.414 405.302 933.069 405.722C932.723 406.133 932.551 406.627 932.551 407.206V411H931.263V404.14ZM945.343 401.424V411H944.055V403.02L942.193 403.832L941.703 402.74L944.517 401.424H945.343ZM953.39 408.284C953.39 409.124 953.077 409.824 952.452 410.384C951.836 410.944 951.07 411.224 950.156 411.224C949.437 411.224 948.788 411.009 948.21 410.58C947.622 410.132 947.225 409.549 947.02 408.83L948.196 408.34C948.345 408.872 948.588 409.283 948.924 409.572C949.269 409.852 949.68 409.992 950.156 409.992C950.678 409.992 951.131 409.829 951.514 409.502C951.887 409.166 952.074 408.76 952.074 408.284C952.074 407.808 951.878 407.407 951.486 407.08C951.103 406.753 950.641 406.59 950.1 406.59H949.274V405.386H950.002C950.515 405.386 950.935 405.246 951.262 404.966C951.588 404.677 951.752 404.303 951.752 403.846C951.752 403.426 951.598 403.085 951.29 402.824C950.982 402.563 950.576 402.432 950.072 402.432C949.26 402.432 948.704 402.847 948.406 403.678L947.216 403.174C947.43 402.586 947.79 402.11 948.294 401.746C948.798 401.382 949.39 401.2 950.072 401.2C950.921 401.2 951.635 401.452 952.214 401.956C952.783 402.441 953.068 403.071 953.068 403.846C953.068 404.77 952.638 405.456 951.78 405.904V405.96C952.284 406.175 952.676 406.487 952.956 406.898C953.245 407.309 953.39 407.771 953.39 408.284Z" fill="white" fill-opacity="0.8"/>
<path d="M995.458 411.224C994.702 411.224 994.049 411.019 993.498 410.608C992.947 410.197 992.56 409.628 992.336 408.9L993.554 408.396C993.871 409.46 994.506 409.992 995.458 409.992C995.981 409.992 996.401 409.81 996.718 409.446C997.045 409.073 997.208 408.592 997.208 408.004V400.976H998.496V407.892C998.496 408.928 998.221 409.745 997.67 410.342C997.129 410.93 996.391 411.224 995.458 411.224ZM1001.06 408.9C1001.06 409.236 1001.2 409.516 1001.48 409.74C1001.77 409.964 1002.11 410.076 1002.49 410.076C1003.03 410.076 1003.51 409.875 1003.93 409.474C1004.36 409.073 1004.58 408.601 1004.58 408.06C1004.18 407.743 1003.62 407.584 1002.9 407.584C1002.38 407.584 1001.94 407.71 1001.58 407.962C1001.24 408.214 1001.06 408.527 1001.06 408.9ZM1002.73 403.916C1003.68 403.916 1004.43 404.173 1004.98 404.686C1005.53 405.19 1005.81 405.885 1005.81 406.772V411H1004.58V410.048H1004.52C1003.99 410.832 1003.28 411.224 1002.39 411.224C1001.64 411.224 1001 411 1000.49 410.552C999.986 410.104 999.734 409.544 999.734 408.872C999.734 408.163 1000 407.598 1000.53 407.178C1001.07 406.758 1001.79 406.548 1002.69 406.548C1003.45 406.548 1004.08 406.688 1004.58 406.968V406.674C1004.58 406.226 1004.4 405.848 1004.05 405.54C1003.69 405.223 1003.28 405.064 1002.8 405.064C1002.08 405.064 1001.51 405.367 1001.09 405.974L999.958 405.26C1000.58 404.364 1001.51 403.916 1002.73 403.916ZM1007.26 404.14H1008.49V405.092H1008.55C1008.75 404.756 1009.05 404.476 1009.45 404.252C1009.86 404.028 1010.28 403.916 1010.72 403.916C1011.56 403.916 1012.2 404.159 1012.65 404.644C1013.11 405.12 1013.34 405.801 1013.34 406.688V411H1012.05V406.772C1012.02 405.652 1011.46 405.092 1010.36 405.092C1009.84 405.092 1009.41 405.302 1009.07 405.722C1008.72 406.133 1008.55 406.627 1008.55 407.206V411H1007.26V404.14ZM1021.34 401.424V411H1020.05V403.02L1018.19 403.832L1017.7 402.74L1020.52 401.424H1021.34ZM1028.91 408.984V411H1027.63V408.984H1023.08V408.004L1027.51 401.424H1028.91V407.78H1030.15V408.984H1028.91ZM1024.53 407.78H1027.63V403.314H1027.57L1024.53 407.78Z" fill="white" fill-opacity="0.8"/>
<path d="M1082.46 411.224C1081.7 411.224 1081.05 411.019 1080.5 410.608C1079.95 410.197 1079.56 409.628 1079.34 408.9L1080.55 408.396C1080.87 409.46 1081.51 409.992 1082.46 409.992C1082.98 409.992 1083.4 409.81 1083.72 409.446C1084.04 409.073 1084.21 408.592 1084.21 408.004V400.976H1085.5V407.892C1085.5 408.928 1085.22 409.745 1084.67 410.342C1084.13 410.93 1083.39 411.224 1082.46 411.224ZM1088.06 408.9C1088.06 409.236 1088.2 409.516 1088.48 409.74C1088.77 409.964 1089.11 410.076 1089.49 410.076C1090.03 410.076 1090.51 409.875 1090.93 409.474C1091.36 409.073 1091.58 408.601 1091.58 408.06C1091.18 407.743 1090.62 407.584 1089.9 407.584C1089.38 407.584 1088.94 407.71 1088.58 407.962C1088.24 408.214 1088.06 408.527 1088.06 408.9ZM1089.73 403.916C1090.68 403.916 1091.43 404.173 1091.98 404.686C1092.53 405.19 1092.81 405.885 1092.81 406.772V411H1091.58V410.048H1091.52C1090.99 410.832 1090.28 411.224 1089.39 411.224C1088.64 411.224 1088 411 1087.49 410.552C1086.99 410.104 1086.73 409.544 1086.73 408.872C1086.73 408.163 1087 407.598 1087.53 407.178C1088.07 406.758 1088.79 406.548 1089.69 406.548C1090.45 406.548 1091.08 406.688 1091.58 406.968V406.674C1091.58 406.226 1091.4 405.848 1091.05 405.54C1090.69 405.223 1090.28 405.064 1089.8 405.064C1089.08 405.064 1088.51 405.367 1088.09 405.974L1086.96 405.26C1087.58 404.364 1088.51 403.916 1089.73 403.916ZM1094.26 404.14H1095.49V405.092H1095.55C1095.75 404.756 1096.05 404.476 1096.45 404.252C1096.86 404.028 1097.28 403.916 1097.72 403.916C1098.56 403.916 1099.2 404.159 1099.65 404.644C1100.11 405.12 1100.34 405.801 1100.34 406.688V411H1099.05V406.772C1099.02 405.652 1098.46 405.092 1097.36 405.092C1096.84 405.092 1096.41 405.302 1096.07 405.722C1095.72 406.133 1095.55 406.627 1095.55 407.206V411H1094.26V404.14ZM1108.34 401.424V411H1107.05V403.02L1105.19 403.832L1104.7 402.74L1107.52 401.424H1108.34ZM1116.75 408.004C1116.75 408.919 1116.43 409.684 1115.8 410.3C1115.16 410.916 1114.38 411.224 1113.45 411.224C1112.7 411.224 1112.02 410.991 1111.42 410.524C1110.81 410.057 1110.41 409.427 1110.21 408.634L1111.36 408.172C1111.5 408.732 1111.75 409.175 1112.12 409.502C1112.49 409.829 1112.92 409.992 1113.42 409.992C1114.02 409.992 1114.5 409.81 1114.87 409.446C1115.26 409.073 1115.45 408.597 1115.45 408.018C1115.45 407.43 1115.26 406.949 1114.87 406.576C1114.5 406.203 1114.02 406.016 1113.43 406.016C1112.75 406.016 1112.21 406.291 1111.82 406.842L1110.52 406.282L1111.14 401.424H1116.16V402.656H1112.21L1111.86 405.4L1111.92 405.414C1112.4 405.031 1112.98 404.84 1113.66 404.84C1114.52 404.84 1115.24 405.143 1115.84 405.75C1116.45 406.357 1116.75 407.108 1116.75 408.004Z" fill="white" fill-opacity="0.8"/>
<path d="M9.616 186.212C9.616 184.756 9.97533 183.557 10.694 182.614C11.4127 181.671 12.3367 181.2 13.466 181.2C14.5953 181.2 15.5193 181.676 16.238 182.628C16.9567 183.571 17.316 184.765 17.316 186.212C17.316 187.649 16.9567 188.849 16.238 189.81C15.5193 190.753 14.5953 191.224 13.466 191.224C12.3367 191.224 11.4127 190.753 10.694 189.81C9.97533 188.849 9.616 187.649 9.616 186.212ZM16 186.212C16 185.111 15.7667 184.205 15.3 183.496C14.8427 182.787 14.2313 182.432 13.466 182.432C12.7007 182.432 12.0893 182.787 11.632 183.496C11.1653 184.205 10.932 185.111 10.932 186.212C10.932 187.313 11.1653 188.223 11.632 188.942C12.0893 189.642 12.7007 189.992 13.466 189.992C14.2313 189.992 14.8427 189.637 15.3 188.928C15.7667 188.209 16 187.304 16 186.212ZM23.1637 183.594C23.1637 184.247 22.9257 184.812 22.4497 185.288C21.9831 185.755 21.4231 185.988 20.7697 185.988C20.1257 185.988 19.5611 185.755 19.0757 185.288C18.6091 184.803 18.3757 184.238 18.3757 183.594C18.3757 182.941 18.6091 182.381 19.0757 181.914C19.5517 181.438 20.1164 181.2 20.7697 181.2C21.4231 181.2 21.9831 181.438 22.4497 181.914C22.9257 182.381 23.1637 182.941 23.1637 183.594ZM27.1257 181.844L20.9097 191.112L20.1117 190.594L26.3417 181.312L27.1257 181.844ZM22.1277 183.594C22.1277 183.174 21.9971 182.829 21.7357 182.558C21.4837 182.278 21.1617 182.138 20.7697 182.138C20.3871 182.138 20.0651 182.278 19.8037 182.558C19.5424 182.829 19.4117 183.174 19.4117 183.594C19.4117 184.014 19.5424 184.359 19.8037 184.63C20.0651 184.91 20.3871 185.05 20.7697 185.05C21.1617 185.05 21.4837 184.915 21.7357 184.644C21.9971 184.364 22.1277 184.014 22.1277 183.594ZM28.8757 188.83C28.8757 189.483 28.6377 190.048 28.1617 190.524C27.6951 190.991 27.1351 191.224 26.4817 191.224C25.8377 191.224 25.2731 190.991 24.7877 190.524C24.3211 190.039 24.0877 189.474 24.0877 188.83C24.0877 188.177 24.3211 187.617 24.7877 187.15C25.2637 186.674 25.8284 186.436 26.4817 186.436C27.1351 186.436 27.6951 186.674 28.1617 187.15C28.6377 187.617 28.8757 188.177 28.8757 188.83ZM27.8397 188.83C27.8397 188.41 27.7091 188.065 27.4477 187.794C27.1957 187.514 26.8737 187.374 26.4817 187.374C26.0991 187.374 25.7771 187.514 25.5157 187.794C25.2544 188.065 25.1237 188.41 25.1237 188.83C25.1237 189.25 25.2544 189.595 25.5157 189.866C25.7771 190.146 26.0991 190.286 26.4817 190.286C26.8737 190.286 27.1957 190.151 27.4477 189.88C27.7091 189.6 27.8397 189.25 27.8397 188.83Z" fill="white" fill-opacity="0.8"/>
<path d="M7.916 143.674V144.738H5.382V147.272H4.318V144.738H1.784V143.674H4.318V141.14H5.382V143.674H7.916ZM15.3613 146.768V148H9.25727V146.712L11.7353 144.206C12.5659 143.357 13.1399 142.722 13.4573 142.302C13.7746 141.873 13.9333 141.425 13.9333 140.958C13.9333 140.538 13.7699 140.179 13.4433 139.88C13.1166 139.581 12.6966 139.432 12.1833 139.432C11.7446 139.432 11.3666 139.563 11.0493 139.824C10.7319 140.085 10.5266 140.403 10.4333 140.776L9.25727 140.3C9.44393 139.712 9.80327 139.217 10.3353 138.816C10.8673 138.405 11.4926 138.2 12.2113 138.2C13.0793 138.2 13.8026 138.466 14.3813 138.998C14.9599 139.53 15.2493 140.183 15.2493 140.958C15.2493 141.882 14.7406 142.881 13.7233 143.954L10.9233 146.768H15.3613ZM23.0687 145.004C23.0687 145.919 22.7514 146.684 22.1167 147.3C21.482 147.916 20.698 148.224 19.7647 148.224C19.018 148.224 18.3414 147.991 17.7347 147.524C17.128 147.057 16.7267 146.427 16.5307 145.634L17.6787 145.172C17.8187 145.732 18.0707 146.175 18.4347 146.502C18.808 146.829 19.242 146.992 19.7367 146.992C20.334 146.992 20.8194 146.81 21.1927 146.446C21.5754 146.073 21.7667 145.597 21.7667 145.018C21.7667 144.43 21.5754 143.949 21.1927 143.576C20.8194 143.203 20.3387 143.016 19.7507 143.016C19.0694 143.016 18.5327 143.291 18.1407 143.842L16.8387 143.282L17.4547 138.424H22.4807V139.656H18.5327L18.1827 142.4L18.2387 142.414C18.7147 142.031 19.2934 141.84 19.9747 141.84C20.8334 141.84 21.5614 142.143 22.1587 142.75C22.7654 143.357 23.0687 144.108 23.0687 145.004ZM28.8356 140.594C28.8356 141.247 28.5976 141.812 28.1216 142.288C27.6549 142.755 27.0949 142.988 26.4416 142.988C25.7976 142.988 25.2329 142.755 24.7476 142.288C24.2809 141.803 24.0476 141.238 24.0476 140.594C24.0476 139.941 24.2809 139.381 24.7476 138.914C25.2236 138.438 25.7883 138.2 26.4416 138.2C27.0949 138.2 27.6549 138.438 28.1216 138.914C28.5976 139.381 28.8356 139.941 28.8356 140.594ZM32.7976 138.844L26.5816 148.112L25.7836 147.594L32.0136 138.312L32.7976 138.844ZM27.7996 140.594C27.7996 140.174 27.6689 139.829 27.4076 139.558C27.1556 139.278 26.8336 139.138 26.4416 139.138C26.0589 139.138 25.7369 139.278 25.4756 139.558C25.2143 139.829 25.0836 140.174 25.0836 140.594C25.0836 141.014 25.2143 141.359 25.4756 141.63C25.7369 141.91 26.0589 142.05 26.4416 142.05C26.8336 142.05 27.1556 141.915 27.4076 141.644C27.6689 141.364 27.7996 141.014 27.7996 140.594ZM34.5476 145.83C34.5476 146.483 34.3096 147.048 33.8336 147.524C33.3669 147.991 32.8069 148.224 32.1536 148.224C31.5096 148.224 30.9449 147.991 30.4596 147.524C29.9929 147.039 29.7596 146.474 29.7596 145.83C29.7596 145.177 29.9929 144.617 30.4596 144.15C30.9356 143.674 31.5003 143.436 32.1536 143.436C32.8069 143.436 33.3669 143.674 33.8336 144.15C34.3096 144.617 34.5476 145.177 34.5476 145.83ZM33.5116 145.83C33.5116 145.41 33.3809 145.065 33.1196 144.794C32.8676 144.514 32.5456 144.374 32.1536 144.374C31.7709 144.374 31.4489 144.514 31.1876 144.794C30.9263 145.065 30.7956 145.41 30.7956 145.83C30.7956 146.25 30.9263 146.595 31.1876 146.866C31.4489 147.146 31.7709 147.286 32.1536 147.286C32.5456 147.286 32.8676 147.151 33.1196 146.88C33.3809 146.6 33.5116 146.25 33.5116 145.83Z" fill="white" fill-opacity="0.8"/>
<path d="M6.264 359.192H1.784V358.128H6.264V359.192ZM10.8191 353.424V363H9.53114V355.02L7.66914 355.832L7.17914 354.74L9.99314 353.424H10.8191ZM12.6082 358.212C12.6082 356.756 12.9675 355.557 13.6862 354.614C14.4049 353.671 15.3289 353.2 16.4582 353.2C17.5875 353.2 18.5115 353.676 19.2302 354.628C19.9489 355.571 20.3082 356.765 20.3082 358.212C20.3082 359.649 19.9489 360.849 19.2302 361.81C18.5115 362.753 17.5875 363.224 16.4582 363.224C15.3289 363.224 14.4049 362.753 13.6862 361.81C12.9675 360.849 12.6082 359.649 12.6082 358.212ZM18.9922 358.212C18.9922 357.111 18.7589 356.205 18.2922 355.496C17.8349 354.787 17.2235 354.432 16.4582 354.432C15.6929 354.432 15.0815 354.787 14.6242 355.496C14.1575 356.205 13.9242 357.111 13.9242 358.212C13.9242 359.313 14.1575 360.223 14.6242 360.942C15.0815 361.642 15.6929 361.992 16.4582 361.992C17.2235 361.992 17.8349 361.637 18.2922 360.928C18.7589 360.209 18.9922 359.304 18.9922 358.212ZM21.5359 358.212C21.5359 356.756 21.8953 355.557 22.6139 354.614C23.3326 353.671 24.2566 353.2 25.3859 353.2C26.5153 353.2 27.4393 353.676 28.1579 354.628C28.8766 355.571 29.2359 356.765 29.2359 358.212C29.2359 359.649 28.8766 360.849 28.1579 361.81C27.4393 362.753 26.5153 363.224 25.3859 363.224C24.2566 363.224 23.3326 362.753 22.6139 361.81C21.8953 360.849 21.5359 359.649 21.5359 358.212ZM27.9199 358.212C27.9199 357.111 27.6866 356.205 27.2199 355.496C26.7626 354.787 26.1513 354.432 25.3859 354.432C24.6206 354.432 24.0093 354.787 23.5519 355.496C23.0853 356.205 22.8519 357.111 22.8519 358.212C22.8519 359.313 23.0853 360.223 23.5519 360.942C24.0093 361.642 24.6206 361.992 25.3859 361.992C26.1513 361.992 26.7626 361.637 27.2199 360.928C27.6866 360.209 27.9199 359.304 27.9199 358.212ZM35.0837 355.594C35.0837 356.247 34.8457 356.812 34.3697 357.288C33.903 357.755 33.343 357.988 32.6897 357.988C32.0457 357.988 31.481 357.755 30.9957 357.288C30.529 356.803 30.2957 356.238 30.2957 355.594C30.2957 354.941 30.529 354.381 30.9957 353.914C31.4717 353.438 32.0363 353.2 32.6897 353.2C33.343 353.2 33.903 353.438 34.3697 353.914C34.8457 354.381 35.0837 354.941 35.0837 355.594ZM39.0457 353.844L32.8297 363.112L32.0317 362.594L38.2617 353.312L39.0457 353.844ZM34.0477 355.594C34.0477 355.174 33.917 354.829 33.6557 354.558C33.4037 354.278 33.0817 354.138 32.6897 354.138C32.307 354.138 31.985 354.278 31.7237 354.558C31.4623 354.829 31.3317 355.174 31.3317 355.594C31.3317 356.014 31.4623 356.359 31.7237 356.63C31.985 356.91 32.307 357.05 32.6897 357.05C33.0817 357.05 33.4037 356.915 33.6557 356.644C33.917 356.364 34.0477 356.014 34.0477 355.594ZM40.7957 360.83C40.7957 361.483 40.5577 362.048 40.0817 362.524C39.615 362.991 39.055 363.224 38.4017 363.224C37.7577 363.224 37.193 362.991 36.7077 362.524C36.241 362.039 36.0077 361.474 36.0077 360.83C36.0077 360.177 36.241 359.617 36.7077 359.15C37.1837 358.674 37.7483 358.436 38.4017 358.436C39.055 358.436 39.615 358.674 40.0817 359.15C40.5577 359.617 40.7957 360.177 40.7957 360.83ZM39.7597 360.83C39.7597 360.41 39.629 360.065 39.3677 359.794C39.1157 359.514 38.7937 359.374 38.4017 359.374C38.019 359.374 37.697 359.514 37.4357 359.794C37.1743 360.065 37.0437 360.41 37.0437 360.83C37.0437 361.25 37.1743 361.595 37.4357 361.866C37.697 362.146 38.019 362.286 38.4017 362.286C38.7937 362.286 39.1157 362.151 39.3677 361.88C39.629 361.6 39.7597 361.25 39.7597 360.83Z" fill="white" fill-opacity="0.8"/>
<path d="M7.916 100.674V101.738H5.382V104.272H4.318V101.738H1.784V100.674H4.318V98.14H5.382V100.674H7.916ZM15.7953 102.004C15.7953 102.919 15.4779 103.684 14.8433 104.3C14.2086 104.916 13.4246 105.224 12.4913 105.224C11.7446 105.224 11.0679 104.991 10.4613 104.524C9.8546 104.057 9.45327 103.427 9.25727 102.634L10.4053 102.172C10.5453 102.732 10.7973 103.175 11.1613 103.502C11.5346 103.829 11.9686 103.992 12.4633 103.992C13.0606 103.992 13.5459 103.81 13.9193 103.446C14.3019 103.073 14.4933 102.597 14.4933 102.018C14.4933 101.43 14.3019 100.949 13.9193 100.576C13.5459 100.203 13.0653 100.016 12.4773 100.016C11.7959 100.016 11.2593 100.291 10.8673 100.842L9.56527 100.282L10.1813 95.424H15.2073V96.656H11.2593L10.9093 99.4L10.9653 99.414C11.4413 99.0313 12.0199 98.84 12.7013 98.84C13.5599 98.84 14.2879 99.1433 14.8853 99.75C15.4919 100.357 15.7953 101.108 15.7953 102.004ZM17.0789 100.212C17.0789 98.756 17.4382 97.5567 18.1569 96.614C18.8756 95.6713 19.7996 95.2 20.9289 95.2C22.0582 95.2 22.9822 95.676 23.7009 96.628C24.4196 97.5707 24.7789 98.7653 24.7789 100.212C24.7789 101.649 24.4196 102.849 23.7009 103.81C22.9822 104.753 22.0582 105.224 20.9289 105.224C19.7996 105.224 18.8756 104.753 18.1569 103.81C17.4382 102.849 17.0789 101.649 17.0789 100.212ZM23.4629 100.212C23.4629 99.1107 23.2296 98.2053 22.7629 97.496C22.3056 96.7867 21.6942 96.432 20.9289 96.432C20.1636 96.432 19.5522 96.7867 19.0949 97.496C18.6282 98.2053 18.3949 99.1107 18.3949 100.212C18.3949 101.313 18.6282 102.223 19.0949 102.942C19.5522 103.642 20.1636 103.992 20.9289 103.992C21.6942 103.992 22.3056 103.637 22.7629 102.928C23.2296 102.209 23.4629 101.304 23.4629 100.212ZM30.6266 97.594C30.6266 98.2473 30.3886 98.812 29.9126 99.288C29.446 99.7547 28.886 99.988 28.2326 99.988C27.5886 99.988 27.024 99.7547 26.5386 99.288C26.072 98.8027 25.8386 98.238 25.8386 97.594C25.8386 96.9407 26.072 96.3807 26.5386 95.914C27.0146 95.438 27.5793 95.2 28.2326 95.2C28.886 95.2 29.446 95.438 29.9126 95.914C30.3886 96.3807 30.6266 96.9407 30.6266 97.594ZM34.5886 95.844L28.3726 105.112L27.5746 104.594L33.8046 95.312L34.5886 95.844ZM29.5906 97.594C29.5906 97.174 29.46 96.8287 29.1986 96.558C28.9466 96.278 28.6246 96.138 28.2326 96.138C27.85 96.138 27.528 96.278 27.2666 96.558C27.0053 96.8287 26.8746 97.174 26.8746 97.594C26.8746 98.014 27.0053 98.3593 27.2666 98.63C27.528 98.91 27.85 99.05 28.2326 99.05C28.6246 99.05 28.9466 98.9147 29.1986 98.644C29.46 98.364 29.5906 98.014 29.5906 97.594ZM36.3386 102.83C36.3386 103.483 36.1006 104.048 35.6246 104.524C35.158 104.991 34.598 105.224 33.9446 105.224C33.3006 105.224 32.736 104.991 32.2506 104.524C31.784 104.039 31.5506 103.474 31.5506 102.83C31.5506 102.177 31.784 101.617 32.2506 101.15C32.7266 100.674 33.2913 100.436 33.9446 100.436C34.598 100.436 35.158 100.674 35.6246 101.15C36.1006 101.617 36.3386 102.177 36.3386 102.83ZM35.3026 102.83C35.3026 102.41 35.172 102.065 34.9106 101.794C34.6586 101.514 34.3366 101.374 33.9446 101.374C33.562 101.374 33.24 101.514 32.9786 101.794C32.7173 102.065 32.5866 102.41 32.5866 102.83C32.5866 103.25 32.7173 103.595 32.9786 103.866C33.24 104.146 33.562 104.286 33.9446 104.286C34.3366 104.286 34.6586 104.151 34.9106 103.88C35.172 103.6 35.3026 103.25 35.3026 102.83Z" fill="white" fill-opacity="0.8"/>
<path d="M6.264 320.192H1.784V319.128H6.264V320.192ZM13.805 315.74L9.15697 324.224L8.00897 323.636L12.447 315.656H7.60297L7.63097 314.424H13.805V315.74ZM21.3324 321.004C21.3324 321.919 21.015 322.684 20.3804 323.3C19.7457 323.916 18.9617 324.224 18.0284 324.224C17.2817 324.224 16.605 323.991 15.9984 323.524C15.3917 323.057 14.9904 322.427 14.7944 321.634L15.9424 321.172C16.0824 321.732 16.3344 322.175 16.6984 322.502C17.0717 322.829 17.5057 322.992 18.0004 322.992C18.5977 322.992 19.083 322.81 19.4564 322.446C19.839 322.073 20.0304 321.597 20.0304 321.018C20.0304 320.43 19.839 319.949 19.4564 319.576C19.083 319.203 18.6024 319.016 18.0144 319.016C17.333 319.016 16.7964 319.291 16.4044 319.842L15.1024 319.282L15.7184 314.424H20.7444V315.656H16.7964L16.4464 318.4L16.5024 318.414C16.9784 318.031 17.557 317.84 18.2384 317.84C19.097 317.84 19.825 318.143 20.4224 318.75C21.029 319.357 21.3324 320.108 21.3324 321.004ZM27.0993 316.594C27.0993 317.247 26.8613 317.812 26.3853 318.288C25.9186 318.755 25.3586 318.988 24.7053 318.988C24.0613 318.988 23.4966 318.755 23.0113 318.288C22.5446 317.803 22.3113 317.238 22.3113 316.594C22.3113 315.941 22.5446 315.381 23.0113 314.914C23.4873 314.438 24.0519 314.2 24.7053 314.2C25.3586 314.2 25.9186 314.438 26.3853 314.914C26.8613 315.381 27.0993 315.941 27.0993 316.594ZM31.0613 314.844L24.8453 324.112L24.0473 323.594L30.2773 314.312L31.0613 314.844ZM26.0633 316.594C26.0633 316.174 25.9326 315.829 25.6713 315.558C25.4193 315.278 25.0973 315.138 24.7053 315.138C24.3226 315.138 24.0006 315.278 23.7393 315.558C23.4779 315.829 23.3473 316.174 23.3473 316.594C23.3473 317.014 23.4779 317.359 23.7393 317.63C24.0006 317.91 24.3226 318.05 24.7053 318.05C25.0973 318.05 25.4193 317.915 25.6713 317.644C25.9326 317.364 26.0633 317.014 26.0633 316.594ZM32.8113 321.83C32.8113 322.483 32.5733 323.048 32.0973 323.524C31.6306 323.991 31.0706 324.224 30.4173 324.224C29.7733 324.224 29.2086 323.991 28.7233 323.524C28.2566 323.039 28.0233 322.474 28.0233 321.83C28.0233 321.177 28.2566 320.617 28.7233 320.15C29.1993 319.674 29.7639 319.436 30.4173 319.436C31.0706 319.436 31.6306 319.674 32.0973 320.15C32.5733 320.617 32.8113 321.177 32.8113 321.83ZM31.7753 321.83C31.7753 321.41 31.6446 321.065 31.3833 320.794C31.1313 320.514 30.8093 320.374 30.4173 320.374C30.0346 320.374 29.7126 320.514 29.4513 320.794C29.1899 321.065 29.0593 321.41 29.0593 321.83C29.0593 322.25 29.1899 322.595 29.4513 322.866C29.7126 323.146 30.0346 323.286 30.4173 323.286C30.8093 323.286 31.1313 323.151 31.3833 322.88C31.6446 322.6 31.7753 322.25 31.7753 321.83Z" fill="white" fill-opacity="0.8"/>
<path d="M7.916 61.674V62.738H5.382V65.272H4.318V62.738H1.784V61.674H4.318V59.14H5.382V61.674H7.916ZM15.4593 57.74L10.8113 66.224L9.66327 65.636L14.1013 57.656H9.25727L9.28527 56.424H15.4593V57.74ZM22.9867 63.004C22.9867 63.9187 22.6693 64.684 22.0347 65.3C21.4 65.916 20.616 66.224 19.6827 66.224C18.936 66.224 18.2593 65.9907 17.6527 65.524C17.046 65.0573 16.6447 64.4273 16.4487 63.634L17.5967 63.172C17.7367 63.732 17.9887 64.1753 18.3527 64.502C18.726 64.8287 19.16 64.992 19.6547 64.992C20.252 64.992 20.7373 64.81 21.1107 64.446C21.4933 64.0727 21.6847 63.5967 21.6847 63.018C21.6847 62.43 21.4933 61.9493 21.1107 61.576C20.7373 61.2027 20.2567 61.016 19.6687 61.016C18.9873 61.016 18.4507 61.2913 18.0587 61.842L16.7567 61.282L17.3727 56.424H22.3987V57.656H18.4507L18.1007 60.4L18.1567 60.414C18.6327 60.0313 19.2113 59.84 19.8927 59.84C20.7513 59.84 21.4793 60.1433 22.0767 60.75C22.6833 61.3567 22.9867 62.108 22.9867 63.004ZM28.7536 58.594C28.7536 59.2473 28.5156 59.812 28.0396 60.288C27.5729 60.7547 27.0129 60.988 26.3596 60.988C25.7156 60.988 25.1509 60.7547 24.6656 60.288C24.1989 59.8027 23.9656 59.238 23.9656 58.594C23.9656 57.9407 24.1989 57.3807 24.6656 56.914C25.1416 56.438 25.7062 56.2 26.3596 56.2C27.0129 56.2 27.5729 56.438 28.0396 56.914C28.5156 57.3807 28.7536 57.9407 28.7536 58.594ZM32.7156 56.844L26.4996 66.112L25.7016 65.594L31.9316 56.312L32.7156 56.844ZM27.7176 58.594C27.7176 58.174 27.5869 57.8287 27.3256 57.558C27.0736 57.278 26.7516 57.138 26.3596 57.138C25.9769 57.138 25.6549 57.278 25.3936 57.558C25.1322 57.8287 25.0016 58.174 25.0016 58.594C25.0016 59.014 25.1322 59.3593 25.3936 59.63C25.6549 59.91 25.9769 60.05 26.3596 60.05C26.7516 60.05 27.0736 59.9147 27.3256 59.644C27.5869 59.364 27.7176 59.014 27.7176 58.594ZM34.4656 63.83C34.4656 64.4833 34.2276 65.048 33.7516 65.524C33.2849 65.9907 32.7249 66.224 32.0716 66.224C31.4276 66.224 30.8629 65.9907 30.3776 65.524C29.9109 65.0387 29.6776 64.474 29.6776 63.83C29.6776 63.1767 29.9109 62.6167 30.3776 62.15C30.8536 61.674 31.4182 61.436 32.0716 61.436C32.7249 61.436 33.2849 61.674 33.7516 62.15C34.2276 62.6167 34.4656 63.1767 34.4656 63.83ZM33.4296 63.83C33.4296 63.41 33.2989 63.0647 33.0376 62.794C32.7856 62.514 32.4636 62.374 32.0716 62.374C31.6889 62.374 31.3669 62.514 31.1056 62.794C30.8442 63.0647 30.7136 63.41 30.7136 63.83C30.7136 64.25 30.8442 64.5953 31.1056 64.866C31.3669 65.146 31.6889 65.286 32.0716 65.286C32.4636 65.286 32.7856 65.1507 33.0376 64.88C33.2989 64.6 33.4296 64.25 33.4296 63.83Z" fill="white" fill-opacity="0.8"/>
<path d="M6.264 281.192H1.784V280.128H6.264V281.192ZM14.141 282.004C14.141 282.919 13.8236 283.684 13.189 284.3C12.5543 284.916 11.7703 285.224 10.837 285.224C10.0903 285.224 9.41364 284.991 8.80697 284.524C8.2003 284.057 7.79897 283.427 7.60297 282.634L8.75097 282.172C8.89097 282.732 9.14297 283.175 9.50697 283.502C9.8803 283.829 10.3143 283.992 10.809 283.992C11.4063 283.992 11.8916 283.81 12.265 283.446C12.6476 283.073 12.839 282.597 12.839 282.018C12.839 281.43 12.6476 280.949 12.265 280.576C11.8916 280.203 11.411 280.016 10.823 280.016C10.1416 280.016 9.60497 280.291 9.21297 280.842L7.91097 280.282L8.52697 275.424H13.553V276.656H9.60497L9.25497 279.4L9.31097 279.414C9.78697 279.031 10.3656 278.84 11.047 278.84C11.9056 278.84 12.6336 279.143 13.231 279.75C13.8376 280.357 14.141 281.108 14.141 282.004ZM15.4246 280.212C15.4246 278.756 15.7839 277.557 16.5026 276.614C17.2213 275.671 18.1453 275.2 19.2746 275.2C20.4039 275.2 21.3279 275.676 22.0466 276.628C22.7653 277.571 23.1246 278.765 23.1246 280.212C23.1246 281.649 22.7653 282.849 22.0466 283.81C21.3279 284.753 20.4039 285.224 19.2746 285.224C18.1453 285.224 17.2213 284.753 16.5026 283.81C15.7839 282.849 15.4246 281.649 15.4246 280.212ZM21.8086 280.212C21.8086 279.111 21.5753 278.205 21.1086 277.496C20.6513 276.787 20.0399 276.432 19.2746 276.432C18.5093 276.432 17.8979 276.787 17.4406 277.496C16.9739 278.205 16.7406 279.111 16.7406 280.212C16.7406 281.313 16.9739 282.223 17.4406 282.942C17.8979 283.642 18.5093 283.992 19.2746 283.992C20.0399 283.992 20.6513 283.637 21.1086 282.928C21.5753 282.209 21.8086 281.304 21.8086 280.212ZM28.9723 277.594C28.9723 278.247 28.7343 278.812 28.2583 279.288C27.7917 279.755 27.2317 279.988 26.5783 279.988C25.9343 279.988 25.3697 279.755 24.8843 279.288C24.4177 278.803 24.1843 278.238 24.1843 277.594C24.1843 276.941 24.4177 276.381 24.8843 275.914C25.3603 275.438 25.925 275.2 26.5783 275.2C27.2317 275.2 27.7917 275.438 28.2583 275.914C28.7343 276.381 28.9723 276.941 28.9723 277.594ZM32.9343 275.844L26.7183 285.112L25.9203 284.594L32.1503 275.312L32.9343 275.844ZM27.9363 277.594C27.9363 277.174 27.8057 276.829 27.5443 276.558C27.2923 276.278 26.9703 276.138 26.5783 276.138C26.1957 276.138 25.8737 276.278 25.6123 276.558C25.351 276.829 25.2203 277.174 25.2203 277.594C25.2203 278.014 25.351 278.359 25.6123 278.63C25.8737 278.91 26.1957 279.05 26.5783 279.05C26.9703 279.05 27.2923 278.915 27.5443 278.644C27.8057 278.364 27.9363 278.014 27.9363 277.594ZM34.6843 282.83C34.6843 283.483 34.4463 284.048 33.9703 284.524C33.5037 284.991 32.9437 285.224 32.2903 285.224C31.6463 285.224 31.0817 284.991 30.5963 284.524C30.1297 284.039 29.8963 283.474 29.8963 282.83C29.8963 282.177 30.1297 281.617 30.5963 281.15C31.0723 280.674 31.637 280.436 32.2903 280.436C32.9437 280.436 33.5037 280.674 33.9703 281.15C34.4463 281.617 34.6843 282.177 34.6843 282.83ZM33.6483 282.83C33.6483 282.41 33.5177 282.065 33.2563 281.794C33.0043 281.514 32.6823 281.374 32.2903 281.374C31.9077 281.374 31.5857 281.514 31.3243 281.794C31.063 282.065 30.9323 282.41 30.9323 282.83C30.9323 283.25 31.063 283.595 31.3243 283.866C31.5857 284.146 31.9077 284.286 32.2903 284.286C32.6823 284.286 33.0043 284.151 33.2563 283.88C33.5177 283.6 33.6483 283.25 33.6483 282.83Z" fill="white" fill-opacity="0.8"/>
<path d="M6.916 13.674V14.738H4.382V17.272H3.318V14.738H0.784V13.674H3.318V11.14H4.382V13.674H6.916ZM11.4734 8.424V18H10.1854V10.02L8.32344 10.832L7.83344 9.74L10.6474 8.424H11.4734ZM13.2625 13.212C13.2625 11.756 13.6218 10.5567 14.3405 9.614C15.0592 8.67133 15.9832 8.2 17.1125 8.2C18.2418 8.2 19.1658 8.676 19.8845 9.628C20.6032 10.5707 20.9625 11.7653 20.9625 13.212C20.9625 14.6493 20.6032 15.8487 19.8845 16.81C19.1658 17.7527 18.2418 18.224 17.1125 18.224C15.9832 18.224 15.0592 17.7527 14.3405 16.81C13.6218 15.8487 13.2625 14.6493 13.2625 13.212ZM19.6465 13.212C19.6465 12.1107 19.4132 11.2053 18.9465 10.496C18.4892 9.78667 17.8778 9.432 17.1125 9.432C16.3472 9.432 15.7358 9.78667 15.2785 10.496C14.8118 11.2053 14.5785 12.1107 14.5785 13.212C14.5785 14.3133 14.8118 15.2233 15.2785 15.942C15.7358 16.642 16.3472 16.992 17.1125 16.992C17.8778 16.992 18.4892 16.6373 18.9465 15.928C19.4132 15.2093 19.6465 14.304 19.6465 13.212ZM22.1902 13.212C22.1902 11.756 22.5496 10.5567 23.2682 9.614C23.9869 8.67133 24.9109 8.2 26.0402 8.2C27.1696 8.2 28.0936 8.676 28.8122 9.628C29.5309 10.5707 29.8902 11.7653 29.8902 13.212C29.8902 14.6493 29.5309 15.8487 28.8122 16.81C28.0936 17.7527 27.1696 18.224 26.0402 18.224C24.9109 18.224 23.9869 17.7527 23.2682 16.81C22.5496 15.8487 22.1902 14.6493 22.1902 13.212ZM28.5742 13.212C28.5742 12.1107 28.3409 11.2053 27.8742 10.496C27.4169 9.78667 26.8056 9.432 26.0402 9.432C25.2749 9.432 24.6636 9.78667 24.2062 10.496C23.7396 11.2053 23.5062 12.1107 23.5062 13.212C23.5062 14.3133 23.7396 15.2233 24.2062 15.942C24.6636 16.642 25.2749 16.992 26.0402 16.992C26.8056 16.992 27.4169 16.6373 27.8742 15.928C28.3409 15.2093 28.5742 14.304 28.5742 13.212ZM35.738 10.594C35.738 11.2473 35.5 11.812 35.024 12.288C34.5573 12.7547 33.9973 12.988 33.344 12.988C32.7 12.988 32.1353 12.7547 31.65 12.288C31.1833 11.8027 30.95 11.238 30.95 10.594C30.95 9.94067 31.1833 9.38067 31.65 8.914C32.126 8.438 32.6906 8.2 33.344 8.2C33.9973 8.2 34.5573 8.438 35.024 8.914C35.5 9.38067 35.738 9.94067 35.738 10.594ZM39.7 8.844L33.484 18.112L32.686 17.594L38.916 8.312L39.7 8.844ZM34.702 10.594C34.702 10.174 34.5713 9.82867 34.31 9.558C34.058 9.278 33.736 9.138 33.344 9.138C32.9613 9.138 32.6393 9.278 32.378 9.558C32.1166 9.82867 31.986 10.174 31.986 10.594C31.986 11.014 32.1166 11.3593 32.378 11.63C32.6393 11.91 32.9613 12.05 33.344 12.05C33.736 12.05 34.058 11.9147 34.31 11.644C34.5713 11.364 34.702 11.014 34.702 10.594ZM41.45 15.83C41.45 16.4833 41.212 17.048 40.736 17.524C40.2693 17.9907 39.7093 18.224 39.056 18.224C38.412 18.224 37.8473 17.9907 37.362 17.524C36.8953 17.0387 36.662 16.474 36.662 15.83C36.662 15.1767 36.8953 14.6167 37.362 14.15C37.838 13.674 38.4026 13.436 39.056 13.436C39.7093 13.436 40.2693 13.674 40.736 14.15C41.212 14.6167 41.45 15.1767 41.45 15.83ZM40.414 15.83C40.414 15.41 40.2833 15.0647 40.022 14.794C39.77 14.514 39.448 14.374 39.056 14.374C38.6733 14.374 38.3513 14.514 38.09 14.794C37.8286 15.0647 37.698 15.41 37.698 15.83C37.698 16.25 37.8286 16.5953 38.09 16.866C38.3513 17.146 38.6733 17.286 39.056 17.286C39.448 17.286 39.77 17.1507 40.022 16.88C40.2833 16.6 40.414 16.25 40.414 15.83Z" fill="white" fill-opacity="0.8"/>
<path d="M5.264 233.192H0.784V232.128H5.264V233.192ZM12.707 235.768V237H6.60297V235.712L9.08097 233.206C9.91164 232.357 10.4856 231.722 10.803 231.302C11.1203 230.873 11.279 230.425 11.279 229.958C11.279 229.538 11.1156 229.179 10.789 228.88C10.4623 228.581 10.0423 228.432 9.52897 228.432C9.0903 228.432 8.7123 228.563 8.39497 228.824C8.07764 229.085 7.8723 229.403 7.77897 229.776L6.60297 229.3C6.78964 228.712 7.14897 228.217 7.68097 227.816C8.21297 227.405 8.8383 227.2 9.55697 227.2C10.425 227.2 11.1483 227.466 11.727 227.998C12.3056 228.53 12.595 229.183 12.595 229.958C12.595 230.882 12.0863 231.881 11.069 232.954L8.26897 235.768H12.707ZM20.4144 234.004C20.4144 234.919 20.0971 235.684 19.4624 236.3C18.8277 236.916 18.0437 237.224 17.1104 237.224C16.3637 237.224 15.6871 236.991 15.0804 236.524C14.4737 236.057 14.0724 235.427 13.8764 234.634L15.0244 234.172C15.1644 234.732 15.4164 235.175 15.7804 235.502C16.1537 235.829 16.5877 235.992 17.0824 235.992C17.6797 235.992 18.1651 235.81 18.5384 235.446C18.9211 235.073 19.1124 234.597 19.1124 234.018C19.1124 233.43 18.9211 232.949 18.5384 232.576C18.1651 232.203 17.6844 232.016 17.0964 232.016C16.4151 232.016 15.8784 232.291 15.4864 232.842L14.1844 232.282L14.8004 227.424H19.8264V228.656H15.8784L15.5284 231.4L15.5844 231.414C16.0604 231.031 16.6391 230.84 17.3204 230.84C18.1791 230.84 18.9071 231.143 19.5044 231.75C20.1111 232.357 20.4144 233.108 20.4144 234.004ZM26.1813 229.594C26.1813 230.247 25.9433 230.812 25.4673 231.288C25.0006 231.755 24.4406 231.988 23.7873 231.988C23.1433 231.988 22.5786 231.755 22.0933 231.288C21.6266 230.803 21.3933 230.238 21.3933 229.594C21.3933 228.941 21.6266 228.381 22.0933 227.914C22.5693 227.438 23.134 227.2 23.7873 227.2C24.4406 227.2 25.0006 227.438 25.4673 227.914C25.9433 228.381 26.1813 228.941 26.1813 229.594ZM30.1433 227.844L23.9273 237.112L23.1293 236.594L29.3593 227.312L30.1433 227.844ZM25.1453 229.594C25.1453 229.174 25.0146 228.829 24.7533 228.558C24.5013 228.278 24.1793 228.138 23.7873 228.138C23.4046 228.138 23.0826 228.278 22.8213 228.558C22.56 228.829 22.4293 229.174 22.4293 229.594C22.4293 230.014 22.56 230.359 22.8213 230.63C23.0826 230.91 23.4046 231.05 23.7873 231.05C24.1793 231.05 24.5013 230.915 24.7533 230.644C25.0146 230.364 25.1453 230.014 25.1453 229.594ZM31.8933 234.83C31.8933 235.483 31.6553 236.048 31.1793 236.524C30.7126 236.991 30.1526 237.224 29.4993 237.224C28.8553 237.224 28.2906 236.991 27.8053 236.524C27.3386 236.039 27.1053 235.474 27.1053 234.83C27.1053 234.177 27.3386 233.617 27.8053 233.15C28.2813 232.674 28.846 232.436 29.4993 232.436C30.1526 232.436 30.7126 232.674 31.1793 233.15C31.6553 233.617 31.8933 234.177 31.8933 234.83ZM30.8573 234.83C30.8573 234.41 30.7266 234.065 30.4653 233.794C30.2133 233.514 29.8913 233.374 29.4993 233.374C29.1166 233.374 28.7946 233.514 28.5333 233.794C28.272 234.065 28.1413 234.41 28.1413 234.83C28.1413 235.25 28.272 235.595 28.5333 235.866C28.7946 236.146 29.1166 236.286 29.4993 236.286C29.8913 236.286 30.2133 236.151 30.4653 235.88C30.7266 235.6 30.8573 235.25 30.8573 234.83Z" fill="white" fill-opacity="0.8"/>
<rect x="63.426" y="9.42604" width="1.14792" height="343.148" fill="#00E86D" fill-opacity="0.2" stroke="#EEEEEE" stroke-width="0.852083" stroke-dasharray="3.41 3.41"/>
<rect x="1089.43" y="2.42604" width="1.14792" height="350.148" fill="#00E86D" fill-opacity="0.2" stroke="#EEEEEE" stroke-width="0.852083" stroke-dasharray="3.41 3.41"/>
<rect x="137" y="9" width="2" height="344" fill="#00E86D" fill-opacity="0.2"/>
<rect x="205" y="9" width="2" height="344" fill="#00E86D" fill-opacity="0.2"/>
<rect x="276" y="9" width="2" height="344" fill="#00E86D" fill-opacity="0.2"/>
<rect x="349" y="9" width="2" height="344" fill="#00E86D" fill-opacity="0.2"/>
<rect x="418" y="9" width="2" height="344" fill="#00E86D" fill-opacity="0.2"/>
<rect x="492" y="9" width="2" height="344" fill="#00E86D" fill-opacity="0.2"/>
<rect x="562" y="9" width="2" height="344" fill="#00E86D" fill-opacity="0.2"/>
<rect x="706" y="9" width="2" height="344" fill="#00E86D" fill-opacity="0.2"/>
<rect x="784" y="9" width="2" height="344" fill="#00E86D" fill-opacity="0.2"/>
<rect x="857" y="9" width="2" height="344" fill="#00E86D" fill-opacity="0.2"/>
<rect x="935" y="9" width="2" height="344" fill="#00E86D" fill-opacity="0.2"/>
<rect x="1009" y="9" width="2" height="344" fill="#00E86D" fill-opacity="0.2"/>
<rect x="633" y="9" width="2" height="344" fill="#00E86D" fill-opacity="0.2"/>
<path d="M65 205.883C65 205.883 106.348 142 134.586 142C162.824 142 179.883 223 208.827 223C237.772 223 265.001 152.321 293.239 152.321C321.477 152.321 337.778 216.55 366.464 213.187C395.15 209.823 406.365 159.625 434.604 159.625C462.842 159.625 481.935 233 510.879 233C539.823 233 541.628 82 569.866 82C598.104 82 608.044 331 636.988 331C665.933 331 684.991 136 729.536 136C774.082 136 781.642 194 809.88 194C838.118 194 859.905 181.537 888.143 181.537C916.381 181.537 938.261 298 966.5 298C994.738 298 1016.57 171 1044.81 171C1073.05 171 1116 105 1116 105" stroke="#F539F8" stroke-width="4"/>
<path d="M65 174.907C65 174.907 110.181 174.907 138.419 174.907C166.657 174.907 185.012 137.561 213.956 137.561C242.901 137.561 262.967 221.59 291.205 221.59C319.443 221.59 334.675 156.234 363.619 156.234C392.563 156.234 408.399 241 436.638 241C464.876 241 484.337 165.57 513.281 165.57C542.225 165.57 556.883 241 585.121 241C613.359 241 625.333 149 654.278 149C683.222 149 704.349 241 732.587 241C760.826 241 787.744 115 815.982 115C844.22 115 864.02 241 892.258 241C920.496 241 931.142 99 959.381 99C987.619 99 1017.59 221.59 1045.83 221.59C1074.06 221.59 1116 165.57 1116 165.57" stroke="#27AE60" stroke-width="4"/>
<line x1="418.5" y1="158" x2="418.5" y2="393" stroke="white" stroke-dasharray="4.4 4.4"/>
<g filter="url(#filter0_dd_35_63902)">
<rect x="406.297" y="164" width="20" height="20" rx="10" fill="url(#paint0_linear_35_63902)"/>
<rect x="408.297" y="166" width="16" height="16" rx="8" stroke="white" stroke-width="4"/>
</g>
<g filter="url(#filter1_dd_35_63902)">
<path fill-rule="evenodd" clip-rule="evenodd" d="M421.21 158.149C419.461 160.617 416.624 160.617 414.875 158.149L411.199 153.219C410.32 152.039 409.88 151.449 409.321 151.023C408.827 150.646 408.266 150.365 407.668 150.193C406.993 150 406.257 150 404.785 150H360.598C354.479 150 352.26 149.304 350.023 147.997C347.786 146.689 346.03 144.771 344.834 142.326C343.637 139.882 343 137.457 343 130.771V81.2291C343 74.5427 343.637 72.1181 344.834 69.6737C346.03 67.2292 347.786 65.3108 350.023 64.0035C352.26 62.6962 354.479 62 360.598 62H476.402C482.521 62 484.74 62.6962 486.977 64.0035C489.214 65.3108 490.97 67.2292 492.167 69.6737C493.363 72.1181 494 74.5427 494 81.2291V130.771C494 137.457 493.363 139.882 492.167 142.326C490.97 144.771 489.214 146.689 486.977 147.997C484.74 149.304 482.521 150 476.402 150H435.314C432.371 150 430.899 150 429.549 150.387C428.353 150.73 427.231 151.292 426.242 152.046C425.125 152.897 424.245 154.078 422.486 156.438L421.21 158.149Z" fill="#111827"/>
</g>
<path d="M391.04 100H389.696L386.168 89.976H387.596L390.34 98.11H390.396L393.252 89.976H394.68L391.04 100ZM397.022 90.774C397.022 91.026 396.934 91.2407 396.756 91.418C396.579 91.5953 396.364 91.684 396.112 91.684C395.86 91.684 395.646 91.5953 395.468 91.418C395.291 91.2407 395.202 91.026 395.202 90.774C395.202 90.522 395.291 90.3073 395.468 90.13C395.646 89.9527 395.86 89.864 396.112 89.864C396.364 89.864 396.579 89.9527 396.756 90.13C396.934 90.3073 397.022 90.522 397.022 90.774ZM396.756 93.14V100H395.468V93.14H396.756ZM403.682 98.096C403.682 98.6933 403.421 99.1973 402.898 99.608C402.376 100.019 401.718 100.224 400.924 100.224C400.234 100.224 399.627 100.047 399.104 99.692C398.582 99.328 398.208 98.852 397.984 98.264L399.132 97.774C399.3 98.1847 399.543 98.5067 399.86 98.74C400.187 98.964 400.542 99.076 400.924 99.076C401.335 99.076 401.676 98.9873 401.946 98.81C402.226 98.6327 402.366 98.4227 402.366 98.18C402.366 97.7413 402.03 97.4193 401.358 97.214L400.182 96.92C398.848 96.584 398.18 95.94 398.18 94.988C398.18 94.3627 398.432 93.8633 398.936 93.49C399.45 93.1073 400.103 92.916 400.896 92.916C401.503 92.916 402.049 93.0607 402.534 93.35C403.029 93.6393 403.374 94.0267 403.57 94.512L402.422 94.988C402.292 94.6987 402.077 94.4747 401.778 94.316C401.489 94.148 401.162 94.064 400.798 94.064C400.462 94.064 400.159 94.148 399.888 94.316C399.627 94.484 399.496 94.6893 399.496 94.932C399.496 95.324 399.865 95.604 400.602 95.772L401.638 96.038C403.001 96.374 403.682 97.06 403.682 98.096ZM407.451 100.112C406.891 100.112 406.425 99.9393 406.051 99.594C405.687 99.2487 405.501 98.768 405.491 98.152V94.316H404.287V93.14H405.491V91.04H406.779V93.14H408.459V94.316H406.779V97.732C406.779 98.1893 406.868 98.502 407.045 98.67C407.223 98.8287 407.423 98.908 407.647 98.908C407.75 98.908 407.848 98.8987 407.941 98.88C408.044 98.852 408.137 98.8193 408.221 98.782L408.627 99.93C408.291 100.051 407.899 100.112 407.451 100.112ZM409.224 96.57C409.224 95.5153 409.555 94.6427 410.218 93.952C410.89 93.2613 411.735 92.916 412.752 92.916C413.769 92.916 414.609 93.2613 415.272 93.952C415.944 94.6427 416.28 95.5153 416.28 96.57C416.28 97.634 415.944 98.5067 415.272 99.188C414.609 99.8787 413.769 100.224 412.752 100.224C411.735 100.224 410.89 99.8787 410.218 99.188C409.555 98.4973 409.224 97.6247 409.224 96.57ZM410.512 96.57C410.512 97.3073 410.727 97.9047 411.156 98.362C411.585 98.8193 412.117 99.048 412.752 99.048C413.387 99.048 413.919 98.8193 414.348 98.362C414.777 97.9047 414.992 97.3073 414.992 96.57C414.992 95.842 414.777 95.2493 414.348 94.792C413.909 94.3253 413.377 94.092 412.752 94.092C412.127 94.092 411.595 94.3253 411.156 94.792C410.727 95.2493 410.512 95.842 410.512 96.57ZM418.601 100H417.313V93.14H418.545V94.26H418.601C418.732 93.896 418.998 93.588 419.399 93.336C419.81 93.0747 420.211 92.944 420.603 92.944C420.977 92.944 421.294 93 421.555 93.112L421.163 94.358C421.005 94.2927 420.753 94.26 420.407 94.26C419.922 94.26 419.497 94.456 419.133 94.848C418.779 95.24 418.601 95.6973 418.601 96.22V100ZM427.376 98.096C427.376 98.6933 427.114 99.1973 426.592 99.608C426.069 100.019 425.411 100.224 424.618 100.224C423.927 100.224 423.32 100.047 422.798 99.692C422.275 99.328 421.902 98.852 421.678 98.264L422.826 97.774C422.994 98.1847 423.236 98.5067 423.554 98.74C423.88 98.964 424.235 99.076 424.618 99.076C425.028 99.076 425.369 98.9873 425.64 98.81C425.92 98.6327 426.06 98.4227 426.06 98.18C426.06 97.7413 425.724 97.4193 425.052 97.214L423.876 96.92C422.541 96.584 421.874 95.94 421.874 94.988C421.874 94.3627 422.126 93.8633 422.63 93.49C423.143 93.1073 423.796 92.916 424.59 92.916C425.196 92.916 425.742 93.0607 426.228 93.35C426.722 93.6393 427.068 94.0267 427.264 94.512L426.116 94.988C425.985 94.6987 425.77 94.4747 425.472 94.316C425.182 94.148 424.856 94.064 424.492 94.064C424.156 94.064 423.852 94.148 423.582 94.316C423.32 94.484 423.19 94.6893 423.19 94.932C423.19 95.324 423.558 95.604 424.296 95.772L425.332 96.038C426.694 96.374 427.376 97.06 427.376 98.096ZM433.365 94.008C433.365 94.2693 433.272 94.4933 433.085 94.68C432.908 94.8667 432.684 94.96 432.413 94.96C432.152 94.96 431.928 94.8667 431.741 94.68C431.554 94.4933 431.461 94.2693 431.461 94.008C431.461 93.7373 431.554 93.5133 431.741 93.336C431.928 93.1493 432.152 93.056 432.413 93.056C432.684 93.056 432.908 93.1493 433.085 93.336C433.272 93.5133 433.365 93.7373 433.365 94.008ZM433.365 99.132C433.365 99.3933 433.272 99.6173 433.085 99.804C432.908 99.9907 432.684 100.084 432.413 100.084C432.152 100.084 431.928 99.9907 431.741 99.804C431.554 99.6173 431.461 99.3933 431.461 99.132C431.461 98.8613 431.554 98.6373 431.741 98.46C431.928 98.2733 432.152 98.18 432.413 98.18C432.684 98.18 432.908 98.2733 433.085 98.46C433.272 98.6373 433.365 98.8613 433.365 99.132Z" fill="white" fill-opacity="0.8"/>
<path d="M443.993 97.284C443.993 98.124 443.68 98.824 443.055 99.384C442.439 99.944 441.674 100.224 440.759 100.224C440.04 100.224 439.392 100.009 438.813 99.58C438.225 99.132 437.828 98.5487 437.623 97.83L438.799 97.34C438.948 97.872 439.191 98.2827 439.527 98.572C439.872 98.852 440.283 98.992 440.759 98.992C441.282 98.992 441.734 98.8287 442.117 98.502C442.49 98.166 442.677 97.76 442.677 97.284C442.677 96.808 442.481 96.4067 442.089 96.08C441.706 95.7533 441.244 95.59 440.703 95.59H439.877V94.386H440.605C441.118 94.386 441.538 94.246 441.865 93.966C442.192 93.6767 442.355 93.3033 442.355 92.846C442.355 92.426 442.201 92.0853 441.893 91.824C441.585 91.5627 441.179 91.432 440.675 91.432C439.863 91.432 439.308 91.8473 439.009 92.678L437.819 92.174C438.034 91.586 438.393 91.11 438.897 90.746C439.401 90.382 439.994 90.2 440.675 90.2C441.524 90.2 442.238 90.452 442.817 90.956C443.386 91.4413 443.671 92.0713 443.671 92.846C443.671 93.77 443.242 94.456 442.383 94.904V94.96C442.887 95.1747 443.279 95.4873 443.559 95.898C443.848 96.3087 443.993 96.7707 443.993 97.284ZM451.319 91.74L446.671 100.224L445.523 99.636L449.961 91.656H445.117L445.145 90.424H451.319V91.74ZM458.759 97.284C458.759 98.124 458.446 98.824 457.821 99.384C457.205 99.944 456.439 100.224 455.525 100.224C454.806 100.224 454.157 100.009 453.579 99.58C452.991 99.132 452.594 98.5487 452.389 97.83L453.565 97.34C453.714 97.872 453.957 98.2827 454.293 98.572C454.638 98.852 455.049 98.992 455.525 98.992C456.047 98.992 456.5 98.8287 456.883 98.502C457.256 98.166 457.443 97.76 457.443 97.284C457.443 96.808 457.247 96.4067 456.855 96.08C456.472 95.7533 456.01 95.59 455.469 95.59H454.643V94.386H455.371C455.884 94.386 456.304 94.246 456.631 93.966C456.957 93.6767 457.121 93.3033 457.121 92.846C457.121 92.426 456.967 92.0853 456.659 91.824C456.351 91.5627 455.945 91.432 455.441 91.432C454.629 91.432 454.073 91.8473 453.775 92.678L452.585 92.174C452.799 91.586 453.159 91.11 453.663 90.746C454.167 90.382 454.759 90.2 455.441 90.2C456.29 90.2 457.004 90.452 457.583 90.956C458.152 91.4413 458.437 92.0713 458.437 92.846C458.437 93.77 458.007 94.456 457.149 94.904V94.96C457.653 95.1747 458.045 95.4873 458.325 95.898C458.614 96.3087 458.759 96.7707 458.759 97.284ZM465.72 97.984V100H464.432V97.984H459.882V97.004L464.32 90.424H465.72V96.78H466.952V97.984H465.72ZM461.338 96.78H464.432V92.314H464.376L461.338 96.78ZM474.384 100H472.83L470.688 96.766L469.638 97.802V100H468.35V89.976H469.638V96.15L472.606 93.14H474.258V93.196L471.584 95.856L474.384 99.944V100Z" fill="white"/>
<circle cx="369" cy="95" r="8" fill="#5356FB"/>
<path d="M393.196 124.326C393.196 125.203 392.874 125.908 392.23 126.44C391.577 126.963 390.783 127.224 389.85 127.224C389.019 127.224 388.287 126.981 387.652 126.496C387.017 126.011 386.579 125.348 386.336 124.508L387.568 124.004C387.652 124.303 387.769 124.573 387.918 124.816C388.067 125.059 388.24 125.269 388.436 125.446C388.641 125.614 388.865 125.749 389.108 125.852C389.351 125.945 389.607 125.992 389.878 125.992C390.466 125.992 390.947 125.843 391.32 125.544C391.693 125.236 391.88 124.83 391.88 124.326C391.88 123.906 391.726 123.547 391.418 123.248C391.129 122.959 390.587 122.679 389.794 122.408C388.991 122.119 388.492 121.923 388.296 121.82C387.232 121.279 386.7 120.481 386.7 119.426C386.7 118.689 386.994 118.059 387.582 117.536C388.179 117.013 388.912 116.752 389.78 116.752C390.545 116.752 391.208 116.948 391.768 117.34C392.328 117.723 392.701 118.203 392.888 118.782L391.684 119.286C391.572 118.913 391.348 118.605 391.012 118.362C390.685 118.11 390.284 117.984 389.808 117.984C389.304 117.984 388.879 118.124 388.534 118.404C388.189 118.665 388.016 119.006 388.016 119.426C388.016 119.771 388.151 120.07 388.422 120.322C388.721 120.574 389.369 120.873 390.368 121.218C391.385 121.563 392.109 121.988 392.538 122.492C392.977 122.987 393.196 123.598 393.196 124.326ZM397.602 127.224C396.594 127.224 395.764 126.879 395.11 126.188C394.457 125.497 394.13 124.625 394.13 123.57C394.13 122.525 394.448 121.657 395.082 120.966C395.717 120.266 396.529 119.916 397.518 119.916C398.536 119.916 399.343 120.247 399.94 120.91C400.547 121.563 400.85 122.483 400.85 123.668L400.836 123.808H395.446C395.465 124.48 395.689 125.021 396.118 125.432C396.548 125.843 397.061 126.048 397.658 126.048C398.48 126.048 399.124 125.637 399.59 124.816L400.738 125.376C400.43 125.955 400.001 126.407 399.45 126.734C398.909 127.061 398.293 127.224 397.602 127.224ZM395.544 122.744H399.478C399.441 122.268 399.245 121.876 398.89 121.568C398.545 121.251 398.078 121.092 397.49 121.092C397.005 121.092 396.585 121.241 396.23 121.54C395.885 121.839 395.656 122.24 395.544 122.744ZM403.316 116.976V127H402.028V116.976H403.316ZM406.174 116.976V127H404.886V116.976H406.174ZM412.925 125.096C412.925 125.693 412.663 126.197 412.141 126.608C411.618 127.019 410.96 127.224 410.167 127.224C409.476 127.224 408.869 127.047 408.347 126.692C407.824 126.328 407.451 125.852 407.227 125.264L408.375 124.774C408.543 125.185 408.785 125.507 409.103 125.74C409.429 125.964 409.784 126.076 410.167 126.076C410.577 126.076 410.918 125.987 411.189 125.81C411.469 125.633 411.609 125.423 411.609 125.18C411.609 124.741 411.273 124.419 410.601 124.214L409.425 123.92C408.09 123.584 407.423 122.94 407.423 121.988C407.423 121.363 407.675 120.863 408.179 120.49C408.692 120.107 409.345 119.916 410.139 119.916C410.745 119.916 411.291 120.061 411.777 120.35C412.271 120.639 412.617 121.027 412.813 121.512L411.665 121.988C411.534 121.699 411.319 121.475 411.021 121.316C410.731 121.148 410.405 121.064 410.041 121.064C409.705 121.064 409.401 121.148 409.131 121.316C408.869 121.484 408.739 121.689 408.739 121.932C408.739 122.324 409.107 122.604 409.845 122.772L410.881 123.038C412.243 123.374 412.925 124.06 412.925 125.096ZM418.914 121.008C418.914 121.269 418.821 121.493 418.634 121.68C418.457 121.867 418.233 121.96 417.962 121.96C417.701 121.96 417.477 121.867 417.29 121.68C417.103 121.493 417.01 121.269 417.01 121.008C417.01 120.737 417.103 120.513 417.29 120.336C417.477 120.149 417.701 120.056 417.962 120.056C418.233 120.056 418.457 120.149 418.634 120.336C418.821 120.513 418.914 120.737 418.914 121.008ZM418.914 126.132C418.914 126.393 418.821 126.617 418.634 126.804C418.457 126.991 418.233 127.084 417.962 127.084C417.701 127.084 417.477 126.991 417.29 126.804C417.103 126.617 417.01 126.393 417.01 126.132C417.01 125.861 417.103 125.637 417.29 125.46C417.477 125.273 417.701 125.18 417.962 125.18C418.233 125.18 418.457 125.273 418.634 125.46C418.821 125.637 418.914 125.861 418.914 126.132Z" fill="white" fill-opacity="0.8"/>
<path d="M429.066 124.984V127H427.778V124.984H423.228V124.004L427.666 117.424H429.066V123.78H430.298V124.984H429.066ZM424.684 123.78H427.778V119.314H427.722L424.684 123.78ZM437.786 124.284C437.786 125.124 437.473 125.824 436.848 126.384C436.232 126.944 435.467 127.224 434.552 127.224C433.833 127.224 433.185 127.009 432.606 126.58C432.018 126.132 431.621 125.549 431.416 124.83L432.592 124.34C432.741 124.872 432.984 125.283 433.32 125.572C433.665 125.852 434.076 125.992 434.552 125.992C435.075 125.992 435.527 125.829 435.91 125.502C436.283 125.166 436.47 124.76 436.47 124.284C436.47 123.808 436.274 123.407 435.882 123.08C435.499 122.753 435.037 122.59 434.496 122.59H433.67V121.386H434.398C434.911 121.386 435.331 121.246 435.658 120.966C435.985 120.677 436.148 120.303 436.148 119.846C436.148 119.426 435.994 119.085 435.686 118.824C435.378 118.563 434.972 118.432 434.468 118.432C433.656 118.432 433.101 118.847 432.802 119.678L431.612 119.174C431.827 118.586 432.186 118.11 432.69 117.746C433.194 117.382 433.787 117.2 434.468 117.2C435.317 117.2 436.031 117.452 436.61 117.956C437.179 118.441 437.464 119.071 437.464 119.846C437.464 120.77 437.035 121.456 436.176 121.904V121.96C436.68 122.175 437.072 122.487 437.352 122.898C437.641 123.309 437.786 123.771 437.786 124.284ZM445.448 124.004C445.448 124.919 445.13 125.684 444.496 126.3C443.861 126.916 443.077 127.224 442.144 127.224C441.397 127.224 440.72 126.991 440.114 126.524C439.507 126.057 439.106 125.427 438.91 124.634L440.058 124.172C440.198 124.732 440.45 125.175 440.814 125.502C441.187 125.829 441.621 125.992 442.116 125.992C442.713 125.992 443.198 125.81 443.572 125.446C443.954 125.073 444.146 124.597 444.146 124.018C444.146 123.43 443.954 122.949 443.572 122.576C443.198 122.203 442.718 122.016 442.13 122.016C441.448 122.016 440.912 122.291 440.52 122.842L439.218 122.282L439.834 117.424H444.86V118.656H440.912L440.562 121.4L440.618 121.414C441.094 121.031 441.672 120.84 442.354 120.84C443.212 120.84 443.94 121.143 444.538 121.75C445.144 122.357 445.448 123.108 445.448 124.004Z" fill="white"/>
<circle cx="369" cy="122" r="8" fill="#F539F8"/>
<defs>
<filter id="filter0_dd_35_63902" x="400.964" y="161.333" width="30.6667" height="30.6667" filterUnits="userSpaceOnUse" color-interpolation-filters="sRGB">
<feFlood flood-opacity="0" result="BackgroundImageFix"/>
<feColorMatrix in="SourceAlpha" type="matrix" values="0 0 0 0 0 0 0 0 0 0 0 0 0 0 0 0 0 0 127 0" result="hardAlpha"/>
<feOffset dy="2.66667"/>
<feGaussianBlur stdDeviation="2.66667"/>
<feColorMatrix type="matrix" values="0 0 0 0 0.196487 0 0 0 0 0.196487 0 0 0 0 0.279476 0 0 0 0.06 0"/>
<feBlend mode="multiply" in2="BackgroundImageFix" result="effect1_dropShadow_35_63902"/>
<feColorMatrix in="SourceAlpha" type="matrix" values="0 0 0 0 0 0 0 0 0 0 0 0 0 0 0 0 0 0 127 0" result="hardAlpha"/>
<feOffset dy="2.66667"/>
<feGaussianBlur stdDeviation="1.33333"/>
<feColorMatrix type="matrix" values="0 0 0 0 0.196487 0 0 0 0 0.196487 0 0 0 0 0.279476 0 0 0 0.06 0"/>
<feBlend mode="multiply" in2="effect1_dropShadow_35_63902" result="effect2_dropShadow_35_63902"/>
<feBlend mode="normal" in="SourceGraphic" in2="effect2_dropShadow_35_63902" result="shape"/>
</filter>
<filter id="filter1_dd_35_63902" x="327" y="54" width="183" height="130" filterUnits="userSpaceOnUse" color-interpolation-filters="sRGB">
<feFlood flood-opacity="0" result="BackgroundImageFix"/>
<feColorMatrix in="SourceAlpha" type="matrix" values="0 0 0 0 0 0 0 0 0 0 0 0 0 0 0 0 0 0 127 0" result="hardAlpha"/>
<feOffset dy="8"/>
<feGaussianBlur stdDeviation="8"/>
<feColorMatrix type="matrix" values="0 0 0 0 0.196487 0 0 0 0 0.196487 0 0 0 0 0.279476 0 0 0 0.06 0"/>
<feBlend mode="multiply" in2="BackgroundImageFix" result="effect1_dropShadow_35_63902"/>
<feColorMatrix in="SourceAlpha" type="matrix" values="0 0 0 0 0 0 0 0 0 0 0 0 0 0 0 0 0 0 127 0" result="hardAlpha"/>
<feOffset dy="8"/>
<feGaussianBlur stdDeviation="4"/>
<feColorMatrix type="matrix" values="0 0 0 0 0.196487 0 0 0 0 0.196487 0 0 0 0 0.279476 0 0 0 0.08 0"/>
<feBlend mode="multiply" in2="effect1_dropShadow_35_63902" result="effect2_dropShadow_35_63902"/>
<feBlend mode="normal" in="SourceGraphic" in2="effect2_dropShadow_35_63902" result="shape"/>
</filter>
<linearGradient id="paint0_linear_35_63902" x1="406.297" y1="164" x2="427.42" y2="184.674" gradientUnits="userSpaceOnUse">
<stop stop-color="#F539F8"/>
<stop offset="0.416763" stop-color="#C342F9"/>
<stop offset="1" stop-color="#5356FB"/>
</linearGradient>
</defs>
</svg>
