<svg width="812" height="875" viewBox="0 0 812 875" fill="none" xmlns="http://www.w3.org/2000/svg">
<g filter="url(#filter0_i_305_86)">
<path d="M264.396 219.48L264.339 255.575L233.227 273.516L233 237.441L264.396 219.48Z" fill="#41C076"/>
<path d="M297.368 276.488L265.965 258.274L234.874 276.203L266.196 294.464L297.368 276.488Z" fill="#41C076"/>
<path d="M297.644 237.147L266.205 219L266.553 255.278L297.977 273.506L297.644 237.147Z" fill="#41C076"/>
</g>
<path opacity="0.51" d="M362.5 58.5L268 220.5L297.5 273.5L475.5 295L362.5 58.5Z" fill="#49C07C" fill-opacity="0.28"/>
<path opacity="0.51" d="M53.2404 285.878L221.82 279.953L250.407 233.422L189 91.9998L53.2404 285.878Z" fill="#49C07C" fill-opacity="0.28"/>
<path d="M18.4828 692.836L442.685 686.751L277.132 266.201L241.481 266.144L18.4828 692.836Z" fill="url(#paint0_linear_305_86)"/>
<path d="M700.5 9.5C739.3 6.7 789.667 0.5 812 0V142C789 136.666 734.5 124.2 700.5 117C658 108 578.5 108 518.5 112C458.5 116 420 142 412 155.5C404 169 379 217.5 369.5 227C360 236.5 334 254.5 329.5 257C325 259.5 317 264.5 310.5 270C304 275.5 301.5 272.5 298.5 272.5C295.567 272.5 294.546 265.329 294.034 261.739L294 261.5C293.5 258 293 246 306.5 238C320 230 335.5 198.5 336 191C336.5 183.5 330.5 157 310.5 142C294.5 130 282.833 130.333 279 132C273 129.5 239 142 224 160.5C214 177.3 206 183.5 202 191C207.5 196.5 213.5 211 213.5 217.5C217 219.5 226.5 224.5 234 228.5C241.5 232.5 240 232.5 244.5 241.5C249 250.5 245 257 238 258.5C231 260 224.5 255.5 210 251.5C195.5 247.5 195 245 192 241.5C189 238 167 206 162 198.5C157 191 158 185.5 161 179.5C164 173.5 179 159 177 160.5C175 162 163.5 166.5 157 169.5C150.5 172.5 145.5 171 141 175.5C136.5 180 101 213 96.0001 217.5C91.0001 222 74.0001 234 69.0001 238.5C64.0001 243 54.5001 249 44.5001 248.5C34.5001 248 31.0001 239.5 32.0001 234C33.0001 228.5 41.0001 223 48.5001 217.5C56.0001 212 62.5001 203 69.0001 198.5C75.5001 194 85.521 180.716 90.5001 175.5C101 164.5 129.833 150.333 131.5 148.5C123.5 148.5 79.6001 173.9 76.0001 175.5C71.5001 177.5 68.0001 180 59.5001 184C51.0001 188 44.0001 188 37.5001 185.5C31.0001 183 31.5001 173.5 32.0001 171C32.5001 168.5 35.5001 165.5 51.5001 157.5C64.3001 151.1 81.8334 139 88.0001 133.5C95.5001 127.5 123.5 125 131.5 120.5C108 124 79.0001 112.5 73.0001 107C67.0001 101.5 67.5001 92.9998 73.0001 89.4998C78.5001 85.9998 87.0001 92.9998 101 92.9998C115 92.9998 130 90.9998 149 89.4998C168 87.9998 184.188 85.0896 206 80.9998C222 77.9998 226.041 76.387 237.5 73.9998C249.5 71.4998 248.5 69.4998 294 60.4998C316.5 56.0492 330 55.9998 349.5 49.4998C369 42.9998 395 33.4998 412 29.4998C429 25.4998 527 21 551.5 21C576 21 652 13 700.5 9.5Z" fill="url(#paint1_linear_305_86)"/>
<g filter="url(#filter1_ii_305_86)">
<path d="M147 573.667H395V625H147V573.667Z" fill="url(#paint2_linear_305_86)"/>
<path d="M154.373 567V574H180.178V567H154.373Z" fill="url(#paint3_linear_305_86)"/>
<path d="M279.043 567V574H304.849V567H279.043Z" fill="url(#paint4_linear_305_86)"/>
<path d="M195.93 567V574H221.735V567H195.93Z" fill="url(#paint5_linear_305_86)"/>
<path d="M320.6 567V574H346.405V567H320.6Z" fill="url(#paint6_linear_305_86)"/>
<path d="M237.487 567V574H263.292V567H237.487Z" fill="url(#paint7_linear_305_86)"/>
<path d="M362.157 567V574H387.962V567H362.157Z" fill="url(#paint8_linear_305_86)"/>
</g>
<g filter="url(#filter2_ii_305_86)">
<path d="M320.269 783V790H346.101V783H320.269Z" fill="url(#paint9_linear_305_86)"/>
<path d="M403.466 783V790H429.297V783H403.466Z" fill="url(#paint10_linear_305_86)"/>
<path d="M361.868 783V790H387.699V783H361.868Z" fill="url(#paint11_linear_305_86)"/>
<path d="M121 789.667H435V841H121V789.667Z" fill="url(#paint12_linear_305_86)"/>
</g>
<g filter="url(#filter3_ii_305_86)">
<path d="M74.3838 621V628.04H100.189V621H74.3838Z" fill="url(#paint13_linear_305_86)"/>
<path d="M115.941 621V628.04H141.746V621H115.941Z" fill="url(#paint14_linear_305_86)"/>
<path d="M65.0001 627.705H313V680H65.0001V627.705Z" fill="url(#paint15_linear_305_86)"/>
</g>
<g filter="url(#filter4_ii_305_86)">
<path d="M78.7757 729V736H104.505V729H78.7757Z" fill="url(#paint16_linear_305_86)"/>
<path d="M116.2 729V736H141.929V729H116.2Z" fill="url(#paint17_linear_305_86)"/>
<path d="M40.683 729V736H66.4123V729H40.683Z" fill="url(#paint18_linear_305_86)"/>
<path d="M34.0001 735.667H308V787H34.0001V735.667Z" fill="url(#paint19_linear_305_86)"/>
</g>
<g filter="url(#filter5_ii_305_86)">
<path d="M320.025 675V682.04H345.796V675H320.025Z" fill="url(#paint20_linear_305_86)"/>
<path d="M403.029 675V682.04H428.8V675H403.029Z" fill="url(#paint21_linear_305_86)"/>
<path d="M361.527 675V682.04H387.298V675H361.527Z" fill="url(#paint22_linear_305_86)"/>
<path d="M444.531 675V682.04H470.302V675H444.531Z" fill="url(#paint23_linear_305_86)"/>
<path d="M150 681.705H478V734H150V681.705Z" fill="url(#paint24_linear_305_86)"/>
</g>
<defs>
<filter id="filter0_i_305_86" x="232" y="219" width="65.9764" height="76.4644" filterUnits="userSpaceOnUse" color-interpolation-filters="sRGB">
<feFlood flood-opacity="0" result="BackgroundImageFix"/>
<feBlend mode="normal" in="SourceGraphic" in2="BackgroundImageFix" result="shape"/>
<feColorMatrix in="SourceAlpha" type="matrix" values="0 0 0 0 0 0 0 0 0 0 0 0 0 0 0 0 0 0 127 0" result="hardAlpha"/>
<feOffset dx="-1" dy="1"/>
<feGaussianBlur stdDeviation="1.5"/>
<feComposite in2="hardAlpha" operator="arithmetic" k2="-1" k3="1"/>
<feColorMatrix type="matrix" values="0 0 0 0 1 0 0 0 0 1 0 0 0 0 1 0 0 0 1 0"/>
<feBlend mode="normal" in2="shape" result="effect1_innerShadow_305_86"/>
</filter>
<filter id="filter1_ii_305_86" x="145" y="567" width="250" height="61" filterUnits="userSpaceOnUse" color-interpolation-filters="sRGB">
<feFlood flood-opacity="0" result="BackgroundImageFix"/>
<feBlend mode="normal" in="SourceGraphic" in2="BackgroundImageFix" result="shape"/>
<feColorMatrix in="SourceAlpha" type="matrix" values="0 0 0 0 0 0 0 0 0 0 0 0 0 0 0 0 0 0 127 0" result="hardAlpha"/>
<feOffset dx="-2" dy="3"/>
<feGaussianBlur stdDeviation="11"/>
<feComposite in2="hardAlpha" operator="arithmetic" k2="-1" k3="1"/>
<feColorMatrix type="matrix" values="0 0 0 0 0.419375 0 0 0 0 0.7625 0 0 0 0 0.7625 0 0 0 1 0"/>
<feBlend mode="normal" in2="shape" result="effect1_innerShadow_305_86"/>
<feColorMatrix in="SourceAlpha" type="matrix" values="0 0 0 0 0 0 0 0 0 0 0 0 0 0 0 0 0 0 127 0" result="hardAlpha"/>
<feOffset dx="-1" dy="1"/>
<feGaussianBlur stdDeviation="1.5"/>
<feComposite in2="hardAlpha" operator="arithmetic" k2="-1" k3="1"/>
<feColorMatrix type="matrix" values="0 0 0 0 1 0 0 0 0 1 0 0 0 0 1 0 0 0 0.82 0"/>
<feBlend mode="normal" in2="effect1_innerShadow_305_86" result="effect2_innerShadow_305_86"/>
</filter>
<filter id="filter2_ii_305_86" x="119" y="783" width="316" height="61" filterUnits="userSpaceOnUse" color-interpolation-filters="sRGB">
<feFlood flood-opacity="0" result="BackgroundImageFix"/>
<feBlend mode="normal" in="SourceGraphic" in2="BackgroundImageFix" result="shape"/>
<feColorMatrix in="SourceAlpha" type="matrix" values="0 0 0 0 0 0 0 0 0 0 0 0 0 0 0 0 0 0 127 0" result="hardAlpha"/>
<feOffset dx="-2" dy="3"/>
<feGaussianBlur stdDeviation="11"/>
<feComposite in2="hardAlpha" operator="arithmetic" k2="-1" k3="1"/>
<feColorMatrix type="matrix" values="0 0 0 0 0.419375 0 0 0 0 0.7625 0 0 0 0 0.7625 0 0 0 1 0"/>
<feBlend mode="normal" in2="shape" result="effect1_innerShadow_305_86"/>
<feColorMatrix in="SourceAlpha" type="matrix" values="0 0 0 0 0 0 0 0 0 0 0 0 0 0 0 0 0 0 127 0" result="hardAlpha"/>
<feOffset dx="-1" dy="1"/>
<feGaussianBlur stdDeviation="1.5"/>
<feComposite in2="hardAlpha" operator="arithmetic" k2="-1" k3="1"/>
<feColorMatrix type="matrix" values="0 0 0 0 1 0 0 0 0 1 0 0 0 0 1 0 0 0 0.82 0"/>
<feBlend mode="normal" in2="effect1_innerShadow_305_86" result="effect2_innerShadow_305_86"/>
</filter>
<filter id="filter3_ii_305_86" x="63.0001" y="621" width="250" height="62" filterUnits="userSpaceOnUse" color-interpolation-filters="sRGB">
<feFlood flood-opacity="0" result="BackgroundImageFix"/>
<feBlend mode="normal" in="SourceGraphic" in2="BackgroundImageFix" result="shape"/>
<feColorMatrix in="SourceAlpha" type="matrix" values="0 0 0 0 0 0 0 0 0 0 0 0 0 0 0 0 0 0 127 0" result="hardAlpha"/>
<feOffset dx="-2" dy="3"/>
<feGaussianBlur stdDeviation="11"/>
<feComposite in2="hardAlpha" operator="arithmetic" k2="-1" k3="1"/>
<feColorMatrix type="matrix" values="0 0 0 0 0.419375 0 0 0 0 0.7625 0 0 0 0 0.7625 0 0 0 1 0"/>
<feBlend mode="normal" in2="shape" result="effect1_innerShadow_305_86"/>
<feColorMatrix in="SourceAlpha" type="matrix" values="0 0 0 0 0 0 0 0 0 0 0 0 0 0 0 0 0 0 127 0" result="hardAlpha"/>
<feOffset dx="-1" dy="1"/>
<feGaussianBlur stdDeviation="1.5"/>
<feComposite in2="hardAlpha" operator="arithmetic" k2="-1" k3="1"/>
<feColorMatrix type="matrix" values="0 0 0 0 1 0 0 0 0 1 0 0 0 0 1 0 0 0 0.82 0"/>
<feBlend mode="normal" in2="effect1_innerShadow_305_86" result="effect2_innerShadow_305_86"/>
</filter>
<filter id="filter4_ii_305_86" x="32.0001" y="729" width="276" height="61" filterUnits="userSpaceOnUse" color-interpolation-filters="sRGB">
<feFlood flood-opacity="0" result="BackgroundImageFix"/>
<feBlend mode="normal" in="SourceGraphic" in2="BackgroundImageFix" result="shape"/>
<feColorMatrix in="SourceAlpha" type="matrix" values="0 0 0 0 0 0 0 0 0 0 0 0 0 0 0 0 0 0 127 0" result="hardAlpha"/>
<feOffset dx="-2" dy="3"/>
<feGaussianBlur stdDeviation="11"/>
<feComposite in2="hardAlpha" operator="arithmetic" k2="-1" k3="1"/>
<feColorMatrix type="matrix" values="0 0 0 0 0.419375 0 0 0 0 0.7625 0 0 0 0 0.7625 0 0 0 1 0"/>
<feBlend mode="normal" in2="shape" result="effect1_innerShadow_305_86"/>
<feColorMatrix in="SourceAlpha" type="matrix" values="0 0 0 0 0 0 0 0 0 0 0 0 0 0 0 0 0 0 127 0" result="hardAlpha"/>
<feOffset dx="-1" dy="1"/>
<feGaussianBlur stdDeviation="1.5"/>
<feComposite in2="hardAlpha" operator="arithmetic" k2="-1" k3="1"/>
<feColorMatrix type="matrix" values="0 0 0 0 1 0 0 0 0 1 0 0 0 0 1 0 0 0 0.82 0"/>
<feBlend mode="normal" in2="effect1_innerShadow_305_86" result="effect2_innerShadow_305_86"/>
</filter>
<filter id="filter5_ii_305_86" x="148" y="675" width="330" height="62" filterUnits="userSpaceOnUse" color-interpolation-filters="sRGB">
<feFlood flood-opacity="0" result="BackgroundImageFix"/>
<feBlend mode="normal" in="SourceGraphic" in2="BackgroundImageFix" result="shape"/>
<feColorMatrix in="SourceAlpha" type="matrix" values="0 0 0 0 0 0 0 0 0 0 0 0 0 0 0 0 0 0 127 0" result="hardAlpha"/>
<feOffset dx="-2" dy="3"/>
<feGaussianBlur stdDeviation="11"/>
<feComposite in2="hardAlpha" operator="arithmetic" k2="-1" k3="1"/>
<feColorMatrix type="matrix" values="0 0 0 0 0.419375 0 0 0 0 0.7625 0 0 0 0 0.7625 0 0 0 1 0"/>
<feBlend mode="normal" in2="shape" result="effect1_innerShadow_305_86"/>
<feColorMatrix in="SourceAlpha" type="matrix" values="0 0 0 0 0 0 0 0 0 0 0 0 0 0 0 0 0 0 127 0" result="hardAlpha"/>
<feOffset dx="-1" dy="1"/>
<feGaussianBlur stdDeviation="1.5"/>
<feComposite in2="hardAlpha" operator="arithmetic" k2="-1" k3="1"/>
<feColorMatrix type="matrix" values="0 0 0 0 1 0 0 0 0 1 0 0 0 0 1 0 0 0 0.82 0"/>
<feBlend mode="normal" in2="effect1_innerShadow_305_86" result="effect2_innerShadow_305_86"/>
</filter>
<linearGradient id="paint0_linear_305_86" x1="253.5" y1="663" x2="247.464" y2="82.0644" gradientUnits="userSpaceOnUse">
<stop stop-color="#D9D9D9" stop-opacity="0"/>
<stop offset="0.6911" stop-color="#41C076" stop-opacity="0.29"/>
</linearGradient>
<linearGradient id="paint1_linear_305_86" x1="32.0001" y1="137" x2="933" y2="80.5" gradientUnits="userSpaceOnUse">
<stop offset="0.5625" stop-color="white"/>
<stop offset="0.583124" stop-color="white"/>
<stop offset="0.880321" stop-opacity="0"/>
</linearGradient>
<linearGradient id="paint2_linear_305_86" x1="263.962" y1="567" x2="270.925" y2="652.673" gradientUnits="userSpaceOnUse">
<stop stop-color="#3CC67A"/>
<stop offset="1" stop-color="#051934"/>
</linearGradient>
<linearGradient id="paint3_linear_305_86" x1="263.962" y1="567" x2="270.925" y2="652.673" gradientUnits="userSpaceOnUse">
<stop stop-color="#3CC67A"/>
<stop offset="1" stop-color="#051934"/>
</linearGradient>
<linearGradient id="paint4_linear_305_86" x1="263.962" y1="567" x2="270.925" y2="652.673" gradientUnits="userSpaceOnUse">
<stop stop-color="#3CC67A"/>
<stop offset="1" stop-color="#051934"/>
</linearGradient>
<linearGradient id="paint5_linear_305_86" x1="263.962" y1="567" x2="270.925" y2="652.673" gradientUnits="userSpaceOnUse">
<stop stop-color="#3CC67A"/>
<stop offset="1" stop-color="#051934"/>
</linearGradient>
<linearGradient id="paint6_linear_305_86" x1="263.962" y1="567" x2="270.925" y2="652.673" gradientUnits="userSpaceOnUse">
<stop stop-color="#3CC67A"/>
<stop offset="1" stop-color="#051934"/>
</linearGradient>
<linearGradient id="paint7_linear_305_86" x1="263.962" y1="567" x2="270.925" y2="652.673" gradientUnits="userSpaceOnUse">
<stop stop-color="#3CC67A"/>
<stop offset="1" stop-color="#051934"/>
</linearGradient>
<linearGradient id="paint8_linear_305_86" x1="263.962" y1="567" x2="270.925" y2="652.673" gradientUnits="userSpaceOnUse">
<stop stop-color="#3CC67A"/>
<stop offset="1" stop-color="#051934"/>
</linearGradient>
<linearGradient id="paint9_linear_305_86" x1="278" y1="783" x2="283.631" y2="861.005" gradientUnits="userSpaceOnUse">
<stop stop-color="#36C170"/>
<stop offset="1" stop-color="#051934"/>
</linearGradient>
<linearGradient id="paint10_linear_305_86" x1="278" y1="783" x2="283.631" y2="861.005" gradientUnits="userSpaceOnUse">
<stop stop-color="#36C170"/>
<stop offset="1" stop-color="#051934"/>
</linearGradient>
<linearGradient id="paint11_linear_305_86" x1="278" y1="783" x2="283.631" y2="861.005" gradientUnits="userSpaceOnUse">
<stop stop-color="#36C170"/>
<stop offset="1" stop-color="#051934"/>
</linearGradient>
<linearGradient id="paint12_linear_305_86" x1="278" y1="783" x2="283.631" y2="861.005" gradientUnits="userSpaceOnUse">
<stop stop-color="#36C170"/>
<stop offset="1" stop-color="#051934"/>
</linearGradient>
<linearGradient id="paint13_linear_305_86" x1="189" y1="621" x2="180.617" y2="700.784" gradientUnits="userSpaceOnUse">
<stop stop-color="#51C688"/>
<stop offset="1" stop-color="#051934"/>
</linearGradient>
<linearGradient id="paint14_linear_305_86" x1="189" y1="621" x2="180.617" y2="700.784" gradientUnits="userSpaceOnUse">
<stop stop-color="#51C688"/>
<stop offset="1" stop-color="#051934"/>
</linearGradient>
<linearGradient id="paint15_linear_305_86" x1="189" y1="621" x2="180.617" y2="700.784" gradientUnits="userSpaceOnUse">
<stop stop-color="#51C688"/>
<stop offset="1" stop-color="#051934"/>
</linearGradient>
<linearGradient id="paint16_linear_305_86" x1="171" y1="729" x2="163.352" y2="809.67" gradientUnits="userSpaceOnUse">
<stop stop-color="#31C770"/>
<stop offset="1" stop-color="#051934"/>
</linearGradient>
<linearGradient id="paint17_linear_305_86" x1="171" y1="729" x2="163.352" y2="809.67" gradientUnits="userSpaceOnUse">
<stop stop-color="#31C770"/>
<stop offset="1" stop-color="#051934"/>
</linearGradient>
<linearGradient id="paint18_linear_305_86" x1="171" y1="729" x2="163.352" y2="809.67" gradientUnits="userSpaceOnUse">
<stop stop-color="#31C770"/>
<stop offset="1" stop-color="#051934"/>
</linearGradient>
<linearGradient id="paint19_linear_305_86" x1="171" y1="729" x2="163.352" y2="809.67" gradientUnits="userSpaceOnUse">
<stop stop-color="#31C770"/>
<stop offset="1" stop-color="#051934"/>
</linearGradient>
<linearGradient id="paint20_linear_305_86" x1="314" y1="675" x2="320.044" y2="756.459" gradientUnits="userSpaceOnUse">
<stop stop-color="#41C67C"/>
<stop offset="1" stop-color="#051934"/>
</linearGradient>
<linearGradient id="paint21_linear_305_86" x1="314" y1="675" x2="320.044" y2="756.459" gradientUnits="userSpaceOnUse">
<stop stop-color="#41C67C"/>
<stop offset="1" stop-color="#051934"/>
</linearGradient>
<linearGradient id="paint22_linear_305_86" x1="314" y1="675" x2="320.044" y2="756.459" gradientUnits="userSpaceOnUse">
<stop stop-color="#41C67C"/>
<stop offset="1" stop-color="#051934"/>
</linearGradient>
<linearGradient id="paint23_linear_305_86" x1="314" y1="675" x2="320.044" y2="756.459" gradientUnits="userSpaceOnUse">
<stop stop-color="#41C67C"/>
<stop offset="1" stop-color="#051934"/>
</linearGradient>
<linearGradient id="paint24_linear_305_86" x1="314" y1="675" x2="320.044" y2="756.459" gradientUnits="userSpaceOnUse">
<stop stop-color="#41C67C"/>
<stop offset="1" stop-color="#051934"/>
</linearGradient>
</defs>
</svg>
