<svg width="1116" height="482" viewBox="0 0 1116 482" fill="none" xmlns="http://www.w3.org/2000/svg">
<path d="M63.458 474.224C62.702 474.224 62.0487 474.019 61.498 473.608C60.9473 473.197 60.56 472.628 60.336 471.9L61.554 471.396C61.8713 472.46 62.506 472.992 63.458 472.992C63.9807 472.992 64.4007 472.81 64.718 472.446C65.0447 472.073 65.208 471.592 65.208 471.004V463.976H66.496V470.892C66.496 471.928 66.2207 472.745 65.67 473.342C65.1287 473.93 64.3913 474.224 63.458 474.224ZM69.0638 471.9C69.0638 472.236 69.2038 472.516 69.4838 472.74C69.7731 472.964 70.1091 473.076 70.4918 473.076C71.0331 473.076 71.5138 472.875 71.9338 472.474C72.3631 472.073 72.5778 471.601 72.5778 471.06C72.1765 470.743 71.6165 470.584 70.8978 470.584C70.3751 470.584 69.9365 470.71 69.5818 470.962C69.2365 471.214 69.0638 471.527 69.0638 471.9ZM70.7298 466.916C71.6818 466.916 72.4331 467.173 72.9838 467.686C73.5345 468.19 73.8098 468.885 73.8098 469.772V474H72.5778V473.048H72.5218C71.9898 473.832 71.2805 474.224 70.3938 474.224C69.6378 474.224 69.0031 474 68.4898 473.552C67.9858 473.104 67.7338 472.544 67.7338 471.872C67.7338 471.163 67.9998 470.598 68.5318 470.178C69.0731 469.758 69.7918 469.548 70.6878 469.548C71.4531 469.548 72.0831 469.688 72.5778 469.968V469.674C72.5778 469.226 72.4005 468.848 72.0458 468.54C71.6911 468.223 71.2758 468.064 70.7998 468.064C70.0811 468.064 69.5118 468.367 69.0918 468.974L67.9578 468.26C68.5831 467.364 69.5071 466.916 70.7298 466.916ZM75.2625 467.14H76.4945V468.092H76.5505C76.7465 467.756 77.0452 467.476 77.4465 467.252C77.8572 467.028 78.2818 466.916 78.7205 466.916C79.5605 466.916 80.2045 467.159 80.6525 467.644C81.1098 468.12 81.3385 468.801 81.3385 469.688V474H80.0505V469.772C80.0225 468.652 79.4578 468.092 78.3565 468.092C77.8432 468.092 77.4138 468.302 77.0685 468.722C76.7232 469.133 76.5505 469.627 76.5505 470.206V474H75.2625V467.14ZM89.3426 464.424V474H88.0546V466.02L86.1926 466.832L85.7026 465.74L88.5166 464.424H89.3426Z" fill="white" fill-opacity="0.8"/>
<path d="M131.458 474.224C130.702 474.224 130.049 474.019 129.498 473.608C128.947 473.197 128.56 472.628 128.336 471.9L129.554 471.396C129.871 472.46 130.506 472.992 131.458 472.992C131.981 472.992 132.401 472.81 132.718 472.446C133.045 472.073 133.208 471.592 133.208 471.004V463.976H134.496V470.892C134.496 471.928 134.221 472.745 133.67 473.342C133.129 473.93 132.391 474.224 131.458 474.224ZM137.064 471.9C137.064 472.236 137.204 472.516 137.484 472.74C137.773 472.964 138.109 473.076 138.492 473.076C139.033 473.076 139.514 472.875 139.934 472.474C140.363 472.073 140.578 471.601 140.578 471.06C140.176 470.743 139.616 470.584 138.898 470.584C138.375 470.584 137.936 470.71 137.582 470.962C137.236 471.214 137.064 471.527 137.064 471.9ZM138.73 466.916C139.682 466.916 140.433 467.173 140.984 467.686C141.534 468.19 141.81 468.885 141.81 469.772V474H140.578V473.048H140.522C139.99 473.832 139.28 474.224 138.394 474.224C137.638 474.224 137.003 474 136.49 473.552C135.986 473.104 135.734 472.544 135.734 471.872C135.734 471.163 136 470.598 136.532 470.178C137.073 469.758 137.792 469.548 138.688 469.548C139.453 469.548 140.083 469.688 140.578 469.968V469.674C140.578 469.226 140.4 468.848 140.046 468.54C139.691 468.223 139.276 468.064 138.8 468.064C138.081 468.064 137.512 468.367 137.092 468.974L135.958 468.26C136.583 467.364 137.507 466.916 138.73 466.916ZM143.263 467.14H144.495V468.092H144.551C144.747 467.756 145.045 467.476 145.447 467.252C145.857 467.028 146.282 466.916 146.721 466.916C147.561 466.916 148.205 467.159 148.653 467.644C149.11 468.12 149.339 468.801 149.339 469.688V474H148.051V469.772C148.023 468.652 147.458 468.092 146.357 468.092C145.843 468.092 145.414 468.302 145.069 468.722C144.723 469.133 144.551 469.627 144.551 470.206V474H143.263V467.14ZM159.807 472.768V474H153.703V472.712L156.181 470.206C157.011 469.357 157.585 468.722 157.903 468.302C158.22 467.873 158.379 467.425 158.379 466.958C158.379 466.538 158.215 466.179 157.889 465.88C157.562 465.581 157.142 465.432 156.629 465.432C156.19 465.432 155.812 465.563 155.495 465.824C155.177 466.085 154.972 466.403 154.879 466.776L153.703 466.3C153.889 465.712 154.249 465.217 154.781 464.816C155.313 464.405 155.938 464.2 156.657 464.2C157.525 464.2 158.248 464.466 158.827 464.998C159.405 465.53 159.695 466.183 159.695 466.958C159.695 467.882 159.186 468.881 158.169 469.954L155.369 472.768H159.807Z" fill="white" fill-opacity="0.8"/>
<path d="M201.458 474.224C200.702 474.224 200.049 474.019 199.498 473.608C198.947 473.197 198.56 472.628 198.336 471.9L199.554 471.396C199.871 472.46 200.506 472.992 201.458 472.992C201.981 472.992 202.401 472.81 202.718 472.446C203.045 472.073 203.208 471.592 203.208 471.004V463.976H204.496V470.892C204.496 471.928 204.221 472.745 203.67 473.342C203.129 473.93 202.391 474.224 201.458 474.224ZM207.064 471.9C207.064 472.236 207.204 472.516 207.484 472.74C207.773 472.964 208.109 473.076 208.492 473.076C209.033 473.076 209.514 472.875 209.934 472.474C210.363 472.073 210.578 471.601 210.578 471.06C210.176 470.743 209.616 470.584 208.898 470.584C208.375 470.584 207.936 470.71 207.582 470.962C207.236 471.214 207.064 471.527 207.064 471.9ZM208.73 466.916C209.682 466.916 210.433 467.173 210.984 467.686C211.534 468.19 211.81 468.885 211.81 469.772V474H210.578V473.048H210.522C209.99 473.832 209.28 474.224 208.394 474.224C207.638 474.224 207.003 474 206.49 473.552C205.986 473.104 205.734 472.544 205.734 471.872C205.734 471.163 206 470.598 206.532 470.178C207.073 469.758 207.792 469.548 208.688 469.548C209.453 469.548 210.083 469.688 210.578 469.968V469.674C210.578 469.226 210.4 468.848 210.046 468.54C209.691 468.223 209.276 468.064 208.8 468.064C208.081 468.064 207.512 468.367 207.092 468.974L205.958 468.26C206.583 467.364 207.507 466.916 208.73 466.916ZM213.263 467.14H214.495V468.092H214.551C214.747 467.756 215.045 467.476 215.447 467.252C215.857 467.028 216.282 466.916 216.721 466.916C217.561 466.916 218.205 467.159 218.653 467.644C219.11 468.12 219.339 468.801 219.339 469.688V474H218.051V469.772C218.023 468.652 217.458 468.092 216.357 468.092C215.843 468.092 215.414 468.302 215.069 468.722C214.723 469.133 214.551 469.627 214.551 470.206V474H213.263V467.14ZM230.017 471.284C230.017 472.124 229.704 472.824 229.079 473.384C228.463 473.944 227.697 474.224 226.783 474.224C226.064 474.224 225.415 474.009 224.837 473.58C224.249 473.132 223.852 472.549 223.647 471.83L224.823 471.34C224.972 471.872 225.215 472.283 225.551 472.572C225.896 472.852 226.307 472.992 226.783 472.992C227.305 472.992 227.758 472.829 228.141 472.502C228.514 472.166 228.701 471.76 228.701 471.284C228.701 470.808 228.505 470.407 228.113 470.08C227.73 469.753 227.268 469.59 226.727 469.59H225.901V468.386H226.629C227.142 468.386 227.562 468.246 227.889 467.966C228.215 467.677 228.379 467.303 228.379 466.846C228.379 466.426 228.225 466.085 227.917 465.824C227.609 465.563 227.203 465.432 226.699 465.432C225.887 465.432 225.331 465.847 225.033 466.678L223.843 466.174C224.057 465.586 224.417 465.11 224.921 464.746C225.425 464.382 226.017 464.2 226.699 464.2C227.548 464.2 228.262 464.452 228.841 464.956C229.41 465.441 229.695 466.071 229.695 466.846C229.695 467.77 229.265 468.456 228.407 468.904V468.96C228.911 469.175 229.303 469.487 229.583 469.898C229.872 470.309 230.017 470.771 230.017 471.284Z" fill="white" fill-opacity="0.8"/>
<path d="M271.458 474.224C270.702 474.224 270.049 474.019 269.498 473.608C268.947 473.197 268.56 472.628 268.336 471.9L269.554 471.396C269.871 472.46 270.506 472.992 271.458 472.992C271.981 472.992 272.401 472.81 272.718 472.446C273.045 472.073 273.208 471.592 273.208 471.004V463.976H274.496V470.892C274.496 471.928 274.221 472.745 273.67 473.342C273.129 473.93 272.391 474.224 271.458 474.224ZM277.064 471.9C277.064 472.236 277.204 472.516 277.484 472.74C277.773 472.964 278.109 473.076 278.492 473.076C279.033 473.076 279.514 472.875 279.934 472.474C280.363 472.073 280.578 471.601 280.578 471.06C280.176 470.743 279.616 470.584 278.898 470.584C278.375 470.584 277.936 470.71 277.582 470.962C277.236 471.214 277.064 471.527 277.064 471.9ZM278.73 466.916C279.682 466.916 280.433 467.173 280.984 467.686C281.534 468.19 281.81 468.885 281.81 469.772V474H280.578V473.048H280.522C279.99 473.832 279.28 474.224 278.394 474.224C277.638 474.224 277.003 474 276.49 473.552C275.986 473.104 275.734 472.544 275.734 471.872C275.734 471.163 276 470.598 276.532 470.178C277.073 469.758 277.792 469.548 278.688 469.548C279.453 469.548 280.083 469.688 280.578 469.968V469.674C280.578 469.226 280.4 468.848 280.046 468.54C279.691 468.223 279.276 468.064 278.8 468.064C278.081 468.064 277.512 468.367 277.092 468.974L275.958 468.26C276.583 467.364 277.507 466.916 278.73 466.916ZM283.263 467.14H284.495V468.092H284.551C284.747 467.756 285.045 467.476 285.447 467.252C285.857 467.028 286.282 466.916 286.721 466.916C287.561 466.916 288.205 467.159 288.653 467.644C289.11 468.12 289.339 468.801 289.339 469.688V474H288.051V469.772C288.023 468.652 287.458 468.092 286.357 468.092C285.843 468.092 285.414 468.302 285.069 468.722C284.723 469.133 284.551 469.627 284.551 470.206V474H283.263V467.14ZM299.541 471.984V474H298.253V471.984H293.703V471.004L298.141 464.424H299.541V470.78H300.773V471.984H299.541ZM295.159 470.78H298.253V466.314H298.197L295.159 470.78Z" fill="white" fill-opacity="0.8"/>
<path d="M342.458 474.224C341.702 474.224 341.049 474.019 340.498 473.608C339.947 473.197 339.56 472.628 339.336 471.9L340.554 471.396C340.871 472.46 341.506 472.992 342.458 472.992C342.981 472.992 343.401 472.81 343.718 472.446C344.045 472.073 344.208 471.592 344.208 471.004V463.976H345.496V470.892C345.496 471.928 345.221 472.745 344.67 473.342C344.129 473.93 343.391 474.224 342.458 474.224ZM348.064 471.9C348.064 472.236 348.204 472.516 348.484 472.74C348.773 472.964 349.109 473.076 349.492 473.076C350.033 473.076 350.514 472.875 350.934 472.474C351.363 472.073 351.578 471.601 351.578 471.06C351.176 470.743 350.616 470.584 349.898 470.584C349.375 470.584 348.936 470.71 348.582 470.962C348.236 471.214 348.064 471.527 348.064 471.9ZM349.73 466.916C350.682 466.916 351.433 467.173 351.984 467.686C352.534 468.19 352.81 468.885 352.81 469.772V474H351.578V473.048H351.522C350.99 473.832 350.28 474.224 349.394 474.224C348.638 474.224 348.003 474 347.49 473.552C346.986 473.104 346.734 472.544 346.734 471.872C346.734 471.163 347 470.598 347.532 470.178C348.073 469.758 348.792 469.548 349.688 469.548C350.453 469.548 351.083 469.688 351.578 469.968V469.674C351.578 469.226 351.4 468.848 351.046 468.54C350.691 468.223 350.276 468.064 349.8 468.064C349.081 468.064 348.512 468.367 348.092 468.974L346.958 468.26C347.583 467.364 348.507 466.916 349.73 466.916ZM354.263 467.14H355.495V468.092H355.551C355.747 467.756 356.045 467.476 356.447 467.252C356.857 467.028 357.282 466.916 357.721 466.916C358.561 466.916 359.205 467.159 359.653 467.644C360.11 468.12 360.339 468.801 360.339 469.688V474H359.051V469.772C359.023 468.652 358.458 468.092 357.357 468.092C356.843 468.092 356.414 468.302 356.069 468.722C355.723 469.133 355.551 469.627 355.551 470.206V474H354.263V467.14ZM371.241 471.004C371.241 471.919 370.923 472.684 370.289 473.3C369.654 473.916 368.87 474.224 367.937 474.224C367.19 474.224 366.513 473.991 365.907 473.524C365.3 473.057 364.899 472.427 364.703 471.634L365.851 471.172C365.991 471.732 366.243 472.175 366.607 472.502C366.98 472.829 367.414 472.992 367.909 472.992C368.506 472.992 368.991 472.81 369.365 472.446C369.747 472.073 369.939 471.597 369.939 471.018C369.939 470.43 369.747 469.949 369.365 469.576C368.991 469.203 368.511 469.016 367.923 469.016C367.241 469.016 366.705 469.291 366.313 469.842L365.011 469.282L365.627 464.424H370.653V465.656H366.705L366.355 468.4L366.411 468.414C366.887 468.031 367.465 467.84 368.147 467.84C369.005 467.84 369.733 468.143 370.331 468.75C370.937 469.357 371.241 470.108 371.241 471.004Z" fill="white" fill-opacity="0.8"/>
<path d="M412.458 474.224C411.702 474.224 411.049 474.019 410.498 473.608C409.947 473.197 409.56 472.628 409.336 471.9L410.554 471.396C410.871 472.46 411.506 472.992 412.458 472.992C412.981 472.992 413.401 472.81 413.718 472.446C414.045 472.073 414.208 471.592 414.208 471.004V463.976H415.496V470.892C415.496 471.928 415.221 472.745 414.67 473.342C414.129 473.93 413.391 474.224 412.458 474.224ZM418.064 471.9C418.064 472.236 418.204 472.516 418.484 472.74C418.773 472.964 419.109 473.076 419.492 473.076C420.033 473.076 420.514 472.875 420.934 472.474C421.363 472.073 421.578 471.601 421.578 471.06C421.176 470.743 420.616 470.584 419.898 470.584C419.375 470.584 418.936 470.71 418.582 470.962C418.236 471.214 418.064 471.527 418.064 471.9ZM419.73 466.916C420.682 466.916 421.433 467.173 421.984 467.686C422.534 468.19 422.81 468.885 422.81 469.772V474H421.578V473.048H421.522C420.99 473.832 420.28 474.224 419.394 474.224C418.638 474.224 418.003 474 417.49 473.552C416.986 473.104 416.734 472.544 416.734 471.872C416.734 471.163 417 470.598 417.532 470.178C418.073 469.758 418.792 469.548 419.688 469.548C420.453 469.548 421.083 469.688 421.578 469.968V469.674C421.578 469.226 421.4 468.848 421.046 468.54C420.691 468.223 420.276 468.064 419.8 468.064C419.081 468.064 418.512 468.367 418.092 468.974L416.958 468.26C417.583 467.364 418.507 466.916 419.73 466.916ZM424.263 467.14H425.495V468.092H425.551C425.747 467.756 426.045 467.476 426.447 467.252C426.857 467.028 427.282 466.916 427.721 466.916C428.561 466.916 429.205 467.159 429.653 467.644C430.11 468.12 430.339 468.801 430.339 469.688V474H429.051V469.772C429.023 468.652 428.458 468.092 427.357 468.092C426.843 468.092 426.414 468.302 426.069 468.722C425.723 469.133 425.551 469.627 425.551 470.206V474H424.263V467.14ZM438.273 467.924C439.047 467.924 439.738 468.232 440.345 468.848C440.961 469.455 441.269 470.178 441.269 471.018C441.269 471.877 440.942 472.628 440.289 473.272C439.626 473.907 438.861 474.224 437.993 474.224C437.069 474.224 436.289 473.907 435.655 473.272C435.02 472.637 434.703 471.886 434.703 471.018C434.703 470.243 435.015 469.361 435.641 468.372L438.427 464.2L439.463 464.914L437.097 468.19L437.125 468.218C437.414 468.022 437.797 467.924 438.273 467.924ZM436.005 471.032C436.005 471.583 436.196 472.049 436.579 472.432C436.961 472.805 437.433 472.992 437.993 472.992C438.553 472.992 439.019 472.805 439.393 472.432C439.775 472.049 439.967 471.583 439.967 471.032C439.967 470.491 439.771 470.029 439.379 469.646C438.996 469.263 438.534 469.072 437.993 469.072C437.461 469.072 436.994 469.263 436.593 469.646C436.201 470.029 436.005 470.491 436.005 471.032Z" fill="white" fill-opacity="0.8"/>
<path d="M482.458 474.224C481.702 474.224 481.049 474.019 480.498 473.608C479.947 473.197 479.56 472.628 479.336 471.9L480.554 471.396C480.871 472.46 481.506 472.992 482.458 472.992C482.981 472.992 483.401 472.81 483.718 472.446C484.045 472.073 484.208 471.592 484.208 471.004V463.976H485.496V470.892C485.496 471.928 485.221 472.745 484.67 473.342C484.129 473.93 483.391 474.224 482.458 474.224ZM488.064 471.9C488.064 472.236 488.204 472.516 488.484 472.74C488.773 472.964 489.109 473.076 489.492 473.076C490.033 473.076 490.514 472.875 490.934 472.474C491.363 472.073 491.578 471.601 491.578 471.06C491.176 470.743 490.616 470.584 489.898 470.584C489.375 470.584 488.936 470.71 488.582 470.962C488.236 471.214 488.064 471.527 488.064 471.9ZM489.73 466.916C490.682 466.916 491.433 467.173 491.984 467.686C492.534 468.19 492.81 468.885 492.81 469.772V474H491.578V473.048H491.522C490.99 473.832 490.28 474.224 489.394 474.224C488.638 474.224 488.003 474 487.49 473.552C486.986 473.104 486.734 472.544 486.734 471.872C486.734 471.163 487 470.598 487.532 470.178C488.073 469.758 488.792 469.548 489.688 469.548C490.453 469.548 491.083 469.688 491.578 469.968V469.674C491.578 469.226 491.4 468.848 491.046 468.54C490.691 468.223 490.276 468.064 489.8 468.064C489.081 468.064 488.512 468.367 488.092 468.974L486.958 468.26C487.583 467.364 488.507 466.916 489.73 466.916ZM494.263 467.14H495.495V468.092H495.551C495.747 467.756 496.045 467.476 496.447 467.252C496.857 467.028 497.282 466.916 497.721 466.916C498.561 466.916 499.205 467.159 499.653 467.644C500.11 468.12 500.339 468.801 500.339 469.688V474H499.051V469.772C499.023 468.652 498.458 468.092 497.357 468.092C496.843 468.092 496.414 468.302 496.069 468.722C495.723 469.133 495.551 469.627 495.551 470.206V474H494.263V467.14ZM510.905 465.74L506.257 474.224L505.109 473.636L509.547 465.656H504.703L504.731 464.424H510.905V465.74Z" fill="white" fill-opacity="0.8"/>
<path d="M552.458 474.224C551.702 474.224 551.049 474.019 550.498 473.608C549.947 473.197 549.56 472.628 549.336 471.9L550.554 471.396C550.871 472.46 551.506 472.992 552.458 472.992C552.981 472.992 553.401 472.81 553.718 472.446C554.045 472.073 554.208 471.592 554.208 471.004V463.976H555.496V470.892C555.496 471.928 555.221 472.745 554.67 473.342C554.129 473.93 553.391 474.224 552.458 474.224ZM558.064 471.9C558.064 472.236 558.204 472.516 558.484 472.74C558.773 472.964 559.109 473.076 559.492 473.076C560.033 473.076 560.514 472.875 560.934 472.474C561.363 472.073 561.578 471.601 561.578 471.06C561.176 470.743 560.616 470.584 559.898 470.584C559.375 470.584 558.936 470.71 558.582 470.962C558.236 471.214 558.064 471.527 558.064 471.9ZM559.73 466.916C560.682 466.916 561.433 467.173 561.984 467.686C562.534 468.19 562.81 468.885 562.81 469.772V474H561.578V473.048H561.522C560.99 473.832 560.28 474.224 559.394 474.224C558.638 474.224 558.003 474 557.49 473.552C556.986 473.104 556.734 472.544 556.734 471.872C556.734 471.163 557 470.598 557.532 470.178C558.073 469.758 558.792 469.548 559.688 469.548C560.453 469.548 561.083 469.688 561.578 469.968V469.674C561.578 469.226 561.4 468.848 561.046 468.54C560.691 468.223 560.276 468.064 559.8 468.064C559.081 468.064 558.512 468.367 558.092 468.974L556.958 468.26C557.583 467.364 558.507 466.916 559.73 466.916ZM564.263 467.14H565.495V468.092H565.551C565.747 467.756 566.045 467.476 566.447 467.252C566.857 467.028 567.282 466.916 567.721 466.916C568.561 466.916 569.205 467.159 569.653 467.644C570.11 468.12 570.339 468.801 570.339 469.688V474H569.051V469.772C569.023 468.652 568.458 468.092 567.357 468.092C566.843 468.092 566.414 468.302 566.069 468.722C565.723 469.133 565.551 469.627 565.551 470.206V474H564.263V467.14ZM581.199 471.354C581.199 472.175 580.886 472.857 580.261 473.398C579.626 473.949 578.856 474.224 577.951 474.224C577.045 474.224 576.275 473.949 575.641 473.398C575.015 472.857 574.703 472.175 574.703 471.354C574.703 470.85 574.838 470.393 575.109 469.982C575.379 469.562 575.767 469.231 576.271 468.988V468.932C575.897 468.689 575.594 468.391 575.361 468.036C575.137 467.681 575.025 467.308 575.025 466.916C575.025 466.141 575.3 465.493 575.851 464.97C576.392 464.457 577.092 464.2 577.951 464.2C578.809 464.2 579.509 464.457 580.051 464.97C580.601 465.493 580.877 466.141 580.877 466.916C580.877 467.308 580.76 467.681 580.527 468.036C580.303 468.391 580.004 468.689 579.631 468.932V468.988C580.135 469.231 580.522 469.562 580.793 469.982C581.063 470.393 581.199 470.85 581.199 471.354ZM576.341 466.888C576.341 467.336 576.49 467.7 576.789 467.98C577.087 468.251 577.475 468.386 577.951 468.386C578.427 468.386 578.814 468.251 579.113 467.98C579.411 467.7 579.561 467.336 579.561 466.888C579.561 466.44 579.411 466.085 579.113 465.824C578.814 465.563 578.427 465.432 577.951 465.432C577.475 465.432 577.087 465.563 576.789 465.824C576.49 466.085 576.341 466.44 576.341 466.888ZM576.019 471.284C576.019 471.536 576.065 471.765 576.159 471.97C576.261 472.175 576.397 472.357 576.565 472.516C576.742 472.665 576.947 472.782 577.181 472.866C577.414 472.95 577.671 472.992 577.951 472.992C578.231 472.992 578.487 472.95 578.721 472.866C578.954 472.782 579.155 472.665 579.323 472.516C579.5 472.357 579.635 472.175 579.729 471.97C579.831 471.765 579.883 471.536 579.883 471.284C579.883 470.799 579.696 470.397 579.323 470.08C578.949 469.753 578.492 469.59 577.951 469.59C577.409 469.59 576.947 469.753 576.565 470.08C576.201 470.407 576.019 470.808 576.019 471.284Z" fill="white" fill-opacity="0.8"/>
<path d="M622.458 474.224C621.702 474.224 621.049 474.019 620.498 473.608C619.947 473.197 619.56 472.628 619.336 471.9L620.554 471.396C620.871 472.46 621.506 472.992 622.458 472.992C622.981 472.992 623.401 472.81 623.718 472.446C624.045 472.073 624.208 471.592 624.208 471.004V463.976H625.496V470.892C625.496 471.928 625.221 472.745 624.67 473.342C624.129 473.93 623.391 474.224 622.458 474.224ZM628.064 471.9C628.064 472.236 628.204 472.516 628.484 472.74C628.773 472.964 629.109 473.076 629.492 473.076C630.033 473.076 630.514 472.875 630.934 472.474C631.363 472.073 631.578 471.601 631.578 471.06C631.176 470.743 630.616 470.584 629.898 470.584C629.375 470.584 628.936 470.71 628.582 470.962C628.236 471.214 628.064 471.527 628.064 471.9ZM629.73 466.916C630.682 466.916 631.433 467.173 631.984 467.686C632.534 468.19 632.81 468.885 632.81 469.772V474H631.578V473.048H631.522C630.99 473.832 630.28 474.224 629.394 474.224C628.638 474.224 628.003 474 627.49 473.552C626.986 473.104 626.734 472.544 626.734 471.872C626.734 471.163 627 470.598 627.532 470.178C628.073 469.758 628.792 469.548 629.688 469.548C630.453 469.548 631.083 469.688 631.578 469.968V469.674C631.578 469.226 631.4 468.848 631.046 468.54C630.691 468.223 630.276 468.064 629.8 468.064C629.081 468.064 628.512 468.367 628.092 468.974L626.958 468.26C627.583 467.364 628.507 466.916 629.73 466.916ZM634.263 467.14H635.495V468.092H635.551C635.747 467.756 636.045 467.476 636.447 467.252C636.857 467.028 637.282 466.916 637.721 466.916C638.561 466.916 639.205 467.159 639.653 467.644C640.11 468.12 640.339 468.801 640.339 469.688V474H639.051V469.772C639.023 468.652 638.458 468.092 637.357 468.092C636.843 468.092 636.414 468.302 636.069 468.722C635.723 469.133 635.551 469.627 635.551 470.206V474H634.263V467.14ZM647.699 470.5C646.933 470.5 646.238 470.197 645.613 469.59C645.006 468.965 644.703 468.237 644.703 467.406C644.703 466.538 645.029 465.791 645.683 465.166C646.336 464.522 647.101 464.2 647.979 464.2C648.903 464.2 649.682 464.517 650.317 465.152C650.951 465.787 651.269 466.538 651.269 467.406C651.269 468.181 650.956 469.063 650.331 470.052L647.545 474.224L646.509 473.51L648.875 470.234L648.847 470.206C648.548 470.402 648.165 470.5 647.699 470.5ZM649.967 467.392C649.967 466.851 649.771 466.389 649.379 466.006C648.996 465.623 648.529 465.432 647.979 465.432C647.428 465.432 646.961 465.623 646.579 466.006C646.196 466.389 646.005 466.851 646.005 467.392C646.005 467.933 646.196 468.395 646.579 468.778C646.98 469.161 647.447 469.352 647.979 469.352C648.511 469.352 648.977 469.161 649.379 468.778C649.771 468.405 649.967 467.943 649.967 467.392Z" fill="white" fill-opacity="0.8"/>
<path d="M692.458 474.224C691.702 474.224 691.049 474.019 690.498 473.608C689.947 473.197 689.56 472.628 689.336 471.9L690.554 471.396C690.871 472.46 691.506 472.992 692.458 472.992C692.981 472.992 693.401 472.81 693.718 472.446C694.045 472.073 694.208 471.592 694.208 471.004V463.976H695.496V470.892C695.496 471.928 695.221 472.745 694.67 473.342C694.129 473.93 693.391 474.224 692.458 474.224ZM698.064 471.9C698.064 472.236 698.204 472.516 698.484 472.74C698.773 472.964 699.109 473.076 699.492 473.076C700.033 473.076 700.514 472.875 700.934 472.474C701.363 472.073 701.578 471.601 701.578 471.06C701.176 470.743 700.616 470.584 699.898 470.584C699.375 470.584 698.936 470.71 698.582 470.962C698.236 471.214 698.064 471.527 698.064 471.9ZM699.73 466.916C700.682 466.916 701.433 467.173 701.984 467.686C702.534 468.19 702.81 468.885 702.81 469.772V474H701.578V473.048H701.522C700.99 473.832 700.28 474.224 699.394 474.224C698.638 474.224 698.003 474 697.49 473.552C696.986 473.104 696.734 472.544 696.734 471.872C696.734 471.163 697 470.598 697.532 470.178C698.073 469.758 698.792 469.548 699.688 469.548C700.453 469.548 701.083 469.688 701.578 469.968V469.674C701.578 469.226 701.4 468.848 701.046 468.54C700.691 468.223 700.276 468.064 699.8 468.064C699.081 468.064 698.512 468.367 698.092 468.974L696.958 468.26C697.583 467.364 698.507 466.916 699.73 466.916ZM704.263 467.14H705.495V468.092H705.551C705.747 467.756 706.045 467.476 706.447 467.252C706.857 467.028 707.282 466.916 707.721 466.916C708.561 466.916 709.205 467.159 709.653 467.644C710.11 468.12 710.339 468.801 710.339 469.688V474H709.051V469.772C709.023 468.652 708.458 468.092 707.357 468.092C706.843 468.092 706.414 468.302 706.069 468.722C705.723 469.133 705.551 469.627 705.551 470.206V474H704.263V467.14ZM718.343 464.424V474H717.055V466.02L715.193 466.832L714.703 465.74L717.517 464.424H718.343ZM720.132 469.212C720.132 467.756 720.491 466.557 721.21 465.614C721.928 464.671 722.852 464.2 723.982 464.2C725.111 464.2 726.035 464.676 726.754 465.628C727.472 466.571 727.832 467.765 727.832 469.212C727.832 470.649 727.472 471.849 726.754 472.81C726.035 473.753 725.111 474.224 723.982 474.224C722.852 474.224 721.928 473.753 721.21 472.81C720.491 471.849 720.132 470.649 720.132 469.212ZM726.516 469.212C726.516 468.111 726.282 467.205 725.816 466.496C725.358 465.787 724.747 465.432 723.982 465.432C723.216 465.432 722.605 465.787 722.148 466.496C721.681 467.205 721.448 468.111 721.448 469.212C721.448 470.313 721.681 471.223 722.148 471.942C722.605 472.642 723.216 472.992 723.982 472.992C724.747 472.992 725.358 472.637 725.816 471.928C726.282 471.209 726.516 470.304 726.516 469.212Z" fill="white" fill-opacity="0.8"/>
<path d="M769.458 474.224C768.702 474.224 768.049 474.019 767.498 473.608C766.947 473.197 766.56 472.628 766.336 471.9L767.554 471.396C767.871 472.46 768.506 472.992 769.458 472.992C769.981 472.992 770.401 472.81 770.718 472.446C771.045 472.073 771.208 471.592 771.208 471.004V463.976H772.496V470.892C772.496 471.928 772.221 472.745 771.67 473.342C771.129 473.93 770.391 474.224 769.458 474.224ZM775.064 471.9C775.064 472.236 775.204 472.516 775.484 472.74C775.773 472.964 776.109 473.076 776.492 473.076C777.033 473.076 777.514 472.875 777.934 472.474C778.363 472.073 778.578 471.601 778.578 471.06C778.176 470.743 777.616 470.584 776.898 470.584C776.375 470.584 775.936 470.71 775.582 470.962C775.236 471.214 775.064 471.527 775.064 471.9ZM776.73 466.916C777.682 466.916 778.433 467.173 778.984 467.686C779.534 468.19 779.81 468.885 779.81 469.772V474H778.578V473.048H778.522C777.99 473.832 777.28 474.224 776.394 474.224C775.638 474.224 775.003 474 774.49 473.552C773.986 473.104 773.734 472.544 773.734 471.872C773.734 471.163 774 470.598 774.532 470.178C775.073 469.758 775.792 469.548 776.688 469.548C777.453 469.548 778.083 469.688 778.578 469.968V469.674C778.578 469.226 778.4 468.848 778.046 468.54C777.691 468.223 777.276 468.064 776.8 468.064C776.081 468.064 775.512 468.367 775.092 468.974L773.958 468.26C774.583 467.364 775.507 466.916 776.73 466.916ZM781.263 467.14H782.495V468.092H782.551C782.747 467.756 783.045 467.476 783.447 467.252C783.857 467.028 784.282 466.916 784.721 466.916C785.561 466.916 786.205 467.159 786.653 467.644C787.11 468.12 787.339 468.801 787.339 469.688V474H786.051V469.772C786.023 468.652 785.458 468.092 784.357 468.092C783.843 468.092 783.414 468.302 783.069 468.722C782.723 469.133 782.551 469.627 782.551 470.206V474H781.263V467.14ZM795.343 464.424V474H794.055V466.02L792.193 466.832L791.703 465.74L794.517 464.424H795.343ZM800.716 464.424V474H799.428V466.02L797.566 466.832L797.076 465.74L799.89 464.424H800.716Z" fill="white" fill-opacity="0.8"/>
<path d="M842.458 474.224C841.702 474.224 841.049 474.019 840.498 473.608C839.947 473.197 839.56 472.628 839.336 471.9L840.554 471.396C840.871 472.46 841.506 472.992 842.458 472.992C842.981 472.992 843.401 472.81 843.718 472.446C844.045 472.073 844.208 471.592 844.208 471.004V463.976H845.496V470.892C845.496 471.928 845.221 472.745 844.67 473.342C844.129 473.93 843.391 474.224 842.458 474.224ZM848.064 471.9C848.064 472.236 848.204 472.516 848.484 472.74C848.773 472.964 849.109 473.076 849.492 473.076C850.033 473.076 850.514 472.875 850.934 472.474C851.363 472.073 851.578 471.601 851.578 471.06C851.176 470.743 850.616 470.584 849.898 470.584C849.375 470.584 848.936 470.71 848.582 470.962C848.236 471.214 848.064 471.527 848.064 471.9ZM849.73 466.916C850.682 466.916 851.433 467.173 851.984 467.686C852.534 468.19 852.81 468.885 852.81 469.772V474H851.578V473.048H851.522C850.99 473.832 850.28 474.224 849.394 474.224C848.638 474.224 848.003 474 847.49 473.552C846.986 473.104 846.734 472.544 846.734 471.872C846.734 471.163 847 470.598 847.532 470.178C848.073 469.758 848.792 469.548 849.688 469.548C850.453 469.548 851.083 469.688 851.578 469.968V469.674C851.578 469.226 851.4 468.848 851.046 468.54C850.691 468.223 850.276 468.064 849.8 468.064C849.081 468.064 848.512 468.367 848.092 468.974L846.958 468.26C847.583 467.364 848.507 466.916 849.73 466.916ZM854.263 467.14H855.495V468.092H855.551C855.747 467.756 856.045 467.476 856.447 467.252C856.857 467.028 857.282 466.916 857.721 466.916C858.561 466.916 859.205 467.159 859.653 467.644C860.11 468.12 860.339 468.801 860.339 469.688V474H859.051V469.772C859.023 468.652 858.458 468.092 857.357 468.092C856.843 468.092 856.414 468.302 856.069 468.722C855.723 469.133 855.551 469.627 855.551 470.206V474H854.263V467.14ZM868.343 464.424V474H867.055V466.02L865.193 466.832L864.703 465.74L867.517 464.424H868.343ZM876.316 472.768V474H870.212V472.712L872.69 470.206C873.521 469.357 874.095 468.722 874.412 468.302C874.73 467.873 874.888 467.425 874.888 466.958C874.888 466.538 874.725 466.179 874.398 465.88C874.072 465.581 873.652 465.432 873.138 465.432C872.7 465.432 872.322 465.563 872.004 465.824C871.687 466.085 871.482 466.403 871.388 466.776L870.212 466.3C870.399 465.712 870.758 465.217 871.29 464.816C871.822 464.405 872.448 464.2 873.166 464.2C874.034 464.2 874.758 464.466 875.336 464.998C875.915 465.53 876.204 466.183 876.204 466.958C876.204 467.882 875.696 468.881 874.678 469.954L871.878 472.768H876.316Z" fill="white" fill-opacity="0.8"/>
<path d="M917.458 474.224C916.702 474.224 916.049 474.019 915.498 473.608C914.947 473.197 914.56 472.628 914.336 471.9L915.554 471.396C915.871 472.46 916.506 472.992 917.458 472.992C917.981 472.992 918.401 472.81 918.718 472.446C919.045 472.073 919.208 471.592 919.208 471.004V463.976H920.496V470.892C920.496 471.928 920.221 472.745 919.67 473.342C919.129 473.93 918.391 474.224 917.458 474.224ZM923.064 471.9C923.064 472.236 923.204 472.516 923.484 472.74C923.773 472.964 924.109 473.076 924.492 473.076C925.033 473.076 925.514 472.875 925.934 472.474C926.363 472.073 926.578 471.601 926.578 471.06C926.176 470.743 925.616 470.584 924.898 470.584C924.375 470.584 923.936 470.71 923.582 470.962C923.236 471.214 923.064 471.527 923.064 471.9ZM924.73 466.916C925.682 466.916 926.433 467.173 926.984 467.686C927.534 468.19 927.81 468.885 927.81 469.772V474H926.578V473.048H926.522C925.99 473.832 925.28 474.224 924.394 474.224C923.638 474.224 923.003 474 922.49 473.552C921.986 473.104 921.734 472.544 921.734 471.872C921.734 471.163 922 470.598 922.532 470.178C923.073 469.758 923.792 469.548 924.688 469.548C925.453 469.548 926.083 469.688 926.578 469.968V469.674C926.578 469.226 926.4 468.848 926.046 468.54C925.691 468.223 925.276 468.064 924.8 468.064C924.081 468.064 923.512 468.367 923.092 468.974L921.958 468.26C922.583 467.364 923.507 466.916 924.73 466.916ZM929.263 467.14H930.495V468.092H930.551C930.747 467.756 931.045 467.476 931.447 467.252C931.857 467.028 932.282 466.916 932.721 466.916C933.561 466.916 934.205 467.159 934.653 467.644C935.11 468.12 935.339 468.801 935.339 469.688V474H934.051V469.772C934.023 468.652 933.458 468.092 932.357 468.092C931.843 468.092 931.414 468.302 931.069 468.722C930.723 469.133 930.551 469.627 930.551 470.206V474H929.263V467.14ZM943.343 464.424V474H942.055V466.02L940.193 466.832L939.703 465.74L942.517 464.424H943.343ZM951.39 471.284C951.39 472.124 951.077 472.824 950.452 473.384C949.836 473.944 949.07 474.224 948.156 474.224C947.437 474.224 946.788 474.009 946.21 473.58C945.622 473.132 945.225 472.549 945.02 471.83L946.196 471.34C946.345 471.872 946.588 472.283 946.924 472.572C947.269 472.852 947.68 472.992 948.156 472.992C948.678 472.992 949.131 472.829 949.514 472.502C949.887 472.166 950.074 471.76 950.074 471.284C950.074 470.808 949.878 470.407 949.486 470.08C949.103 469.753 948.641 469.59 948.1 469.59H947.274V468.386H948.002C948.515 468.386 948.935 468.246 949.262 467.966C949.588 467.677 949.752 467.303 949.752 466.846C949.752 466.426 949.598 466.085 949.29 465.824C948.982 465.563 948.576 465.432 948.072 465.432C947.26 465.432 946.704 465.847 946.406 466.678L945.216 466.174C945.43 465.586 945.79 465.11 946.294 464.746C946.798 464.382 947.39 464.2 948.072 464.2C948.921 464.2 949.635 464.452 950.214 464.956C950.783 465.441 951.068 466.071 951.068 466.846C951.068 467.77 950.638 468.456 949.78 468.904V468.96C950.284 469.175 950.676 469.487 950.956 469.898C951.245 470.309 951.39 470.771 951.39 471.284Z" fill="white" fill-opacity="0.8"/>
<path d="M992.458 474.224C991.702 474.224 991.049 474.019 990.498 473.608C989.947 473.197 989.56 472.628 989.336 471.9L990.554 471.396C990.871 472.46 991.506 472.992 992.458 472.992C992.981 472.992 993.401 472.81 993.718 472.446C994.045 472.073 994.208 471.592 994.208 471.004V463.976H995.496V470.892C995.496 471.928 995.221 472.745 994.67 473.342C994.129 473.93 993.391 474.224 992.458 474.224ZM998.064 471.9C998.064 472.236 998.204 472.516 998.484 472.74C998.773 472.964 999.109 473.076 999.492 473.076C1000.03 473.076 1000.51 472.875 1000.93 472.474C1001.36 472.073 1001.58 471.601 1001.58 471.06C1001.18 470.743 1000.62 470.584 999.898 470.584C999.375 470.584 998.936 470.71 998.582 470.962C998.236 471.214 998.064 471.527 998.064 471.9ZM999.73 466.916C1000.68 466.916 1001.43 467.173 1001.98 467.686C1002.53 468.19 1002.81 468.885 1002.81 469.772V474H1001.58V473.048H1001.52C1000.99 473.832 1000.28 474.224 999.394 474.224C998.638 474.224 998.003 474 997.49 473.552C996.986 473.104 996.734 472.544 996.734 471.872C996.734 471.163 997 470.598 997.532 470.178C998.073 469.758 998.792 469.548 999.688 469.548C1000.45 469.548 1001.08 469.688 1001.58 469.968V469.674C1001.58 469.226 1001.4 468.848 1001.05 468.54C1000.69 468.223 1000.28 468.064 999.8 468.064C999.081 468.064 998.512 468.367 998.092 468.974L996.958 468.26C997.583 467.364 998.507 466.916 999.73 466.916ZM1004.26 467.14H1005.49V468.092H1005.55C1005.75 467.756 1006.05 467.476 1006.45 467.252C1006.86 467.028 1007.28 466.916 1007.72 466.916C1008.56 466.916 1009.2 467.159 1009.65 467.644C1010.11 468.12 1010.34 468.801 1010.34 469.688V474H1009.05V469.772C1009.02 468.652 1008.46 468.092 1007.36 468.092C1006.84 468.092 1006.41 468.302 1006.07 468.722C1005.72 469.133 1005.55 469.627 1005.55 470.206V474H1004.26V467.14ZM1018.34 464.424V474H1017.05V466.02L1015.19 466.832L1014.7 465.74L1017.52 464.424H1018.34ZM1025.91 471.984V474H1024.63V471.984H1020.08V471.004L1024.51 464.424H1025.91V470.78H1027.15V471.984H1025.91ZM1021.53 470.78H1024.63V466.314H1024.57L1021.53 470.78Z" fill="white" fill-opacity="0.8"/>
<path d="M1068.46 474.224C1067.7 474.224 1067.05 474.019 1066.5 473.608C1065.95 473.197 1065.56 472.628 1065.34 471.9L1066.55 471.396C1066.87 472.46 1067.51 472.992 1068.46 472.992C1068.98 472.992 1069.4 472.81 1069.72 472.446C1070.04 472.073 1070.21 471.592 1070.21 471.004V463.976H1071.5V470.892C1071.5 471.928 1071.22 472.745 1070.67 473.342C1070.13 473.93 1069.39 474.224 1068.46 474.224ZM1074.06 471.9C1074.06 472.236 1074.2 472.516 1074.48 472.74C1074.77 472.964 1075.11 473.076 1075.49 473.076C1076.03 473.076 1076.51 472.875 1076.93 472.474C1077.36 472.073 1077.58 471.601 1077.58 471.06C1077.18 470.743 1076.62 470.584 1075.9 470.584C1075.38 470.584 1074.94 470.71 1074.58 470.962C1074.24 471.214 1074.06 471.527 1074.06 471.9ZM1075.73 466.916C1076.68 466.916 1077.43 467.173 1077.98 467.686C1078.53 468.19 1078.81 468.885 1078.81 469.772V474H1077.58V473.048H1077.52C1076.99 473.832 1076.28 474.224 1075.39 474.224C1074.64 474.224 1074 474 1073.49 473.552C1072.99 473.104 1072.73 472.544 1072.73 471.872C1072.73 471.163 1073 470.598 1073.53 470.178C1074.07 469.758 1074.79 469.548 1075.69 469.548C1076.45 469.548 1077.08 469.688 1077.58 469.968V469.674C1077.58 469.226 1077.4 468.848 1077.05 468.54C1076.69 468.223 1076.28 468.064 1075.8 468.064C1075.08 468.064 1074.51 468.367 1074.09 468.974L1072.96 468.26C1073.58 467.364 1074.51 466.916 1075.73 466.916ZM1080.26 467.14H1081.49V468.092H1081.55C1081.75 467.756 1082.05 467.476 1082.45 467.252C1082.86 467.028 1083.28 466.916 1083.72 466.916C1084.56 466.916 1085.2 467.159 1085.65 467.644C1086.11 468.12 1086.34 468.801 1086.34 469.688V474H1085.05V469.772C1085.02 468.652 1084.46 468.092 1083.36 468.092C1082.84 468.092 1082.41 468.302 1082.07 468.722C1081.72 469.133 1081.55 469.627 1081.55 470.206V474H1080.26V467.14ZM1094.34 464.424V474H1093.05V466.02L1091.19 466.832L1090.7 465.74L1093.52 464.424H1094.34ZM1102.75 471.004C1102.75 471.919 1102.43 472.684 1101.8 473.3C1101.16 473.916 1100.38 474.224 1099.45 474.224C1098.7 474.224 1098.02 473.991 1097.42 473.524C1096.81 473.057 1096.41 472.427 1096.21 471.634L1097.36 471.172C1097.5 471.732 1097.75 472.175 1098.12 472.502C1098.49 472.829 1098.92 472.992 1099.42 472.992C1100.02 472.992 1100.5 472.81 1100.87 472.446C1101.26 472.073 1101.45 471.597 1101.45 471.018C1101.45 470.43 1101.26 469.949 1100.87 469.576C1100.5 469.203 1100.02 469.016 1099.43 469.016C1098.75 469.016 1098.21 469.291 1097.82 469.842L1096.52 469.282L1097.14 464.424H1102.16V465.656H1098.21L1097.86 468.4L1097.92 468.414C1098.4 468.031 1098.98 467.84 1099.66 467.84C1100.52 467.84 1101.24 468.143 1101.84 468.75C1102.45 469.357 1102.75 470.108 1102.75 471.004Z" fill="white" fill-opacity="0.8"/>
<path d="M5.2 243.424V253H3.912V245.02L2.05 245.832L1.56 244.74L4.374 243.424H5.2ZM8.94905 252.132C8.94905 252.393 8.85571 252.617 8.66905 252.804C8.49171 252.991 8.26771 253.084 7.99705 253.084C7.73571 253.084 7.51171 252.991 7.32505 252.804C7.13838 252.617 7.04505 252.393 7.04505 252.132C7.04505 251.861 7.13838 251.637 7.32505 251.46C7.51171 251.273 7.73571 251.18 7.99705 251.18C8.26771 251.18 8.49171 251.273 8.66905 251.46C8.85571 251.637 8.94905 251.861 8.94905 252.132ZM13.757 246.924C14.5316 246.924 15.2223 247.232 15.829 247.848C16.445 248.455 16.753 249.178 16.753 250.018C16.753 250.877 16.4263 251.628 15.773 252.272C15.1103 252.907 14.345 253.224 13.477 253.224C12.553 253.224 11.7736 252.907 11.139 252.272C10.5043 251.637 10.187 250.886 10.187 250.018C10.187 249.243 10.4996 248.361 11.125 247.372L13.911 243.2L14.947 243.914L12.581 247.19L12.609 247.218C12.8983 247.022 13.281 246.924 13.757 246.924ZM11.489 250.032C11.489 250.583 11.6803 251.049 12.063 251.432C12.4456 251.805 12.917 251.992 13.477 251.992C14.037 251.992 14.5036 251.805 14.877 251.432C15.2596 251.049 15.451 250.583 15.451 250.032C15.451 249.491 15.255 249.029 14.863 248.646C14.4803 248.263 14.0183 248.072 13.477 248.072C12.945 248.072 12.4783 248.263 12.077 248.646C11.685 249.029 11.489 249.491 11.489 250.032ZM24.4085 250.004C24.4085 250.919 24.0912 251.684 23.4565 252.3C22.8219 252.916 22.0379 253.224 21.1045 253.224C20.3579 253.224 19.6812 252.991 19.0745 252.524C18.4679 252.057 18.0665 251.427 17.8705 250.634L19.0185 250.172C19.1585 250.732 19.4105 251.175 19.7745 251.502C20.1479 251.829 20.5819 251.992 21.0765 251.992C21.6739 251.992 22.1592 251.81 22.5325 251.446C22.9152 251.073 23.1065 250.597 23.1065 250.018C23.1065 249.43 22.9152 248.949 22.5325 248.576C22.1592 248.203 21.6785 248.016 21.0905 248.016C20.4092 248.016 19.8725 248.291 19.4805 248.842L18.1785 248.282L18.7945 243.424H23.8205V244.656H19.8725L19.5225 247.4L19.5785 247.414C20.0545 247.031 20.6332 246.84 21.3145 246.84C22.1732 246.84 22.9012 247.143 23.4985 247.75C24.1052 248.357 24.4085 249.108 24.4085 250.004ZM31.9502 250.284C31.9502 251.124 31.6375 251.824 31.0122 252.384C30.3962 252.944 29.6308 253.224 28.7162 253.224C27.9975 253.224 27.3488 253.009 26.7702 252.58C26.1822 252.132 25.7855 251.549 25.5802 250.83L26.7562 250.34C26.9055 250.872 27.1482 251.283 27.4842 251.572C27.8295 251.852 28.2402 251.992 28.7162 251.992C29.2388 251.992 29.6915 251.829 30.0742 251.502C30.4475 251.166 30.6342 250.76 30.6342 250.284C30.6342 249.808 30.4382 249.407 30.0462 249.08C29.6635 248.753 29.2015 248.59 28.6602 248.59H27.8342V247.386H28.5622C29.0755 247.386 29.4955 247.246 29.8222 246.966C30.1488 246.677 30.3122 246.303 30.3122 245.846C30.3122 245.426 30.1582 245.085 29.8502 244.824C29.5422 244.563 29.1362 244.432 28.6322 244.432C27.8202 244.432 27.2648 244.847 26.9662 245.678L25.7762 245.174C25.9908 244.586 26.3502 244.11 26.8542 243.746C27.3582 243.382 27.9508 243.2 28.6322 243.2C29.4815 243.2 30.1955 243.452 30.7742 243.956C31.3435 244.441 31.6282 245.071 31.6282 245.846C31.6282 246.77 31.1988 247.456 30.3402 247.904V247.96C30.8442 248.175 31.2362 248.487 31.5162 248.898C31.8055 249.309 31.9502 249.771 31.9502 250.284ZM42.4498 242.976V244.208H37.8858V247.386H42.0018V248.59H37.8858V251.768H42.4498V253H36.5978V242.976H42.4498ZM47.6017 244.208V253H46.3137V244.208H43.5137V242.976H50.4017V244.208H47.6017ZM53.0343 253H51.7463V242.976H53.0343V247.274H58.0463V242.976H59.3343V253H58.0463V248.478H53.0343V253Z" fill="white" fill-opacity="0.8"/>
<path d="M7.664 204.768V206H1.56V204.712L4.038 202.206C4.86867 201.357 5.44267 200.722 5.76 200.302C6.07733 199.873 6.236 199.425 6.236 198.958C6.236 198.538 6.07267 198.179 5.746 197.88C5.41933 197.581 4.99933 197.432 4.486 197.432C4.04733 197.432 3.66933 197.563 3.352 197.824C3.03467 198.085 2.82933 198.403 2.736 198.776L1.56 198.3C1.74667 197.712 2.106 197.217 2.638 196.816C3.17 196.405 3.79533 196.2 4.514 196.2C5.382 196.2 6.10533 196.466 6.684 196.998C7.26267 197.53 7.552 198.183 7.552 198.958C7.552 199.882 7.04333 200.881 6.026 201.954L3.226 204.768H7.664ZM10.8494 205.132C10.8494 205.393 10.7561 205.617 10.5694 205.804C10.3921 205.991 10.1681 206.084 9.89744 206.084C9.6361 206.084 9.4121 205.991 9.22544 205.804C9.03877 205.617 8.94544 205.393 8.94544 205.132C8.94544 204.861 9.03877 204.637 9.22544 204.46C9.4121 204.273 9.6361 204.18 9.89744 204.18C10.1681 204.18 10.3921 204.273 10.5694 204.46C10.7561 204.637 10.8494 204.861 10.8494 205.132ZM18.4013 203.284C18.4013 204.124 18.0887 204.824 17.4633 205.384C16.8473 205.944 16.082 206.224 15.1673 206.224C14.4487 206.224 13.8 206.009 13.2213 205.58C12.6333 205.132 12.2367 204.549 12.0313 203.83L13.2073 203.34C13.3567 203.872 13.5993 204.283 13.9353 204.572C14.2807 204.852 14.6913 204.992 15.1673 204.992C15.69 204.992 16.1427 204.829 16.5253 204.502C16.8987 204.166 17.0853 203.76 17.0853 203.284C17.0853 202.808 16.8893 202.407 16.4973 202.08C16.1147 201.753 15.6527 201.59 15.1113 201.59H14.2853V200.386H15.0133C15.5267 200.386 15.9467 200.246 16.2733 199.966C16.6 199.677 16.7633 199.303 16.7633 198.846C16.7633 198.426 16.6093 198.085 16.3013 197.824C15.9933 197.563 15.5873 197.432 15.0833 197.432C14.2713 197.432 13.716 197.847 13.4173 198.678L12.2273 198.174C12.442 197.586 12.8013 197.11 13.3053 196.746C13.8093 196.382 14.402 196.2 15.0833 196.2C15.9327 196.2 16.6467 196.452 17.2253 196.956C17.7947 197.441 18.0793 198.071 18.0793 198.846C18.0793 199.77 17.65 200.456 16.7913 200.904V200.96C17.2953 201.175 17.6873 201.487 17.9673 201.898C18.2567 202.309 18.4013 202.771 18.4013 203.284ZM25.3628 203.984V206H24.0748V203.984H19.5248V203.004L23.9628 196.424H25.3628V202.78H26.5948V203.984H25.3628ZM20.9808 202.78H24.0748V198.314H24.0188L20.9808 202.78ZM34.307 203.004C34.307 203.919 33.9897 204.684 33.355 205.3C32.7203 205.916 31.9363 206.224 31.003 206.224C30.2563 206.224 29.5797 205.991 28.973 205.524C28.3663 205.057 27.965 204.427 27.769 203.634L28.917 203.172C29.057 203.732 29.309 204.175 29.673 204.502C30.0463 204.829 30.4803 204.992 30.975 204.992C31.5723 204.992 32.0577 204.81 32.431 204.446C32.8137 204.073 33.005 203.597 33.005 203.018C33.005 202.43 32.8137 201.949 32.431 201.576C32.0577 201.203 31.577 201.016 30.989 201.016C30.3077 201.016 29.771 201.291 29.379 201.842L28.077 201.282L28.693 196.424H33.719V197.656H29.771L29.421 200.4L29.477 200.414C29.953 200.031 30.5317 199.84 31.213 199.84C32.0717 199.84 32.7997 200.143 33.397 200.75C34.0037 201.357 34.307 202.108 34.307 203.004ZM44.9108 195.976V197.208H40.3468V200.386H44.4628V201.59H40.3468V204.768H44.9108V206H39.0588V195.976H44.9108ZM50.0627 197.208V206H48.7747V197.208H45.9747V195.976H52.8627V197.208H50.0627ZM55.4952 206H54.2072V195.976H55.4952V200.274H60.5072V195.976H61.7952V206H60.5072V201.478H55.4952V206Z" fill="white" fill-opacity="0.8"/>
<path d="M3.576 440.132C3.576 440.393 3.48267 440.617 3.296 440.804C3.11867 440.991 2.89467 441.084 2.624 441.084C2.36267 441.084 2.13867 440.991 1.952 440.804C1.76533 440.617 1.672 440.393 1.672 440.132C1.672 439.861 1.76533 439.637 1.952 439.46C2.13867 439.273 2.36267 439.18 2.624 439.18C2.89467 439.18 3.11867 439.273 3.296 439.46C3.48267 439.637 3.576 439.861 3.576 440.132ZM4.86991 436.212C4.86991 434.756 5.22924 433.557 5.94791 432.614C6.66657 431.671 7.59057 431.2 8.71991 431.2C9.84924 431.2 10.7732 431.676 11.4919 432.628C12.2106 433.571 12.5699 434.765 12.5699 436.212C12.5699 437.649 12.2106 438.849 11.4919 439.81C10.7732 440.753 9.84924 441.224 8.71991 441.224C7.59057 441.224 6.66657 440.753 5.94791 439.81C5.22924 438.849 4.86991 437.649 4.86991 436.212ZM11.2539 436.212C11.2539 435.111 11.0206 434.205 10.5539 433.496C10.0966 432.787 9.48524 432.432 8.71991 432.432C7.95457 432.432 7.34324 432.787 6.88591 433.496C6.41924 434.205 6.18591 435.111 6.18591 436.212C6.18591 437.313 6.41924 438.223 6.88591 438.942C7.34324 439.642 7.95457 439.992 8.71991 439.992C9.48524 439.992 10.0966 439.637 10.5539 438.928C11.0206 438.209 11.2539 437.304 11.2539 436.212ZM13.7976 436.212C13.7976 434.756 14.157 433.557 14.8756 432.614C15.5943 431.671 16.5183 431.2 17.6476 431.2C18.777 431.2 19.701 431.676 20.4196 432.628C21.1383 433.571 21.4976 434.765 21.4976 436.212C21.4976 437.649 21.1383 438.849 20.4196 439.81C19.701 440.753 18.777 441.224 17.6476 441.224C16.5183 441.224 15.5943 440.753 14.8756 439.81C14.157 438.849 13.7976 437.649 13.7976 436.212ZM20.1816 436.212C20.1816 435.111 19.9483 434.205 19.4816 433.496C19.0243 432.787 18.413 432.432 17.6476 432.432C16.8823 432.432 16.271 432.787 15.8136 433.496C15.347 434.205 15.1136 435.111 15.1136 436.212C15.1136 437.313 15.347 438.223 15.8136 438.942C16.271 439.642 16.8823 439.992 17.6476 439.992C18.413 439.992 19.0243 439.637 19.4816 438.928C19.9483 438.209 20.1816 437.304 20.1816 436.212ZM26.1727 431.424V441H24.8847V433.02L23.0227 433.832L22.5327 432.74L25.3467 431.424H26.1727ZM37.2819 430.976V432.208H32.7179V435.386H36.8339V436.59H32.7179V439.768H37.2819V441H31.4299V430.976H37.2819ZM42.4338 432.208V441H41.1458V432.208H38.3458V430.976H45.2338V432.208H42.4338ZM47.8663 441H46.5783V430.976H47.8663V435.274H52.8783V430.976H54.1663V441H52.8783V436.478H47.8663V441Z" fill="white" fill-opacity="0.8"/>
<path d="M7.664 157.768V159H1.56V157.712L4.038 155.206C4.86867 154.357 5.44267 153.722 5.76 153.302C6.07733 152.873 6.236 152.425 6.236 151.958C6.236 151.538 6.07267 151.179 5.746 150.88C5.41933 150.581 4.99933 150.432 4.486 150.432C4.04733 150.432 3.66933 150.563 3.352 150.824C3.03467 151.085 2.82933 151.403 2.736 151.776L1.56 151.3C1.74667 150.712 2.106 150.217 2.638 149.816C3.17 149.405 3.79533 149.2 4.514 149.2C5.382 149.2 6.10533 149.466 6.684 149.998C7.26267 150.53 7.552 151.183 7.552 151.958C7.552 152.882 7.04333 153.881 6.026 154.954L3.226 157.768H7.664ZM10.8494 158.132C10.8494 158.393 10.7561 158.617 10.5694 158.804C10.3921 158.991 10.1681 159.084 9.89744 159.084C9.6361 159.084 9.4121 158.991 9.22544 158.804C9.03877 158.617 8.94544 158.393 8.94544 158.132C8.94544 157.861 9.03877 157.637 9.22544 157.46C9.4121 157.273 9.6361 157.18 9.89744 157.18C10.1681 157.18 10.3921 157.273 10.5694 157.46C10.7561 157.637 10.8494 157.861 10.8494 158.132ZM15.6573 152.924C16.432 152.924 17.1227 153.232 17.7293 153.848C18.3453 154.455 18.6533 155.178 18.6533 156.018C18.6533 156.877 18.3267 157.628 17.6733 158.272C17.0107 158.907 16.2453 159.224 15.3773 159.224C14.4533 159.224 13.674 158.907 13.0393 158.272C12.4047 157.637 12.0873 156.886 12.0873 156.018C12.0873 155.243 12.4 154.361 13.0253 153.372L15.8113 149.2L16.8473 149.914L14.4813 153.19L14.5093 153.218C14.7987 153.022 15.1813 152.924 15.6573 152.924ZM13.3893 156.032C13.3893 156.583 13.5807 157.049 13.9633 157.432C14.346 157.805 14.8173 157.992 15.3773 157.992C15.9373 157.992 16.404 157.805 16.7773 157.432C17.16 157.049 17.3513 156.583 17.3513 156.032C17.3513 155.491 17.1553 155.029 16.7633 154.646C16.3807 154.263 15.9187 154.072 15.3773 154.072C14.8453 154.072 14.3787 154.263 13.9773 154.646C13.5853 155.029 13.3893 155.491 13.3893 156.032ZM26.2669 156.354C26.2669 157.175 25.9543 157.857 25.3289 158.398C24.6943 158.949 23.9243 159.224 23.0189 159.224C22.1136 159.224 21.3436 158.949 20.7089 158.398C20.0836 157.857 19.7709 157.175 19.7709 156.354C19.7709 155.85 19.9063 155.393 20.1769 154.982C20.4476 154.562 20.8349 154.231 21.3389 153.988V153.932C20.9656 153.689 20.6623 153.391 20.4289 153.036C20.2049 152.681 20.0929 152.308 20.0929 151.916C20.0929 151.141 20.3683 150.493 20.9189 149.97C21.4603 149.457 22.1603 149.2 23.0189 149.2C23.8776 149.2 24.5776 149.457 25.1189 149.97C25.6696 150.493 25.9449 151.141 25.9449 151.916C25.9449 152.308 25.8283 152.681 25.5949 153.036C25.3709 153.391 25.0723 153.689 24.6989 153.932V153.988C25.2029 154.231 25.5903 154.562 25.8609 154.982C26.1316 155.393 26.2669 155.85 26.2669 156.354ZM21.4089 151.888C21.4089 152.336 21.5583 152.7 21.8569 152.98C22.1556 153.251 22.5429 153.386 23.0189 153.386C23.4949 153.386 23.8823 153.251 24.1809 152.98C24.4796 152.7 24.6289 152.336 24.6289 151.888C24.6289 151.44 24.4796 151.085 24.1809 150.824C23.8823 150.563 23.4949 150.432 23.0189 150.432C22.5429 150.432 22.1556 150.563 21.8569 150.824C21.5583 151.085 21.4089 151.44 21.4089 151.888ZM21.0869 156.284C21.0869 156.536 21.1336 156.765 21.2269 156.97C21.3296 157.175 21.4649 157.357 21.6329 157.516C21.8103 157.665 22.0156 157.782 22.2489 157.866C22.4823 157.95 22.7389 157.992 23.0189 157.992C23.2989 157.992 23.5556 157.95 23.7889 157.866C24.0223 157.782 24.2229 157.665 24.3909 157.516C24.5683 157.357 24.7036 157.175 24.7969 156.97C24.8996 156.765 24.9509 156.536 24.9509 156.284C24.9509 155.799 24.7643 155.397 24.3909 155.08C24.0176 154.753 23.5603 154.59 23.0189 154.59C22.4776 154.59 22.0156 154.753 21.6329 155.08C21.2689 155.407 21.0869 155.808 21.0869 156.284ZM33.2242 156.984V159H31.9362V156.984H27.3862V156.004L31.8242 149.424H33.2242V155.78H34.4562V156.984H33.2242ZM28.8422 155.78H31.9362V151.314H31.8802L28.8422 155.78ZM45.0065 148.976V150.208H40.4425V153.386H44.5585V154.59H40.4425V157.768H45.0065V159H39.1545V148.976H45.0065ZM50.1584 150.208V159H48.8704V150.208H46.0704V148.976H52.9584V150.208H50.1584ZM55.5909 159H54.3029V148.976H55.5909V153.274H60.6029V148.976H61.8909V159H60.6029V154.478H55.5909V159Z" fill="white" fill-opacity="0.8"/>
<path d="M3.576 393.132C3.576 393.393 3.48267 393.617 3.296 393.804C3.11867 393.991 2.89467 394.084 2.624 394.084C2.36267 394.084 2.13867 393.991 1.952 393.804C1.76533 393.617 1.672 393.393 1.672 393.132C1.672 392.861 1.76533 392.637 1.952 392.46C2.13867 392.273 2.36267 392.18 2.624 392.18C2.89467 392.18 3.11867 392.273 3.296 392.46C3.48267 392.637 3.576 392.861 3.576 393.132ZM10.9179 392.768V394H4.81391V392.712L7.29191 390.206C8.12257 389.357 8.69657 388.722 9.01391 388.302C9.33124 387.873 9.48991 387.425 9.48991 386.958C9.48991 386.538 9.32657 386.179 8.99991 385.88C8.67324 385.581 8.25324 385.432 7.73991 385.432C7.30124 385.432 6.92324 385.563 6.60591 385.824C6.28857 386.085 6.08324 386.403 5.98991 386.776L4.81391 386.3C5.00057 385.712 5.35991 385.217 5.89191 384.816C6.42391 384.405 7.04924 384.2 7.76791 384.2C8.63591 384.2 9.35924 384.466 9.93791 384.998C10.5166 385.53 10.8059 386.183 10.8059 386.958C10.8059 387.882 10.2972 388.881 9.27991 389.954L6.47991 392.768H10.9179ZM12.1433 389.212C12.1433 387.756 12.5027 386.557 13.2213 385.614C13.94 384.671 14.864 384.2 15.9933 384.2C17.1227 384.2 18.0467 384.676 18.7653 385.628C19.484 386.571 19.8433 387.765 19.8433 389.212C19.8433 390.649 19.484 391.849 18.7653 392.81C18.0467 393.753 17.1227 394.224 15.9933 394.224C14.864 394.224 13.94 393.753 13.2213 392.81C12.5027 391.849 12.1433 390.649 12.1433 389.212ZM18.5273 389.212C18.5273 388.111 18.294 387.205 17.8273 386.496C17.37 385.787 16.7587 385.432 15.9933 385.432C15.228 385.432 14.6167 385.787 14.1593 386.496C13.6927 387.205 13.4593 388.111 13.4593 389.212C13.4593 390.313 13.6927 391.223 14.1593 391.942C14.6167 392.642 15.228 392.992 15.9933 392.992C16.7587 392.992 17.37 392.637 17.8273 391.928C18.294 391.209 18.5273 390.304 18.5273 389.212ZM24.5851 387.924C25.3597 387.924 26.0504 388.232 26.6571 388.848C27.2731 389.455 27.5811 390.178 27.5811 391.018C27.5811 391.877 27.2544 392.628 26.6011 393.272C25.9384 393.907 25.1731 394.224 24.3051 394.224C23.3811 394.224 22.6017 393.907 21.9671 393.272C21.3324 392.637 21.0151 391.886 21.0151 391.018C21.0151 390.243 21.3277 389.361 21.9531 388.372L24.7391 384.2L25.7751 384.914L23.4091 388.19L23.4371 388.218C23.7264 388.022 24.1091 387.924 24.5851 387.924ZM22.3171 391.032C22.3171 391.583 22.5084 392.049 22.8911 392.432C23.2737 392.805 23.7451 392.992 24.3051 392.992C24.8651 392.992 25.3317 392.805 25.7051 392.432C26.0877 392.049 26.2791 391.583 26.2791 391.032C26.2791 390.491 26.0831 390.029 25.6911 389.646C25.3084 389.263 24.8464 389.072 24.3051 389.072C23.7731 389.072 23.3064 389.263 22.9051 389.646C22.5131 390.029 22.3171 390.491 22.3171 391.032ZM38.0748 383.976V385.208H33.5108V388.386H37.6268V389.59H33.5108V392.768H38.0748V394H32.2228V383.976H38.0748ZM43.2267 385.208V394H41.9387V385.208H39.1387V383.976H46.0267V385.208H43.2267ZM48.6593 394H47.3713V383.976H48.6593V388.274H53.6713V383.976H54.9593V394H53.6713V389.478H48.6593V394Z" fill="white" fill-opacity="0.8"/>
<path d="M7.874 109.284C7.874 110.124 7.56133 110.824 6.936 111.384C6.32 111.944 5.55467 112.224 4.64 112.224C3.92133 112.224 3.27267 112.009 2.694 111.58C2.106 111.132 1.70933 110.549 1.504 109.83L2.68 109.34C2.82933 109.872 3.072 110.283 3.408 110.572C3.75333 110.852 4.164 110.992 4.64 110.992C5.16267 110.992 5.61533 110.829 5.998 110.502C6.37133 110.166 6.558 109.76 6.558 109.284C6.558 108.808 6.362 108.407 5.97 108.08C5.58733 107.753 5.12533 107.59 4.584 107.59H3.758V106.386H4.486C4.99933 106.386 5.41933 106.246 5.746 105.966C6.07267 105.677 6.236 105.303 6.236 104.846C6.236 104.426 6.082 104.085 5.774 103.824C5.466 103.563 5.06 103.432 4.556 103.432C3.744 103.432 3.18867 103.847 2.89 104.678L1.7 104.174C1.91467 103.586 2.274 103.11 2.778 102.746C3.282 102.382 3.87467 102.2 4.556 102.2C5.40533 102.2 6.11933 102.452 6.698 102.956C7.26733 103.441 7.552 104.071 7.552 104.846C7.552 105.77 7.12267 106.456 6.264 106.904V106.96C6.768 107.175 7.16 107.487 7.44 107.898C7.72933 108.309 7.874 108.771 7.874 109.284ZM10.8768 111.132C10.8768 111.393 10.7834 111.617 10.5968 111.804C10.4194 111.991 10.1954 112.084 9.92478 112.084C9.66345 112.084 9.43945 111.991 9.25278 111.804C9.06611 111.617 8.97278 111.393 8.97278 111.132C8.97278 110.861 9.06611 110.637 9.25278 110.46C9.43945 110.273 9.66345 110.18 9.92478 110.18C10.1954 110.18 10.4194 110.273 10.5968 110.46C10.7834 110.637 10.8768 110.861 10.8768 111.132ZM15.1941 102.424V112H13.9061V104.02L12.0441 104.832L11.5541 103.74L14.3681 102.424H15.1941ZM23.1679 110.768V112H17.0639V110.712L19.5419 108.206C20.3726 107.357 20.9466 106.722 21.2639 106.302C21.5812 105.873 21.7399 105.425 21.7399 104.958C21.7399 104.538 21.5766 104.179 21.2499 103.88C20.9232 103.581 20.5032 103.432 19.9899 103.432C19.5512 103.432 19.1732 103.563 18.8559 103.824C18.5386 104.085 18.3332 104.403 18.2399 104.776L17.0639 104.3C17.2506 103.712 17.6099 103.217 18.1419 102.816C18.6739 102.405 19.2992 102.2 20.0179 102.2C20.8859 102.2 21.6092 102.466 22.1879 102.998C22.7666 103.53 23.0559 104.183 23.0559 104.958C23.0559 105.882 22.5472 106.881 21.5299 107.954L18.7299 110.768H23.1679ZM30.6513 109.284C30.6513 110.124 30.3387 110.824 29.7133 111.384C29.0973 111.944 28.332 112.224 27.4173 112.224C26.6987 112.224 26.05 112.009 25.4713 111.58C24.8833 111.132 24.4867 110.549 24.2813 109.83L25.4573 109.34C25.6067 109.872 25.8493 110.283 26.1853 110.572C26.5307 110.852 26.9413 110.992 27.4173 110.992C27.94 110.992 28.3927 110.829 28.7753 110.502C29.1487 110.166 29.3353 109.76 29.3353 109.284C29.3353 108.808 29.1393 108.407 28.7473 108.08C28.3647 107.753 27.9027 107.59 27.3613 107.59H26.5353V106.386H27.2633C27.7767 106.386 28.1967 106.246 28.5233 105.966C28.85 105.677 29.0133 105.303 29.0133 104.846C29.0133 104.426 28.8593 104.085 28.5513 103.824C28.2433 103.563 27.8373 103.432 27.3333 103.432C26.5213 103.432 25.966 103.847 25.6673 104.678L24.4773 104.174C24.692 103.586 25.0513 103.11 25.5553 102.746C26.0593 102.382 26.652 102.2 27.3333 102.2C28.1827 102.2 28.8967 102.452 29.4753 102.956C30.0447 103.441 30.3293 104.071 30.3293 104.846C30.3293 105.77 29.9 106.456 29.0413 106.904V106.96C29.5453 107.175 29.9373 107.487 30.2173 107.898C30.5067 108.309 30.6513 108.771 30.6513 109.284ZM41.151 101.976V103.208H36.587V106.386H40.703V107.59H36.587V110.768H41.151V112H35.299V101.976H41.151ZM46.3029 103.208V112H45.0149V103.208H42.2149V101.976H49.1029V103.208H46.3029ZM51.7355 112H50.4475V101.976H51.7355V106.274H56.7475V101.976H58.0355V112H56.7475V107.478H51.7355V112Z" fill="white" fill-opacity="0.8"/>
<path d="M3.576 346.132C3.576 346.393 3.48267 346.617 3.296 346.804C3.11867 346.991 2.89467 347.084 2.624 347.084C2.36267 347.084 2.13867 346.991 1.952 346.804C1.76533 346.617 1.672 346.393 1.672 346.132C1.672 345.861 1.76533 345.637 1.952 345.46C2.13867 345.273 2.36267 345.18 2.624 345.18C2.89467 345.18 3.11867 345.273 3.296 345.46C3.48267 345.637 3.576 345.861 3.576 346.132ZM11.3519 344.004C11.3519 344.919 11.0346 345.684 10.3999 346.3C9.76524 346.916 8.98124 347.224 8.04791 347.224C7.30124 347.224 6.62457 346.991 6.01791 346.524C5.41124 346.057 5.00991 345.427 4.81391 344.634L5.96191 344.172C6.10191 344.732 6.35391 345.175 6.71791 345.502C7.09124 345.829 7.52524 345.992 8.01991 345.992C8.61724 345.992 9.10257 345.81 9.47591 345.446C9.85857 345.073 10.0499 344.597 10.0499 344.018C10.0499 343.43 9.85857 342.949 9.47591 342.576C9.10257 342.203 8.62191 342.016 8.03391 342.016C7.35257 342.016 6.81591 342.291 6.42391 342.842L5.12191 342.282L5.73791 337.424H10.7639V338.656H6.81591L6.46591 341.4L6.52191 341.414C6.99791 341.031 7.57657 340.84 8.25791 340.84C9.11657 340.84 9.84457 341.143 10.4419 341.75C11.0486 342.357 11.3519 343.108 11.3519 344.004ZM16.1495 340.924C16.9242 340.924 17.6149 341.232 18.2215 341.848C18.8375 342.455 19.1455 343.178 19.1455 344.018C19.1455 344.877 18.8189 345.628 18.1655 346.272C17.5029 346.907 16.7375 347.224 15.8695 347.224C14.9455 347.224 14.1662 346.907 13.5315 346.272C12.8969 345.637 12.5795 344.886 12.5795 344.018C12.5795 343.243 12.8922 342.361 13.5175 341.372L16.3035 337.2L17.3395 337.914L14.9735 341.19L15.0015 341.218C15.2909 341.022 15.6735 340.924 16.1495 340.924ZM13.8815 344.032C13.8815 344.583 14.0729 345.049 14.4555 345.432C14.8382 345.805 15.3095 345.992 15.8695 345.992C16.4295 345.992 16.8962 345.805 17.2695 345.432C17.6522 345.049 17.8435 344.583 17.8435 344.032C17.8435 343.491 17.6475 343.029 17.2555 342.646C16.8729 342.263 16.4109 342.072 15.8695 342.072C15.3375 342.072 14.8709 342.263 14.4695 342.646C14.0775 343.029 13.8815 343.491 13.8815 344.032ZM26.1011 344.984V347H24.8131V344.984H20.2631V344.004L24.7011 337.424H26.1011V343.78H27.3331V344.984H26.1011ZM21.7191 343.78H24.8131V339.314H24.7571L21.7191 343.78ZM37.8834 336.976V338.208H33.3194V341.386H37.4354V342.59H33.3194V345.768H37.8834V347H32.0314V336.976H37.8834ZM43.0353 338.208V347H41.7473V338.208H38.9473V336.976H45.8353V338.208H43.0353ZM48.4679 347H47.1799V336.976H48.4679V341.274H53.4799V336.976H54.7679V347H53.4799V342.478H48.4679V347Z" fill="white" fill-opacity="0.8"/>
<path d="M6.874 62.284C6.874 63.124 6.56133 63.824 5.936 64.384C5.32 64.944 4.55467 65.224 3.64 65.224C2.92133 65.224 2.27267 65.0093 1.694 64.58C1.106 64.132 0.709333 63.5487 0.504 62.83L1.68 62.34C1.82933 62.872 2.072 63.2827 2.408 63.572C2.75333 63.852 3.164 63.992 3.64 63.992C4.16267 63.992 4.61533 63.8287 4.998 63.502C5.37133 63.166 5.558 62.76 5.558 62.284C5.558 61.808 5.362 61.4067 4.97 61.08C4.58733 60.7533 4.12533 60.59 3.584 60.59H2.758V59.386H3.486C3.99933 59.386 4.41933 59.246 4.746 58.966C5.07267 58.6767 5.236 58.3033 5.236 57.846C5.236 57.426 5.082 57.0853 4.774 56.824C4.466 56.5627 4.06 56.432 3.556 56.432C2.744 56.432 2.18867 56.8473 1.89 57.678L0.7 57.174C0.914667 56.586 1.274 56.11 1.778 55.746C2.282 55.382 2.87467 55.2 3.556 55.2C4.40533 55.2 5.11933 55.452 5.698 55.956C6.26733 56.4413 6.552 57.0713 6.552 57.846C6.552 58.77 6.12267 59.456 5.264 59.904V59.96C5.768 60.1747 6.16 60.4873 6.44 60.898C6.72933 61.3087 6.874 61.7707 6.874 62.284ZM9.87678 64.132C9.87678 64.3933 9.78345 64.6173 9.59678 64.804C9.41945 64.9907 9.19545 65.084 8.92478 65.084C8.66345 65.084 8.43945 64.9907 8.25278 64.804C8.06611 64.6173 7.97278 64.3933 7.97278 64.132C7.97278 63.8613 8.06611 63.6373 8.25278 63.46C8.43945 63.2733 8.66345 63.18 8.92478 63.18C9.19545 63.18 9.41945 63.2733 9.59678 63.46C9.78345 63.6373 9.87678 63.8613 9.87678 64.132ZM14.6847 58.924C15.4594 58.924 16.15 59.232 16.7567 59.848C17.3727 60.4547 17.6807 61.178 17.6807 62.018C17.6807 62.8767 17.354 63.628 16.7007 64.272C16.038 64.9067 15.2727 65.224 14.4047 65.224C13.4807 65.224 12.7014 64.9067 12.0667 64.272C11.432 63.6373 11.1147 62.886 11.1147 62.018C11.1147 61.2433 11.4274 60.3613 12.0527 59.372L14.8387 55.2L15.8747 55.914L13.5087 59.19L13.5367 59.218C13.826 59.022 14.2087 58.924 14.6847 58.924ZM12.4167 62.032C12.4167 62.5827 12.608 63.0493 12.9907 63.432C13.3734 63.8053 13.8447 63.992 14.4047 63.992C14.9647 63.992 15.4314 63.8053 15.8047 63.432C16.1874 63.0493 16.3787 62.5827 16.3787 62.032C16.3787 61.4907 16.1827 61.0287 15.7907 60.646C15.408 60.2633 14.946 60.072 14.4047 60.072C13.8727 60.072 13.406 60.2633 13.0047 60.646C12.6127 61.0287 12.4167 61.4907 12.4167 62.032ZM24.8636 56.74L20.2156 65.224L19.0676 64.636L23.5056 56.656H18.6616L18.6896 55.424H24.8636V56.74ZM30.8433 62.984V65H29.5553V62.984H25.0053V62.004L29.4433 55.424H30.8433V61.78H32.0753V62.984H30.8433ZM26.4613 61.78H29.5553V57.314H29.4993L26.4613 61.78ZM42.6256 54.976V56.208H38.0616V59.386H42.1776V60.59H38.0616V63.768H42.6256V65H36.7736V54.976H42.6256ZM47.7775 56.208V65H46.4895V56.208H43.6895V54.976H50.5775V56.208H47.7775ZM53.2101 65H51.9221V54.976H53.2101V59.274H58.2221V54.976H59.5101V65H58.2221V60.478H53.2101V65Z" fill="white" fill-opacity="0.8"/>
<path d="M6.398 15.984V18H5.11V15.984H0.56V15.004L4.998 8.424H6.398V14.78H7.63V15.984H6.398ZM2.016 14.78H5.11V10.314H5.054L2.016 14.78ZM10.8201 17.132C10.8201 17.3933 10.7268 17.6173 10.5401 17.804C10.3628 17.9907 10.1388 18.084 9.86814 18.084C9.60681 18.084 9.38281 17.9907 9.19614 17.804C9.00947 17.6173 8.91614 17.3933 8.91614 17.132C8.91614 16.8613 9.00947 16.6373 9.19614 16.46C9.38281 16.2733 9.60681 16.18 9.86814 16.18C10.1388 16.18 10.3628 16.2733 10.5401 16.46C10.7268 16.6373 10.8201 16.8613 10.8201 17.132ZM15.1375 8.424V18H13.8495V10.02L11.9875 10.832L11.4975 9.74L14.3115 8.424H15.1375ZM20.5089 11.924C21.2836 11.924 21.9742 12.232 22.5809 12.848C23.1969 13.4547 23.5049 14.178 23.5049 15.018C23.5049 15.8767 23.1782 16.628 22.5249 17.272C21.8622 17.9067 21.0969 18.224 20.2289 18.224C19.3049 18.224 18.5256 17.9067 17.8909 17.272C17.2562 16.6373 16.9389 15.886 16.9389 15.018C16.9389 14.2433 17.2516 13.3613 17.8769 12.372L20.6629 8.2L21.6989 8.914L19.3329 12.19L19.3609 12.218C19.6502 12.022 20.0329 11.924 20.5089 11.924ZM18.2409 15.032C18.2409 15.5827 18.4322 16.0493 18.8149 16.432C19.1976 16.8053 19.6689 16.992 20.2289 16.992C20.7889 16.992 21.2556 16.8053 21.6289 16.432C22.0116 16.0493 22.2029 15.5827 22.2029 15.032C22.2029 14.4907 22.0069 14.0287 21.6149 13.646C21.2322 13.2633 20.7702 13.072 20.2289 13.072C19.6969 13.072 19.2302 13.2633 18.8289 13.646C18.4369 14.0287 18.2409 14.4907 18.2409 15.032ZM30.7265 16.768V18H24.6225V16.712L27.1005 14.206C27.9312 13.3567 28.5052 12.722 28.8225 12.302C29.1398 11.8727 29.2985 11.4247 29.2985 10.958C29.2985 10.538 29.1352 10.1787 28.8085 9.88C28.4818 9.58133 28.0618 9.432 27.5485 9.432C27.1098 9.432 26.7318 9.56267 26.4145 9.824C26.0972 10.0853 25.8918 10.4027 25.7985 10.776L24.6225 10.3C24.8092 9.712 25.1685 9.21733 25.7005 8.816C26.2325 8.40533 26.8578 8.2 27.5765 8.2C28.4445 8.2 29.1678 8.466 29.7465 8.998C30.3252 9.53 30.6145 10.1833 30.6145 10.958C30.6145 11.882 30.1058 12.8807 29.0885 13.954L26.2885 16.768H30.7265ZM41.2721 7.976V9.208H36.7081V12.386H40.8241V13.59H36.7081V16.768H41.2721V18H35.4201V7.976H41.2721ZM46.424 9.208V18H45.136V9.208H42.336V7.976H49.224V9.208H46.424ZM51.8565 18H50.5685V7.976H51.8565V12.274H56.8685V7.976H58.1565V18H56.8685V13.478H51.8565V18Z" fill="white" fill-opacity="0.8"/>
<path d="M4.2 290.424V300H2.912V292.02L1.05 292.832L0.56 291.74L3.374 290.424H4.2ZM7.94905 299.132C7.94905 299.393 7.85571 299.617 7.66905 299.804C7.49171 299.991 7.26771 300.084 6.99705 300.084C6.73571 300.084 6.51171 299.991 6.32505 299.804C6.13838 299.617 6.04505 299.393 6.04505 299.132C6.04505 298.861 6.13838 298.637 6.32505 298.46C6.51171 298.273 6.73571 298.18 6.99705 298.18C7.26771 298.18 7.49171 298.273 7.66905 298.46C7.85571 298.637 7.94905 298.861 7.94905 299.132ZM15.291 298.768V300H9.18695V298.712L11.665 296.206C12.4956 295.357 13.0696 294.722 13.387 294.302C13.7043 293.873 13.863 293.425 13.863 292.958C13.863 292.538 13.6996 292.179 13.373 291.88C13.0463 291.581 12.6263 291.432 12.113 291.432C11.6743 291.432 11.2963 291.563 10.979 291.824C10.6616 292.085 10.4563 292.403 10.363 292.776L9.18695 292.3C9.37362 291.712 9.73295 291.217 10.265 290.816C10.797 290.405 11.4223 290.2 12.141 290.2C13.009 290.2 13.7323 290.466 14.311 290.998C14.8896 291.53 15.179 292.183 15.179 292.958C15.179 293.882 14.6703 294.881 13.653 295.954L10.853 298.768H15.291ZM22.2984 297.984V300H21.0104V297.984H16.4604V297.004L20.8984 290.424H22.2984V296.78H23.5304V297.984H22.2984ZM17.9164 296.78H21.0104V292.314H20.9544L17.9164 296.78ZM30.8085 298.768V300H24.7045V298.712L27.1825 296.206C28.0132 295.357 28.5872 294.722 28.9045 294.302C29.2219 293.873 29.3805 293.425 29.3805 292.958C29.3805 292.538 29.2172 292.179 28.8905 291.88C28.5639 291.581 28.1439 291.432 27.6305 291.432C27.1919 291.432 26.8139 291.563 26.4965 291.824C26.1792 292.085 25.9739 292.403 25.8805 292.776L24.7045 292.3C24.8912 291.712 25.2505 291.217 25.7825 290.816C26.3145 290.405 26.9399 290.2 27.6585 290.2C28.5265 290.2 29.2499 290.466 29.8285 290.998C30.4072 291.53 30.6965 292.183 30.6965 292.958C30.6965 293.882 30.1879 294.881 29.1705 295.954L26.3705 298.768H30.8085ZM41.3541 289.976V291.208H36.7901V294.386H40.9061V295.59H36.7901V298.768H41.3541V300H35.5021V289.976H41.3541ZM46.506 291.208V300H45.218V291.208H42.418V289.976H49.306V291.208H46.506ZM51.9386 300H50.6506V289.976H51.9386V294.274H56.9506V289.976H58.2386V300H56.9506V295.478H51.9386V300Z" fill="white" fill-opacity="0.8"/>
<line x1="70" y1="13.5" x2="1116" y2="13.5" stroke="#00E86D" stroke-opacity="0.2"/>
<line x1="70" y1="60.5" x2="1116" y2="60.5" stroke="#00E86D" stroke-opacity="0.2"/>
<line x1="70" y1="107.5" x2="1116" y2="107.5" stroke="#00E86D" stroke-opacity="0.2"/>
<line x1="70" y1="155.5" x2="1116" y2="155.5" stroke="#00E86D" stroke-opacity="0.2"/>
<line x1="70" y1="202.5" x2="1116" y2="202.5" stroke="#00E86D" stroke-opacity="0.2"/>
<line x1="70" y1="248.5" x2="1116" y2="248.5" stroke="#00E86D" stroke-opacity="0.2"/>
<line x1="70" y1="296.5" x2="1116" y2="296.5" stroke="#00E86D" stroke-opacity="0.2"/>
<line x1="70" y1="343.5" x2="1116" y2="343.5" stroke="#00E86D" stroke-opacity="0.2"/>
<line x1="70" y1="390.5" x2="1116" y2="390.5" stroke="#00E86D" stroke-opacity="0.2"/>
<line x1="70" y1="435.5" x2="1116" y2="435.5" stroke="#00E86D" stroke-opacity="0.2"/>
<line x1="78.5" y1="449" x2="78.5" y2="6" stroke="#00E86D" stroke-opacity="0.2"/>
<line x1="145.5" y1="449" x2="145.5" y2="6" stroke="#00E86D" stroke-opacity="0.2"/>
<line x1="214.5" y1="449" x2="214.5" y2="6" stroke="black" stroke-opacity="0.1"/>
<line x1="284.5" y1="449" x2="284.5" y2="6" stroke="#00E86D" stroke-opacity="0.2"/>
<line x1="354.5" y1="449" x2="354.5" y2="6" stroke="#00E86D" stroke-opacity="0.2"/>
<line x1="424.5" y1="449" x2="424.5" y2="6" stroke="#00E86D" stroke-opacity="0.2"/>
<line x1="494.5" y1="449" x2="494.5" y2="6" stroke="#00E86D" stroke-opacity="0.2"/>
<line x1="564.5" y1="449" x2="564.5" y2="6" stroke="#00E86D" stroke-opacity="0.2"/>
<line x1="634.5" y1="449" x2="634.5" y2="6" stroke="#00E86D" stroke-opacity="0.2"/>
<line x1="708.5" y1="449" x2="708.5" y2="6" stroke="#00E86D" stroke-opacity="0.2"/>
<line x1="783.5" y1="449" x2="783.5" y2="6" stroke="#00E86D" stroke-opacity="0.2"/>
<line x1="857.5" y1="449" x2="857.5" y2="6" stroke="#00E86D" stroke-opacity="0.2"/>
<line x1="932.5" y1="449" x2="932.5" y2="6" stroke="#00E86D" stroke-opacity="0.2"/>
<line x1="1013.5" y1="449" x2="1013.5" y2="6" stroke="#00E86D" stroke-opacity="0.2"/>
<line x1="1083.5" y1="449" x2="1083.5" y2="6" stroke="#00E86D" stroke-opacity="0.2"/>
<path d="M78.1485 437.244C77.7308 438.266 78.2211 439.434 79.2436 439.851C80.2661 440.269 81.4337 439.779 81.8515 438.756L78.1485 437.244ZM214 110L215.941 109.518L214.465 103.573L212.149 109.244L214 110ZM284 392L282.059 392.482L283.066 396.538L285.593 393.21L284 392ZM426 205L427.791 204.111L426.358 201.222L424.407 203.79L426 205ZM495 344L493.209 344.889L494.437 347.364L496.404 345.424L495 344ZM782 61L783.908 60.4016L782.928 57.2759L780.596 59.5759L782 61ZM856 297L854.092 297.598L854.868 300.073L857.064 298.694L856 297ZM934 248L935.748 247.029L934.723 245.184L932.936 246.306L934 248ZM1014 392L1012.25 392.971L1014.82 397.587L1015.95 392.431L1014 392ZM1088.95 61.4307L1089.38 59.4777L1085.48 58.6162L1085.05 60.5693L1088.95 61.4307ZM81.8515 438.756L215.851 110.756L212.149 109.244L78.1485 437.244L81.8515 438.756ZM212.059 110.482L282.059 392.482L285.941 391.518L215.941 109.518L212.059 110.482ZM285.593 393.21L427.593 206.21L424.407 203.79L282.407 390.79L285.593 393.21ZM424.209 205.889L493.209 344.889L496.791 343.111L427.791 204.111L424.209 205.889ZM496.404 345.424L783.404 62.4241L780.596 59.5759L493.596 342.576L496.404 345.424ZM780.092 61.5984L854.092 297.598L857.908 296.402L783.908 60.4016L780.092 61.5984ZM857.064 298.694L935.064 249.694L932.936 246.306L854.936 295.306L857.064 298.694ZM932.252 248.971L1012.25 392.971L1015.75 391.029L935.748 247.029L932.252 248.971ZM1015.95 392.431L1088.95 61.4307L1085.05 60.5693L1012.05 391.569L1015.95 392.431Z" fill="#27AE60"/>
<path opacity="0.6" d="M215.5 110.5L80 440.5H1089V62L1015 391L935.5 249L857.5 297.5L783 62L496.5 345L427 206.5L286 392.5L215.5 110.5Z" fill="url(#paint0_linear_35_68858)" fill-opacity="0.3" stroke="#27AE60" stroke-width="4" stroke-linecap="square"/>
<circle cx="80" cy="437" r="7" fill="white"/>
<circle cx="214" cy="109" r="7" fill="white"/>
<circle cx="285" cy="392" r="7" fill="white"/>
<circle cx="425" cy="204" r="7" fill="white"/>
<circle cx="495" cy="344" r="7" fill="white"/>
<circle cx="781" cy="62" r="7" fill="white"/>
<circle cx="858" cy="296" r="7" fill="white"/>
<circle cx="934" cy="250" r="7" fill="white"/>
<circle cx="1016" cy="393" r="7" fill="white"/>
<circle cx="1089" cy="61" r="7" fill="white"/>
<g filter="url(#filter0_d_35_68858)">
<rect x="185" y="73" width="60" height="25" rx="4" fill="#111827"/>
</g>
<path d="M198.91 87.06C198.91 87.66 198.687 88.16 198.24 88.56C197.8 88.96 197.253 89.16 196.6 89.16C196.087 89.16 195.623 89.0067 195.21 88.7C194.79 88.38 194.507 87.9633 194.36 87.45L195.2 87.1C195.307 87.48 195.48 87.7733 195.72 87.98C195.967 88.18 196.26 88.28 196.6 88.28C196.973 88.28 197.297 88.1633 197.57 87.93C197.837 87.69 197.97 87.4 197.97 87.06C197.97 86.72 197.83 86.4333 197.55 86.2C197.277 85.9667 196.947 85.85 196.56 85.85H195.97V84.99H196.49C196.857 84.99 197.157 84.89 197.39 84.69C197.623 84.4833 197.74 84.2167 197.74 83.89C197.74 83.59 197.63 83.3467 197.41 83.16C197.19 82.9733 196.9 82.88 196.54 82.88C195.96 82.88 195.563 83.1767 195.35 83.77L194.5 83.41C194.653 82.99 194.91 82.65 195.27 82.39C195.63 82.13 196.053 82 196.54 82C197.147 82 197.657 82.18 198.07 82.54C198.477 82.8867 198.68 83.3367 198.68 83.89C198.68 84.55 198.373 85.04 197.76 85.36V85.4C198.12 85.5533 198.4 85.7767 198.6 86.07C198.807 86.3633 198.91 86.6933 198.91 87.06ZM201.055 88.38C201.055 88.5667 200.988 88.7267 200.855 88.86C200.728 88.9933 200.568 89.06 200.375 89.06C200.188 89.06 200.028 88.9933 199.895 88.86C199.762 88.7267 199.695 88.5667 199.695 88.38C199.695 88.1867 199.762 88.0267 199.895 87.9C200.028 87.7667 200.188 87.7 200.375 87.7C200.568 87.7 200.728 87.7667 200.855 87.9C200.988 88.0267 201.055 88.1867 201.055 88.38ZM204.139 82.16V89H203.219V83.3L201.889 83.88L201.539 83.1L203.549 82.16H204.139ZM209.834 88.12V89H205.474V88.08L207.244 86.29C207.838 85.6833 208.248 85.23 208.474 84.93C208.701 84.6233 208.814 84.3033 208.814 83.97C208.814 83.67 208.698 83.4133 208.464 83.2C208.231 82.9867 207.931 82.88 207.564 82.88C207.251 82.88 206.981 82.9733 206.754 83.16C206.528 83.3467 206.381 83.5733 206.314 83.84L205.474 83.5C205.608 83.08 205.864 82.7267 206.244 82.44C206.624 82.1467 207.071 82 207.584 82C208.204 82 208.721 82.19 209.134 82.57C209.548 82.95 209.754 83.4167 209.754 83.97C209.754 84.63 209.391 85.3433 208.664 86.11L206.664 88.12H209.834ZM215.18 87.06C215.18 87.66 214.956 88.16 214.51 88.56C214.07 88.96 213.523 89.16 212.87 89.16C212.356 89.16 211.893 89.0067 211.48 88.7C211.06 88.38 210.776 87.9633 210.63 87.45L211.47 87.1C211.576 87.48 211.75 87.7733 211.99 87.98C212.236 88.18 212.53 88.28 212.87 88.28C213.243 88.28 213.566 88.1633 213.84 87.93C214.106 87.69 214.24 87.4 214.24 87.06C214.24 86.72 214.1 86.4333 213.82 86.2C213.546 85.9667 213.216 85.85 212.83 85.85H212.24V84.99H212.76C213.126 84.99 213.426 84.89 213.66 84.69C213.893 84.4833 214.01 84.2167 214.01 83.89C214.01 83.59 213.9 83.3467 213.68 83.16C213.46 82.9733 213.17 82.88 212.81 82.88C212.23 82.88 211.833 83.1767 211.62 83.77L210.77 83.41C210.923 82.99 211.18 82.65 211.54 82.39C211.9 82.13 212.323 82 212.81 82C213.416 82 213.926 82.18 214.34 82.54C214.746 82.8867 214.95 83.3367 214.95 83.89C214.95 84.55 214.643 85.04 214.03 85.36V85.4C214.39 85.5533 214.67 85.7767 214.87 86.07C215.076 86.3633 215.18 86.6933 215.18 87.06ZM222.679 81.84V82.72H219.419V84.99H222.359V85.85H219.419V88.12H222.679V89H218.499V81.84H222.679ZM226.359 82.72V89H225.439V82.72H223.439V81.84H228.359V82.72H226.359ZM230.24 89H229.32V81.84H230.24V84.91H233.82V81.84H234.74V89H233.82V85.77H230.24V89Z" fill="white"/>
<defs>
<filter id="filter0_d_35_68858" x="148" y="40" width="134" height="99" filterUnits="userSpaceOnUse" color-interpolation-filters="sRGB">
<feFlood flood-opacity="0" result="BackgroundImageFix"/>
<feColorMatrix in="SourceAlpha" type="matrix" values="0 0 0 0 0 0 0 0 0 0 0 0 0 0 0 0 0 0 127 0" result="hardAlpha"/>
<feOffset dy="4"/>
<feGaussianBlur stdDeviation="18.5"/>
<feComposite in2="hardAlpha" operator="out"/>
<feColorMatrix type="matrix" values="0 0 0 0 0 0 0 0 0 0 0 0 0 0 0 0 0 0 0.16 0"/>
<feBlend mode="normal" in2="BackgroundImageFix" result="effect1_dropShadow_35_68858"/>
<feBlend mode="normal" in="SourceGraphic" in2="effect1_dropShadow_35_68858" result="shape"/>
</filter>
<linearGradient id="paint0_linear_35_68858" x1="584.5" y1="62" x2="584.5" y2="440.5" gradientUnits="userSpaceOnUse">
<stop stop-color="#00E86D"/>
<stop offset="0.875" stop-color="#02C65E" stop-opacity="0.1"/>
</linearGradient>
</defs>
</svg>
