<svg width="273" height="240" viewBox="0 0 273 240" fill="none" xmlns="http://www.w3.org/2000/svg">
<path opacity="0.25" d="M13.6399 80.2074L1 92.2926V230.6C1 235.614 6.05597 238.956 8.58395 240L266.944 237.762L272 230.6V52.4563L263.91 60.9607L258.854 62.7511L255.821 60.9607L252.787 55.1419L247.731 47.9803H244.698L241.664 52.4563L238.125 62.7511L235.597 72.1507L231.552 74.8362L226.496 73.4935L223.463 70.3603L220.935 68.5699H217.901L214.362 72.1507L207.284 76.6266L204.25 72.1507L198.688 62.7511L195.149 56.4847H192.116L189.082 59.6179L183.015 64.0939L178.97 62.7511L174.925 56.4847L170.375 49.7707L166.836 47.9803L157.229 52.4563L154.196 49.7707L148.634 39.9236L146.106 35H142.567L140.545 37.238L136.5 46.6376L132.961 58.2751L128.916 62.7511L125.377 60.9607L121.332 58.2751L117.287 56.4847L113.748 60.9607L110.209 68.5699L106.164 72.1507L101.614 70.3603L99.0858 64.0939L96.0522 53.7991L92.0075 47.9803H87.9627L80.8843 62.7511H76.334L65.7164 56.4847L52.5709 76.6266L49.0317 74.8362L43.9757 70.3603L39.4254 68.5699L25.7743 84.2358L13.6399 80.2074Z" fill="url(#paint0_linear_1244_15518)"/>
<path d="M1.59703 94C1.1784 94 0.752666 93.831 0.440464 93.4855C-0.169748 92.8241 -0.141366 91.7805 0.497228 91.1485L11.2256 80.5803C12.964 78.8606 15.6035 78.4269 17.7747 79.4999L24.7283 82.9247C25.9062 83.5053 27.304 83.1231 28.049 82.0207L35.996 70.2766C36.9751 68.8288 38.5078 67.9028 40.2107 67.7264C41.9136 67.5501 43.5881 68.1454 44.8298 69.3653L50.0096 74.4731C50.6198 75.0757 51.4428 75.3329 52.273 75.1933C53.1032 75.0536 53.8056 74.5245 54.1959 73.7528L61.8022 58.7677C62.6608 57.07 64.2076 55.9162 66.0312 55.6075C67.8547 55.2915 69.6782 55.8721 71.0193 57.195L75.7023 61.8103C76.3125 62.4129 77.1427 62.6702 77.9658 62.5305C78.7959 62.3909 79.4984 61.8617 79.8886 61.0901L85.565 49.9045C86.6648 47.7365 88.8148 46.4945 91.1776 46.6782C93.5404 46.8546 95.4916 48.4053 96.2721 50.7203L102.651 69.5711C103.013 70.6367 103.878 71.3276 104.964 71.4084C106.05 71.4893 107.008 70.9454 107.518 69.9386L113.195 58.753C114.053 57.0553 115.6 55.9015 117.424 55.5928C119.247 55.2768 121.071 55.8574 122.412 57.1803L126.407 61.1121C127.074 61.7662 127.968 62.0161 128.862 61.7956C129.756 61.5751 130.444 60.9284 130.749 60.0244L138.185 38.0575C138.966 35.7425 140.917 34.1918 143.28 34.0154C145.643 33.8464 147.785 35.0737 148.892 37.2418L155.271 49.809C155.945 51.1318 157.485 51.661 158.79 51.0069L164.651 48.0599C167.255 46.7443 170.356 47.5822 172.016 50.0515L179.949 61.8617C180.396 62.5232 181.092 62.9494 181.865 63.0303C182.638 63.1111 183.405 62.8392 183.965 62.288L189.138 57.195C190.479 55.8721 192.295 55.2915 194.126 55.6075C195.95 55.9162 197.496 57.07 198.355 58.7677L205.961 73.7528C206.352 74.5245 207.054 75.0463 207.884 75.1933C208.714 75.3329 209.544 75.0757 210.155 74.4731L215.987 68.7259C218.251 66.4991 221.798 66.4991 224.055 68.7259L229.192 73.7896C229.859 74.451 230.753 74.7009 231.647 74.4731C232.541 74.2526 233.229 73.6058 233.534 72.7019L240.97 50.7276C241.751 48.4126 243.702 46.8693 246.065 46.6855C248.428 46.5018 250.578 47.7438 251.678 49.9119L257.354 61.0974C257.744 61.8691 258.447 62.3909 259.277 62.5379C260.114 62.6775 260.937 62.4129 261.54 61.8177L270.303 53.1823C270.942 52.5502 271.949 52.5796 272.56 53.2411C273.17 53.9025 273.141 54.9461 272.503 55.5781L263.74 64.2135C262.399 65.5364 260.582 66.117 258.752 65.8009C256.921 65.4923 255.381 64.3384 254.523 62.6408L248.846 51.4552C248.343 50.4557 247.385 49.9192 246.292 49.9854C245.206 50.0662 244.341 50.757 243.979 51.8227L236.543 73.7969C235.883 75.7445 234.329 77.1996 232.392 77.6847C230.455 78.1697 228.433 77.6112 226.985 76.1854L221.848 71.1218C220.819 70.1076 219.209 70.1076 218.18 71.1218L212.347 76.8689C211.006 78.1918 209.183 78.7724 207.359 78.4563C205.536 78.1477 203.989 76.9938 203.13 75.2962L195.524 60.3111C195.134 59.5394 194.431 59.0176 193.601 58.8706C192.771 58.731 191.948 58.9955 191.337 59.5908L186.165 64.6839C184.923 65.9038 183.242 66.5065 181.539 66.3227C179.836 66.1464 178.303 65.2057 177.324 63.7505L169.377 51.9476C168.625 50.8305 167.22 50.4484 166.028 51.0437L160.167 53.9907C157.308 55.4238 153.909 54.27 152.426 51.3597L146.047 38.7925C145.536 37.793 144.585 37.2491 143.5 37.3226C142.407 37.4035 141.541 38.0943 141.187 39.1599L133.751 61.1342C133.091 63.0817 131.537 64.5369 129.6 65.0219C127.663 65.507 125.64 64.9484 124.193 63.5227L120.198 59.5908C119.588 58.9882 118.765 58.731 117.935 58.8706C117.104 59.0102 116.402 59.5394 116.012 60.3111L110.335 71.4966C109.236 73.6646 107.086 74.9067 104.723 74.7229C102.36 74.5465 100.409 72.9959 99.6283 70.6808L93.2495 51.83C92.8876 50.7644 92.0219 50.0736 90.9363 49.9927C89.8436 49.9045 88.8928 50.4557 88.389 51.4626L82.7127 62.6481C81.8541 64.3458 80.3073 65.4996 78.4837 65.8083C76.6602 66.1243 74.8367 65.5437 73.4956 64.2209L68.8126 59.6055C68.2024 59.0029 67.3793 58.7457 66.5491 58.8853C65.719 59.0249 65.0165 59.5541 64.6263 60.3258L57.0199 75.2962C56.1613 76.9938 54.6145 78.1477 52.791 78.4563C50.9674 78.7724 49.1439 78.1918 47.8029 76.8689L42.6231 71.7612C42.0626 71.21 41.2963 70.9307 40.5229 71.0189C39.7495 71.0997 39.0541 71.5187 38.6071 72.1801L30.6672 83.9168C29.0211 86.3494 25.9487 87.1872 23.3589 85.9085L16.4053 82.4837C15.419 81.9987 14.2199 82.1898 13.4323 82.9761L2.69683 93.5443C2.39172 93.8457 1.99438 94 1.59703 94Z" fill="#F2994A"/>
<line x1="141" y1="239" x2="141" y2="35" stroke="url(#paint1_linear_1244_15518)" stroke-width="2" stroke-linecap="round"/>
<path d="M146.4 33.95C146.4 36.4077 144.408 38.4 141.95 38.4C139.492 38.4 137.5 36.4077 137.5 33.95C137.5 31.4923 139.492 29.5 141.95 29.5C144.408 29.5 146.4 31.4923 146.4 33.95Z" fill="#F2994A" stroke="#F2F2F2" stroke-width="3"/>
<rect x="118" width="47" height="25" rx="4" fill="#111827"/>
<path d="M130.57 15.56V17H129.65V15.56H126.4V14.86L129.57 10.16H130.57V14.7H131.45V15.56H130.57ZM127.44 14.7H129.65V11.51H129.61L127.44 14.7ZM136.799 15.06C136.799 15.66 136.575 16.16 136.129 16.56C135.689 16.96 135.142 17.16 134.489 17.16C133.975 17.16 133.512 17.0067 133.099 16.7C132.679 16.38 132.395 15.9633 132.249 15.45L133.089 15.1C133.195 15.48 133.369 15.7733 133.609 15.98C133.855 16.18 134.149 16.28 134.489 16.28C134.862 16.28 135.185 16.1633 135.459 15.93C135.725 15.69 135.859 15.4 135.859 15.06C135.859 14.72 135.719 14.4333 135.439 14.2C135.165 13.9667 134.835 13.85 134.449 13.85H133.859V12.99H134.379C134.745 12.99 135.045 12.89 135.279 12.69C135.512 12.4833 135.629 12.2167 135.629 11.89C135.629 11.59 135.519 11.3467 135.299 11.16C135.079 10.9733 134.789 10.88 134.429 10.88C133.849 10.88 133.452 11.1767 133.239 11.77L132.389 11.41C132.542 10.99 132.799 10.65 133.159 10.39C133.519 10.13 133.942 10 134.429 10C135.035 10 135.545 10.18 135.959 10.54C136.365 10.8867 136.569 11.3367 136.569 11.89C136.569 12.55 136.262 13.04 135.649 13.36V13.4C136.009 13.5533 136.289 13.7767 136.489 14.07C136.695 14.3633 136.799 14.6933 136.799 15.06ZM142.241 15.11C142.241 15.6967 142.018 16.1833 141.571 16.57C141.118 16.9633 140.568 17.16 139.921 17.16C139.275 17.16 138.725 16.9633 138.271 16.57C137.825 16.1833 137.601 15.6967 137.601 15.11C137.601 14.75 137.698 14.4233 137.891 14.13C138.085 13.83 138.361 13.5933 138.721 13.42V13.38C138.455 13.2067 138.238 12.9933 138.071 12.74C137.911 12.4867 137.831 12.22 137.831 11.94C137.831 11.3867 138.028 10.9233 138.421 10.55C138.808 10.1833 139.308 10 139.921 10C140.535 10 141.035 10.1833 141.421 10.55C141.815 10.9233 142.011 11.3867 142.011 11.94C142.011 12.22 141.928 12.4867 141.761 12.74C141.601 12.9933 141.388 13.2067 141.121 13.38V13.42C141.481 13.5933 141.758 13.83 141.951 14.13C142.145 14.4233 142.241 14.75 142.241 15.11ZM138.771 11.92C138.771 12.24 138.878 12.5 139.091 12.7C139.305 12.8933 139.581 12.99 139.921 12.99C140.261 12.99 140.538 12.8933 140.751 12.7C140.965 12.5 141.071 12.24 141.071 11.92C141.071 11.6 140.965 11.3467 140.751 11.16C140.538 10.9733 140.261 10.88 139.921 10.88C139.581 10.88 139.305 10.9733 139.091 11.16C138.878 11.3467 138.771 11.6 138.771 11.92ZM138.541 15.06C138.541 15.24 138.575 15.4033 138.641 15.55C138.715 15.6967 138.811 15.8267 138.931 15.94C139.058 16.0467 139.205 16.13 139.371 16.19C139.538 16.25 139.721 16.28 139.921 16.28C140.121 16.28 140.305 16.25 140.471 16.19C140.638 16.13 140.781 16.0467 140.901 15.94C141.028 15.8267 141.125 15.6967 141.191 15.55C141.265 15.4033 141.301 15.24 141.301 15.06C141.301 14.7133 141.168 14.4267 140.901 14.2C140.635 13.9667 140.308 13.85 139.921 13.85C139.535 13.85 139.205 13.9667 138.931 14.2C138.671 14.4333 138.541 14.72 138.541 15.06ZM147.211 15.56V17H146.291V15.56H143.041V14.86L146.211 10.16H147.211V14.7H148.091V15.56H147.211ZM144.081 14.7H146.291V11.51H146.251L144.081 14.7ZM149.939 11.83C149.939 12.23 150.246 12.58 150.859 12.88V10.91C150.579 10.9567 150.356 11.0633 150.189 11.23C150.023 11.3967 149.939 11.5967 149.939 11.83ZM152.539 15.2C152.539 14.7867 152.233 14.44 151.619 14.16V16.23C152.233 16.09 152.539 15.7467 152.539 15.2ZM151.619 17.13V18H150.859V17.14C150.353 17.0733 149.909 16.8767 149.529 16.55C149.149 16.2233 148.896 15.81 148.769 15.31L149.589 14.98C149.669 15.3 149.823 15.5767 150.049 15.81C150.283 16.0367 150.553 16.1833 150.859 16.25V13.85C150.193 13.5833 149.719 13.29 149.439 12.97C149.159 12.6433 149.019 12.2633 149.019 11.83C149.019 11.3567 149.189 10.95 149.529 10.61C149.869 10.2633 150.313 10.0633 150.859 10.01V9.16H151.619V10.04C152.033 10.1067 152.389 10.2633 152.689 10.51C152.996 10.7567 153.203 11.0467 153.309 11.38L152.489 11.73C152.369 11.3167 152.079 11.0533 151.619 10.94V13.19C152.299 13.4767 152.776 13.7733 153.049 14.08C153.323 14.3867 153.459 14.7533 153.459 15.18C153.459 15.7067 153.293 16.1433 152.959 16.49C152.633 16.83 152.186 17.0433 151.619 17.13Z" fill="white"/>
<defs>
<linearGradient id="paint0_linear_1244_15518" x1="136.5" y1="35" x2="136.5" y2="240" gradientUnits="userSpaceOnUse">
<stop stop-color="#F2994A"/>
<stop offset="1" stop-color="#F2994A" stop-opacity="0"/>
</linearGradient>
<linearGradient id="paint1_linear_1244_15518" x1="141.505" y1="38.0841" x2="139.487" y2="235.886" gradientUnits="userSpaceOnUse">
<stop stop-color="#F539F8"/>
<stop offset="1" stop-color="#F63AF9" stop-opacity="0"/>
</linearGradient>
</defs>
</svg>
