<svg width="21" height="35" viewBox="0 0 21 35" fill="none" xmlns="http://www.w3.org/2000/svg">
<path d="M18.9031 3.25261C18.9031 3.76024 18.8957 4.22209 18.905 4.68194C18.944 6.59104 18.6394 8.41255 17.7202 10.0808C17.1482 11.1179 16.4035 11.9958 15.577 12.8001C14.8918 13.467 14.1935 14.1199 13.5175 14.7968C13.2779 15.0357 13.0681 15.3144 12.8786 15.601C12.1414 16.7258 12.1172 18.0397 12.9362 19.0947C13.5509 19.885 14.2845 20.5738 14.9976 21.2706C15.8278 22.0828 16.6542 22.893 17.3097 23.8784C18.3646 25.465 18.8567 27.2447 18.8957 29.1777C18.9106 29.8924 18.8976 30.609 18.8976 31.3834C19.1576 31.3834 19.3897 31.3794 19.6219 31.3834C20.4408 31.4013 21.011 31.9966 20.9998 32.8207C20.9906 33.615 20.4018 34.1943 19.5921 34.1943C13.5193 34.1963 7.44842 34.1963 1.37563 34.1943C0.673637 34.1943 0.116499 33.7066 0.0162144 33.0138C-0.0840701 32.333 0.289211 31.6661 0.903919 31.4591C1.06735 31.4033 1.24749 31.3954 1.4202 31.3854C1.63377 31.3735 1.8492 31.3834 2.10362 31.3834C2.10362 30.9594 2.11105 30.5652 2.10176 30.1711C2.07391 28.7736 2.17976 27.396 2.62362 26.0662C3.17704 24.4 4.16688 23.0662 5.36844 21.8937C6.06858 21.2109 6.78171 20.544 7.47442 19.8512C7.70656 19.6203 7.91084 19.3515 8.09841 19.0768C8.85426 17.972 8.89883 16.6481 8.0947 15.5851C7.51713 14.8207 6.817 14.1558 6.13543 13.4869C5.29973 12.6667 4.45474 11.8625 3.77689 10.879C2.67747 9.28249 2.15748 7.47691 2.10919 5.50809C2.09062 4.77152 2.10548 4.03496 2.10548 3.25261C1.83805 3.25261 1.60406 3.25858 1.37006 3.25062C0.547353 3.22673 -0.0116381 2.62951 0.0032189 1.79938C0.0180759 1.02101 0.604923 0.439725 1.39234 0.439725C7.46513 0.437735 13.5361 0.437735 19.6089 0.439725C20.3963 0.439725 20.985 1.01902 20.998 1.79938C21.0128 2.62951 20.4501 3.22872 19.6311 3.25062C19.4064 3.25659 19.1799 3.25261 18.9031 3.25261ZM3.15847 31.3635C8.06498 31.3635 12.9381 31.3635 17.8464 31.3635C17.8464 30.5971 17.8669 29.8486 17.8427 29.1021C17.7814 27.1173 17.189 25.3396 15.9373 23.8525C15.4359 23.2573 14.875 22.7178 14.3328 22.1584C13.6512 21.4557 12.9269 20.7948 12.2881 20.0523C11.5471 19.1903 11.2072 18.1392 11.3038 16.9507C11.3892 15.9016 11.8349 15.0257 12.5072 14.2991C13.1869 13.5645 13.9075 12.8698 14.6373 12.1909C16.4295 10.5247 17.6812 8.54592 17.813 5.92415C17.8557 5.04823 17.8204 4.16635 17.8204 3.27052C12.9381 3.27052 8.06498 3.27052 3.15661 3.27052C3.15661 4.027 3.13804 4.76356 3.16033 5.49814C3.21604 7.39728 3.73975 9.12522 4.90973 10.5745C5.45387 11.2473 6.07415 11.8485 6.67029 12.4716C7.36856 13.2022 8.10769 13.891 8.77254 14.6574C9.33711 15.3084 9.63982 16.1206 9.70296 17.0224C9.79768 18.39 9.27768 19.5008 8.40855 20.4325C7.74741 21.1412 7.03799 21.7981 6.33786 22.465C5.00259 23.7411 3.90131 25.1744 3.42961 27.0795C3.08604 28.481 3.16218 29.9023 3.15847 31.3635Z" fill="white"/>
<path d="M3.88867 8.03369C8.29172 8.03369 12.6611 8.03369 17.1109 8.03369C16.9108 8.53855 16.7518 9.02545 16.5348 9.48042C15.9194 10.7675 14.9393 11.7234 13.9498 12.6712C13.2428 13.3497 12.5376 14.0401 11.8905 14.7804C11.161 15.6146 10.785 16.6363 10.7439 17.7857C10.7364 17.9772 10.7158 18.1548 10.4914 18.1608C10.2707 18.1668 10.222 18.0012 10.2164 17.8036C10.1884 16.4307 9.62348 15.3073 8.73875 14.3654C8.00553 13.5851 7.21621 12.8668 6.44932 12.1225C5.41122 11.1147 4.51715 9.99526 4.04392 8.55451C3.98781 8.39488 3.94479 8.22725 3.88867 8.03369Z" fill="white"/>
<path d="M3.88867 30.7054C4.00779 30.6126 4.09527 30.5335 4.19205 30.47C6.11285 29.2377 8.03364 28.0072 9.95444 26.7785C10.323 26.543 10.6431 26.5413 11.0116 26.7733C11.2331 26.9125 11.4527 27.0534 11.6724 27.1926C11.6835 27.0655 11.6593 26.9314 11.7152 26.8403C11.7729 26.7475 11.9032 26.6547 12.0167 26.6341C12.2568 26.5894 12.4113 26.7218 12.4559 26.9366C12.5025 27.1566 12.3238 27.3095 11.9404 27.3611C13.6751 28.4764 15.3799 29.5711 17.1109 30.6848C16.8112 30.8601 4.18647 30.8635 3.88867 30.7054Z" fill="white"/>
<path d="M10.5247 20.6927C10.7341 20.7264 10.87 20.8654 10.8884 21.1156C10.9031 21.3458 10.6937 21.5603 10.4788 21.5345C10.2474 21.5067 10.1151 21.3538 10.1114 21.0997C10.1059 20.8813 10.3006 20.6887 10.5247 20.6927Z" fill="white"/>
<path d="M11.6664 25.3256C11.6374 25.5841 11.5141 25.7504 11.2837 25.7564C11.057 25.7624 10.9118 25.6101 10.8901 25.3537C10.8701 25.1173 11.066 24.9029 11.2801 24.9129C11.5195 24.923 11.6302 25.0852 11.6664 25.3256Z" fill="white"/>
<path d="M10.1108 26.1478C10.1033 26.4268 9.96344 26.5704 9.7303 26.5983C9.51954 26.6242 9.33116 26.4229 9.33302 26.1876C9.33489 25.9265 9.46545 25.767 9.70792 25.757C9.95598 25.7471 10.0828 25.9065 10.1108 26.1478Z" fill="white"/>
<path d="M11.6662 21.9457C11.6735 22.1772 11.5037 22.3785 11.2901 22.3805C11.0472 22.3826 10.9121 22.2356 10.8902 21.9779C10.8701 21.7504 11.0545 21.5451 11.2627 21.537C11.4708 21.5269 11.6589 21.7182 11.6662 21.9457Z" fill="white"/>
<path d="M10.489 24.0685C10.2734 24.0544 10.1345 23.9147 10.1126 23.6557C10.0943 23.423 10.2734 23.2246 10.489 23.2246C10.7339 23.2226 10.8618 23.3805 10.8873 23.6355C10.9093 23.8581 10.7247 24.0605 10.489 24.0685Z" fill="white"/>
<path d="M11.2856 20.6926C11.0513 20.6785 10.914 20.5382 10.8902 20.2817C10.8701 20.0532 11.0513 19.8548 11.2654 19.8488C11.4759 19.8428 11.6736 20.0312 11.6663 20.2556C11.6571 20.5122 11.5308 20.6645 11.2856 20.6926Z" fill="white"/>
<path d="M10.8889 18.5569C10.8963 18.8124 10.7281 19.0071 10.5076 19.0051C10.2628 19.001 10.1151 18.8611 10.1114 18.5934C10.1077 18.3277 10.2478 18.1655 10.4908 18.1614C10.7319 18.1533 10.8683 18.3074 10.8889 18.5569Z" fill="white"/>
</svg>
