<svg width="60" height="60" viewBox="0 0 60 60" fill="none" xmlns="http://www.w3.org/2000/svg">
<g id="icon">
<circle id="Ellipse 1354" cx="30" cy="30" r="30" fill="#5356FB"/>
<path id="Vector" d="M29.9407 28.117C29.3978 27.9377 28.8874 27.8356 28.4342 27.6115C24.4201 25.6243 20.4135 23.6173 16.4044 21.6202C16.1106 21.4733 15.884 21.2841 15.879 20.933C15.874 20.5669 16.1006 20.3627 16.4094 20.2083C20.3911 18.2237 24.3728 16.2341 28.352 14.2445C29.4974 13.6718 30.6255 13.7365 31.756 14.3068C34.3133 15.5942 36.8806 16.8691 39.443 18.149C40.7503 18.8014 42.0551 19.4563 43.3599 20.1112C43.4346 20.1486 43.5093 20.1834 43.5865 20.2208C43.8853 20.3602 44.092 20.5769 44.092 20.923C44.092 21.2741 43.8704 21.4708 43.5766 21.6153C41.7214 22.5391 39.8688 23.4679 38.0136 24.3917C35.8721 25.46 33.7406 26.5432 31.5866 27.5841C31.0737 27.8331 30.4935 27.9426 29.9407 28.117Z" fill="white"/>
<path id="Vector_2" d="M28.9083 38.6004C28.9083 40.8266 28.9108 43.0527 28.9058 45.2789C28.9033 46.0707 28.4576 46.3496 27.728 46.0135C24.0775 44.3326 20.4245 42.6568 16.7814 40.9635C15.6086 40.4182 15.0109 39.4645 15.006 38.1746C14.996 33.9314 15.001 29.6883 15.0035 25.4451C15.0035 24.6259 15.4641 24.3221 16.1962 24.6607C19.9713 26.4013 23.7438 28.1519 27.5213 29.885C28.48 30.3257 28.9232 31.0429 28.9158 32.0912C28.9008 34.2626 28.9108 36.4315 28.9108 38.6029C28.9108 38.6004 28.9108 38.6004 28.9083 38.6004Z" fill="white"/>
<path id="Vector_3" d="M31.0596 38.5382C31.0596 36.3544 31.0646 34.1705 31.0571 31.9867C31.0546 31.0006 31.5054 30.3208 32.3894 29.9124C36.1893 28.1594 39.9917 26.4113 43.7916 24.6608C44.4839 24.342 44.9595 24.6284 44.9595 25.3829C44.9644 29.6684 44.9719 33.9514 44.9545 38.2369C44.9495 39.5492 44.2772 40.4655 43.0944 41.0134C40.1411 42.378 37.1853 43.74 34.232 45.1021C33.5995 45.3935 32.9695 45.6848 32.3395 45.9762C31.4829 46.3696 31.0571 46.1032 31.0571 45.1719C31.0571 42.9606 31.0571 40.7469 31.0571 38.5357C31.0596 38.5382 31.0596 38.5382 31.0596 38.5382Z" fill="white"/>
</g>
</svg>
