<svg width="60" height="60" viewBox="0 0 60 60" fill="none" xmlns="http://www.w3.org/2000/svg">
<g id="icon">
<circle id="Ellipse 1354" cx="30" cy="30" r="30" fill="#F539F8"/>
<path id="Vector" d="M41.8287 28.0141C41.4077 29.4703 41.0646 30.8583 40.5811 32.1937C40.4622 32.5232 39.8851 32.8897 39.5147 32.8936C35.1811 32.9443 30.8474 32.9267 26.5138 32.9287C25.8724 32.9287 25.463 32.6129 25.3168 31.9988C24.6306 29.1292 23.9385 26.2596 23.2835 23.3841C23.0847 22.5146 23.4804 21.9785 24.3187 21.9727C27.8511 21.9493 31.3835 21.9629 35.0037 21.9629C34.9608 23.8383 35.4716 25.4778 36.8927 26.7274C38.2827 27.9575 39.9261 28.324 41.8287 28.0141Z" fill="white"/>
<path id="Vector_2" d="M24.4176 33.9331C27.334 33.9331 30.1997 33.9331 33.0654 33.9331C34.9408 33.9331 36.8162 33.9292 38.6915 33.9351C39.5649 33.937 40.0601 34.3289 40.0835 35.0053C40.1069 35.7169 39.5961 36.1497 38.6877 36.1497C33.7224 36.1536 28.759 36.1536 23.7938 36.1497C22.7878 36.1497 22.5091 35.904 22.2888 34.8884C21.3452 30.5255 20.3939 26.1645 19.4679 21.7977C19.3587 21.285 19.1579 20.9965 18.6296 20.8347C17.419 20.4643 16.2318 20.0159 15.0368 19.5948C14.0328 19.24 13.6605 18.6981 13.9334 18.0021C14.2024 17.314 14.7853 17.1385 15.7386 17.4699C17.2221 17.9846 18.692 18.5382 20.1912 19.0061C20.9476 19.242 21.3082 19.6689 21.4681 20.4331C22.3824 24.7746 23.3317 29.1082 24.2733 33.4438C24.3006 33.5725 24.3474 33.7012 24.4176 33.9331Z" fill="white"/>
<path id="Vector_3" d="M35.6934 22.6285C35.6798 19.9227 37.8729 17.7237 40.5788 17.7334C43.23 17.7412 45.4134 19.9441 45.4095 22.609C45.4056 25.2662 43.2144 27.4632 40.5573 27.469C37.9022 27.4749 35.7071 25.2915 35.6934 22.6285ZM42.6257 20.4685C41.7465 21.4101 40.8848 22.3342 39.8614 23.4317C39.3721 22.7669 38.9763 22.2328 38.524 21.6207C38.0698 22.0963 37.7696 22.4102 37.5747 22.6168C38.4051 23.4746 39.1986 24.2914 39.9316 25.0498C41.1207 23.8567 42.345 22.6305 43.6726 21.299C43.4562 21.1274 43.1969 20.9208 42.9357 20.7142C42.8538 20.6459 42.77 20.5835 42.6257 20.4685Z" fill="white"/>
<path id="Vector_4" d="M37.4854 37.0509C39.2068 37.0353 40.6104 38.3882 40.6436 40.096C40.6767 41.8329 39.2653 43.258 37.5147 43.258C35.805 43.258 34.4072 41.868 34.3994 40.1662C34.3936 38.4565 35.7699 37.0685 37.4854 37.0509ZM38.8929 40.1447C38.891 39.3903 38.2984 38.7781 37.5537 38.7625C36.7817 38.745 36.1384 39.3825 36.1423 40.1603C36.1462 40.907 36.7485 41.5269 37.4854 41.5464C38.2574 41.5659 38.8968 40.9303 38.8929 40.1447Z" fill="white"/>
<path id="Vector_5" d="M24.8751 43.2571C23.1556 43.2434 21.7754 41.8613 21.7793 40.1555C21.7852 38.3951 23.179 37.0286 24.9491 37.0481C26.6569 37.0676 28.0273 38.4751 28.0078 40.1886C27.9864 41.9022 26.5906 43.2688 24.8751 43.2571ZM26.2709 40.1574C26.2728 39.3738 25.6334 38.7441 24.8556 38.7636C24.1226 38.7831 23.4968 39.4167 23.4968 40.1458C23.4948 40.8768 24.1148 41.5182 24.8439 41.5435C25.6178 41.5708 26.2689 40.9372 26.2709 40.1574Z" fill="white"/>
</g>
</svg>
