<svg width="16" height="16" viewBox="0 0 16 16" fill="none" xmlns="http://www.w3.org/2000/svg">
<path d="M7.55225 0C7.8457 0 8.13914 0 8.43205 0C8.44829 0.026534 8.47537 0.0151623 8.49756 0.0162453C9.28966 0.0649812 10.0606 0.220936 10.8013 0.505229C12.7699 1.26172 14.2323 2.58354 15.183 4.46638C15.5999 5.29218 15.8506 6.16997 15.9561 7.08891C15.9691 7.201 15.9621 7.3158 16 7.42465C16 7.80858 16 8.19251 16 8.57698C15.9778 8.5916 15.9854 8.61543 15.9838 8.63546C15.9475 9.10387 15.8744 9.56686 15.7515 10.0206C15.1787 12.1342 13.9524 13.7603 12.0818 14.8942C11.1516 15.4579 10.1397 15.8002 9.06064 15.941C8.89497 15.9626 8.72875 15.98 8.56308 15.9995C8.17217 15.9995 7.78127 15.9995 7.39036 16C7.3752 15.9789 7.35138 15.9865 7.33135 15.9848C6.96752 15.9545 6.60639 15.9009 6.25068 15.8197C4.77639 15.4829 3.48998 14.793 2.4131 13.7311C0.998917 12.3372 0.204656 10.6461 0.0270709 8.66687C0.0205739 8.59431 0.033568 8.51904 0 8.44972C0 8.15081 0 7.85244 0 7.55352C0.0265295 7.53403 0.0151597 7.50479 0.016784 7.47988C0.0730915 6.64162 0.251218 5.83044 0.564158 5.05066C1.10179 3.71043 1.93774 2.59058 3.07634 1.70142C4.33839 0.715876 5.77098 0.159745 7.36762 0.0270755C7.4288 0.0216604 7.49432 0.0341151 7.55225 0ZM7.24635 9.86252C7.24635 10.2383 7.24526 10.6147 7.24743 10.9905C7.24797 11.0457 7.23389 11.0679 7.17596 11.0593C7.09691 11.0479 7.01678 11.0446 6.93774 11.0338C6.26746 10.9461 5.63563 10.7371 5.03952 10.4192C5.00379 10.4002 4.97834 10.3802 4.9621 10.4425C4.81375 11.0176 4.66324 11.5926 4.51164 12.1666C4.50027 12.2094 4.51272 12.2278 4.54954 12.2473C4.66486 12.3096 4.78235 12.3665 4.90309 12.4152C5.5961 12.6968 6.31998 12.8408 7.06497 12.8842C7.14131 12.8885 7.16134 12.9112 7.1608 12.9865C7.15701 13.4159 7.16026 13.8453 7.15809 14.2747C7.15755 14.3397 7.17488 14.3619 7.2431 14.3614C7.69085 14.3581 8.13914 14.3576 8.5869 14.3614C8.66432 14.3619 8.67731 14.3359 8.67731 14.2666C8.67461 13.8026 8.67677 13.3385 8.67461 12.8744C8.67407 12.8089 8.68544 12.7786 8.76015 12.765C9.09962 12.7049 9.4288 12.6058 9.74228 12.4607C10.3498 12.1802 10.8408 11.7703 11.1603 11.1724C11.4288 10.6699 11.51 10.1327 11.4618 9.56957C11.4158 9.03239 11.2366 8.55207 10.8787 8.14431C10.5506 7.77121 10.1402 7.51129 9.69843 7.29522C9.39145 7.14523 9.07363 7.02284 8.75041 6.91129C8.7098 6.89721 8.67407 6.88693 8.67407 6.82736C8.67623 6.14993 8.67569 5.4725 8.67461 4.79507C8.67461 4.75121 8.68489 4.73117 8.73308 4.73767C8.87547 4.75717 9.01895 4.77016 9.16134 4.79236C9.634 4.86493 10.0796 5.02467 10.5116 5.22395C10.5717 5.25157 10.5945 5.24886 10.6123 5.17684C10.7434 4.6467 10.8771 4.1171 11.0162 3.58913C11.0379 3.5079 11.0244 3.47541 10.948 3.44076C10.2799 3.13751 9.57282 3.01025 8.8457 2.97614C8.78018 2.97289 8.76123 2.95556 8.76178 2.88896C8.76503 2.50232 8.76232 2.11568 8.76448 1.72904C8.76503 1.66785 8.75041 1.64727 8.68489 1.64727C8.23173 1.64998 7.77802 1.64998 7.32485 1.64727C7.26151 1.64673 7.24418 1.66406 7.24418 1.72742C7.24689 2.1433 7.24256 2.55972 7.24797 2.9756C7.24905 3.06116 7.2209 3.08661 7.14239 3.10285C6.73579 3.18679 6.34651 3.32271 5.98646 3.53281C5.20628 3.98822 4.72117 4.64724 4.61938 5.5586C4.51597 6.48837 4.83812 7.2427 5.57661 7.81778C6.05739 8.19251 6.60639 8.43781 7.1738 8.64683C7.2274 8.66633 7.24743 8.68907 7.24689 8.7481C7.24472 9.12066 7.24635 9.49159 7.24635 9.86252Z" fill="#59BE59"/>
</svg>
