<svg width="19" height="16" viewBox="0 0 19 16" fill="none" xmlns="http://www.w3.org/2000/svg">
<g clip-path="url(#clip0_1151_16897)">
<path d="M9.12267 13.3415C9.24371 12.1559 9.32441 12.0892 10.5698 12.0892C12.1676 12.0892 13.7654 12.0892 15.3632 12.0866C16.232 12.0841 16.4875 12.315 16.509 13.1362C16.5117 13.2029 16.5198 13.2696 16.5252 13.3338C17.6442 13.4749 17.8513 13.7418 17.6926 14.8427C14.4486 14.8427 11.1992 14.8427 7.95527 14.8427C7.76429 13.788 8.03058 13.4467 9.12267 13.3415Z" fill="white" fill-opacity="0.8"/>
<path d="M7.18623 6.52319C7.61392 6.95944 8.03354 7.38542 8.48006 7.8422C8.45585 7.87043 8.39398 7.94998 8.32405 8.0244C6.2663 10.1081 4.21393 12.1918 2.15349 14.273C1.6747 14.758 1.01568 14.8093 0.493845 14.4295C-0.00109036 14.0703 -0.146343 13.4339 0.160302 12.9181C0.232928 12.7975 0.329763 12.6871 0.434668 12.5922C2.6296 10.6085 4.82991 8.62744 7.02753 6.64637C7.07057 6.60531 7.12168 6.57195 7.18623 6.52319Z" fill="white" fill-opacity="0.8"/>
<path d="M10.7596 2.04272C11.5961 2.83567 12.43 3.62605 13.2396 4.39333C12.0131 5.5635 10.765 6.75163 9.52494 7.93463C8.72874 7.16735 7.89488 6.36414 7.06641 5.56606C8.27954 4.40872 9.52225 3.22572 10.7596 2.04272Z" fill="white" fill-opacity="0.8"/>
<path d="M9.62489 0C10.0553 0.048757 10.4049 0.259182 10.5529 0.613312C10.717 1.00593 10.6121 1.34723 10.3054 1.63978C9.33169 2.56872 8.35796 3.49767 7.38692 4.42662C7.13407 4.66784 6.8893 4.91163 6.62838 5.14515C6.21952 5.51468 5.64658 5.51724 5.27269 5.16055C4.91224 4.81668 4.90148 4.26752 5.28614 3.89543C6.52616 2.68933 7.77157 1.49094 9.03043 0.302807C9.18106 0.159102 9.42315 0.10008 9.62489 0Z" fill="white" fill-opacity="0.8"/>
<path d="M15.413 5.45044C15.2973 5.66087 15.2247 5.91235 15.0579 6.07402C13.8286 7.26985 12.5859 8.45285 11.3378 9.63071C10.9209 10.0233 10.3399 10.0105 9.96059 9.62815C9.58132 9.24836 9.60283 8.75822 10.0251 8.3502C11.2437 7.17747 12.4649 6.0073 13.6834 4.832C13.9954 4.53175 14.3531 4.45477 14.7593 4.59591C15.1063 4.71908 15.3403 5.05782 15.413 5.45044Z" fill="white" fill-opacity="0.8"/>
<path d="M12.7622 15.9845C11.116 15.9845 9.46982 15.9845 7.82363 15.9845C7.71334 15.9845 7.58961 16.0025 7.49815 15.9614C7.41477 15.9255 7.30986 15.8177 7.31255 15.7433C7.31524 15.6509 7.39594 15.5277 7.48201 15.4764C7.5654 15.4277 7.69451 15.4431 7.8048 15.4431C11.0972 15.4431 14.3896 15.4405 17.682 15.4482C17.9133 15.4482 18.2818 15.3327 18.2872 15.7074C18.2926 16.1205 17.9026 15.9794 17.6658 15.9794C16.0304 15.9897 14.395 15.9845 12.7622 15.9845Z" fill="white" fill-opacity="0.8"/>
</g>
<defs>
<clipPath id="clip0_1151_16897">
<rect width="18.2857" height="16" fill="white"/>
</clipPath>
</defs>
</svg>
