<svg width="15" height="15" viewBox="0 0 15 15" fill="none" xmlns="http://www.w3.org/2000/svg">
<path d="M14.1755 7.88376L11.9493 9.56253L12.7948 12.266C12.9314 12.6853 12.9331 13.1389 12.7997 13.5593C12.6663 13.9797 12.4049 14.3444 12.0544 14.5988C11.7099 14.8615 11.2925 15.0022 10.8643 15C10.436 14.9978 10.02 14.8528 9.67807 14.5866L7.50125 12.9323L5.3238 14.5846C4.97996 14.8458 4.56476 14.9876 4.13792 14.9898C3.71108 14.9919 3.29457 14.8542 2.94827 14.5966C2.60197 14.3389 2.34373 13.9745 2.21066 13.5557C2.0776 13.1369 2.07657 12.6854 2.20772 12.266L3.05318 9.56253L0.826957 7.88376C0.483556 7.62452 0.22828 7.25987 0.0975914 6.84188C-0.0330973 6.4239 -0.0325136 5.97396 0.0992584 5.55633C0.23103 5.13871 0.487251 4.77476 0.831323 4.51648C1.17539 4.25819 1.58972 4.11878 2.01511 4.11815H4.74974L5.57957 1.44762C5.71006 1.02726 5.96649 0.660548 6.31187 0.400372C6.65724 0.140196 7.07372 0 7.50125 0C7.92878 0 8.34526 0.140196 8.69064 0.400372C9.03601 0.660548 9.29244 1.02726 9.42293 1.44762L10.2528 4.11815H12.9849C13.4103 4.11878 13.8246 4.25819 14.1687 4.51648C14.5127 4.77476 14.769 5.13871 14.9007 5.55633C15.0325 5.97396 15.0331 6.4239 14.9024 6.84188C14.7717 7.25987 14.5164 7.62452 14.173 7.88376H14.1755Z" fill="white" fill-opacity="0.8"/>
</svg>
