<svg width="16" height="16" viewBox="0 0 16 16" fill="none" xmlns="http://www.w3.org/2000/svg">
<path d="M0.800781 2.60005V7.40005H7.40078V0.800049H2.60078C2.12339 0.800049 1.66555 0.989691 1.32799 1.32726C0.990424 1.66482 0.800781 2.12266 0.800781 2.60005H0.800781Z" fill="white"/>
<path d="M13.4016 0.800049H8.60156V7.40005H15.2016V2.60005C15.2016 2.12266 15.0119 1.66482 14.6744 1.32726C14.3368 0.989691 13.879 0.800049 13.4016 0.800049V0.800049Z" fill="white"/>
<path d="M0.800781 13.4C0.800781 13.8774 0.990424 14.3353 1.32799 14.6728C1.66555 15.0104 2.12339 15.2 2.60078 15.2H7.40078V8.60004H0.800781V13.4Z" fill="white"/>
<path d="M8.60156 15.2001H13.4016C13.879 15.2001 14.3368 15.0105 14.6744 14.6729C15.0119 14.3353 15.2016 13.8775 15.2016 13.4001V8.6001H8.60156V15.2001Z" fill="white"/>
</svg>
