<svg width="13" height="12" viewBox="0 0 13 12" fill="none" xmlns="http://www.w3.org/2000/svg">
<path d="M4.94651 6.00332C4.17945 7.12607 3.43113 8.22166 2.67275 9.33208C1.90737 8.22362 1.14758 7.12327 0.371002 5.99856C0.72333 5.99856 1.04711 5.9994 1.37118 5.99828C1.48703 5.99772 1.63675 6.03551 1.70951 5.97785C1.78563 5.91767 1.73162 5.76008 1.7417 5.64559C1.91772 3.65315 2.8706 2.14692 4.62189 1.18905C7.73267 -0.512002 11.6276 1.18429 12.5178 4.61802C13.2429 7.41466 11.6942 10.6116 8.38556 11.3648C8.03491 11.4446 7.67782 11.4748 7.31738 11.4723C7.22531 11.4718 7.18809 11.4555 7.18893 11.3517C7.19424 10.8249 7.19284 10.2978 7.19005 9.77071C7.18977 9.69234 7.20012 9.65987 7.29359 9.65707C9.09581 9.59856 10.558 8.29723 10.8278 6.51669C11.1188 4.59702 9.76017 2.73194 7.83845 2.41312C5.90023 2.0915 4.10081 3.29094 3.65977 5.1994C3.60716 5.42726 3.58673 5.65847 3.58393 5.89248C3.58281 5.99045 3.61863 6.00584 3.70455 6.005C4.10837 6.00136 4.51247 6.00332 4.94651 6.00332Z" fill="white" fill-opacity="0.8"/>
<path d="M7.72391 5.06594C7.72391 5.43431 7.72111 5.8024 7.72559 6.17048C7.72699 6.29225 7.69844 6.39638 7.62848 6.49687C7.29658 6.97468 6.96664 7.45418 6.64118 7.93647C6.58717 8.01653 6.54967 8.02773 6.47047 7.96922C6.28325 7.83122 6.091 7.69966 5.89594 7.57286C5.82235 7.525 5.82011 7.49085 5.8688 7.42143C6.10891 7.07825 6.33167 6.7222 6.58465 6.38882C6.75004 6.17076 6.80573 5.94011 6.80293 5.67587C6.79649 5.08385 6.80545 4.49183 6.79733 3.90009C6.79537 3.76601 6.83819 3.73774 6.96076 3.74333C7.17009 3.75285 7.38026 3.75089 7.58986 3.74389C7.69313 3.74053 7.72811 3.77161 7.72643 3.87741C7.72055 4.27349 7.72391 4.66958 7.72391 5.06594Z" fill="white" fill-opacity="0.8"/>
</svg>
