<svg width="14" height="13" viewBox="0 0 14 13" fill="none" xmlns="http://www.w3.org/2000/svg">
<path d="M13.9729 3L9.06236 7.82172C7.92242 8.93841 6.07703 8.93841 4.93709 7.82172L0.0267964 3C0.0185934 3.09048 0 3.17238 0 3.26232V10.1359C0.00191403 11.7168 1.30673 12.9981 2.9167 13H11.0833C12.6933 12.9981 13.9981 11.7168 14 10.1359V3.26232C13.9997 3.17238 13.9811 3.09048 13.9729 3Z" fill="white" fill-opacity="0.8"/>
<path d="M8.31954 6.50593L14 1.35845C13.4403 0.517707 12.4369 0.00264136 11.353 0H2.64666C1.5631 0.00264136 0.559417 0.517707 0 1.35845L5.68046 6.50593C6.40983 7.16469 7.58988 7.16469 8.31954 6.50593Z" fill="white" fill-opacity="0.8"/>
</svg>
