<svg width="14" height="13" viewBox="0 0 14 13" fill="none" xmlns="http://www.w3.org/2000/svg">
<path d="M3.79296 0C4.44956 0.010169 5.09184 0.192671 5.65493 0.529075C6.21803 0.86548 6.682 1.34387 7 1.91595C7.318 1.34387 7.78197 0.86548 8.34507 0.529075C8.90816 0.192671 9.55044 0.010169 10.207 0C11.2537 0.0452807 12.2399 0.501197 12.9501 1.26814C13.6602 2.03509 14.0367 3.05073 13.9972 4.09316C13.9972 8.02666 7.60875 12.5698 7.33703 12.7625L7 13L6.66297 12.7625C6.39125 12.5709 0.00282288 8.02666 0.00282288 4.09316C-0.0366831 3.05073 0.339771 2.03509 1.04994 1.26814C1.76011 0.501197 2.74626 0.0452807 3.79296 0Z" fill="white" fill-opacity="0.8"/>
</svg>
