<svg width="14" height="16" viewBox="0 0 14 16" fill="none" xmlns="http://www.w3.org/2000/svg">
<path d="M0.259306 11.548C0.789972 12.469 1.96681 12.7854 2.88783 12.2548C2.88846 12.2544 2.88906 12.254 2.88969 12.2537L3.17517 12.0888C3.71408 12.5499 4.33352 12.9074 5.00231 13.1435V13.4727C5.00231 14.5356 5.86402 15.3973 6.92698 15.3973C7.98993 15.3973 8.85164 14.5356 8.85164 13.4727V13.1435C9.52052 12.9071 10.14 12.5491 10.6788 12.0875L10.9656 12.253C11.8868 12.7845 13.0645 12.4686 13.5959 11.5473C14.1274 10.6261 13.8115 9.44842 12.8902 8.91694L12.6054 8.75272C12.7336 8.05499 12.7336 7.33974 12.6054 6.64199L12.8902 6.47776C13.8114 5.94628 14.1274 4.76863 13.5959 3.84738C13.0645 2.92615 11.8868 2.61018 10.9656 3.14165L10.6801 3.30654C10.1406 2.84604 9.52076 2.48913 8.85164 2.25378V1.92467C8.85164 0.861709 7.98993 0 6.92698 0C5.86402 0 5.00231 0.861709 5.00231 1.92467V2.25378C4.33343 2.49025 3.71396 2.84823 3.17517 3.30979L2.8884 3.14364C1.96715 2.61213 0.789491 2.92811 0.258013 3.84933C-0.273465 4.77055 0.0424806 5.94824 0.963734 6.47972L1.24858 6.64394C1.12035 7.34166 1.12035 8.05692 1.24858 8.75467L0.963734 8.9189C0.0450368 9.45179 -0.269886 10.6272 0.259306 11.548ZM6.92698 5.13245C8.34425 5.13245 9.49319 6.28138 9.49319 7.69866C9.49319 9.11594 8.34425 10.2649 6.92698 10.2649C5.5097 10.2649 4.36077 9.11594 4.36077 7.69866C4.36077 6.28138 5.5097 5.13245 6.92698 5.13245Z" fill="white" fill-opacity="0.8"/>
</svg>
