<svg width="21" height="21" viewBox="0 0 21 21" fill="none" xmlns="http://www.w3.org/2000/svg">
<path d="M0.00314178 15.1669C0.00314178 14.9927 0.00314178 14.8189 0.00314178 14.6447C0.00314178 14.4701 0.00314178 14.2957 0.00314178 14.121C0.00314178 13.9469 0.00314178 13.773 0.00314178 13.5989C0.00314178 13.4243 0.00314178 13.2499 0.00314178 13.0752C0.00314178 12.9011 0.00314178 12.7272 0.00314178 12.5531C0.00314178 12.3784 0.00314178 12.204 0.00314178 12.0294C0.00314178 11.8552 0.00314178 11.6814 0.00314178 11.5072C0.00314178 11.3326 0.00314178 11.1582 0.00314178 10.9835C0.00314178 10.8094 0.00314178 10.6355 0.00314178 10.4614C0.00314178 10.2868 0.00314178 10.1124 0.00314178 9.93772C0.00314178 9.76359 0.00314178 9.58972 0.00314178 9.41559C0.00314178 9.24094 0.00314178 9.06655 0.00314178 8.89189C0.00314178 8.71776 0.00314178 8.54389 0.00314178 8.36976C0.00314178 8.19511 0.00314178 8.02072 0.00314178 7.84606C0.00314178 7.67193 0.00314178 7.49806 0.00314178 7.32393C0.00314178 7.14928 0.00314178 6.97489 0.00314178 6.80024C0.00314178 6.62611 0.00314178 6.45224 0.00314178 6.27811C0.00314178 6.10345 0.00314178 5.92906 0.00314178 5.75441C0.00314178 5.58028 0.00314178 5.40641 0.00314178 5.23228C0.00314178 5.05762 0.00314178 4.88323 0.00314178 4.70858C0.00314178 4.53445 0.00314178 4.36058 0.00314178 4.18645C0.00314178 4.0118 0.00314178 3.8374 0.00314178 3.66275C0.00314178 3.48862 0.00314178 3.31475 0.00314178 3.14062C0.00314178 2.96597 0.00314178 2.79158 0.00314178 2.61692C0.00314178 2.44279 0.00314178 2.26892 0.00314178 2.09479C0.00314178 1.92014 0.00314178 1.74575 0.00314178 1.5711C0.00314178 1.39697 0.00314178 1.2231 0.00314178 1.04897C0.0543874 0.407089 0.408923 0.0525529 1.05394 0C1.22807 0 1.40194 0 1.57607 0C1.75072 0 1.92511 0 2.09977 0C2.2739 0 2.44777 0 2.6219 0C2.79655 0 2.97094 0 3.1456 0C3.31973 0 3.49359 0 3.66773 0C3.84238 0 4.01677 0 4.19142 0C4.36555 0 4.53942 0 4.71355 0C4.88821 0 5.0626 0 5.23725 0C5.41138 0 5.58525 0 5.75938 0C5.93404 0 6.10843 0 6.28308 0C6.45721 0 6.63108 0 6.80521 0C6.97986 0 7.15426 0 7.32891 0C7.50304 0 7.67691 0 7.85104 0C8.02569 0 8.20008 0 8.37474 0C8.54887 0 8.72274 0 8.89687 0C9.07152 0 9.24591 0 9.42057 0C9.5947 0 9.76857 0 9.9427 0C10.1173 0 10.2917 0 10.4664 0C10.6405 0 10.8144 0 10.9885 0C11.1632 0 11.3376 0 11.5122 0C11.6864 0 11.8602 0 12.0344 0C12.209 0 12.3834 0 12.5581 0C12.7322 0 12.9061 0 13.0802 0C13.2548 0 13.4292 0 13.6039 0C14.0643 0.0185634 14.3893 0.238449 14.5799 0.657564C14.5964 0.709333 14.6131 0.761363 14.6296 0.813131C14.6338 0.839539 14.6379 0.865946 14.6421 0.892091C14.6429 2.06551 14.6437 3.23867 14.6434 4.41209C14.6434 4.46307 14.657 4.51667 14.6259 4.56478C14.4594 4.56399 14.2928 4.55197 14.1268 4.57131C13.9519 4.55563 13.7767 4.55589 13.6018 4.57131C13.4284 4.55589 13.2548 4.55667 13.0815 4.57105C12.9599 4.56792 12.8381 4.5572 12.7173 4.56373C12.6213 4.56896 12.6035 4.53367 12.6041 4.44555C12.6077 3.84002 12.6064 3.23449 12.6059 2.62895C12.6059 2.56411 12.614 2.4977 12.5813 2.43678C12.5403 2.23546 12.4221 2.10996 12.2187 2.06865C12.1374 2.02394 12.0487 2.04329 11.9638 2.04303C9.39311 2.04172 6.82404 2.04198 4.25522 2.04198C4.17443 2.04198 4.09338 2.04198 4.01259 2.04198C4.00971 2.05218 4.00657 2.06211 4.0037 2.07231C4.23849 2.18944 4.47327 2.30684 4.70806 2.42397C5.05554 2.6083 5.40171 2.79471 5.75938 2.95917C6.0998 3.15526 6.45172 3.32939 6.80599 3.49908C6.91267 3.56366 7.02144 3.62406 7.13883 3.66772C7.35427 3.79688 7.57938 3.90774 7.80685 4.01389C7.93209 4.08082 8.05654 4.14932 8.18283 4.21416C8.43906 4.34594 8.70888 4.45732 8.89033 4.69838V4.70649L8.89739 4.71041C8.9923 4.87278 9.05505 5.04664 9.08381 5.23254C9.08486 5.40693 9.08616 5.58132 9.08721 5.75572C9.07387 5.93037 9.07387 6.10502 9.08721 6.27968C9.07518 6.45354 9.07518 6.62768 9.08721 6.80154C9.07387 6.9762 9.07387 7.15085 9.08721 7.3255C9.07518 7.49937 9.07518 7.67324 9.08721 7.84711C9.07387 8.02176 9.07387 8.19642 9.08721 8.37107C9.07518 8.54494 9.07518 8.71881 9.08721 8.89268C9.07387 9.06733 9.07387 9.24198 9.08721 9.4169C9.07518 9.59077 9.07518 9.76464 9.08721 9.93851C9.07387 10.1132 9.07387 10.2878 9.08721 10.4625C9.07518 10.6363 9.07518 10.8102 9.08721 10.9841C9.07387 11.1587 9.07387 11.3334 9.08721 11.508C9.07518 11.6819 9.07518 11.8558 9.08721 12.0299C9.07387 12.2046 9.07387 12.3792 9.08721 12.5539C9.07518 12.7277 9.07518 12.9016 9.08721 13.0757C9.07387 13.2504 9.07387 13.425 9.08721 13.5997C9.08486 13.6125 9.08015 13.6253 9.08067 13.6379C9.09479 14.0206 8.98602 13.9587 9.41926 13.9513C9.59391 13.9642 9.76857 13.9642 9.94322 13.9513C10.1168 13.9626 10.2907 13.9626 10.4643 13.9513C10.6392 13.9642 10.8144 13.9642 10.9893 13.9513C11.1629 13.9626 11.3365 13.9626 11.5104 13.9513C11.685 13.9642 11.8597 13.9644 12.0344 13.9513C12.3047 13.9676 12.4919 13.8452 12.569 13.6023C12.6098 13.5213 12.6028 13.4337 12.6028 13.3474C12.603 12.0767 12.6046 10.806 12.5996 9.53534C12.5991 9.41742 12.6328 9.39337 12.7445 9.39441C13.3275 9.3999 13.9106 9.3965 14.4939 9.39703C14.5451 9.39703 14.599 9.38474 14.6458 9.41873C14.6416 9.59234 14.6332 9.7662 14.6502 9.93981C14.6374 10.1139 14.6374 10.2881 14.6502 10.4622C14.6359 10.6366 14.6359 10.811 14.6502 10.9854C14.6374 11.1595 14.6374 11.3336 14.6502 11.5078C14.6359 11.6822 14.6359 11.8566 14.6502 12.0309C14.6374 12.2051 14.6374 12.3792 14.6502 12.5533C14.6359 12.7277 14.6359 12.9021 14.6502 13.0765C14.6374 13.2506 14.6374 13.4248 14.6502 13.5989C14.6359 13.7733 14.6359 13.9477 14.6502 14.1221C14.6374 14.2962 14.6374 14.4703 14.6502 14.6445C14.6413 14.8275 14.6322 15.0108 14.6233 15.1938C14.5674 15.3763 14.4779 15.541 14.3566 15.6882C14.2787 15.7483 14.201 15.8085 14.1231 15.8686C13.8991 15.9829 13.658 15.9944 13.4125 15.9938C12.0069 15.9915 10.6016 15.9923 9.19597 15.9949C9.1544 15.9949 9.09087 15.9549 9.0676 16.0318C9.0561 16.0922 9.05505 16.1523 9.06838 16.2124C9.05348 16.3873 9.054 16.5623 9.06838 16.7372C9.05505 16.9108 9.05479 17.0844 9.06838 17.258C9.05374 17.4326 9.05374 17.6073 9.06838 17.782C9.05479 17.9556 9.05505 18.1294 9.06838 18.303C9.05374 18.478 9.05374 18.6529 9.06838 18.8275C9.05479 19.0014 9.05479 19.1753 9.06838 19.3491C9.05348 19.524 9.05427 19.699 9.06786 19.8739C9.04904 20.2927 8.72431 20.4878 8.37448 20.3994C8.35277 20.3785 8.32767 20.3657 8.29682 20.3667C8.15668 20.2786 8.00896 20.2051 7.85758 20.1385C7.68972 20.0352 7.51376 19.9473 7.33466 19.8663C7.16367 19.7638 6.9864 19.6741 6.80495 19.5918C6.652 19.5034 6.49669 19.4195 6.3338 19.3502C6.31655 19.3251 6.29014 19.3172 6.26216 19.3123C6.10111 19.2158 5.93377 19.1308 5.76252 19.0534C5.41896 18.8618 5.07097 18.6793 4.7146 18.5125C4.68584 18.4853 4.65263 18.4662 4.61315 18.4594C4.5925 18.4322 4.56348 18.4204 4.5308 18.416C4.45576 18.366 4.37732 18.3229 4.29182 18.2939C4.09129 18.1713 3.88107 18.0669 3.66773 17.9689C3.32705 17.7778 2.97931 17.6002 2.62791 17.4298C2.28122 17.2436 1.93453 17.0569 1.57816 16.8899C1.23696 16.6938 0.885298 16.5178 0.531547 16.346C0.469843 16.3018 0.408139 16.2574 0.346696 16.2132C0.0462822 15.9253 -0.0159446 15.5596 0.00314178 15.1669Z" fill="white"/>
<path d="M20.8908 6.75256C20.894 6.76904 20.8974 6.78577 20.9005 6.80224C20.9 6.8982 20.8992 6.99389 20.8987 7.08984C20.8759 7.16619 20.8534 7.2428 20.8307 7.31914C20.7426 7.53118 20.5708 7.67917 20.4257 7.84729C20.41 7.84755 20.4011 7.85513 20.4001 7.87134C20.2246 8.02821 20.0581 8.19424 19.9015 8.36968C19.8853 8.37046 19.8779 8.37935 19.8774 8.39504C19.7004 8.55008 19.5352 8.71663 19.3791 8.89259C19.3634 8.89285 19.355 8.90069 19.3542 8.91664C19.1791 9.07378 19.012 9.23902 18.8559 9.4155C18.8402 9.41655 18.8324 9.42518 18.8318 9.4406C18.6548 9.59591 18.4896 9.76272 18.3332 9.93842C18.3178 9.93894 18.3095 9.94705 18.3087 9.96247C18.1332 10.1191 17.9659 10.2843 17.8106 10.4613C17.8025 10.4694 17.7941 10.4778 17.786 10.4859C17.6087 10.641 17.4443 10.8088 17.2869 10.9837C17.2712 10.9835 17.2628 10.9908 17.2626 11.0067C17.1078 11.1382 16.935 11.2376 16.741 11.299C16.5653 11.3262 16.3904 11.3257 16.2168 11.2839C15.8201 11.1458 15.5744 10.8739 15.4865 10.4616C15.4768 10.2848 15.4949 10.1107 15.5359 9.93868C15.5702 9.82521 15.6444 9.73291 15.6972 9.62911C15.76 9.5593 15.8227 9.4895 15.8855 9.41969C15.9982 9.30857 16.1106 9.19719 16.2233 9.08607C16.296 9.03352 16.3603 8.97233 16.4126 8.89913C16.5216 8.79167 16.6306 8.68395 16.7397 8.57649C16.8194 8.51766 16.889 8.44864 16.9488 8.36968C17.0495 8.25986 17.1502 8.15005 17.2513 8.03946C17.0845 8.03946 16.913 8.03946 16.7415 8.03946C16.5668 8.02664 16.3919 8.02691 16.2173 8.03946C16.0434 8.02743 15.8695 8.02743 15.6959 8.03946C15.5213 8.02664 15.3464 8.02691 15.1717 8.03946C14.9978 8.02743 14.824 8.02743 14.6504 8.03946C14.4757 8.02664 14.3008 8.02691 14.1261 8.03946C13.9523 8.02743 13.7784 8.02743 13.6048 8.03946C13.4301 8.02664 13.2552 8.02691 13.0806 8.03946C12.9067 8.02743 12.7331 8.02743 12.5592 8.03946C12.3843 8.02691 12.2097 8.02691 12.0347 8.03946C11.8611 8.02638 11.6875 8.02952 11.5139 8.03789C11.3346 8.02481 11.1612 7.98664 10.997 7.91213C10.9607 7.89016 10.9243 7.8682 10.8877 7.84624C10.5361 7.5521 10.3972 7.17429 10.4474 6.72276C10.4571 6.677 10.4671 6.63125 10.4767 6.58576C10.5241 6.48326 10.5714 6.38077 10.6187 6.27828C10.7201 6.13945 10.8438 6.02441 10.9892 5.93237C11.1581 5.8623 11.3286 5.80531 11.5163 5.80557C13.3907 5.80766 15.2653 5.80714 17.1397 5.80635C17.1807 5.80635 17.2249 5.82021 17.2783 5.78439C17.0994 5.60346 16.9308 5.42044 16.742 5.25703C16.7337 5.24866 16.7255 5.24056 16.7172 5.23219C16.5606 5.05728 16.3956 4.89073 16.2181 4.73699C16.2092 4.7281 16.2003 4.71948 16.1914 4.71059C16.0267 4.54325 15.8622 4.37592 15.6975 4.20885C15.6912 4.20022 15.6852 4.19186 15.6789 4.18323C15.5814 4.02269 15.5231 3.84725 15.4847 3.6645C15.4852 3.61717 15.4839 3.56959 15.4865 3.52253C15.4938 3.39389 15.4713 3.25976 15.5558 3.14524C15.7009 2.85189 15.9357 2.66625 16.2453 2.56951C16.4016 2.54442 16.5582 2.54572 16.7148 2.56638C16.9522 2.63776 17.1585 2.75855 17.3293 2.94078C17.415 3.03229 17.5094 3.11518 17.6001 3.20224C17.6349 3.25139 17.6762 3.29454 17.7264 3.32826C17.8501 3.46893 17.9803 3.60279 18.1236 3.72359C18.1562 3.77562 18.1991 3.81719 18.2504 3.85065C18.3714 3.99367 18.5053 4.12414 18.6459 4.24755C18.688 4.28964 18.7299 4.33173 18.772 4.37383C18.8959 4.51397 19.0266 4.64757 19.1694 4.76889C19.2018 4.82118 19.246 4.86171 19.2962 4.89596C19.4172 5.03898 19.5511 5.16918 19.6915 5.29285C19.7273 5.34122 19.7671 5.38593 19.8186 5.41887C20.0408 5.64503 20.2584 5.8759 20.4866 6.09605C20.6793 6.2822 20.826 6.49085 20.8908 6.75256Z" fill="white"/>
</svg>
