<svg width="16" height="13" viewBox="0 0 16 13" fill="none" xmlns="http://www.w3.org/2000/svg">
<path d="M14.0764 6.57306C13.201 6.57306 12.4115 6.56813 11.6219 6.57503C10.998 6.57996 10.8122 6.76339 10.8031 7.37187C10.7981 7.74959 10.7971 8.12828 10.8062 8.506C10.8183 9.04051 11.0303 9.25353 11.5745 9.25945C12.3812 9.26734 13.1879 9.26142 14.0016 9.26142C14.0016 10.1164 14.0905 10.9547 13.9754 11.7663C13.8704 12.5099 13.1172 12.9902 12.2933 12.9922C8.78993 13.0011 5.28652 13.003 1.7831 12.9912C0.778516 12.9873 0.0192745 12.2476 0.0122071 11.2713C-0.00394697 9.0346 -0.00394697 6.79889 0.0122071 4.56221C0.0192745 3.57602 0.773468 2.84623 1.78108 2.84327C5.2845 2.83341 8.78791 2.8344 12.2913 2.84327C13.3131 2.84525 14.0481 3.55333 14.0743 4.54249C14.0905 5.19633 14.0764 5.85215 14.0764 6.57306Z" fill="white" fill-opacity="0.8"/>
<path d="M12.8989 2.62038C12.7232 2.62038 12.5758 2.61052 12.4294 2.62235C12.0619 2.65095 11.9468 2.50697 11.9498 2.13714C11.9559 1.16772 11.5136 0.8403 10.5545 1.01486C7.72955 1.52866 4.90561 2.04247 2.07764 2.53852C1.30931 2.67265 0.558145 2.80578 0.0351562 3.54839C0.0927052 2.58093 0.718676 1.86693 1.70912 1.68152C4.7784 1.10854 7.85171 0.557262 10.9281 0.0227454C11.6085 -0.0955978 12.1295 0.258446 12.5162 0.783101C12.9221 1.3334 12.9746 1.95963 12.8989 2.62038Z" fill="white" fill-opacity="0.8"/>
<path d="M13.0971 9.03944C12.5933 9.03944 12.0895 9.03747 11.5857 9.04043C11.2142 9.0424 11.0234 8.87475 11.0274 8.50394C11.0314 8.11045 11.0304 7.71696 11.0284 7.32347C11.0264 6.9566 11.2061 6.78895 11.5867 6.79191C12.5944 6.7998 13.602 6.80177 14.6106 6.79289C14.9922 6.78994 15.1699 6.95364 15.1669 7.32248C15.1628 7.71597 15.1618 8.10946 15.1659 8.50295C15.1699 8.87179 14.9872 9.0424 14.6106 9.03747C14.1068 9.03155 13.603 9.0355 13.0992 9.0355C13.0971 9.03648 13.0971 9.03846 13.0971 9.03944ZM13.8645 7.42406C13.6848 7.64299 13.4788 7.79191 13.502 7.88856C13.5373 8.03451 13.7322 8.14398 13.8594 8.26824C13.9755 8.14891 14.1674 8.03944 14.1845 7.90828C14.1997 7.79092 14.023 7.6499 13.8645 7.42406Z" fill="white" fill-opacity="0.8"/>
</svg>
