<svg width="100" height="32" viewBox="0 0 100 32" fill="none" xmlns="http://www.w3.org/2000/svg">
<g clip-path="url(#clip0_258_1912)">
<path d="M91.6879 15.3386H88.1497C85.8721 15.3386 84.6518 17.1484 84.6518 20.1642V31.0665H77.9414V15.3375H75.0937C72.8161 15.3375 71.5968 17.1473 71.5968 20.1631V31.0654H64.8854V9.52115H71.5968V12.7962C72.6955 10.2538 74.2002 9.52115 76.4377 9.52115H84.6528V12.7962C85.7515 10.2538 87.2562 9.52115 89.4937 9.52115H91.6889L91.6879 15.3386ZM63.4208 21.974H49.4301C49.7959 24.3874 51.2192 25.7663 53.6185 25.7663C55.4077 25.7663 56.6692 24.9899 57.0763 23.6121L63.0137 25.3781C61.5502 29.1266 57.9297 31.4109 53.6185 31.4109C46.3382 31.4109 43.0031 25.4207 43.0031 20.2944C43.0031 15.2533 45.9311 9.22044 53.2114 9.22044C60.9391 9.22044 63.5012 15.3386 63.5012 19.8635C63.5063 20.568 63.4795 21.2723 63.4208 21.974ZM56.9135 17.7946C56.7506 15.9411 55.4891 14.2189 53.2125 14.2189C51.0966 14.2189 49.8372 15.2085 49.4301 17.7946H56.9135ZM31.291 31.0654H37.1872L44.549 9.52334H37.7984L34.219 22.0604L30.5582 9.52225H23.8468L31.291 31.0654ZM3.7969 31.0654H10.4671V15.3386H16.8137V31.0665H23.4428V9.52225H10.4671V8.18707C10.4671 6.72178 11.4431 5.81745 12.9891 5.81745H16.8127V0H11.8915C7.0506 0 3.7969 3.14601 3.7969 7.75514V9.52225H0.0144958V15.3397H3.7969V31.0654Z" fill="white"/>
<path d="M95.8372 31.7116C98.1283 31.7116 99.9855 29.7433 99.9855 27.3157C99.9855 24.8881 98.1283 22.9209 95.8372 22.9209C93.5462 22.9209 91.6879 24.8892 91.6879 27.3168C91.6879 29.7444 93.5462 31.7116 95.8372 31.7116Z" fill="#1DBF73"/>
</g>
<defs>
<clipPath id="clip0_258_1912">
<rect width="100" height="32" fill="white"/>
</clipPath>
</defs>
</svg>
