<svg width="124" height="32" viewBox="0 0 124 32" fill="none" xmlns="http://www.w3.org/2000/svg">
<g clip-path="url(#clip0_258_1903)">
<path d="M17.0326 4.80264L0 3.79572L11.1005 16.4481L17.0326 4.80264ZM8.51136 3.45305L16.368 4.04876L6.63152 0L8.51136 3.45305ZM18.347 4.04876L22.5333 0L25.3555 4.30181L18.347 4.04876ZM17.8758 4.85008L11.7106 16.9489L17.3104 23.4965L23.6096 17.2494L25.3506 5.25074L17.8758 4.85008ZM12.0429 18.8468L9.0768 32L16.7896 24.1977L12.0429 18.8468ZM23.4261 0.200329L26.4368 4.30181L40.4091 0.200329H23.4261Z" fill="#29B2FE"/>
<path d="M36.5155 7.64941C36.5205 8.66688 36.461 9.67907 36.337 10.686C35.3499 10.7229 34.1149 10.3433 34.1496 12.1463C35.6674 12.1094 36.0741 12.1463 36.0741 12.1463C36.0741 12.1463 36.0046 15.3357 33.7429 15.2145C32.9294 20.0909 32.1557 24.3664 32.1557 24.3664H28.5349L30.509 10.7282C30.509 10.7282 30.9653 7.95518 33.3312 7.65996L36.5155 7.64941ZM34.9283 24.3769L36.833 11.9301H40.1512L40.4091 12.8685C40.4091 12.8685 41.2424 11.6296 43.7472 11.9301C43.147 14.9667 43.0429 15.4201 43.0429 15.4201C43.0429 15.4201 40.2901 15.1196 40.0768 16.058C39.8635 16.9964 38.7723 24.3822 38.7723 24.3822L34.9283 24.3769ZM64.3163 14.1759C63.5773 12.7525 62.2331 11.4504 59.0587 11.8774C55.8843 12.3044 53.6077 15.6257 53.7664 20.1331C54.0888 23.8814 56.5936 24.5456 57.4715 24.6721C63.4334 25.4207 63.5078 22.1206 63.5426 20.8817C62.3075 20.8817 61.7272 20.9081 61.2114 20.9186C61.0626 21.4352 58.647 21.1822 58.647 21.1822C58.647 21.1822 57.7294 21.1084 57.66 19.3845H64.3312C64.3262 19.3845 65.0603 15.6046 64.3163 14.1759ZM60.8939 17.2125C60.2243 17.2863 57.9675 17.2125 57.9675 17.2125C58.8504 13.5011 61.2808 15.1143 60.8939 17.2125ZM111.168 14.1759C110.429 12.7525 109.085 11.4504 105.911 11.8774C102.736 12.3044 100.46 15.6257 100.619 20.1331C100.941 23.8814 103.446 24.5456 104.324 24.6721C110.286 25.4207 110.36 22.1206 110.395 20.8817C109.16 20.8817 108.579 20.9081 108.064 20.9186C107.915 21.4352 105.499 21.1822 105.499 21.1822C105.499 21.1822 104.582 21.1084 104.512 19.3845H111.173C111.168 19.3845 111.893 15.6046 111.168 14.1759ZM107.746 17.2125C107.076 17.2863 104.82 17.2125 104.82 17.2125C105.688 13.5011 108.123 15.1143 107.731 17.2125H107.746Z" fill="white"/>
<path d="M53.4291 14.176C52.6901 12.7526 51.3459 11.4504 48.1715 11.8775C44.9971 12.3045 42.7205 15.6257 42.8792 20.1331C43.2016 23.8814 45.7064 24.5457 46.5843 24.6722C52.5462 25.4208 52.6206 22.1206 52.6554 20.8817C51.4203 20.8817 50.84 20.9081 50.3242 20.9186C50.1754 21.4353 47.7598 21.1822 47.7598 21.1822C47.7598 21.1822 46.8422 21.1084 46.7728 19.3845H53.4341C53.4291 19.3845 54.1731 15.6046 53.4291 14.176ZM50.0018 17.2126C49.3322 17.2864 47.0754 17.2126 47.0754 17.2126C47.9731 13.5012 50.3936 15.1144 50.0018 17.2126ZM66.8211 7.94995L64.3858 24.3717H68.2694L70.8784 7.94995H66.8211ZM79.8411 24.377L81.8152 11.8827H85.2723V12.8369C85.2723 12.8369 86.4726 11.4504 89.647 11.8827C92.8214 12.3098 91.2342 18.3038 91.2342 18.3038L90.3861 24.3875H86.5768C86.5768 24.3875 87.4597 18.2511 87.6333 16.6221C87.4547 14.7822 85.4112 14.8613 84.9152 16.174C84.6672 17.7872 83.5413 24.3875 83.5413 24.3875L79.8411 24.377ZM97.0226 15.4518H100.514L100.837 13.0162C100.837 13.0162 101.258 11.8933 99.7803 11.8722C98.3022 11.8511 96.0752 11.8722 96.0752 11.8722C96.0752 11.8722 91.7352 12.5259 91.9832 21.5671C92.2114 23.1803 93.367 24.4719 94.8699 24.7882C95.1923 24.862 97.4342 24.7882 97.4342 24.7882C97.4342 24.7882 99.939 24.4455 99.5869 21.1137C96.9779 21.1875 95.8818 21.3035 95.7379 20.5127C95.5891 19.7272 96.0355 15.7523 97.0226 15.4518ZM112.051 16.0475L116.615 11.8669L114.874 24.377H111.02L112.051 16.0475Z" fill="white"/>
<path d="M117.557 11.8669L116.897 16.3479L124 11.7983L117.557 11.8669Z" fill="#29B2FE"/>
<path d="M77.5843 11.8775C74.6579 11.8511 73.9834 11.9038 72.8922 11.8775C71.796 11.8511 71.057 13.5803 71.1264 15.4149H75.6152C75.6152 15.4149 76.0715 15.3411 76.1112 15.7575C76.131 16.1582 76.131 16.5589 76.1112 16.9595H72.8574C72.8574 16.9595 68.2694 17.4076 69.7178 23.2963C70.0005 24.1977 71.4091 24.8251 72.1878 24.7935C72.9666 24.7618 74.9059 24.008 75.2234 23.7075L75.2581 24.4192L78.7152 24.3823C78.7152 24.3823 79.8808 16.6959 80.0197 16.058C80.1586 15.4202 80.4066 12.9582 77.5843 11.8775ZM74.5587 21.6515C73.1947 21.6515 73.0062 20.2491 74.0925 19.5005C75.1738 18.9997 75.8334 19.3002 75.8334 19.3002C75.8334 19.3002 75.883 21.7042 74.5587 21.6515Z" fill="white"/>
</g>
<defs>
<clipPath id="clip0_258_1903">
<rect width="124" height="32" fill="white"/>
</clipPath>
</defs>
</svg>
