<svg width="101" height="32" viewBox="0 0 101 32" fill="none" xmlns="http://www.w3.org/2000/svg">
<g clip-path="url(#clip0_258_1909)">
<path d="M27.6404 20.2099C25.9992 20.2099 24.4612 19.473 23.0639 18.2736L23.4042 16.5803L23.419 16.5175C23.7219 14.7147 24.6831 11.6885 27.6404 11.6885C29.8583 11.6885 31.6623 13.6014 31.6623 15.953C31.6548 18.297 29.851 20.2099 27.6404 20.2099ZM27.6404 7.3691C23.8624 7.3691 20.9348 9.97176 19.7446 14.252C17.9258 11.3593 16.5506 7.88653 15.7449 4.9624H11.6786V16.1804C11.6786 18.3911 9.97816 20.194 7.89326 20.194C5.80836 20.194 4.10809 18.3911 4.10809 16.1804V4.9624H0.0414435V16.1804C0.0266499 20.7744 3.55323 24.5449 7.88556 24.5449C12.2181 24.5449 15.7447 20.7744 15.7447 16.1804V14.2991C16.5356 16.0472 17.5041 17.8109 18.6797 19.3789L16.1881 31.7962H20.3506L22.1544 22.7889C23.7365 23.8629 25.5554 24.5372 27.6403 24.5372C32.0982 24.5372 35.7284 20.6646 35.7284 15.9374C35.7284 11.2181 32.0984 7.3691 27.6404 7.3691Z" fill="#6FDA44"/>
<path d="M48.1415 7.85518L50.7661 19.0732L53.6569 7.85518H57.1021L52.6589 24.0668H49.2135L46.4856 12.7782L43.7648 24.0589H40.3197L35.8761 7.84744H39.3214L42.2121 19.0654L44.8366 7.84744H48.1413V7.85539L48.1415 7.85518ZM65.3454 7.36912C60.8726 7.36912 57.25 11.2181 57.25 15.9531C57.25 20.696 60.8799 24.5372 65.3454 24.5372C69.8184 24.5372 73.4483 20.696 73.4483 15.9531C73.4483 11.2104 69.8184 7.36912 65.3454 7.36912ZM65.3454 21.0095C62.7135 21.0095 60.5842 18.7517 60.5842 15.961C60.5842 13.1701 62.7208 10.9125 65.3454 10.9125C67.9775 10.9125 70.1065 13.1701 70.1065 15.961C70.1065 18.744 67.9775 21.0095 65.3454 21.0095ZM83.2886 11.4848C80.9747 11.4848 79.1042 13.4759 79.1042 15.9217V24.0589H75.6366V7.85518H79.1042V10.348C79.1042 10.348 80.5827 7.84723 83.6213 7.84723H84.6859V11.4848H83.2886ZM94.9255 15.326C97.3872 13.8521 99.0583 11.0535 99.0583 7.84723H95.5907C95.5907 10.5518 93.5208 12.7468 90.9702 12.7468H90.5043V0.0314941H87.0371V24.0587H90.5043V16.4234H90.9185C91.2585 16.4234 91.7021 16.6587 91.9018 16.9486L96.8254 24.0589H100.98L94.9255 15.326Z" fill="white"/>
</g>
<defs>
<clipPath id="clip0_258_1909">
<rect width="101" height="32" fill="white"/>
</clipPath>
</defs>
</svg>
